M48
;DRILL file {KiCad (2016-09-07 BZR 7135, Git c8cf783)-product} date Sat Feb  4 03:26:59 2017
;FORMAT={-:-/ absolute / inch / decimal}
FMAT,2
INCH,TZ
T1C0.016
T2C0.031
T3C0.039
%
G90
G05
M72
T1
X2.1702Y-4.1822
X2.2114Y-2.7597
X2.2688Y-1.0867
X2.4445Y-3.1925
X2.5249Y-3.1823
X2.6571Y-3.0517
X2.6876Y-1.6335
X2.6972Y-4.1705
X2.7132Y-2.83
X2.7367Y-3.8623
X2.8055Y-1.9093
X2.8555Y-4.386
X2.8723Y-1.7587
X2.9399Y-1.3135
X2.9612Y-1.7172
X2.9645Y-2.4743
X2.9943Y-1.5678
X3.0072Y-4.4628
X3.2531Y-3.2386
X3.2562Y-4.453
X3.2669Y-3.0381
X3.2669Y-3.1874
X3.2698Y-1.6274
X3.2969Y-2.3997
X3.3017Y-3.7248
X3.3163Y-1.6324
X3.3447Y-3.1949
X3.3579Y-2.6521
X3.4353Y-2.3146
X3.4511Y-1.3368
X3.4679Y-2.0872
X3.4753Y-1.3998
X3.4893Y-2.7575
X3.4996Y-2.6952
X3.6113Y-2.382
X3.6357Y-1.4376
X3.7459Y-2.3874
X3.7889Y-2.7518
X3.8283Y-2.4743
X3.8512Y-1.8055
X3.8904Y-2.4703
X3.9166Y-2.7401
X3.9304Y-1.5892
X3.9425Y-1.3607
X4.0472Y-3.1149
X4.0643Y-1.6088
X4.0887Y-2.105
X4.1326Y-4.3526
X4.2105Y-2.7558
X4.2279Y-3.0132
X4.2349Y-3.8621
X4.3151Y-2.7912
X4.3181Y-1.9965
X4.3726Y-1.9955
X4.376Y-1.6812
X4.3939Y-1.8039
X4.4067Y-4.1246
X4.4117Y-2.8415
X4.4197Y-3.8003
X4.4289Y-2.7336
X4.455Y-1.6555
X4.56Y-3.3974
X4.6708Y-1.6547
X4.7361Y-2.6962
X4.7405Y-2.1458
X4.7672Y-1.3543
X4.87Y-1.7839
X4.9341Y-2.3587
X4.9596Y-3.5068
X4.9828Y-3.4129
X5.022Y-1.9912
X5.1799Y-3.5068
X5.1891Y-3.1182
X5.2152Y-2.6654
X5.2454Y-1.6906
X5.4898Y-3.6923
X5.5443Y-2.7714
X5.6017Y-0.9412
X5.6394Y-3.3855
X5.6447Y-3.1047
X5.6748Y-2.4216
X5.6858Y-2.5591
X5.6866Y-3.7274
X5.7387Y-0.9679
X5.786Y-2.9684
X5.8099Y-2.3525
X5.8327Y-1.1239
X5.9742Y-2.7937
X5.977Y-3.6259
X6.0684Y-1.056
X6.0733Y-1.1239
X6.1096Y-4.2704
X6.1298Y-2.0248
X6.2646Y-3.4584
X6.3001Y-2.5101
X6.4273Y-3.1522
X6.5745Y-1.3427
X6.5784Y-2.1013
X6.6176Y-3.8058
X6.7154Y-2.528
X6.7195Y-3.8781
X6.7241Y-3.4136
X6.7372Y-2.7875
X6.7777Y-2.5594
X6.8304Y-2.7875
X7.1539Y-3.1769
T2
X1.8789Y-1.8947
X1.8789Y-1.9931
X1.8789Y-3.9902
X1.8789Y-4.0886
X1.8819Y-1.19
X1.8819Y-1.2884
X1.8848Y-2.5974
X1.8848Y-2.6959
X1.8917Y-3.2943
X1.8917Y-3.3927
X2.0113Y-1.1961
X2.0113Y-1.4961
X2.0113Y-1.894
X2.0113Y-2.194
X2.012Y-3.9911
X2.012Y-4.2911
X2.0159Y-2.594
X2.0159Y-2.894
X2.0228Y-3.298
X2.0228Y-3.598
X2.1113Y-1.1961
X2.1113Y-1.4961
X2.1113Y-1.894
X2.1113Y-2.194
X2.112Y-3.9911
X2.112Y-4.2911
X2.1159Y-2.594
X2.1159Y-2.894
X2.1228Y-3.298
X2.1228Y-3.598
X2.2113Y-1.1961
X2.2113Y-1.4961
X2.2113Y-1.894
X2.2113Y-2.194
X2.212Y-3.9911
X2.212Y-4.2911
X2.2159Y-2.594
X2.2159Y-2.894
X2.2228Y-3.298
X2.2228Y-3.598
X2.3113Y-1.1961
X2.3113Y-1.4961
X2.3113Y-1.894
X2.3113Y-2.194
X2.312Y-3.9911
X2.312Y-4.2911
X2.3159Y-2.594
X2.3159Y-2.894
X2.3228Y-3.298
X2.3228Y-3.598
X2.4113Y-1.1961
X2.4113Y-1.4961
X2.4113Y-1.894
X2.4113Y-2.194
X2.412Y-3.9911
X2.412Y-4.2911
X2.4159Y-2.594
X2.4159Y-2.894
X2.4228Y-3.298
X2.4228Y-3.598
X2.5113Y-1.1961
X2.5113Y-1.4961
X2.5113Y-1.894
X2.5113Y-2.194
X2.512Y-3.9911
X2.512Y-4.2911
X2.5159Y-2.594
X2.5159Y-2.894
X2.5228Y-3.298
X2.5228Y-3.598
X2.6113Y-1.1961
X2.6113Y-1.4961
X2.6113Y-1.894
X2.6113Y-2.194
X2.612Y-3.9911
X2.612Y-4.2911
X2.6159Y-2.594
X2.6159Y-2.894
X2.6228Y-3.298
X2.6228Y-3.598
X2.8642Y-1.8986
X2.8642Y-1.997
X2.8652Y-1.1949
X2.8652Y-1.2933
X2.8661Y-3.3012
X2.8661Y-3.3996
X2.8671Y-2.6014
X2.8671Y-2.6998
X2.8701Y-3.9931
X2.8701Y-4.0915
X2.9957Y-1.1961
X2.9957Y-1.4961
X2.9957Y-1.8961
X2.9957Y-2.1961
X2.9957Y-3.298
X2.9957Y-3.598
X3.Y-3.9911
X3.Y-4.2911
X3.001Y-2.6014
X3.001Y-2.9014
X3.0957Y-1.1961
X3.0957Y-1.4961
X3.0957Y-1.8961
X3.0957Y-2.1961
X3.0957Y-3.298
X3.0957Y-3.598
X3.1Y-3.9911
X3.1Y-4.2911
X3.101Y-2.6014
X3.101Y-2.9014
X3.1957Y-1.1961
X3.1957Y-1.4961
X3.1957Y-1.8961
X3.1957Y-2.1961
X3.1957Y-3.298
X3.1957Y-3.598
X3.2Y-3.9911
X3.2Y-4.2911
X3.201Y-2.6014
X3.201Y-2.9014
X3.2957Y-1.1961
X3.2957Y-1.4961
X3.2957Y-1.8961
X3.2957Y-2.1961
X3.2957Y-3.298
X3.2957Y-3.598
X3.3Y-3.9911
X3.3Y-4.2911
X3.301Y-2.6014
X3.301Y-2.9014
X3.3957Y-1.1961
X3.3957Y-1.4961
X3.3957Y-1.8961
X3.3957Y-2.1961
X3.3957Y-3.298
X3.3957Y-3.598
X3.4Y-3.9911
X3.4Y-4.2911
X3.401Y-2.6014
X3.401Y-2.9014
X3.4957Y-1.1961
X3.4957Y-1.4961
X3.4957Y-1.8961
X3.4957Y-2.1961
X3.4957Y-3.298
X3.4957Y-3.598
X3.5Y-3.9911
X3.5Y-4.2911
X3.501Y-2.6014
X3.501Y-2.9014
X3.5957Y-1.1961
X3.5957Y-1.4961
X3.5957Y-1.8961
X3.5957Y-2.1961
X3.5957Y-3.298
X3.5957Y-3.598
X3.6Y-3.9911
X3.6Y-4.2911
X3.601Y-2.6014
X3.601Y-2.9014
X3.8346Y-1.8967
X3.8346Y-1.9951
X3.8346Y-2.5955
X3.8346Y-2.6939
X3.8366Y-3.997
X3.8366Y-4.0955
X3.8406Y-1.1978
X3.8406Y-1.2963
X3.8435Y-3.3002
X3.8435Y-3.3986
X3.9686Y-1.8968
X3.9686Y-2.1968
X3.9686Y-2.5945
X3.9686Y-2.8945
X3.969Y-3.9911
X3.969Y-4.2911
X3.9709Y-1.1951
X3.9709Y-1.4951
X3.9729Y-3.298
X3.9729Y-3.598
X4.0686Y-1.8968
X4.0686Y-2.1968
X4.0686Y-2.5945
X4.0686Y-2.8945
X4.069Y-3.9911
X4.069Y-4.2911
X4.0709Y-1.1951
X4.0709Y-1.4951
X4.0729Y-3.298
X4.0729Y-3.598
X4.1686Y-1.8968
X4.1686Y-2.1968
X4.1686Y-2.5945
X4.1686Y-2.8945
X4.169Y-3.9911
X4.169Y-4.2911
X4.1709Y-1.1951
X4.1709Y-1.4951
X4.1729Y-3.298
X4.1729Y-3.598
X4.2686Y-1.8968
X4.2686Y-2.1968
X4.2686Y-2.5945
X4.2686Y-2.8945
X4.269Y-3.9911
X4.269Y-4.2911
X4.2709Y-1.1951
X4.2709Y-1.4951
X4.2729Y-3.298
X4.2729Y-3.598
X4.3686Y-1.8968
X4.3686Y-2.1968
X4.3686Y-2.5945
X4.3686Y-2.8945
X4.369Y-3.9911
X4.369Y-4.2911
X4.3709Y-1.1951
X4.3709Y-1.4951
X4.3729Y-3.298
X4.3729Y-3.598
X4.4686Y-1.8968
X4.4686Y-2.1968
X4.4686Y-2.5945
X4.4686Y-2.8945
X4.469Y-3.9911
X4.469Y-4.2911
X4.4709Y-1.1951
X4.4709Y-1.4951
X4.4729Y-3.298
X4.4729Y-3.598
X4.5686Y-1.8968
X4.5686Y-2.1968
X4.5686Y-2.5945
X4.5686Y-2.8945
X4.569Y-3.9911
X4.569Y-4.2911
X4.5709Y-1.1951
X4.5709Y-1.4951
X4.5729Y-3.298
X4.5729Y-3.598
X4.8356Y-2.6004
X4.8356Y-2.6988
X4.8396Y-3.3031
X4.8396Y-3.4016
X4.8425Y-1.2028
X4.8425Y-1.3012
X4.8465Y-1.9016
X4.8465Y-2.
X4.9698Y-2.5976
X4.9698Y-2.8976
X4.9698Y-3.298
X4.9698Y-3.598
X4.9741Y-1.198
X4.9741Y-1.498
X4.978Y-1.9003
X4.978Y-2.2003
X5.0698Y-2.5976
X5.0698Y-2.8976
X5.0698Y-3.298
X5.0698Y-3.598
X5.0741Y-1.198
X5.0741Y-1.498
X5.078Y-1.9003
X5.078Y-2.2003
X5.1698Y-2.5976
X5.1698Y-2.8976
X5.1698Y-3.298
X5.1698Y-3.598
X5.1741Y-1.198
X5.1741Y-1.498
X5.178Y-1.9003
X5.178Y-2.2003
X5.2698Y-2.5976
X5.2698Y-2.8976
X5.2698Y-3.298
X5.2698Y-3.598
X5.2741Y-1.198
X5.2741Y-1.498
X5.278Y-1.9003
X5.278Y-2.2003
X5.3698Y-2.5976
X5.3698Y-2.8976
X5.3698Y-3.298
X5.3698Y-3.598
X5.3741Y-1.198
X5.3741Y-1.498
X5.378Y-1.9003
X5.378Y-2.2003
X5.4698Y-2.5976
X5.4698Y-2.8976
X5.4698Y-3.298
X5.4698Y-3.598
X5.4741Y-1.198
X5.4741Y-1.498
X5.478Y-1.9003
X5.478Y-2.2003
X5.5698Y-2.5976
X5.5698Y-2.8976
X5.5698Y-3.298
X5.5698Y-3.598
X5.5741Y-1.198
X5.5741Y-1.498
X5.578Y-1.9003
X5.578Y-2.2003
X5.8327Y-1.9045
X5.8327Y-2.003
X5.8356Y-1.1988
X5.8356Y-1.2972
X5.9616Y-1.9003
X5.9616Y-2.2003
X5.963Y-1.202
X5.963Y-1.502
X6.0616Y-1.9003
X6.0616Y-2.2003
X6.063Y-1.202
X6.063Y-1.502
X6.1616Y-1.9003
X6.1616Y-2.2003
X6.163Y-1.202
X6.163Y-1.502
X6.2616Y-1.9003
X6.2616Y-2.2003
X6.263Y-1.202
X6.263Y-1.502
X6.3616Y-1.9003
X6.3616Y-2.2003
X6.363Y-1.202
X6.363Y-1.502
X6.4616Y-1.9003
X6.4616Y-2.2003
X6.463Y-1.202
X6.463Y-1.502
X6.5616Y-1.9003
X6.5616Y-2.2003
X6.563Y-1.202
X6.563Y-1.502
T3
X7.0138Y-1.0343
X7.0138Y-1.1343
X7.0138Y-1.2343
X7.0138Y-1.3343
X7.0138Y-1.4343
X7.0138Y-1.5343
X7.0138Y-1.6343
X7.0138Y-1.7343
X7.0138Y-1.8343
X7.0138Y-1.9343
X7.0138Y-2.0343
X7.0138Y-2.1343
X7.0138Y-2.2343
X7.0138Y-2.3343
X7.0138Y-2.4343
X7.0138Y-2.5343
X7.0138Y-2.6343
X7.0138Y-2.7343
X7.0138Y-2.8343
X7.0138Y-2.9343
X7.0138Y-3.0343
X7.0138Y-3.1343
X7.0138Y-3.2343
X7.0138Y-3.3343
X7.0138Y-3.4343
X7.0138Y-3.5343
X7.0138Y-3.6343
X7.0138Y-3.7343
X7.0138Y-3.8343
X7.0138Y-3.9343
X7.0138Y-4.0343
X7.0138Y-4.1343
X7.0138Y-4.2343
X7.0138Y-4.3343
X7.0138Y-4.4343
X7.1138Y-1.0343
X7.1138Y-1.1343
X7.1138Y-1.2343
X7.1138Y-1.3343
X7.1138Y-1.4343
X7.1138Y-1.5343
X7.1138Y-1.6343
X7.1138Y-1.7343
X7.1138Y-1.8343
X7.1138Y-1.9343
X7.1138Y-2.0343
X7.1138Y-2.1343
X7.1138Y-2.2343
X7.1138Y-2.3343
X7.1138Y-2.4343
X7.1138Y-2.5343
X7.1138Y-2.6343
X7.1138Y-2.7343
X7.1138Y-2.8343
X7.1138Y-2.9343
X7.1138Y-3.0343
X7.1138Y-3.1343
X7.1138Y-3.2343
X7.1138Y-3.3343
X7.1138Y-3.4343
X7.1138Y-3.5343
X7.1138Y-3.6343
X7.1138Y-3.7343
X7.1138Y-3.8343
X7.1138Y-3.9343
X7.1138Y-4.0343
X7.1138Y-4.1343
X7.1138Y-4.2343
X7.1138Y-4.3343
X7.1138Y-4.4343
T0
M30
