G04 #@! TF.FileFunction,Copper,L1,Top,Signal*
%FSLAX46Y46*%
G04 Gerber Fmt 4.6, Leading zero omitted, Abs format (unit mm)*
G04 Created by KiCad (PCBNEW (2016-09-07 BZR 7135, Git c8cf783)-product) date Sat Feb  4 03:26:47 2017*
%MOMM*%
%LPD*%
G01*
G04 APERTURE LIST*
%ADD10C,0.100000*%
%ADD11R,1.600000X2.400000*%
%ADD12O,1.600000X2.400000*%
%ADD13R,1.700000X1.700000*%
%ADD14O,1.700000X1.700000*%
%ADD15C,1.600000*%
%ADD16C,0.800000*%
%ADD17C,0.250000*%
%ADD18C,0.254000*%
G04 APERTURE END LIST*
D10*
D11*
X51086900Y-38000000D03*
D12*
X66326900Y-30380000D03*
X53626900Y-38000000D03*
X63786900Y-30380000D03*
X56166900Y-38000000D03*
X61246900Y-30380000D03*
X58706900Y-38000000D03*
X58706900Y-30380000D03*
X61246900Y-38000000D03*
X56166900Y-30380000D03*
X63786900Y-38000000D03*
X53626900Y-30380000D03*
X66326900Y-38000000D03*
X51086900Y-30380000D03*
D11*
X76091100Y-38000000D03*
D12*
X91331100Y-30380000D03*
X78631100Y-38000000D03*
X88791100Y-30380000D03*
X81171100Y-38000000D03*
X86251100Y-30380000D03*
X83711100Y-38000000D03*
X83711100Y-30380000D03*
X86251100Y-38000000D03*
X81171100Y-30380000D03*
X88791100Y-38000000D03*
X78631100Y-30380000D03*
X91331100Y-38000000D03*
X76091100Y-30380000D03*
D11*
X100862000Y-37975000D03*
D12*
X116102000Y-30355000D03*
X103402000Y-37975000D03*
X113562000Y-30355000D03*
X105942000Y-37975000D03*
X111022000Y-30355000D03*
X108482000Y-37975000D03*
X108482000Y-30355000D03*
X111022000Y-37975000D03*
X105942000Y-30355000D03*
X113562000Y-37975000D03*
X103402000Y-30355000D03*
X116102000Y-37975000D03*
X100862000Y-30355000D03*
D11*
X126342000Y-38050000D03*
D12*
X141582000Y-30430000D03*
X128882000Y-38050000D03*
X139042000Y-30430000D03*
X131422000Y-38050000D03*
X136502000Y-30430000D03*
X133962000Y-38050000D03*
X133962000Y-30430000D03*
X136502000Y-38050000D03*
X131422000Y-30430000D03*
X139042000Y-38050000D03*
X128882000Y-30430000D03*
X141582000Y-38050000D03*
X126342000Y-30430000D03*
D11*
X151461000Y-38150000D03*
D12*
X166701000Y-30530000D03*
X154001000Y-38150000D03*
X164161000Y-30530000D03*
X156541000Y-38150000D03*
X161621000Y-30530000D03*
X159081000Y-38150000D03*
X159081000Y-30530000D03*
X161621000Y-38150000D03*
X156541000Y-30530000D03*
X164161000Y-38150000D03*
X154001000Y-30530000D03*
X166701000Y-38150000D03*
X151461000Y-30530000D03*
D11*
X51086900Y-55728100D03*
D12*
X66326900Y-48108100D03*
X53626900Y-55728100D03*
X63786900Y-48108100D03*
X56166900Y-55728100D03*
X61246900Y-48108100D03*
X58706900Y-55728100D03*
X58706900Y-48108100D03*
X61246900Y-55728100D03*
X56166900Y-48108100D03*
X63786900Y-55728100D03*
X53626900Y-48108100D03*
X66326900Y-55728100D03*
X51086900Y-48108100D03*
D11*
X76091100Y-55780000D03*
D12*
X91331100Y-48160000D03*
X78631100Y-55780000D03*
X88791100Y-48160000D03*
X81171100Y-55780000D03*
X86251100Y-48160000D03*
X83711100Y-55780000D03*
X83711100Y-48160000D03*
X86251100Y-55780000D03*
X81171100Y-48160000D03*
X88791100Y-55780000D03*
X78631100Y-48160000D03*
X91331100Y-55780000D03*
X76091100Y-48160000D03*
D11*
X100803000Y-55799400D03*
D12*
X116043000Y-48179400D03*
X103343000Y-55799400D03*
X113503000Y-48179400D03*
X105883000Y-55799400D03*
X110963000Y-48179400D03*
X108423000Y-55799400D03*
X108423000Y-48179400D03*
X110963000Y-55799400D03*
X105883000Y-48179400D03*
X113503000Y-55799400D03*
X103343000Y-48179400D03*
X116043000Y-55799400D03*
X100803000Y-48179400D03*
D11*
X126442000Y-55888300D03*
D12*
X141682000Y-48268300D03*
X128982000Y-55888300D03*
X139142000Y-48268300D03*
X131522000Y-55888300D03*
X136602000Y-48268300D03*
X134062000Y-55888300D03*
X134062000Y-48268300D03*
X136602000Y-55888300D03*
X131522000Y-48268300D03*
X139142000Y-55888300D03*
X128982000Y-48268300D03*
X141682000Y-55888300D03*
X126442000Y-48268300D03*
D11*
X151425000Y-55888300D03*
D12*
X166665000Y-48268300D03*
X153965000Y-55888300D03*
X164125000Y-48268300D03*
X156505000Y-55888300D03*
X161585000Y-48268300D03*
X159045000Y-55888300D03*
X159045000Y-48268300D03*
X161585000Y-55888300D03*
X156505000Y-48268300D03*
X164125000Y-55888300D03*
X153965000Y-48268300D03*
X166665000Y-55888300D03*
X151425000Y-48268300D03*
D11*
X51205000Y-73508800D03*
D12*
X66445000Y-65888800D03*
X53745000Y-73508800D03*
X63905000Y-65888800D03*
X56285000Y-73508800D03*
X61365000Y-65888800D03*
X58825000Y-73508800D03*
X58825000Y-65888800D03*
X61365000Y-73508800D03*
X56285000Y-65888800D03*
X63905000Y-73508800D03*
X53745000Y-65888800D03*
X66445000Y-73508800D03*
X51205000Y-65888800D03*
D11*
X76225600Y-73695000D03*
D12*
X91465600Y-66075000D03*
X78765600Y-73695000D03*
X88925600Y-66075000D03*
X81305600Y-73695000D03*
X86385600Y-66075000D03*
X83845600Y-73695000D03*
X83845600Y-66075000D03*
X86385600Y-73695000D03*
X81305600Y-66075000D03*
X88925600Y-73695000D03*
X78765600Y-66075000D03*
X91465600Y-73695000D03*
X76225600Y-66075000D03*
D11*
X100803000Y-73521200D03*
D12*
X116043000Y-65901200D03*
X103343000Y-73521200D03*
X113503000Y-65901200D03*
X105883000Y-73521200D03*
X110963000Y-65901200D03*
X108423000Y-73521200D03*
X108423000Y-65901200D03*
X110963000Y-73521200D03*
X105883000Y-65901200D03*
X113503000Y-73521200D03*
X103343000Y-65901200D03*
X116043000Y-73521200D03*
X100803000Y-65901200D03*
D11*
X126232000Y-73599200D03*
D12*
X141472000Y-65979200D03*
X128772000Y-73599200D03*
X138932000Y-65979200D03*
X131312000Y-73599200D03*
X136392000Y-65979200D03*
X133852000Y-73599200D03*
X133852000Y-65979200D03*
X136392000Y-73599200D03*
X131312000Y-65979200D03*
X138932000Y-73599200D03*
X128772000Y-65979200D03*
X141472000Y-73599200D03*
X126232000Y-65979200D03*
D11*
X51380000Y-91390000D03*
D12*
X66620000Y-83770000D03*
X53920000Y-91390000D03*
X64080000Y-83770000D03*
X56460000Y-91390000D03*
X61540000Y-83770000D03*
X59000000Y-91390000D03*
X59000000Y-83770000D03*
X61540000Y-91390000D03*
X56460000Y-83770000D03*
X64080000Y-91390000D03*
X53920000Y-83770000D03*
X66620000Y-91390000D03*
X51380000Y-83770000D03*
D11*
X76091100Y-91390000D03*
D12*
X91331100Y-83770000D03*
X78631100Y-91390000D03*
X88791100Y-83770000D03*
X81171100Y-91390000D03*
X86251100Y-83770000D03*
X83711100Y-91390000D03*
X83711100Y-83770000D03*
X86251100Y-91390000D03*
X81171100Y-83770000D03*
X88791100Y-91390000D03*
X78631100Y-83770000D03*
X91331100Y-91390000D03*
X76091100Y-83770000D03*
D11*
X100912000Y-91390000D03*
D12*
X116152000Y-83770000D03*
X103452000Y-91390000D03*
X113612000Y-83770000D03*
X105992000Y-91390000D03*
X111072000Y-83770000D03*
X108532000Y-91390000D03*
X108532000Y-83770000D03*
X111072000Y-91390000D03*
X105992000Y-83770000D03*
X113612000Y-91390000D03*
X103452000Y-83770000D03*
X116152000Y-91390000D03*
X100912000Y-83770000D03*
D11*
X126232000Y-91390000D03*
D12*
X141472000Y-83770000D03*
X128772000Y-91390000D03*
X138932000Y-83770000D03*
X131312000Y-91390000D03*
X136392000Y-83770000D03*
X133852000Y-91390000D03*
X133852000Y-83770000D03*
X136392000Y-91390000D03*
X131312000Y-83770000D03*
X138932000Y-91390000D03*
X128772000Y-83770000D03*
X141472000Y-91390000D03*
X126232000Y-83770000D03*
D11*
X51105000Y-108995000D03*
D12*
X66345000Y-101375000D03*
X53645000Y-108995000D03*
X63805000Y-101375000D03*
X56185000Y-108995000D03*
X61265000Y-101375000D03*
X58725000Y-108995000D03*
X58725000Y-101375000D03*
X61265000Y-108995000D03*
X56185000Y-101375000D03*
X63805000Y-108995000D03*
X53645000Y-101375000D03*
X66345000Y-108995000D03*
X51105000Y-101375000D03*
D11*
X76200600Y-108995000D03*
D12*
X91440600Y-101375000D03*
X78740600Y-108995000D03*
X88900600Y-101375000D03*
X81280600Y-108995000D03*
X86360600Y-101375000D03*
X83820600Y-108995000D03*
X83820600Y-101375000D03*
X86360600Y-108995000D03*
X81280600Y-101375000D03*
X88900600Y-108995000D03*
X78740600Y-101375000D03*
X91440600Y-108995000D03*
X76200600Y-101375000D03*
D11*
X100812000Y-108995000D03*
D12*
X116052000Y-101375000D03*
X103352000Y-108995000D03*
X113512000Y-101375000D03*
X105892000Y-108995000D03*
X110972000Y-101375000D03*
X108432000Y-108995000D03*
X108432000Y-101375000D03*
X110972000Y-108995000D03*
X105892000Y-101375000D03*
X113512000Y-108995000D03*
X103352000Y-101375000D03*
X116052000Y-108995000D03*
X100812000Y-101375000D03*
D13*
X178150000Y-26270000D03*
D14*
X180690000Y-26270000D03*
X178150000Y-28810000D03*
X180690000Y-28810000D03*
X178150000Y-31350000D03*
X180690000Y-31350000D03*
X178150000Y-33890000D03*
X180690000Y-33890000D03*
X178150000Y-36430000D03*
X180690000Y-36430000D03*
X178150000Y-38970000D03*
X180690000Y-38970000D03*
X178150000Y-41510000D03*
X180690000Y-41510000D03*
X178150000Y-44050000D03*
X180690000Y-44050000D03*
X178150000Y-46590000D03*
X180690000Y-46590000D03*
X178150000Y-49130000D03*
X180690000Y-49130000D03*
X178150000Y-51670000D03*
X180690000Y-51670000D03*
X178150000Y-54210000D03*
X180690000Y-54210000D03*
X178150000Y-56750000D03*
X180690000Y-56750000D03*
X178150000Y-59290000D03*
X180690000Y-59290000D03*
X178150000Y-61830000D03*
X180690000Y-61830000D03*
X178150000Y-64370000D03*
X180690000Y-64370000D03*
X178150000Y-66910000D03*
X180690000Y-66910000D03*
X178150000Y-69450000D03*
X180690000Y-69450000D03*
X178150000Y-71990000D03*
X180690000Y-71990000D03*
X178150000Y-74530000D03*
X180690000Y-74530000D03*
X178150000Y-77070000D03*
X180690000Y-77070000D03*
X178150000Y-79610000D03*
X180690000Y-79610000D03*
X178150000Y-82150000D03*
X180690000Y-82150000D03*
X178150000Y-84690000D03*
X180690000Y-84690000D03*
X178150000Y-87230000D03*
X180690000Y-87230000D03*
X178150000Y-89770000D03*
X180690000Y-89770000D03*
X178150000Y-92310000D03*
X180690000Y-92310000D03*
X178150000Y-94850000D03*
X180690000Y-94850000D03*
X178150000Y-97390000D03*
X180690000Y-97390000D03*
X178150000Y-99930000D03*
X180690000Y-99930000D03*
X178150000Y-102470000D03*
X180690000Y-102470000D03*
X178150000Y-105010000D03*
X180690000Y-105010000D03*
X178150000Y-107550000D03*
X180690000Y-107550000D03*
X178150000Y-110090000D03*
X180690000Y-110090000D03*
X178150000Y-112630000D03*
X180690000Y-112630000D03*
D15*
X97450000Y-101525000D03*
X97450000Y-104025000D03*
X72900000Y-101425000D03*
X72900000Y-103925000D03*
X47725000Y-101350000D03*
X47725000Y-103850000D03*
X122925000Y-83900000D03*
X122925000Y-86400000D03*
X97625000Y-83825000D03*
X97625000Y-86325000D03*
X72800000Y-83850000D03*
X72800000Y-86350000D03*
X48050000Y-83675000D03*
X48050000Y-86175000D03*
X122825000Y-66050000D03*
X122825000Y-68550000D03*
X97400000Y-65925000D03*
X97400000Y-68425000D03*
X72825000Y-66075000D03*
X72825000Y-68575000D03*
X47875000Y-65975000D03*
X47875000Y-68475000D03*
X148150000Y-48375000D03*
X148150000Y-50875000D03*
X123100000Y-48300000D03*
X123100000Y-50800000D03*
X97400000Y-48175000D03*
X97400000Y-50675000D03*
X72750000Y-48225000D03*
X72750000Y-50725000D03*
X47725000Y-48125000D03*
X47725000Y-50625000D03*
X148225000Y-30450000D03*
X148225000Y-32950000D03*
X123000000Y-30550000D03*
X123000000Y-33050000D03*
X97550000Y-30425000D03*
X97550000Y-32925000D03*
X72775000Y-30350000D03*
X72775000Y-32850000D03*
X47800000Y-30225000D03*
X47800000Y-32725000D03*
D16*
X151815300Y-92096600D03*
X62089300Y-81089200D03*
X123696900Y-45311100D03*
X111150400Y-42703200D03*
X133233000Y-42941300D03*
X111604100Y-45818000D03*
X99831800Y-40364700D03*
X127559400Y-50576500D03*
X111062800Y-50684600D03*
X83053500Y-41335600D03*
X142283700Y-23906200D03*
X100139300Y-34562500D03*
X154261600Y-28545800D03*
X111930300Y-104763900D03*
X167090400Y-53372100D03*
X144418900Y-65001400D03*
X82628800Y-82261000D03*
X115825100Y-86293100D03*
X76055300Y-39822200D03*
X92347000Y-36514300D03*
X121086900Y-34399500D03*
X87657700Y-33953900D03*
X88273800Y-35554500D03*
X120409000Y-54503600D03*
X106947300Y-69996700D03*
X112493300Y-69432800D03*
X148151500Y-28545800D03*
X155696100Y-51430200D03*
X113155800Y-42050600D03*
X68265300Y-41490100D03*
X68507800Y-105930700D03*
X56168800Y-70095400D03*
X109603500Y-70897300D03*
X132467100Y-67702300D03*
X88889600Y-68459200D03*
X125325700Y-59911800D03*
X91727200Y-60503300D03*
X67490100Y-77513300D03*
X112057300Y-72173300D03*
X84234300Y-41461900D03*
X57626400Y-27601600D03*
X154136800Y-26823400D03*
X173491600Y-70802800D03*
X88085500Y-53015000D03*
X97237800Y-62848400D03*
X75299400Y-62848400D03*
X145762800Y-24585800D03*
X166991800Y-34103800D03*
X74672400Y-33363600D03*
X88629300Y-70039500D03*
X84956400Y-81150100D03*
X163253200Y-80066600D03*
X103853900Y-53468200D03*
X171124600Y-70802800D03*
X98816900Y-62744600D03*
X99482300Y-69598900D03*
X85291300Y-67362300D03*
X96237000Y-69895900D03*
X87255700Y-58790800D03*
X118637700Y-42030400D03*
X83742400Y-60953600D03*
X144140100Y-61508700D03*
X72530200Y-111404100D03*
X109680000Y-50710100D03*
X55122200Y-106227400D03*
X147570700Y-59753800D03*
X95144800Y-60640800D03*
X104969100Y-110554800D03*
X172152600Y-65007600D03*
X131568700Y-89072700D03*
X125974300Y-89072700D03*
X112261500Y-96527800D03*
X103232200Y-40862500D03*
X97819300Y-45859100D03*
X71260600Y-48496100D03*
X102797800Y-79118500D03*
X72956300Y-44672100D03*
X143376400Y-78859400D03*
X64132200Y-80831600D03*
X160023800Y-63755800D03*
X75214200Y-43616200D03*
X170791200Y-86704200D03*
X82978000Y-80959800D03*
X82978000Y-77166600D03*
X151744700Y-70959400D03*
X140825200Y-70393200D03*
X68916400Y-71880900D03*
X120296900Y-68484600D03*
X107567100Y-98096100D03*
X69511100Y-98101700D03*
X131802800Y-79202200D03*
X168086500Y-96666900D03*
X170675600Y-98504600D03*
X139440500Y-93783500D03*
X159120000Y-87842100D03*
X144440100Y-94675900D03*
X83863700Y-94608800D03*
X146964300Y-75398300D03*
X107387900Y-76535500D03*
X143239800Y-85992600D03*
X126563300Y-86686800D03*
X181707800Y-80693300D03*
X76383300Y-113355600D03*
X82706600Y-113105900D03*
X170570100Y-64211000D03*
X155184100Y-108467500D03*
D17*
X180690000Y-28810000D02*
X180690000Y-27634700D01*
X51086900Y-38000000D02*
X51086900Y-36474700D01*
X54896900Y-32664700D02*
X51086900Y-36474700D01*
X54896900Y-29305400D02*
X54896900Y-32664700D01*
X58855500Y-25346800D02*
X54896900Y-29305400D01*
X146428800Y-25346800D02*
X58855500Y-25346800D01*
X146681000Y-25094600D02*
X146428800Y-25346800D01*
X181201100Y-25094600D02*
X146681000Y-25094600D01*
X181948700Y-25842200D02*
X181201100Y-25094600D01*
X181948700Y-26743300D02*
X181948700Y-25842200D01*
X181057300Y-27634700D02*
X181948700Y-26743300D01*
X180690000Y-27634700D02*
X181057300Y-27634700D01*
X136392000Y-91390000D02*
X136392000Y-92915300D01*
X150996600Y-92915300D02*
X136392000Y-92915300D01*
X151815300Y-92096600D02*
X150996600Y-92915300D01*
X136392000Y-92915300D02*
X126232000Y-92915300D01*
X126232000Y-91390000D02*
X126232000Y-92802700D01*
X126232000Y-92802700D02*
X126232000Y-92915300D01*
X62772500Y-81772400D02*
X62089300Y-81089200D01*
X66622600Y-81772400D02*
X62772500Y-81772400D01*
X74264500Y-89414300D02*
X66622600Y-81772400D01*
X94566400Y-89414300D02*
X74264500Y-89414300D01*
X98067400Y-92915300D02*
X94566400Y-89414300D01*
X126232000Y-92915300D02*
X98067400Y-92915300D01*
X53626900Y-38000000D02*
X53626900Y-39525300D01*
X139142000Y-48268300D02*
X139142000Y-46743000D01*
X123469300Y-45083500D02*
X123696900Y-45311100D01*
X73570700Y-45083500D02*
X123469300Y-45083500D01*
X73256800Y-45397400D02*
X73570700Y-45083500D01*
X59499000Y-45397400D02*
X73256800Y-45397400D01*
X53626900Y-39525300D02*
X59499000Y-45397400D01*
X137710100Y-45311100D02*
X139142000Y-46743000D01*
X123696900Y-45311100D02*
X137710100Y-45311100D01*
X161585000Y-46743000D02*
X139142000Y-46743000D01*
X161585000Y-48268300D02*
X161585000Y-46743000D01*
X180690000Y-26270000D02*
X179514700Y-26270000D01*
X63786900Y-30380000D02*
X63786900Y-28854700D01*
X179514700Y-27078100D02*
X179514700Y-26270000D01*
X179044100Y-27548700D02*
X179514700Y-27078100D01*
X153836400Y-27548700D02*
X179044100Y-27548700D01*
X153657900Y-27370200D02*
X153836400Y-27548700D01*
X65271400Y-27370200D02*
X153657900Y-27370200D01*
X63786900Y-28854700D02*
X65271400Y-27370200D01*
X63786900Y-38000000D02*
X63786900Y-39525300D01*
X111388500Y-42941300D02*
X111150400Y-42703200D01*
X133233000Y-42941300D02*
X111388500Y-42941300D01*
X66964800Y-42703200D02*
X63786900Y-39525300D01*
X111150400Y-42703200D02*
X66964800Y-42703200D01*
X63786900Y-39525300D02*
X56166900Y-39525300D01*
X56166900Y-38000000D02*
X56166900Y-39525300D01*
X100862000Y-37975000D02*
X100862000Y-39500300D01*
X134062000Y-48268300D02*
X134062000Y-46743000D01*
X105942000Y-39500300D02*
X100862000Y-39500300D01*
X111879100Y-46093000D02*
X111604100Y-45818000D01*
X133412000Y-46093000D02*
X111879100Y-46093000D01*
X134062000Y-46743000D02*
X133412000Y-46093000D01*
X105942000Y-37975000D02*
X105942000Y-39500300D01*
X62505800Y-31905300D02*
X61246900Y-31905300D01*
X71169900Y-40569400D02*
X62505800Y-31905300D01*
X99627100Y-40569400D02*
X71169900Y-40569400D01*
X99831800Y-40364700D02*
X99627100Y-40569400D01*
X61246900Y-30380000D02*
X61246900Y-31905300D01*
X145119400Y-49793600D02*
X134062000Y-49793600D01*
X145181200Y-49731800D02*
X145119400Y-49793600D01*
X150896900Y-49731800D02*
X145181200Y-49731800D01*
X150958700Y-49793600D02*
X150896900Y-49731800D01*
X153965000Y-49793600D02*
X150958700Y-49793600D01*
X153965000Y-48268300D02*
X153965000Y-49793600D01*
X134062000Y-48268300D02*
X134062000Y-49793600D01*
X156505000Y-48268300D02*
X156505000Y-49793600D01*
X120994800Y-50684600D02*
X111062800Y-50684600D01*
X122052000Y-49627400D02*
X120994800Y-50684600D01*
X125809500Y-49627400D02*
X122052000Y-49627400D01*
X126758600Y-50576500D02*
X125809500Y-49627400D01*
X127559400Y-50576500D02*
X126758600Y-50576500D01*
X64313100Y-36474700D02*
X58706900Y-36474700D01*
X65056900Y-37218500D02*
X64313100Y-36474700D01*
X65056900Y-38739100D02*
X65056900Y-37218500D01*
X66476200Y-40158400D02*
X65056900Y-38739100D01*
X68305000Y-40158400D02*
X66476200Y-40158400D01*
X69482200Y-41335600D02*
X68305000Y-40158400D01*
X83053500Y-41335600D02*
X69482200Y-41335600D01*
X58706900Y-38000000D02*
X58706900Y-36474700D01*
X146051300Y-50576500D02*
X127559400Y-50576500D01*
X147475200Y-52000400D02*
X146051300Y-50576500D01*
X154100200Y-52000400D02*
X147475200Y-52000400D01*
X156307000Y-49793600D02*
X154100200Y-52000400D01*
X156505000Y-49793600D02*
X156307000Y-49793600D01*
X142364100Y-23825800D02*
X142283700Y-23906200D01*
X180633000Y-23825800D02*
X142364100Y-23825800D01*
X182404900Y-25597700D02*
X180633000Y-23825800D01*
X182404900Y-28801700D02*
X182404900Y-25597700D01*
X181219000Y-29987600D02*
X182404900Y-28801700D01*
X180135600Y-29987600D02*
X181219000Y-29987600D01*
X179325300Y-29177300D02*
X180135600Y-29987600D01*
X179325300Y-28810000D02*
X179325300Y-29177300D01*
X178150000Y-28810000D02*
X179325300Y-28810000D01*
X61739100Y-28854700D02*
X56166900Y-28854700D01*
X62516900Y-29632500D02*
X61739100Y-28854700D01*
X62516900Y-31117600D02*
X62516900Y-29632500D01*
X66130800Y-34731500D02*
X62516900Y-31117600D01*
X99970300Y-34731500D02*
X66130800Y-34731500D01*
X100139300Y-34562500D02*
X99970300Y-34731500D01*
X56166900Y-30380000D02*
X56166900Y-28854700D01*
X76061100Y-30350000D02*
X76091100Y-30380000D01*
X72775000Y-30350000D02*
X76061100Y-30350000D01*
X151381000Y-30450000D02*
X151461000Y-30530000D01*
X148225000Y-30450000D02*
X151381000Y-30450000D01*
X126410300Y-48300000D02*
X126442000Y-48268300D01*
X123100000Y-48300000D02*
X126410300Y-48300000D01*
X51285000Y-83675000D02*
X51380000Y-83770000D01*
X48050000Y-83675000D02*
X51285000Y-83675000D01*
X51080000Y-101350000D02*
X51105000Y-101375000D01*
X47725000Y-101350000D02*
X51080000Y-101350000D01*
X126161200Y-66050000D02*
X122825000Y-66050000D01*
X126232000Y-65979200D02*
X126161200Y-66050000D01*
X100792000Y-30425000D02*
X100862000Y-30355000D01*
X97550000Y-30425000D02*
X100792000Y-30425000D01*
X76225600Y-66075000D02*
X76225600Y-64549700D01*
X100862000Y-30355000D02*
X100862000Y-31880300D01*
X126222000Y-30550000D02*
X123000000Y-30550000D01*
X126342000Y-30430000D02*
X126222000Y-30550000D01*
X121669700Y-31880300D02*
X100862000Y-31880300D01*
X123000000Y-30550000D02*
X121669700Y-31880300D01*
X51118800Y-65975000D02*
X51205000Y-65888800D01*
X47875000Y-65975000D02*
X51118800Y-65975000D01*
X51205000Y-65888800D02*
X51205000Y-67414100D01*
X96024700Y-64549700D02*
X97400000Y-65925000D01*
X76225600Y-64549700D02*
X96024700Y-64549700D01*
X97680000Y-83770000D02*
X97625000Y-83825000D01*
X100912000Y-83770000D02*
X97680000Y-83770000D01*
X76150600Y-101425000D02*
X76200600Y-101375000D01*
X72900000Y-101425000D02*
X76150600Y-101425000D01*
X76200600Y-101375000D02*
X76200600Y-99849700D01*
X97404400Y-48179400D02*
X97400000Y-48175000D01*
X100803000Y-48179400D02*
X97404400Y-48179400D01*
X72815000Y-48160000D02*
X72750000Y-48225000D01*
X76091100Y-48160000D02*
X72815000Y-48160000D01*
X47741900Y-48108100D02*
X47725000Y-48125000D01*
X51086900Y-48108100D02*
X47741900Y-48108100D01*
X95774700Y-99849700D02*
X97450000Y-101525000D01*
X76200600Y-99849700D02*
X95774700Y-99849700D01*
X97600000Y-101375000D02*
X97450000Y-101525000D01*
X100812000Y-101375000D02*
X97600000Y-101375000D01*
X148256700Y-48268300D02*
X148150000Y-48375000D01*
X151425000Y-48268300D02*
X148256700Y-48268300D01*
X100779200Y-65925000D02*
X100803000Y-65901200D01*
X97400000Y-65925000D02*
X100779200Y-65925000D01*
X119329600Y-66050000D02*
X122825000Y-66050000D01*
X117953100Y-67426500D02*
X119329600Y-66050000D01*
X100803000Y-67426500D02*
X117953100Y-67426500D01*
X100803000Y-65901200D02*
X100803000Y-67426500D01*
X50931900Y-30225000D02*
X51086900Y-30380000D01*
X47800000Y-30225000D02*
X50931900Y-30225000D01*
X72880000Y-83770000D02*
X72800000Y-83850000D01*
X76091100Y-83770000D02*
X72880000Y-83770000D01*
X71485900Y-67414100D02*
X72825000Y-66075000D01*
X51205000Y-67414100D02*
X71485900Y-67414100D01*
X72825000Y-66075000D02*
X76225600Y-66075000D01*
X90000800Y-36474700D02*
X76091100Y-36474700D01*
X90722900Y-35752600D02*
X90000800Y-36474700D01*
X175112100Y-35752600D02*
X90722900Y-35752600D01*
X176974700Y-33890000D02*
X175112100Y-35752600D01*
X178150000Y-33890000D02*
X176974700Y-33890000D01*
X76091100Y-38000000D02*
X76091100Y-36474700D01*
X83711100Y-30380000D02*
X83711100Y-28854700D01*
X154196600Y-28545800D02*
X154261600Y-28545800D01*
X153471300Y-27820500D02*
X154196600Y-28545800D01*
X84745300Y-27820500D02*
X153471300Y-27820500D01*
X83711100Y-28854700D02*
X84745300Y-27820500D01*
X113512000Y-106345600D02*
X111930300Y-104763900D01*
X113512000Y-108995000D02*
X113512000Y-106345600D01*
X164125000Y-50406700D02*
X164125000Y-48268300D01*
X167090400Y-53372100D02*
X164125000Y-50406700D01*
X144418900Y-65086600D02*
X144418900Y-65001400D01*
X142001000Y-67504500D02*
X144418900Y-65086600D01*
X133852000Y-67504500D02*
X142001000Y-67504500D01*
X133852000Y-65979200D02*
X133852000Y-67504500D01*
X101443600Y-86293100D02*
X115825100Y-86293100D01*
X100220600Y-85070100D02*
X101443600Y-86293100D01*
X95562400Y-85070100D02*
X100220600Y-85070100D01*
X92686100Y-82193800D02*
X95562400Y-85070100D01*
X82696000Y-82193800D02*
X92686100Y-82193800D01*
X82628800Y-82261000D02*
X82696000Y-82193800D01*
X88791100Y-30380000D02*
X88791100Y-28854700D01*
X178150000Y-31350000D02*
X176974700Y-31350000D01*
X89267500Y-28378300D02*
X88791100Y-28854700D01*
X142740900Y-28378300D02*
X89267500Y-28378300D01*
X146062600Y-31700000D02*
X142740900Y-28378300D01*
X148995000Y-31700000D02*
X146062600Y-31700000D01*
X149369800Y-32074800D02*
X148995000Y-31700000D01*
X176249900Y-32074800D02*
X149369800Y-32074800D01*
X176974700Y-31350000D02*
X176249900Y-32074800D01*
X80874200Y-39822200D02*
X81171100Y-39525300D01*
X76055300Y-39822200D02*
X80874200Y-39822200D01*
X81171100Y-38000000D02*
X81171100Y-39525300D01*
X100134300Y-39525300D02*
X88791100Y-39525300D01*
X100666200Y-40057200D02*
X100134300Y-39525300D01*
X136020100Y-40057200D02*
X100666200Y-40057200D01*
X136502000Y-39575300D02*
X136020100Y-40057200D01*
X136502000Y-38050000D02*
X136502000Y-39575300D01*
X88791100Y-38000000D02*
X88791100Y-39412700D01*
X88791100Y-39412700D02*
X88791100Y-39525300D01*
X88791100Y-39525300D02*
X81171100Y-39525300D01*
X56460000Y-91390000D02*
X56460000Y-92915300D01*
X103352000Y-108995000D02*
X103352000Y-107469700D01*
X133962000Y-36524700D02*
X128882000Y-36524700D01*
X133962000Y-38050000D02*
X133962000Y-36524700D01*
X128882000Y-38050000D02*
X128882000Y-36599800D01*
X128882000Y-36599800D02*
X128882000Y-36524700D01*
X92411700Y-36449600D02*
X92347000Y-36514300D01*
X128806900Y-36449600D02*
X92411700Y-36449600D01*
X128882000Y-36524700D02*
X128806900Y-36449600D01*
X59995000Y-96450300D02*
X56460000Y-92915300D01*
X59995000Y-102127500D02*
X59995000Y-96450300D01*
X64661800Y-106794300D02*
X59995000Y-102127500D01*
X102676600Y-106794300D02*
X64661800Y-106794300D01*
X103352000Y-107469700D02*
X102676600Y-106794300D01*
X87795100Y-34091300D02*
X87657700Y-33953900D01*
X99584800Y-34091300D02*
X87795100Y-34091300D01*
X99863800Y-33812300D02*
X99584800Y-34091300D01*
X120499700Y-33812300D02*
X99863800Y-33812300D01*
X121086900Y-34399500D02*
X120499700Y-33812300D01*
X88526100Y-35302200D02*
X88273800Y-35554500D01*
X169024500Y-35302200D02*
X88526100Y-35302200D01*
X171801400Y-32525300D02*
X169024500Y-35302200D01*
X178706800Y-32525300D02*
X171801400Y-32525300D01*
X179514700Y-31717400D02*
X178706800Y-32525300D01*
X179514700Y-31350000D02*
X179514700Y-31717400D01*
X180690000Y-31350000D02*
X179514700Y-31350000D01*
X108482000Y-30355000D02*
X108482000Y-28942300D01*
X94467100Y-31905300D02*
X81171100Y-31905300D01*
X97542700Y-28829700D02*
X94467100Y-31905300D01*
X108369400Y-28829700D02*
X97542700Y-28829700D01*
X108482000Y-28942300D02*
X108369400Y-28829700D01*
X81171100Y-30380000D02*
X81171100Y-31905300D01*
X120549600Y-54363000D02*
X120409000Y-54503600D01*
X126442000Y-54363000D02*
X120549600Y-54363000D01*
X126442000Y-55888300D02*
X126442000Y-54363000D01*
X107511200Y-69432800D02*
X112493300Y-69432800D01*
X106947300Y-69996700D02*
X107511200Y-69432800D01*
X152016800Y-28545800D02*
X148151500Y-28545800D01*
X154001000Y-30530000D02*
X152016800Y-28545800D01*
X153213700Y-53912600D02*
X155696100Y-51430200D01*
X137052400Y-53912600D02*
X153213700Y-53912600D01*
X136602000Y-54363000D02*
X137052400Y-53912600D01*
X136602000Y-55888300D02*
X136602000Y-54363000D01*
X136427000Y-28829700D02*
X111022000Y-28829700D01*
X136502000Y-28904700D02*
X136427000Y-28829700D01*
X136502000Y-30430000D02*
X136502000Y-28904700D01*
X111022000Y-30355000D02*
X111022000Y-28829700D01*
X113083000Y-41977800D02*
X113155800Y-42050600D01*
X104879300Y-41977800D02*
X113083000Y-41977800D01*
X104658000Y-42199100D02*
X104879300Y-41977800D01*
X68974300Y-42199100D02*
X104658000Y-42199100D01*
X68265300Y-41490100D02*
X68974300Y-42199100D01*
X105892000Y-108995000D02*
X105892000Y-107469700D01*
X109446700Y-107469700D02*
X105892000Y-107469700D01*
X110972000Y-108995000D02*
X109446700Y-107469700D01*
X104353000Y-105930700D02*
X68507800Y-105930700D01*
X105892000Y-107469700D02*
X104353000Y-105930700D01*
X105892000Y-101375000D02*
X105892000Y-99849700D01*
X116052000Y-101375000D02*
X116052000Y-99849700D01*
X105892000Y-99849700D02*
X116052000Y-99849700D01*
X107709400Y-70897300D02*
X109603500Y-70897300D01*
X107434400Y-71172300D02*
X107709400Y-70897300D01*
X106460300Y-71172300D02*
X107434400Y-71172300D01*
X106185300Y-70897300D02*
X106460300Y-71172300D01*
X56970700Y-70897300D02*
X106185300Y-70897300D01*
X56168800Y-70095400D02*
X56970700Y-70897300D01*
X131422000Y-38050000D02*
X131422000Y-39575300D01*
X126342000Y-38050000D02*
X126342000Y-39462700D01*
X126454600Y-39575300D02*
X131422000Y-39575300D01*
X126342000Y-39462700D02*
X126454600Y-39575300D01*
X180690000Y-92310000D02*
X180690000Y-91134700D01*
X130466000Y-69703400D02*
X132467100Y-67702300D01*
X120206500Y-69703400D02*
X130466000Y-69703400D01*
X118492300Y-67989200D02*
X120206500Y-69703400D01*
X99567100Y-67989200D02*
X118492300Y-67989200D01*
X98873000Y-67295100D02*
X99567100Y-67989200D01*
X92595500Y-67295100D02*
X98873000Y-67295100D01*
X91431400Y-68459200D02*
X92595500Y-67295100D01*
X88889600Y-68459200D02*
X91431400Y-68459200D01*
X180322600Y-91134700D02*
X180690000Y-91134700D01*
X179514700Y-90326800D02*
X180322600Y-91134700D01*
X179514700Y-79273700D02*
X179514700Y-90326800D01*
X178581000Y-78340000D02*
X179514700Y-79273700D01*
X177308100Y-78340000D02*
X178581000Y-78340000D01*
X167684000Y-68715900D02*
X177308100Y-78340000D01*
X133480700Y-68715900D02*
X167684000Y-68715900D01*
X132467100Y-67702300D02*
X133480700Y-68715900D01*
X56166900Y-57253400D02*
X63786900Y-57253400D01*
X56166900Y-55728100D02*
X56166900Y-57253400D01*
X63786900Y-55728100D02*
X63786900Y-57253400D01*
X128772000Y-64453900D02*
X138932000Y-64453900D01*
X128772000Y-65979200D02*
X128772000Y-64453900D01*
X138932000Y-65979200D02*
X138932000Y-64453900D01*
X92318700Y-59911800D02*
X91727200Y-60503300D01*
X125325700Y-59911800D02*
X92318700Y-59911800D01*
X66761800Y-60228300D02*
X63786900Y-57253400D01*
X91452200Y-60228300D02*
X66761800Y-60228300D01*
X91727200Y-60503300D02*
X91452200Y-60228300D01*
X69783100Y-75220300D02*
X86385600Y-75220300D01*
X67490100Y-77513300D02*
X69783100Y-75220300D01*
X86385600Y-73695000D02*
X86385600Y-75220300D01*
X86385600Y-73695000D02*
X86385600Y-72169700D01*
X86559400Y-71995900D02*
X105883000Y-71995900D01*
X86385600Y-72169700D02*
X86559400Y-71995900D01*
X105883000Y-73521200D02*
X105883000Y-71996000D01*
X105883000Y-71996000D02*
X105883000Y-71995900D01*
X111879900Y-71995900D02*
X112057300Y-72173300D01*
X110183900Y-71995900D02*
X111879900Y-71995900D01*
X110106900Y-72072900D02*
X110183900Y-71995900D01*
X109116500Y-72072900D02*
X110106900Y-72072900D01*
X109039500Y-71995900D02*
X109116500Y-72072900D01*
X107884600Y-71995900D02*
X109039500Y-71995900D01*
X107807600Y-72072900D02*
X107884600Y-71995900D01*
X105959900Y-72072900D02*
X107807600Y-72072900D01*
X105883000Y-71996000D02*
X105959900Y-72072900D01*
X139042000Y-38050000D02*
X139042000Y-39575300D01*
X137457300Y-41160000D02*
X139042000Y-39575300D01*
X103960400Y-41160000D02*
X137457300Y-41160000D01*
X103960400Y-41160100D02*
X103960400Y-41160000D01*
X103532700Y-41587800D02*
X103960400Y-41160100D01*
X84360200Y-41587800D02*
X103532700Y-41587800D01*
X84234300Y-41461900D02*
X84360200Y-41587800D01*
X58404600Y-26823400D02*
X154136800Y-26823400D01*
X57626400Y-27601600D02*
X58404600Y-26823400D01*
X55805800Y-61972300D02*
X51086900Y-57253400D01*
X121431600Y-61972300D02*
X55805800Y-61972300D01*
X121703800Y-62244500D02*
X121431600Y-61972300D01*
X164933300Y-62244500D02*
X121703800Y-62244500D01*
X173491600Y-70802800D02*
X164933300Y-62244500D01*
X51086900Y-55728100D02*
X51086900Y-57253400D01*
X128982000Y-55888300D02*
X128982000Y-54363000D01*
X132536700Y-54363000D02*
X128982000Y-54363000D01*
X134062000Y-55888300D02*
X132536700Y-54363000D01*
X88357700Y-52742800D02*
X88085500Y-53015000D01*
X127361800Y-52742800D02*
X88357700Y-52742800D01*
X128982000Y-54363000D02*
X127361800Y-52742800D01*
X69708500Y-53015000D02*
X66326900Y-49633400D01*
X88085500Y-53015000D02*
X69708500Y-53015000D01*
X66326900Y-48108100D02*
X66326900Y-49633400D01*
X58706900Y-49633400D02*
X66326900Y-49633400D01*
X58706900Y-48108100D02*
X58706900Y-49633400D01*
X53626900Y-55728100D02*
X53626900Y-54202800D01*
X55669800Y-62848400D02*
X75299400Y-62848400D01*
X49961500Y-57140100D02*
X55669800Y-62848400D01*
X49961500Y-54329300D02*
X49961500Y-57140100D01*
X50088000Y-54202800D02*
X49961500Y-54329300D01*
X53626900Y-54202800D02*
X50088000Y-54202800D01*
X75299400Y-62848400D02*
X97237800Y-62848400D01*
X63786900Y-48108100D02*
X63786900Y-46582800D01*
X145717100Y-24631500D02*
X145762800Y-24585800D01*
X57380500Y-24631500D02*
X145717100Y-24631500D01*
X52356900Y-29655100D02*
X57380500Y-24631500D01*
X52356900Y-33060000D02*
X52356900Y-29655100D01*
X49961500Y-35455400D02*
X52356900Y-33060000D01*
X49961500Y-39424700D02*
X49961500Y-35455400D01*
X57119600Y-46582800D02*
X49961500Y-39424700D01*
X63786900Y-46582800D02*
X57119600Y-46582800D01*
X74807400Y-33228600D02*
X74672400Y-33363600D01*
X94695200Y-33228600D02*
X74807400Y-33228600D01*
X96188900Y-31734900D02*
X94695200Y-33228600D01*
X99221700Y-31734900D02*
X96188900Y-31734900D01*
X100442600Y-32955800D02*
X99221700Y-31734900D01*
X121239700Y-32955800D02*
X100442600Y-32955800D01*
X122464200Y-34180300D02*
X121239700Y-32955800D01*
X166915300Y-34180300D02*
X122464200Y-34180300D01*
X166991800Y-34103800D02*
X166915300Y-34180300D01*
X60337900Y-53804400D02*
X56166900Y-49633400D01*
X102873300Y-53804400D02*
X60337900Y-53804400D01*
X103343000Y-54274100D02*
X102873300Y-53804400D01*
X103343000Y-55799400D02*
X103343000Y-54274100D01*
X56166900Y-48108100D02*
X56166900Y-49633400D01*
X53626900Y-48108100D02*
X53626900Y-49633400D01*
X72267500Y-70039500D02*
X88629300Y-70039500D01*
X70619900Y-68391900D02*
X72267500Y-70039500D01*
X50518200Y-68391900D02*
X70619900Y-68391900D01*
X49411700Y-67285400D02*
X50518200Y-68391900D01*
X47541400Y-67285400D02*
X49411700Y-67285400D01*
X46747100Y-66491100D02*
X47541400Y-67285400D01*
X46747100Y-56513200D02*
X46747100Y-66491100D01*
X53626900Y-49633400D02*
X46747100Y-56513200D01*
X162169700Y-81150100D02*
X163253200Y-80066600D01*
X84956400Y-81150100D02*
X162169700Y-81150100D01*
X178150000Y-77070000D02*
X178150000Y-75894700D01*
X76091100Y-55780000D02*
X76091100Y-57305300D01*
X78302800Y-59517000D02*
X76091100Y-57305300D01*
X87565800Y-59517000D02*
X78302800Y-59517000D01*
X87896300Y-59186500D02*
X87565800Y-59517000D01*
X138972800Y-59186500D02*
X87896300Y-59186500D01*
X139130800Y-59028500D02*
X138972800Y-59186500D01*
X162451200Y-59028500D02*
X139130800Y-59028500D01*
X173052500Y-69629800D02*
X162451200Y-59028500D01*
X173344500Y-69629800D02*
X173052500Y-69629800D01*
X174216900Y-70502200D02*
X173344500Y-69629800D01*
X174216900Y-72329000D02*
X174216900Y-70502200D01*
X177782600Y-75894700D02*
X174216900Y-72329000D01*
X178150000Y-75894700D02*
X177782600Y-75894700D01*
X113503000Y-55799400D02*
X113503000Y-54274100D01*
X104659800Y-54274100D02*
X103853900Y-53468200D01*
X113503000Y-54274100D02*
X104659800Y-54274100D01*
X110963000Y-55799400D02*
X110963000Y-57324700D01*
X78631100Y-55780000D02*
X78631100Y-57305300D01*
X87432900Y-57305300D02*
X78631100Y-57305300D01*
X87924900Y-57797300D02*
X87432900Y-57305300D01*
X110490400Y-57797300D02*
X87924900Y-57797300D01*
X110963000Y-57324700D02*
X110490400Y-57797300D01*
X163066400Y-62744600D02*
X98816900Y-62744600D01*
X171124600Y-70802800D02*
X163066400Y-62744600D01*
X180690000Y-74530000D02*
X180690000Y-73354700D01*
X81171100Y-55780000D02*
X81171100Y-54254700D01*
X180322600Y-73354700D02*
X180690000Y-73354700D01*
X179514700Y-72546800D02*
X180322600Y-73354700D01*
X179514700Y-71689900D02*
X179514700Y-72546800D01*
X178639400Y-70814600D02*
X179514700Y-71689900D01*
X176139300Y-70814600D02*
X178639400Y-70814600D01*
X174053900Y-68729200D02*
X176139300Y-70814600D01*
X173425700Y-68729200D02*
X174053900Y-68729200D01*
X162782500Y-58086000D02*
X173425700Y-68729200D01*
X138198600Y-58086000D02*
X162782500Y-58086000D01*
X138030700Y-58253900D02*
X138198600Y-58086000D01*
X87744600Y-58253900D02*
X138030700Y-58253900D01*
X87480800Y-57990100D02*
X87744600Y-58253900D01*
X78641000Y-57990100D02*
X87480800Y-57990100D01*
X77450800Y-56799900D02*
X78641000Y-57990100D01*
X77450800Y-54957600D02*
X77450800Y-56799900D01*
X78153700Y-54254700D02*
X77450800Y-54957600D01*
X81171100Y-54254700D02*
X78153700Y-54254700D01*
X108403600Y-46634700D02*
X86251100Y-46634700D01*
X108423000Y-46654100D02*
X108403600Y-46634700D01*
X108423000Y-48179400D02*
X108423000Y-46654100D01*
X86251100Y-48160000D02*
X86251100Y-46634700D01*
X87171400Y-69242400D02*
X85291300Y-67362300D01*
X95864800Y-69242400D02*
X87171400Y-69242400D01*
X95936600Y-69170600D02*
X95864800Y-69242400D01*
X96537500Y-69170600D02*
X95936600Y-69170600D01*
X96965800Y-69598900D02*
X96537500Y-69170600D01*
X99482300Y-69598900D02*
X96965800Y-69598900D01*
X178150000Y-79610000D02*
X176974700Y-79610000D01*
X167008200Y-69643500D02*
X176974700Y-79610000D01*
X139171100Y-69643500D02*
X167008200Y-69643500D01*
X138642600Y-70172000D02*
X139171100Y-69643500D01*
X107797800Y-70172000D02*
X138642600Y-70172000D01*
X107247800Y-70722000D02*
X107797800Y-70172000D01*
X106646900Y-70722000D02*
X107247800Y-70722000D01*
X106271600Y-70346700D02*
X106646900Y-70722000D01*
X96687800Y-70346700D02*
X106271600Y-70346700D01*
X96237000Y-69895900D02*
X96687800Y-70346700D01*
X178150000Y-74530000D02*
X178150000Y-73354700D01*
X177831200Y-73354700D02*
X178150000Y-73354700D01*
X173656000Y-69179500D02*
X177831200Y-73354700D01*
X173239100Y-69179500D02*
X173656000Y-69179500D01*
X162631200Y-58571600D02*
X173239100Y-69179500D01*
X138349900Y-58571600D02*
X162631200Y-58571600D01*
X138185300Y-58736200D02*
X138349900Y-58571600D01*
X87310300Y-58736200D02*
X138185300Y-58736200D01*
X87255700Y-58790800D02*
X87310300Y-58736200D01*
X98525300Y-49704700D02*
X105883000Y-49704700D01*
X98310700Y-49490100D02*
X98525300Y-49704700D01*
X96721800Y-49490100D02*
X98310700Y-49490100D01*
X96526600Y-49685300D02*
X96721800Y-49490100D01*
X81171100Y-49685300D02*
X96526600Y-49685300D01*
X81171100Y-48160000D02*
X81171100Y-49685300D01*
X105883000Y-48179400D02*
X105883000Y-49704700D01*
X98709000Y-57324700D02*
X105883000Y-57324700D01*
X95639000Y-54254700D02*
X98709000Y-57324700D01*
X88791100Y-54254700D02*
X95639000Y-54254700D01*
X88791100Y-55780000D02*
X88791100Y-54254700D01*
X105883000Y-55799400D02*
X105883000Y-57324700D01*
X180690000Y-79610000D02*
X180690000Y-78434700D01*
X78631100Y-48160000D02*
X78631100Y-49685300D01*
X181057300Y-78434700D02*
X180690000Y-78434700D01*
X181920100Y-77571900D02*
X181057300Y-78434700D01*
X181920100Y-71506100D02*
X181920100Y-77571900D01*
X181228700Y-70814700D02*
X181920100Y-71506100D01*
X180390500Y-70814700D02*
X181228700Y-70814700D01*
X179325400Y-69749600D02*
X180390500Y-70814700D01*
X179325400Y-68924400D02*
X179325400Y-69749600D01*
X178496800Y-68095800D02*
X179325400Y-68924400D01*
X173429200Y-68095800D02*
X178496800Y-68095800D01*
X162749100Y-57415700D02*
X173429200Y-68095800D01*
X136106600Y-57415700D02*
X162749100Y-57415700D01*
X135476600Y-56785700D02*
X136106600Y-57415700D01*
X135476600Y-55309300D02*
X135476600Y-56785700D01*
X132167900Y-52000600D02*
X135476600Y-55309300D01*
X80946400Y-52000600D02*
X132167900Y-52000600D01*
X78631100Y-49685300D02*
X80946400Y-52000600D01*
X180690000Y-36430000D02*
X179514700Y-36430000D01*
X179514700Y-36797400D02*
X179514700Y-36430000D01*
X178706800Y-37605300D02*
X179514700Y-36797400D01*
X177803900Y-37605300D02*
X178706800Y-37605300D01*
X173378800Y-42030400D02*
X177803900Y-37605300D01*
X118637700Y-42030400D02*
X173378800Y-42030400D01*
X72332500Y-72169700D02*
X81305600Y-72169700D01*
X71868500Y-72633700D02*
X72332500Y-72169700D01*
X68010300Y-72633700D02*
X71868500Y-72633700D01*
X67341500Y-71964900D02*
X68010300Y-72633700D01*
X55837300Y-71964900D02*
X67341500Y-71964900D01*
X55015000Y-72787200D02*
X55837300Y-71964900D01*
X55015000Y-76384800D02*
X55015000Y-72787200D01*
X52758500Y-78641300D02*
X55015000Y-76384800D01*
X52758500Y-84808700D02*
X52758500Y-78641300D01*
X53920000Y-85970200D02*
X52758500Y-84808700D01*
X53920000Y-91390000D02*
X53920000Y-85970200D01*
X81305600Y-73695000D02*
X81305600Y-72169700D01*
X84297500Y-61508700D02*
X144140100Y-61508700D01*
X83742400Y-60953600D02*
X84297500Y-61508700D01*
X62148800Y-111404100D02*
X72530200Y-111404100D01*
X61265000Y-110520300D02*
X62148800Y-111404100D01*
X122198200Y-46743000D02*
X131522000Y-46743000D01*
X119037800Y-49903400D02*
X122198200Y-46743000D01*
X110486700Y-49903400D02*
X119037800Y-49903400D01*
X109680000Y-50710100D02*
X110486700Y-49903400D01*
X131522000Y-48268300D02*
X131522000Y-46743000D01*
X61265000Y-108995000D02*
X61265000Y-110520300D01*
X55059600Y-106290000D02*
X55122200Y-106227400D01*
X55059600Y-109861200D02*
X55059600Y-106290000D01*
X60448500Y-115250100D02*
X55059600Y-109861200D01*
X181223000Y-115250100D02*
X60448500Y-115250100D01*
X183332600Y-113140500D02*
X181223000Y-115250100D01*
X183332600Y-57700900D02*
X183332600Y-113140500D01*
X181111700Y-55480000D02*
X183332600Y-57700900D01*
X175677600Y-55480000D02*
X181111700Y-55480000D01*
X174560600Y-54363000D02*
X175677600Y-55480000D01*
X139142000Y-54363000D02*
X174560600Y-54363000D01*
X139142000Y-55888300D02*
X139142000Y-54363000D01*
X88791100Y-92915300D02*
X81171100Y-92915300D01*
X88791100Y-91390000D02*
X88791100Y-92915300D01*
X81171100Y-91390000D02*
X81171100Y-92915300D01*
X146683700Y-60640800D02*
X147570700Y-59753800D01*
X95144800Y-60640800D02*
X146683700Y-60640800D01*
X81280600Y-108995000D02*
X81280600Y-110520300D01*
X88900600Y-108995000D02*
X88900600Y-110407700D01*
X88900600Y-110520300D02*
X81280600Y-110520300D01*
X88900600Y-110407700D02*
X88900600Y-110520300D01*
X104934700Y-110520400D02*
X104969100Y-110554800D01*
X88900600Y-110520400D02*
X104934700Y-110520400D01*
X88900600Y-110520300D02*
X88900600Y-110520400D01*
X164831500Y-57413600D02*
X164125000Y-57413600D01*
X172152600Y-64734700D02*
X164831500Y-57413600D01*
X172152600Y-65007600D02*
X172152600Y-64734700D01*
X164125000Y-55888300D02*
X164125000Y-57413600D01*
X131568700Y-89072700D02*
X125974300Y-89072700D01*
X51205000Y-73508800D02*
X51205000Y-75034100D01*
X46859000Y-79380100D02*
X51205000Y-75034100D01*
X46859000Y-84132500D02*
X46859000Y-79380100D01*
X47651500Y-84925000D02*
X46859000Y-84132500D01*
X48458700Y-84925000D02*
X47651500Y-84925000D01*
X52533400Y-88999700D02*
X48458700Y-84925000D01*
X52533400Y-92013800D02*
X52533400Y-88999700D01*
X53459300Y-92939700D02*
X52533400Y-92013800D01*
X54402600Y-92939700D02*
X53459300Y-92939700D01*
X55263900Y-92078400D02*
X54402600Y-92939700D01*
X55263900Y-90587200D02*
X55263900Y-92078400D01*
X55986500Y-89864600D02*
X55263900Y-90587200D01*
X68955800Y-89864600D02*
X55986500Y-89864600D01*
X75619000Y-96527800D02*
X68955800Y-89864600D01*
X112261500Y-96527800D02*
X75619000Y-96527800D01*
X103587100Y-40507600D02*
X103232200Y-40862500D01*
X136211100Y-40507600D02*
X103587100Y-40507600D01*
X137698100Y-39020600D02*
X136211100Y-40507600D01*
X137698100Y-37390300D02*
X137698100Y-39020600D01*
X138739300Y-36349100D02*
X137698100Y-37390300D01*
X176063900Y-36349100D02*
X138739300Y-36349100D01*
X177184500Y-35228500D02*
X176063900Y-36349100D01*
X181159300Y-35228500D02*
X177184500Y-35228500D01*
X181866000Y-35935200D02*
X181159300Y-35228500D01*
X181866000Y-44616700D02*
X181866000Y-35935200D01*
X181162700Y-45320000D02*
X181866000Y-44616700D01*
X180259000Y-45320000D02*
X181162700Y-45320000D01*
X179325300Y-46253700D02*
X180259000Y-45320000D01*
X179325300Y-49686800D02*
X179325300Y-46253700D01*
X178517400Y-50494700D02*
X179325300Y-49686800D01*
X178150000Y-50494700D02*
X178517400Y-50494700D01*
X71260600Y-48082300D02*
X71260600Y-48496100D01*
X73483800Y-45859100D02*
X71260600Y-48082300D01*
X97819300Y-45859100D02*
X73483800Y-45859100D01*
X178150000Y-51670000D02*
X178150000Y-50494700D01*
X180690000Y-49130000D02*
X180690000Y-47954700D01*
X53745000Y-73508800D02*
X53745000Y-71983500D01*
X181057300Y-47954700D02*
X180690000Y-47954700D01*
X182906000Y-46106000D02*
X181057300Y-47954700D01*
X182906000Y-25461900D02*
X182906000Y-46106000D01*
X180578300Y-23134200D02*
X182906000Y-25461900D01*
X53253700Y-23134200D02*
X180578300Y-23134200D01*
X46244400Y-30143500D02*
X53253700Y-23134200D01*
X46244400Y-68459900D02*
X46244400Y-30143500D01*
X49768000Y-71983500D02*
X46244400Y-68459900D01*
X53745000Y-71983500D02*
X49768000Y-71983500D01*
X133852000Y-82244700D02*
X116152000Y-82244700D01*
X133852000Y-83770000D02*
X133852000Y-82244700D01*
X116152000Y-83770000D02*
X116152000Y-82244700D01*
X105992000Y-82244700D02*
X116152000Y-82244700D01*
X105992000Y-83770000D02*
X105992000Y-82244700D01*
X60369400Y-79118500D02*
X56285000Y-75034100D01*
X102797800Y-79118500D02*
X60369400Y-79118500D01*
X56285000Y-73508800D02*
X56285000Y-75034100D01*
X73118500Y-44509900D02*
X72956300Y-44672100D01*
X162448600Y-44509900D02*
X73118500Y-44509900D01*
X165395000Y-47456300D02*
X162448600Y-44509900D01*
X165395000Y-49033000D02*
X165395000Y-47456300D01*
X166166000Y-49804000D02*
X165395000Y-49033000D01*
X176300700Y-49804000D02*
X166166000Y-49804000D01*
X176974700Y-49130000D02*
X176300700Y-49804000D01*
X178150000Y-49130000D02*
X176974700Y-49130000D01*
X58825000Y-73508800D02*
X58825000Y-75034100D01*
X142910200Y-78393200D02*
X143376400Y-78859400D01*
X62184100Y-78393200D02*
X142910200Y-78393200D01*
X58825000Y-75034100D02*
X62184100Y-78393200D01*
X138932000Y-91390000D02*
X138932000Y-89864700D01*
X111072000Y-91390000D02*
X111072000Y-89977300D01*
X111072000Y-89977300D02*
X111072000Y-89864700D01*
X111072000Y-89864700D02*
X138932000Y-89864700D01*
X111072000Y-89864700D02*
X105992000Y-89864700D01*
X105992000Y-91390000D02*
X105992000Y-89864700D01*
X68181900Y-80831600D02*
X64132200Y-80831600D01*
X72450300Y-85100000D02*
X68181900Y-80831600D01*
X75107400Y-85100000D02*
X72450300Y-85100000D01*
X78818700Y-88811300D02*
X75107400Y-85100000D01*
X104938600Y-88811300D02*
X78818700Y-88811300D01*
X105992000Y-89864700D02*
X104938600Y-88811300D01*
X56285000Y-65888800D02*
X56285000Y-64363500D01*
X56892700Y-63755800D02*
X56285000Y-64363500D01*
X160023800Y-63755800D02*
X56892700Y-63755800D01*
X75511000Y-43913000D02*
X75214200Y-43616200D01*
X174297700Y-43913000D02*
X75511000Y-43913000D01*
X176974700Y-46590000D02*
X174297700Y-43913000D01*
X178150000Y-46590000D02*
X176974700Y-46590000D01*
X83533400Y-80404400D02*
X82978000Y-80959800D01*
X146924400Y-80404400D02*
X83533400Y-80404400D01*
X147987600Y-79341200D02*
X146924400Y-80404400D01*
X163661300Y-79341200D02*
X147987600Y-79341200D01*
X170791200Y-86471100D02*
X163661300Y-79341200D01*
X170791200Y-86704200D02*
X170791200Y-86471100D01*
X178150000Y-92310000D02*
X176974700Y-92310000D01*
X83754300Y-77942900D02*
X82978000Y-77166600D01*
X163112600Y-77942900D02*
X83754300Y-77942900D01*
X176974700Y-91805000D02*
X163112600Y-77942900D01*
X176974700Y-92310000D02*
X176974700Y-91805000D01*
X88925600Y-73695000D02*
X88925600Y-75220300D01*
X91197900Y-77492600D02*
X88925600Y-75220300D01*
X164140800Y-77492600D02*
X91197900Y-77492600D01*
X177688200Y-91040000D02*
X164140800Y-77492600D01*
X178544200Y-91040000D02*
X177688200Y-91040000D01*
X179514700Y-92010500D02*
X178544200Y-91040000D01*
X179514700Y-92797000D02*
X179514700Y-92010500D01*
X180228000Y-93510300D02*
X179514700Y-92797000D01*
X181158100Y-93510300D02*
X180228000Y-93510300D01*
X181890000Y-92778400D02*
X181158100Y-93510300D01*
X181890000Y-90970000D02*
X181890000Y-92778400D01*
X180690000Y-89770000D02*
X181890000Y-90970000D01*
X118757700Y-75046500D02*
X100803000Y-75046500D01*
X121905800Y-71898400D02*
X118757700Y-75046500D01*
X150805700Y-71898400D02*
X121905800Y-71898400D01*
X151744700Y-70959400D02*
X150805700Y-71898400D01*
X100803000Y-73521200D02*
X100803000Y-75046500D01*
X139770400Y-71448000D02*
X140825200Y-70393200D01*
X110094900Y-71448000D02*
X139770400Y-71448000D01*
X109920300Y-71622600D02*
X110094900Y-71448000D01*
X109303100Y-71622600D02*
X109920300Y-71622600D01*
X109215800Y-71535300D02*
X109303100Y-71622600D01*
X107708300Y-71535300D02*
X109215800Y-71535300D01*
X107621000Y-71622600D02*
X107708300Y-71535300D01*
X106273700Y-71622600D02*
X107621000Y-71622600D01*
X106186400Y-71535300D02*
X106273700Y-71622600D01*
X69262000Y-71535300D02*
X106186400Y-71535300D01*
X68916400Y-71880900D02*
X69262000Y-71535300D01*
X121417200Y-67364300D02*
X120296900Y-68484600D01*
X125625500Y-67364300D02*
X121417200Y-67364300D01*
X125765700Y-67504500D02*
X125625500Y-67364300D01*
X131312000Y-67504500D02*
X125765700Y-67504500D01*
X69516700Y-98096100D02*
X69511100Y-98101700D01*
X107567100Y-98096100D02*
X69516700Y-98096100D01*
X131312000Y-65979200D02*
X131312000Y-67504500D01*
X131071300Y-79933700D02*
X131802800Y-79202200D01*
X61311000Y-79933700D02*
X131071300Y-79933700D01*
X59000000Y-82244700D02*
X61311000Y-79933700D01*
X59000000Y-83770000D02*
X59000000Y-82244700D01*
X178150000Y-56750000D02*
X178150000Y-57925300D01*
X51380000Y-99174600D02*
X51380000Y-91390000D01*
X52375000Y-100169600D02*
X51380000Y-99174600D01*
X52375000Y-102454400D02*
X52375000Y-100169600D01*
X57455000Y-107534400D02*
X52375000Y-102454400D01*
X57455000Y-109949300D02*
X57455000Y-107534400D01*
X62292100Y-114786400D02*
X57455000Y-109949300D01*
X180945700Y-114786400D02*
X62292100Y-114786400D01*
X182829000Y-112903100D02*
X180945700Y-114786400D01*
X182829000Y-62226300D02*
X182829000Y-112903100D01*
X181162700Y-60560000D02*
X182829000Y-62226300D01*
X180259000Y-60560000D02*
X181162700Y-60560000D01*
X179325300Y-59626300D02*
X180259000Y-60560000D01*
X179325300Y-58733200D02*
X179325300Y-59626300D01*
X178517400Y-57925300D02*
X179325300Y-58733200D01*
X178150000Y-57925300D02*
X178517400Y-57925300D01*
X61540000Y-83770000D02*
X61540000Y-82244700D01*
X64547000Y-82244700D02*
X61540000Y-82244700D01*
X65350000Y-83047700D02*
X64547000Y-82244700D01*
X65350000Y-84505800D02*
X65350000Y-83047700D01*
X74727700Y-93883500D02*
X65350000Y-84505800D01*
X111578000Y-93883500D02*
X74727700Y-93883500D01*
X112248300Y-94553800D02*
X111578000Y-93883500D01*
X143245100Y-94553800D02*
X112248300Y-94553800D01*
X143848300Y-93950600D02*
X143245100Y-94553800D01*
X167147400Y-93950600D02*
X143848300Y-93950600D01*
X175666800Y-102470000D02*
X167147400Y-93950600D01*
X178150000Y-102470000D02*
X175666800Y-102470000D01*
X63378200Y-97293500D02*
X59000000Y-92915300D01*
X167459900Y-97293500D02*
X63378200Y-97293500D01*
X168086500Y-96666900D02*
X167459900Y-97293500D01*
X59000000Y-91390000D02*
X59000000Y-92915300D01*
X53920000Y-83770000D02*
X53920000Y-85295300D01*
X65023400Y-85295300D02*
X53920000Y-85295300D01*
X75396800Y-95668700D02*
X65023400Y-85295300D01*
X168114100Y-95668700D02*
X75396800Y-95668700D01*
X170675600Y-98230200D02*
X168114100Y-95668700D01*
X170675600Y-98504600D02*
X170675600Y-98230200D01*
X76091100Y-91390000D02*
X76091100Y-92915300D01*
X76609000Y-93433200D02*
X76091100Y-92915300D01*
X139090200Y-93433200D02*
X76609000Y-93433200D01*
X139440500Y-93783500D02*
X139090200Y-93433200D01*
X86251100Y-83770000D02*
X86251100Y-85295300D01*
X88522000Y-87566200D02*
X86251100Y-85295300D01*
X158844100Y-87566200D02*
X88522000Y-87566200D01*
X159120000Y-87842100D02*
X158844100Y-87566200D01*
X84259100Y-95004200D02*
X83863700Y-94608800D01*
X144111800Y-95004200D02*
X84259100Y-95004200D01*
X144440100Y-94675900D02*
X144111800Y-95004200D01*
X180690000Y-102470000D02*
X179514700Y-102470000D01*
X78631100Y-83770000D02*
X78631100Y-85295300D01*
X179514700Y-102102600D02*
X179514700Y-102470000D01*
X178706800Y-101294700D02*
X179514700Y-102102600D01*
X176640800Y-101294700D02*
X178706800Y-101294700D01*
X164138600Y-88792500D02*
X176640800Y-101294700D01*
X136992300Y-88792500D02*
X164138600Y-88792500D01*
X136480500Y-88280700D02*
X136992300Y-88792500D01*
X81616500Y-88280700D02*
X136480500Y-88280700D01*
X78631100Y-85295300D02*
X81616500Y-88280700D01*
X145827100Y-76535500D02*
X107387900Y-76535500D01*
X146964300Y-75398300D02*
X145827100Y-76535500D01*
X178150000Y-99930000D02*
X176974700Y-99930000D01*
X111072000Y-83770000D02*
X111072000Y-85295300D01*
X121799700Y-85295300D02*
X111072000Y-85295300D01*
X121820900Y-85274100D02*
X121799700Y-85295300D01*
X125744500Y-85274100D02*
X121820900Y-85274100D01*
X125799200Y-85328800D02*
X125744500Y-85274100D01*
X142877900Y-85328800D02*
X125799200Y-85328800D01*
X142939400Y-85267300D02*
X142877900Y-85328800D01*
X162312000Y-85267300D02*
X142939400Y-85267300D01*
X176974700Y-99930000D02*
X162312000Y-85267300D01*
X127257500Y-85992600D02*
X126563300Y-86686800D01*
X143239800Y-85992600D02*
X127257500Y-85992600D01*
X180690000Y-97390000D02*
X179514700Y-97390000D01*
X103452000Y-83770000D02*
X103452000Y-82244700D01*
X179514700Y-97022600D02*
X179514700Y-97390000D01*
X178706800Y-96214700D02*
X179514700Y-97022600D01*
X177069300Y-96214700D02*
X178706800Y-96214700D01*
X162648900Y-81794300D02*
X177069300Y-96214700D01*
X103902400Y-81794300D02*
X162648900Y-81794300D01*
X103452000Y-82244700D02*
X103902400Y-81794300D01*
X182370500Y-80030600D02*
X181707800Y-80693300D01*
X182370500Y-66909200D02*
X182370500Y-80030600D01*
X181006600Y-65545300D02*
X182370500Y-66909200D01*
X180133200Y-65545300D02*
X181006600Y-65545300D01*
X179325300Y-64737400D02*
X180133200Y-65545300D01*
X179325300Y-64370000D02*
X179325300Y-64737400D01*
X178150000Y-64370000D02*
X179325300Y-64370000D01*
X178150000Y-110090000D02*
X178150000Y-111265300D01*
X65095400Y-105205400D02*
X61265000Y-101375000D01*
X109184800Y-105205400D02*
X65095400Y-105205400D01*
X112242000Y-108262600D02*
X109184800Y-105205400D01*
X112242000Y-109762900D02*
X112242000Y-108262600D01*
X116332700Y-113853600D02*
X112242000Y-109762900D01*
X178617100Y-113853600D02*
X116332700Y-113853600D01*
X179325700Y-113145000D02*
X178617100Y-113853600D01*
X179325700Y-112073700D02*
X179325700Y-113145000D01*
X178517300Y-111265300D02*
X179325700Y-112073700D01*
X178150000Y-111265300D02*
X178517300Y-111265300D01*
X61560300Y-113355600D02*
X58725000Y-110520300D01*
X76383300Y-113355600D02*
X61560300Y-113355600D01*
X58725000Y-108995000D02*
X58725000Y-110520300D01*
X58214300Y-107469600D02*
X53645000Y-102900300D01*
X71866100Y-107469600D02*
X58214300Y-107469600D01*
X78722600Y-114326100D02*
X71866100Y-107469600D01*
X180679100Y-114326100D02*
X78722600Y-114326100D01*
X181870000Y-113135200D02*
X180679100Y-114326100D01*
X181870000Y-109538000D02*
X181870000Y-113135200D01*
X181057300Y-108725300D02*
X181870000Y-109538000D01*
X180690000Y-108725300D02*
X181057300Y-108725300D01*
X180690000Y-107550000D02*
X180690000Y-108725300D01*
X53645000Y-101375000D02*
X53645000Y-102900300D01*
X78786200Y-113105900D02*
X76200600Y-110520300D01*
X82706600Y-113105900D02*
X78786200Y-113105900D01*
X76200600Y-108995000D02*
X76200600Y-110520300D01*
X178150000Y-107550000D02*
X176974700Y-107550000D01*
X86360600Y-101375000D02*
X86360600Y-102900300D01*
X168775400Y-99350700D02*
X176974700Y-107550000D01*
X103336300Y-99350700D02*
X168775400Y-99350700D01*
X102082000Y-100605000D02*
X103336300Y-99350700D01*
X102082000Y-102135000D02*
X102082000Y-100605000D01*
X101278000Y-102939000D02*
X102082000Y-102135000D01*
X100384400Y-102939000D02*
X101278000Y-102939000D01*
X100333700Y-102888300D02*
X100384400Y-102939000D01*
X96336700Y-102888300D02*
X100333700Y-102888300D01*
X96324700Y-102900300D02*
X96336700Y-102888300D01*
X86360600Y-102900300D02*
X96324700Y-102900300D01*
X74998700Y-102900300D02*
X78740600Y-102900300D01*
X74773400Y-102675000D02*
X74998700Y-102900300D01*
X72507700Y-102675000D02*
X74773400Y-102675000D01*
X71772600Y-101939900D02*
X72507700Y-102675000D01*
X71772600Y-100895100D02*
X71772600Y-101939900D01*
X73769000Y-98898700D02*
X71772600Y-100895100D01*
X169948600Y-98898700D02*
X73769000Y-98898700D01*
X174884600Y-103834700D02*
X169948600Y-98898700D01*
X178706800Y-103834700D02*
X174884600Y-103834700D01*
X179514700Y-104642600D02*
X178706800Y-103834700D01*
X179514700Y-105010000D02*
X179514700Y-104642600D01*
X180690000Y-105010000D02*
X179514700Y-105010000D01*
X78740600Y-101375000D02*
X78740600Y-102900300D01*
X173029300Y-66910000D02*
X178150000Y-66910000D01*
X170570100Y-64450800D02*
X173029300Y-66910000D01*
X170570100Y-64211000D02*
X170570100Y-64450800D01*
X167245000Y-102900300D02*
X110972000Y-102900300D01*
X176974700Y-112630000D02*
X167245000Y-102900300D01*
X178150000Y-112630000D02*
X176974700Y-112630000D01*
X110972000Y-101375000D02*
X110972000Y-102900300D01*
X103842900Y-103391200D02*
X103352000Y-102900300D01*
X150107800Y-103391200D02*
X103842900Y-103391200D01*
X155184100Y-108467500D02*
X150107800Y-103391200D01*
X103352000Y-101375000D02*
X103352000Y-102900300D01*
D18*
G36*
X183915000Y-57230845D02*
X183870001Y-57163499D01*
X181848218Y-55141716D01*
X182091054Y-54778285D01*
X182204093Y-54210000D01*
X182091054Y-53641715D01*
X181769147Y-53159946D01*
X181439974Y-52940000D01*
X181769147Y-52720054D01*
X182091054Y-52238285D01*
X182204093Y-51670000D01*
X182091054Y-51101715D01*
X181769147Y-50619946D01*
X181439974Y-50400000D01*
X181769147Y-50180054D01*
X182091054Y-49698285D01*
X182204093Y-49130000D01*
X182091054Y-48561715D01*
X181864360Y-48222442D01*
X183443401Y-46643401D01*
X183608148Y-46396839D01*
X183666000Y-46106000D01*
X183666000Y-25461900D01*
X183608148Y-25171061D01*
X183443401Y-24924499D01*
X181115701Y-22596799D01*
X180869139Y-22432052D01*
X180578300Y-22374200D01*
X53253700Y-22374200D01*
X52962861Y-22432052D01*
X52716299Y-22596799D01*
X45706999Y-29606099D01*
X45542252Y-29852661D01*
X45484400Y-30143500D01*
X45484400Y-68459900D01*
X45542252Y-68750739D01*
X45706999Y-68997301D01*
X49230599Y-72520901D01*
X49477161Y-72685648D01*
X49757560Y-72741423D01*
X49757560Y-74708800D01*
X49806843Y-74956565D01*
X49947191Y-75166609D01*
X49977462Y-75186836D01*
X46321599Y-78842699D01*
X46156852Y-79089261D01*
X46099000Y-79380100D01*
X46099000Y-84132500D01*
X46156852Y-84423339D01*
X46321599Y-84669901D01*
X47008674Y-85356976D01*
X46796136Y-85420995D01*
X46603035Y-85958223D01*
X46630222Y-86528454D01*
X46796136Y-86929005D01*
X47042255Y-87003139D01*
X47870395Y-86175000D01*
X47856252Y-86160858D01*
X48035858Y-85981253D01*
X48050000Y-85995395D01*
X48064142Y-85981252D01*
X48243748Y-86160858D01*
X48229605Y-86175000D01*
X49057745Y-87003139D01*
X49303864Y-86929005D01*
X49326084Y-86867186D01*
X51773400Y-89314502D01*
X51773400Y-89542560D01*
X50580000Y-89542560D01*
X50332235Y-89591843D01*
X50122191Y-89732191D01*
X49981843Y-89942235D01*
X49932560Y-90190000D01*
X49932560Y-92590000D01*
X49981843Y-92837765D01*
X50122191Y-93047809D01*
X50332235Y-93188157D01*
X50580000Y-93237440D01*
X50620000Y-93237440D01*
X50620000Y-99174600D01*
X50677852Y-99465439D01*
X50750736Y-99574518D01*
X50555849Y-99613283D01*
X50090302Y-99924352D01*
X49779233Y-100389899D01*
X49739430Y-100590000D01*
X48963646Y-100590000D01*
X48942243Y-100538200D01*
X48538923Y-100134176D01*
X48011691Y-99915250D01*
X47440813Y-99914752D01*
X46913200Y-100132757D01*
X46509176Y-100536077D01*
X46290250Y-101063309D01*
X46289752Y-101634187D01*
X46507757Y-102161800D01*
X46911077Y-102565824D01*
X46977544Y-102593423D01*
X46970995Y-102596136D01*
X46896861Y-102842255D01*
X47725000Y-103670395D01*
X48553139Y-102842255D01*
X48479005Y-102596136D01*
X48472517Y-102593804D01*
X48536800Y-102567243D01*
X48940824Y-102163923D01*
X48963215Y-102110000D01*
X49729485Y-102110000D01*
X49779233Y-102360101D01*
X50090302Y-102825648D01*
X50555849Y-103136717D01*
X51105000Y-103245950D01*
X51654151Y-103136717D01*
X51850991Y-103005193D01*
X54365822Y-105520024D01*
X54245281Y-105640354D01*
X54087380Y-106020623D01*
X54087021Y-106432371D01*
X54244258Y-106812915D01*
X54299600Y-106868354D01*
X54299600Y-107303742D01*
X54194151Y-107233283D01*
X53645000Y-107124050D01*
X53095849Y-107233283D01*
X52630302Y-107544352D01*
X52531882Y-107691648D01*
X52503157Y-107547235D01*
X52362809Y-107337191D01*
X52152765Y-107196843D01*
X51905000Y-107147560D01*
X50305000Y-107147560D01*
X50057235Y-107196843D01*
X49847191Y-107337191D01*
X49706843Y-107547235D01*
X49657560Y-107795000D01*
X49657560Y-110195000D01*
X49706843Y-110442765D01*
X49847191Y-110652809D01*
X50057235Y-110793157D01*
X50305000Y-110842440D01*
X51905000Y-110842440D01*
X52152765Y-110793157D01*
X52362809Y-110652809D01*
X52503157Y-110442765D01*
X52531882Y-110298352D01*
X52630302Y-110445648D01*
X53095849Y-110756717D01*
X53645000Y-110865950D01*
X54194151Y-110756717D01*
X54605476Y-110481878D01*
X59911099Y-115787501D01*
X60157660Y-115952248D01*
X60205914Y-115961846D01*
X60448500Y-116010100D01*
X181223000Y-116010100D01*
X181513839Y-115952248D01*
X181760401Y-115787501D01*
X183870001Y-113677901D01*
X183915000Y-113610555D01*
X183915000Y-117365000D01*
X39860000Y-117365000D01*
X39860000Y-104857745D01*
X46896861Y-104857745D01*
X46970995Y-105103864D01*
X47508223Y-105296965D01*
X48078454Y-105269778D01*
X48479005Y-105103864D01*
X48553139Y-104857745D01*
X47725000Y-104029605D01*
X46896861Y-104857745D01*
X39860000Y-104857745D01*
X39860000Y-103633223D01*
X46278035Y-103633223D01*
X46305222Y-104203454D01*
X46471136Y-104604005D01*
X46717255Y-104678139D01*
X47545395Y-103850000D01*
X47904605Y-103850000D01*
X48732745Y-104678139D01*
X48978864Y-104604005D01*
X49171965Y-104066777D01*
X49144778Y-103496546D01*
X48978864Y-103095995D01*
X48732745Y-103021861D01*
X47904605Y-103850000D01*
X47545395Y-103850000D01*
X46717255Y-103021861D01*
X46471136Y-103095995D01*
X46278035Y-103633223D01*
X39860000Y-103633223D01*
X39860000Y-87182745D01*
X47221861Y-87182745D01*
X47295995Y-87428864D01*
X47833223Y-87621965D01*
X48403454Y-87594778D01*
X48804005Y-87428864D01*
X48878139Y-87182745D01*
X48050000Y-86354605D01*
X47221861Y-87182745D01*
X39860000Y-87182745D01*
X39860000Y-22110000D01*
X183915000Y-22110000D01*
X183915000Y-57230845D01*
X183915000Y-57230845D01*
G37*
X183915000Y-57230845D02*
X183870001Y-57163499D01*
X181848218Y-55141716D01*
X182091054Y-54778285D01*
X182204093Y-54210000D01*
X182091054Y-53641715D01*
X181769147Y-53159946D01*
X181439974Y-52940000D01*
X181769147Y-52720054D01*
X182091054Y-52238285D01*
X182204093Y-51670000D01*
X182091054Y-51101715D01*
X181769147Y-50619946D01*
X181439974Y-50400000D01*
X181769147Y-50180054D01*
X182091054Y-49698285D01*
X182204093Y-49130000D01*
X182091054Y-48561715D01*
X181864360Y-48222442D01*
X183443401Y-46643401D01*
X183608148Y-46396839D01*
X183666000Y-46106000D01*
X183666000Y-25461900D01*
X183608148Y-25171061D01*
X183443401Y-24924499D01*
X181115701Y-22596799D01*
X180869139Y-22432052D01*
X180578300Y-22374200D01*
X53253700Y-22374200D01*
X52962861Y-22432052D01*
X52716299Y-22596799D01*
X45706999Y-29606099D01*
X45542252Y-29852661D01*
X45484400Y-30143500D01*
X45484400Y-68459900D01*
X45542252Y-68750739D01*
X45706999Y-68997301D01*
X49230599Y-72520901D01*
X49477161Y-72685648D01*
X49757560Y-72741423D01*
X49757560Y-74708800D01*
X49806843Y-74956565D01*
X49947191Y-75166609D01*
X49977462Y-75186836D01*
X46321599Y-78842699D01*
X46156852Y-79089261D01*
X46099000Y-79380100D01*
X46099000Y-84132500D01*
X46156852Y-84423339D01*
X46321599Y-84669901D01*
X47008674Y-85356976D01*
X46796136Y-85420995D01*
X46603035Y-85958223D01*
X46630222Y-86528454D01*
X46796136Y-86929005D01*
X47042255Y-87003139D01*
X47870395Y-86175000D01*
X47856252Y-86160858D01*
X48035858Y-85981253D01*
X48050000Y-85995395D01*
X48064142Y-85981252D01*
X48243748Y-86160858D01*
X48229605Y-86175000D01*
X49057745Y-87003139D01*
X49303864Y-86929005D01*
X49326084Y-86867186D01*
X51773400Y-89314502D01*
X51773400Y-89542560D01*
X50580000Y-89542560D01*
X50332235Y-89591843D01*
X50122191Y-89732191D01*
X49981843Y-89942235D01*
X49932560Y-90190000D01*
X49932560Y-92590000D01*
X49981843Y-92837765D01*
X50122191Y-93047809D01*
X50332235Y-93188157D01*
X50580000Y-93237440D01*
X50620000Y-93237440D01*
X50620000Y-99174600D01*
X50677852Y-99465439D01*
X50750736Y-99574518D01*
X50555849Y-99613283D01*
X50090302Y-99924352D01*
X49779233Y-100389899D01*
X49739430Y-100590000D01*
X48963646Y-100590000D01*
X48942243Y-100538200D01*
X48538923Y-100134176D01*
X48011691Y-99915250D01*
X47440813Y-99914752D01*
X46913200Y-100132757D01*
X46509176Y-100536077D01*
X46290250Y-101063309D01*
X46289752Y-101634187D01*
X46507757Y-102161800D01*
X46911077Y-102565824D01*
X46977544Y-102593423D01*
X46970995Y-102596136D01*
X46896861Y-102842255D01*
X47725000Y-103670395D01*
X48553139Y-102842255D01*
X48479005Y-102596136D01*
X48472517Y-102593804D01*
X48536800Y-102567243D01*
X48940824Y-102163923D01*
X48963215Y-102110000D01*
X49729485Y-102110000D01*
X49779233Y-102360101D01*
X50090302Y-102825648D01*
X50555849Y-103136717D01*
X51105000Y-103245950D01*
X51654151Y-103136717D01*
X51850991Y-103005193D01*
X54365822Y-105520024D01*
X54245281Y-105640354D01*
X54087380Y-106020623D01*
X54087021Y-106432371D01*
X54244258Y-106812915D01*
X54299600Y-106868354D01*
X54299600Y-107303742D01*
X54194151Y-107233283D01*
X53645000Y-107124050D01*
X53095849Y-107233283D01*
X52630302Y-107544352D01*
X52531882Y-107691648D01*
X52503157Y-107547235D01*
X52362809Y-107337191D01*
X52152765Y-107196843D01*
X51905000Y-107147560D01*
X50305000Y-107147560D01*
X50057235Y-107196843D01*
X49847191Y-107337191D01*
X49706843Y-107547235D01*
X49657560Y-107795000D01*
X49657560Y-110195000D01*
X49706843Y-110442765D01*
X49847191Y-110652809D01*
X50057235Y-110793157D01*
X50305000Y-110842440D01*
X51905000Y-110842440D01*
X52152765Y-110793157D01*
X52362809Y-110652809D01*
X52503157Y-110442765D01*
X52531882Y-110298352D01*
X52630302Y-110445648D01*
X53095849Y-110756717D01*
X53645000Y-110865950D01*
X54194151Y-110756717D01*
X54605476Y-110481878D01*
X59911099Y-115787501D01*
X60157660Y-115952248D01*
X60205914Y-115961846D01*
X60448500Y-116010100D01*
X181223000Y-116010100D01*
X181513839Y-115952248D01*
X181760401Y-115787501D01*
X183870001Y-113677901D01*
X183915000Y-113610555D01*
X183915000Y-117365000D01*
X39860000Y-117365000D01*
X39860000Y-104857745D01*
X46896861Y-104857745D01*
X46970995Y-105103864D01*
X47508223Y-105296965D01*
X48078454Y-105269778D01*
X48479005Y-105103864D01*
X48553139Y-104857745D01*
X47725000Y-104029605D01*
X46896861Y-104857745D01*
X39860000Y-104857745D01*
X39860000Y-103633223D01*
X46278035Y-103633223D01*
X46305222Y-104203454D01*
X46471136Y-104604005D01*
X46717255Y-104678139D01*
X47545395Y-103850000D01*
X47904605Y-103850000D01*
X48732745Y-104678139D01*
X48978864Y-104604005D01*
X49171965Y-104066777D01*
X49144778Y-103496546D01*
X48978864Y-103095995D01*
X48732745Y-103021861D01*
X47904605Y-103850000D01*
X47545395Y-103850000D01*
X46717255Y-103021861D01*
X46471136Y-103095995D01*
X46278035Y-103633223D01*
X39860000Y-103633223D01*
X39860000Y-87182745D01*
X47221861Y-87182745D01*
X47295995Y-87428864D01*
X47833223Y-87621965D01*
X48403454Y-87594778D01*
X48804005Y-87428864D01*
X48878139Y-87182745D01*
X48050000Y-86354605D01*
X47221861Y-87182745D01*
X39860000Y-87182745D01*
X39860000Y-22110000D01*
X183915000Y-22110000D01*
X183915000Y-57230845D01*
G36*
X176363498Y-113093600D02*
X116647502Y-113093600D01*
X114210696Y-110656794D01*
X114526698Y-110445648D01*
X114779507Y-110067293D01*
X115127104Y-110499500D01*
X115620181Y-110769367D01*
X115702961Y-110786904D01*
X115925000Y-110664915D01*
X115925000Y-109122000D01*
X116179000Y-109122000D01*
X116179000Y-110664915D01*
X116401039Y-110786904D01*
X116483819Y-110769367D01*
X116976896Y-110499500D01*
X117329166Y-110061483D01*
X117487000Y-109522000D01*
X117487000Y-109122000D01*
X116179000Y-109122000D01*
X115925000Y-109122000D01*
X115905000Y-109122000D01*
X115905000Y-108868000D01*
X115925000Y-108868000D01*
X115925000Y-107325085D01*
X116179000Y-107325085D01*
X116179000Y-108868000D01*
X117487000Y-108868000D01*
X117487000Y-108468000D01*
X117329166Y-107928517D01*
X116976896Y-107490500D01*
X116483819Y-107220633D01*
X116401039Y-107203096D01*
X116179000Y-107325085D01*
X115925000Y-107325085D01*
X115702961Y-107203096D01*
X115620181Y-107220633D01*
X115127104Y-107490500D01*
X114779507Y-107922707D01*
X114526698Y-107544352D01*
X114272000Y-107374168D01*
X114272000Y-106345600D01*
X114214148Y-106054761D01*
X114049401Y-105808199D01*
X112965335Y-104724133D01*
X112965479Y-104558929D01*
X112808242Y-104178385D01*
X112781104Y-104151200D01*
X149792998Y-104151200D01*
X154149065Y-108507267D01*
X154148921Y-108672471D01*
X154306158Y-109053015D01*
X154597054Y-109344419D01*
X154977323Y-109502320D01*
X155389071Y-109502679D01*
X155769615Y-109345442D01*
X156061019Y-109054546D01*
X156218920Y-108674277D01*
X156219279Y-108262529D01*
X156062042Y-107881985D01*
X155771146Y-107590581D01*
X155390877Y-107432680D01*
X155223936Y-107432534D01*
X151451702Y-103660300D01*
X166930198Y-103660300D01*
X176363498Y-113093600D01*
X176363498Y-113093600D01*
G37*
X176363498Y-113093600D02*
X116647502Y-113093600D01*
X114210696Y-110656794D01*
X114526698Y-110445648D01*
X114779507Y-110067293D01*
X115127104Y-110499500D01*
X115620181Y-110769367D01*
X115702961Y-110786904D01*
X115925000Y-110664915D01*
X115925000Y-109122000D01*
X116179000Y-109122000D01*
X116179000Y-110664915D01*
X116401039Y-110786904D01*
X116483819Y-110769367D01*
X116976896Y-110499500D01*
X117329166Y-110061483D01*
X117487000Y-109522000D01*
X117487000Y-109122000D01*
X116179000Y-109122000D01*
X115925000Y-109122000D01*
X115905000Y-109122000D01*
X115905000Y-108868000D01*
X115925000Y-108868000D01*
X115925000Y-107325085D01*
X116179000Y-107325085D01*
X116179000Y-108868000D01*
X117487000Y-108868000D01*
X117487000Y-108468000D01*
X117329166Y-107928517D01*
X116976896Y-107490500D01*
X116483819Y-107220633D01*
X116401039Y-107203096D01*
X116179000Y-107325085D01*
X115925000Y-107325085D01*
X115702961Y-107203096D01*
X115620181Y-107220633D01*
X115127104Y-107490500D01*
X114779507Y-107922707D01*
X114526698Y-107544352D01*
X114272000Y-107374168D01*
X114272000Y-106345600D01*
X114214148Y-106054761D01*
X114049401Y-105808199D01*
X112965335Y-104724133D01*
X112965479Y-104558929D01*
X112808242Y-104178385D01*
X112781104Y-104151200D01*
X149792998Y-104151200D01*
X154149065Y-108507267D01*
X154148921Y-108672471D01*
X154306158Y-109053015D01*
X154597054Y-109344419D01*
X154977323Y-109502320D01*
X155389071Y-109502679D01*
X155769615Y-109345442D01*
X156061019Y-109054546D01*
X156218920Y-108674277D01*
X156219279Y-108262529D01*
X156062042Y-107881985D01*
X155771146Y-107590581D01*
X155390877Y-107432680D01*
X155223936Y-107432534D01*
X151451702Y-103660300D01*
X166930198Y-103660300D01*
X176363498Y-113093600D01*
G36*
X180817000Y-112503000D02*
X180837000Y-112503000D01*
X180837000Y-112757000D01*
X180817000Y-112757000D01*
X180817000Y-112777000D01*
X180563000Y-112777000D01*
X180563000Y-112757000D01*
X180543000Y-112757000D01*
X180543000Y-112503000D01*
X180563000Y-112503000D01*
X180563000Y-112483000D01*
X180817000Y-112483000D01*
X180817000Y-112503000D01*
X180817000Y-112503000D01*
G37*
X180817000Y-112503000D02*
X180837000Y-112503000D01*
X180837000Y-112757000D01*
X180817000Y-112757000D01*
X180817000Y-112777000D01*
X180563000Y-112777000D01*
X180563000Y-112757000D01*
X180543000Y-112757000D01*
X180543000Y-112503000D01*
X180563000Y-112503000D01*
X180563000Y-112483000D01*
X180817000Y-112483000D01*
X180817000Y-112503000D01*
G36*
X75798897Y-112477199D02*
X75797785Y-112477658D01*
X75679637Y-112595600D01*
X61875102Y-112595600D01*
X59730977Y-110451475D01*
X59739698Y-110445648D01*
X59995000Y-110063562D01*
X60250302Y-110445648D01*
X60526915Y-110630475D01*
X60562852Y-110811139D01*
X60727599Y-111057701D01*
X61611399Y-111941501D01*
X61857961Y-112106248D01*
X62148800Y-112164100D01*
X71826439Y-112164100D01*
X71943154Y-112281019D01*
X72323423Y-112438920D01*
X72735171Y-112439279D01*
X73115715Y-112282042D01*
X73407119Y-111991146D01*
X73565020Y-111610877D01*
X73565379Y-111199129D01*
X73408142Y-110818585D01*
X73117246Y-110527181D01*
X72736977Y-110369280D01*
X72325229Y-110368921D01*
X71944685Y-110526158D01*
X71826537Y-110644100D01*
X67005696Y-110644100D01*
X67269896Y-110499500D01*
X67622166Y-110061483D01*
X67780000Y-109522000D01*
X67780000Y-109122000D01*
X66472000Y-109122000D01*
X66472000Y-109142000D01*
X66218000Y-109142000D01*
X66218000Y-109122000D01*
X66198000Y-109122000D01*
X66198000Y-108868000D01*
X66218000Y-108868000D01*
X66218000Y-108848000D01*
X66472000Y-108848000D01*
X66472000Y-108868000D01*
X67780000Y-108868000D01*
X67780000Y-108468000D01*
X67710252Y-108229600D01*
X71551298Y-108229600D01*
X75798897Y-112477199D01*
X75798897Y-112477199D01*
G37*
X75798897Y-112477199D02*
X75797785Y-112477658D01*
X75679637Y-112595600D01*
X61875102Y-112595600D01*
X59730977Y-110451475D01*
X59739698Y-110445648D01*
X59995000Y-110063562D01*
X60250302Y-110445648D01*
X60526915Y-110630475D01*
X60562852Y-110811139D01*
X60727599Y-111057701D01*
X61611399Y-111941501D01*
X61857961Y-112106248D01*
X62148800Y-112164100D01*
X71826439Y-112164100D01*
X71943154Y-112281019D01*
X72323423Y-112438920D01*
X72735171Y-112439279D01*
X73115715Y-112282042D01*
X73407119Y-111991146D01*
X73565020Y-111610877D01*
X73565379Y-111199129D01*
X73408142Y-110818585D01*
X73117246Y-110527181D01*
X72736977Y-110369280D01*
X72325229Y-110368921D01*
X71944685Y-110526158D01*
X71826537Y-110644100D01*
X67005696Y-110644100D01*
X67269896Y-110499500D01*
X67622166Y-110061483D01*
X67780000Y-109522000D01*
X67780000Y-109122000D01*
X66472000Y-109122000D01*
X66472000Y-109142000D01*
X66218000Y-109142000D01*
X66218000Y-109122000D01*
X66198000Y-109122000D01*
X66198000Y-108868000D01*
X66218000Y-108868000D01*
X66218000Y-108848000D01*
X66472000Y-108848000D01*
X66472000Y-108868000D01*
X67780000Y-108868000D01*
X67780000Y-108468000D01*
X67710252Y-108229600D01*
X71551298Y-108229600D01*
X75798897Y-112477199D01*
G36*
X99364560Y-107795000D02*
X99364560Y-109760400D01*
X92805852Y-109760400D01*
X92875600Y-109522000D01*
X92875600Y-109122000D01*
X91567600Y-109122000D01*
X91567600Y-109142000D01*
X91313600Y-109142000D01*
X91313600Y-109122000D01*
X91293600Y-109122000D01*
X91293600Y-108868000D01*
X91313600Y-108868000D01*
X91313600Y-108848000D01*
X91567600Y-108848000D01*
X91567600Y-108868000D01*
X92875600Y-108868000D01*
X92875600Y-108468000D01*
X92717766Y-107928517D01*
X92416806Y-107554300D01*
X99412438Y-107554300D01*
X99364560Y-107795000D01*
X99364560Y-107795000D01*
G37*
X99364560Y-107795000D02*
X99364560Y-109760400D01*
X92805852Y-109760400D01*
X92875600Y-109522000D01*
X92875600Y-109122000D01*
X91567600Y-109122000D01*
X91567600Y-109142000D01*
X91313600Y-109142000D01*
X91313600Y-109122000D01*
X91293600Y-109122000D01*
X91293600Y-108868000D01*
X91313600Y-108868000D01*
X91313600Y-108848000D01*
X91567600Y-108848000D01*
X91567600Y-108868000D01*
X92875600Y-108868000D01*
X92875600Y-108468000D01*
X92717766Y-107928517D01*
X92416806Y-107554300D01*
X99412438Y-107554300D01*
X99364560Y-107795000D01*
G36*
X97643748Y-104010858D02*
X97629605Y-104025000D01*
X97643748Y-104039142D01*
X97464143Y-104218748D01*
X97450000Y-104204605D01*
X97435858Y-104218748D01*
X97256252Y-104039142D01*
X97270395Y-104025000D01*
X97256253Y-104010858D01*
X97435858Y-103831253D01*
X97450000Y-103845395D01*
X97464143Y-103831253D01*
X97643748Y-104010858D01*
X97643748Y-104010858D01*
G37*
X97643748Y-104010858D02*
X97629605Y-104025000D01*
X97643748Y-104039142D01*
X97464143Y-104218748D01*
X97450000Y-104204605D01*
X97435858Y-104218748D01*
X97256252Y-104039142D01*
X97270395Y-104025000D01*
X97256253Y-104010858D01*
X97435858Y-103831253D01*
X97450000Y-103845395D01*
X97464143Y-103831253D01*
X97643748Y-104010858D01*
G36*
X73093748Y-103910858D02*
X73079605Y-103925000D01*
X73093748Y-103939142D01*
X72914143Y-104118748D01*
X72900000Y-104104605D01*
X72885858Y-104118748D01*
X72706252Y-103939142D01*
X72720395Y-103925000D01*
X72706253Y-103910858D01*
X72885858Y-103731253D01*
X72900000Y-103745395D01*
X72914143Y-103731253D01*
X73093748Y-103910858D01*
X73093748Y-103910858D01*
G37*
X73093748Y-103910858D02*
X73079605Y-103925000D01*
X73093748Y-103939142D01*
X72914143Y-104118748D01*
X72900000Y-104104605D01*
X72885858Y-104118748D01*
X72706252Y-103939142D01*
X72720395Y-103925000D01*
X72706253Y-103910858D01*
X72885858Y-103731253D01*
X72900000Y-103745395D01*
X72914143Y-103731253D01*
X73093748Y-103910858D01*
G36*
X74549898Y-96533500D02*
X63693002Y-96533500D01*
X60005977Y-92846475D01*
X60014698Y-92840648D01*
X60270000Y-92458562D01*
X60525302Y-92840648D01*
X60990849Y-93151717D01*
X61540000Y-93260950D01*
X62089151Y-93151717D01*
X62554698Y-92840648D01*
X62810000Y-92458562D01*
X63065302Y-92840648D01*
X63530849Y-93151717D01*
X64080000Y-93260950D01*
X64629151Y-93151717D01*
X65094698Y-92840648D01*
X65347507Y-92462293D01*
X65695104Y-92894500D01*
X66188181Y-93164367D01*
X66270961Y-93181904D01*
X66493000Y-93059915D01*
X66493000Y-91517000D01*
X66747000Y-91517000D01*
X66747000Y-93059915D01*
X66969039Y-93181904D01*
X67051819Y-93164367D01*
X67544896Y-92894500D01*
X67897166Y-92456483D01*
X68055000Y-91917000D01*
X68055000Y-91517000D01*
X66747000Y-91517000D01*
X66493000Y-91517000D01*
X66473000Y-91517000D01*
X66473000Y-91263000D01*
X66493000Y-91263000D01*
X66493000Y-91243000D01*
X66747000Y-91243000D01*
X66747000Y-91263000D01*
X68055000Y-91263000D01*
X68055000Y-90863000D01*
X67985252Y-90624600D01*
X68640998Y-90624600D01*
X74549898Y-96533500D01*
X74549898Y-96533500D01*
G37*
X74549898Y-96533500D02*
X63693002Y-96533500D01*
X60005977Y-92846475D01*
X60014698Y-92840648D01*
X60270000Y-92458562D01*
X60525302Y-92840648D01*
X60990849Y-93151717D01*
X61540000Y-93260950D01*
X62089151Y-93151717D01*
X62554698Y-92840648D01*
X62810000Y-92458562D01*
X63065302Y-92840648D01*
X63530849Y-93151717D01*
X64080000Y-93260950D01*
X64629151Y-93151717D01*
X65094698Y-92840648D01*
X65347507Y-92462293D01*
X65695104Y-92894500D01*
X66188181Y-93164367D01*
X66270961Y-93181904D01*
X66493000Y-93059915D01*
X66493000Y-91517000D01*
X66747000Y-91517000D01*
X66747000Y-93059915D01*
X66969039Y-93181904D01*
X67051819Y-93164367D01*
X67544896Y-92894500D01*
X67897166Y-92456483D01*
X68055000Y-91917000D01*
X68055000Y-91517000D01*
X66747000Y-91517000D01*
X66493000Y-91517000D01*
X66473000Y-91517000D01*
X66473000Y-91263000D01*
X66493000Y-91263000D01*
X66493000Y-91243000D01*
X66747000Y-91243000D01*
X66747000Y-91263000D01*
X68055000Y-91263000D01*
X68055000Y-90863000D01*
X67985252Y-90624600D01*
X68640998Y-90624600D01*
X74549898Y-96533500D01*
G36*
X167683885Y-93412587D02*
X167438239Y-93248452D01*
X167147400Y-93190600D01*
X151796102Y-93190600D01*
X151855067Y-93131635D01*
X152020271Y-93131779D01*
X152400815Y-92974542D01*
X152692219Y-92683646D01*
X152850120Y-92303377D01*
X152850479Y-91891629D01*
X152693242Y-91511085D01*
X152402346Y-91219681D01*
X152022077Y-91061780D01*
X151610329Y-91061421D01*
X151229785Y-91218658D01*
X150938381Y-91509554D01*
X150780480Y-91889823D01*
X150780334Y-92056764D01*
X150681798Y-92155300D01*
X142837282Y-92155300D01*
X142907000Y-91917000D01*
X142907000Y-91517000D01*
X141599000Y-91517000D01*
X141599000Y-91537000D01*
X141345000Y-91537000D01*
X141345000Y-91517000D01*
X141325000Y-91517000D01*
X141325000Y-91263000D01*
X141345000Y-91263000D01*
X141345000Y-89720085D01*
X141599000Y-89720085D01*
X141599000Y-91263000D01*
X142907000Y-91263000D01*
X142907000Y-90863000D01*
X142749166Y-90323517D01*
X142396896Y-89885500D01*
X141903819Y-89615633D01*
X141821039Y-89598096D01*
X141599000Y-89720085D01*
X141345000Y-89720085D01*
X141122961Y-89598096D01*
X141040181Y-89615633D01*
X140547104Y-89885500D01*
X140199507Y-90317707D01*
X139946698Y-89939352D01*
X139670085Y-89754525D01*
X139634148Y-89573861D01*
X139619875Y-89552500D01*
X163823798Y-89552500D01*
X167683885Y-93412587D01*
X167683885Y-93412587D01*
G37*
X167683885Y-93412587D02*
X167438239Y-93248452D01*
X167147400Y-93190600D01*
X151796102Y-93190600D01*
X151855067Y-93131635D01*
X152020271Y-93131779D01*
X152400815Y-92974542D01*
X152692219Y-92683646D01*
X152850120Y-92303377D01*
X152850479Y-91891629D01*
X152693242Y-91511085D01*
X152402346Y-91219681D01*
X152022077Y-91061780D01*
X151610329Y-91061421D01*
X151229785Y-91218658D01*
X150938381Y-91509554D01*
X150780480Y-91889823D01*
X150780334Y-92056764D01*
X150681798Y-92155300D01*
X142837282Y-92155300D01*
X142907000Y-91917000D01*
X142907000Y-91517000D01*
X141599000Y-91517000D01*
X141599000Y-91537000D01*
X141345000Y-91537000D01*
X141345000Y-91517000D01*
X141325000Y-91517000D01*
X141325000Y-91263000D01*
X141345000Y-91263000D01*
X141345000Y-89720085D01*
X141599000Y-89720085D01*
X141599000Y-91263000D01*
X142907000Y-91263000D01*
X142907000Y-90863000D01*
X142749166Y-90323517D01*
X142396896Y-89885500D01*
X141903819Y-89615633D01*
X141821039Y-89598096D01*
X141599000Y-89720085D01*
X141345000Y-89720085D01*
X141122961Y-89598096D01*
X141040181Y-89615633D01*
X140547104Y-89885500D01*
X140199507Y-90317707D01*
X139946698Y-89939352D01*
X139670085Y-89754525D01*
X139634148Y-89573861D01*
X139619875Y-89552500D01*
X163823798Y-89552500D01*
X167683885Y-93412587D01*
G36*
X96750498Y-92673200D02*
X92433974Y-92673200D01*
X92608266Y-92456483D01*
X92766100Y-91917000D01*
X92766100Y-91517000D01*
X91458100Y-91517000D01*
X91458100Y-91537000D01*
X91204100Y-91537000D01*
X91204100Y-91517000D01*
X91184100Y-91517000D01*
X91184100Y-91263000D01*
X91204100Y-91263000D01*
X91204100Y-91243000D01*
X91458100Y-91243000D01*
X91458100Y-91263000D01*
X92766100Y-91263000D01*
X92766100Y-90863000D01*
X92608266Y-90323517D01*
X92488260Y-90174300D01*
X94251598Y-90174300D01*
X96750498Y-92673200D01*
X96750498Y-92673200D01*
G37*
X96750498Y-92673200D02*
X92433974Y-92673200D01*
X92608266Y-92456483D01*
X92766100Y-91917000D01*
X92766100Y-91517000D01*
X91458100Y-91517000D01*
X91458100Y-91537000D01*
X91204100Y-91537000D01*
X91204100Y-91517000D01*
X91184100Y-91517000D01*
X91184100Y-91263000D01*
X91204100Y-91263000D01*
X91204100Y-91243000D01*
X91458100Y-91243000D01*
X91458100Y-91263000D01*
X92766100Y-91263000D01*
X92766100Y-90863000D01*
X92608266Y-90323517D01*
X92488260Y-90174300D01*
X94251598Y-90174300D01*
X96750498Y-92673200D01*
G36*
X124784560Y-92155300D02*
X117517282Y-92155300D01*
X117587000Y-91917000D01*
X117587000Y-91517000D01*
X116279000Y-91517000D01*
X116279000Y-91537000D01*
X116025000Y-91537000D01*
X116025000Y-91517000D01*
X116005000Y-91517000D01*
X116005000Y-91263000D01*
X116025000Y-91263000D01*
X116025000Y-91243000D01*
X116279000Y-91243000D01*
X116279000Y-91263000D01*
X117587000Y-91263000D01*
X117587000Y-90863000D01*
X117517282Y-90624700D01*
X124784560Y-90624700D01*
X124784560Y-92155300D01*
X124784560Y-92155300D01*
G37*
X124784560Y-92155300D02*
X117517282Y-92155300D01*
X117587000Y-91917000D01*
X117587000Y-91517000D01*
X116279000Y-91517000D01*
X116279000Y-91537000D01*
X116025000Y-91537000D01*
X116025000Y-91517000D01*
X116005000Y-91517000D01*
X116005000Y-91263000D01*
X116025000Y-91263000D01*
X116025000Y-91243000D01*
X116279000Y-91243000D01*
X116279000Y-91263000D01*
X117587000Y-91263000D01*
X117587000Y-90863000D01*
X117517282Y-90624700D01*
X124784560Y-90624700D01*
X124784560Y-92155300D01*
G36*
X176437299Y-80147401D02*
X176683860Y-80312148D01*
X176730570Y-80321439D01*
X176862077Y-80347598D01*
X177070853Y-80660054D01*
X177400026Y-80880000D01*
X177070853Y-81099946D01*
X176748946Y-81581715D01*
X176635907Y-82150000D01*
X176748946Y-82718285D01*
X177070853Y-83200054D01*
X177400026Y-83420000D01*
X177070853Y-83639946D01*
X176748946Y-84121715D01*
X176635907Y-84690000D01*
X176748946Y-85258285D01*
X177070853Y-85740054D01*
X177400026Y-85960000D01*
X177070853Y-86179946D01*
X176748946Y-86661715D01*
X176635907Y-87230000D01*
X176748946Y-87798285D01*
X177070853Y-88280054D01*
X177400026Y-88500000D01*
X177070853Y-88719946D01*
X176819350Y-89096348D01*
X164678201Y-76955199D01*
X164431639Y-76790452D01*
X164140800Y-76732600D01*
X146704802Y-76732600D01*
X147004067Y-76433335D01*
X147169271Y-76433479D01*
X147549815Y-76276242D01*
X147841219Y-75985346D01*
X147999120Y-75605077D01*
X147999479Y-75193329D01*
X147842242Y-74812785D01*
X147551346Y-74521381D01*
X147171077Y-74363480D01*
X146759329Y-74363121D01*
X146378785Y-74520358D01*
X146087381Y-74811254D01*
X145929480Y-75191523D01*
X145929334Y-75358464D01*
X145512298Y-75775500D01*
X118913546Y-75775500D01*
X119048539Y-75748648D01*
X119295101Y-75583901D01*
X122220602Y-72658400D01*
X124784560Y-72658400D01*
X124784560Y-74799200D01*
X124833843Y-75046965D01*
X124974191Y-75257009D01*
X125184235Y-75397357D01*
X125432000Y-75446640D01*
X127032000Y-75446640D01*
X127279765Y-75397357D01*
X127489809Y-75257009D01*
X127630157Y-75046965D01*
X127658882Y-74902552D01*
X127757302Y-75049848D01*
X128222849Y-75360917D01*
X128772000Y-75470150D01*
X129321151Y-75360917D01*
X129786698Y-75049848D01*
X130042000Y-74667762D01*
X130297302Y-75049848D01*
X130762849Y-75360917D01*
X131312000Y-75470150D01*
X131861151Y-75360917D01*
X132326698Y-75049848D01*
X132582000Y-74667762D01*
X132837302Y-75049848D01*
X133302849Y-75360917D01*
X133852000Y-75470150D01*
X134401151Y-75360917D01*
X134866698Y-75049848D01*
X135122000Y-74667762D01*
X135377302Y-75049848D01*
X135842849Y-75360917D01*
X136392000Y-75470150D01*
X136941151Y-75360917D01*
X137406698Y-75049848D01*
X137662000Y-74667762D01*
X137917302Y-75049848D01*
X138382849Y-75360917D01*
X138932000Y-75470150D01*
X139481151Y-75360917D01*
X139946698Y-75049848D01*
X140199507Y-74671493D01*
X140547104Y-75103700D01*
X141040181Y-75373567D01*
X141122961Y-75391104D01*
X141345000Y-75269115D01*
X141345000Y-73726200D01*
X141599000Y-73726200D01*
X141599000Y-75269115D01*
X141821039Y-75391104D01*
X141903819Y-75373567D01*
X142396896Y-75103700D01*
X142749166Y-74665683D01*
X142907000Y-74126200D01*
X142907000Y-73726200D01*
X141599000Y-73726200D01*
X141345000Y-73726200D01*
X141325000Y-73726200D01*
X141325000Y-73472200D01*
X141345000Y-73472200D01*
X141345000Y-73452200D01*
X141599000Y-73452200D01*
X141599000Y-73472200D01*
X142907000Y-73472200D01*
X142907000Y-73072200D01*
X142785936Y-72658400D01*
X150805700Y-72658400D01*
X151096539Y-72600548D01*
X151343101Y-72435801D01*
X151784467Y-71994435D01*
X151949671Y-71994579D01*
X152330215Y-71837342D01*
X152621619Y-71546446D01*
X152779520Y-71166177D01*
X152779879Y-70754429D01*
X152634879Y-70403500D01*
X166693398Y-70403500D01*
X176437299Y-80147401D01*
X176437299Y-80147401D01*
G37*
X176437299Y-80147401D02*
X176683860Y-80312148D01*
X176730570Y-80321439D01*
X176862077Y-80347598D01*
X177070853Y-80660054D01*
X177400026Y-80880000D01*
X177070853Y-81099946D01*
X176748946Y-81581715D01*
X176635907Y-82150000D01*
X176748946Y-82718285D01*
X177070853Y-83200054D01*
X177400026Y-83420000D01*
X177070853Y-83639946D01*
X176748946Y-84121715D01*
X176635907Y-84690000D01*
X176748946Y-85258285D01*
X177070853Y-85740054D01*
X177400026Y-85960000D01*
X177070853Y-86179946D01*
X176748946Y-86661715D01*
X176635907Y-87230000D01*
X176748946Y-87798285D01*
X177070853Y-88280054D01*
X177400026Y-88500000D01*
X177070853Y-88719946D01*
X176819350Y-89096348D01*
X164678201Y-76955199D01*
X164431639Y-76790452D01*
X164140800Y-76732600D01*
X146704802Y-76732600D01*
X147004067Y-76433335D01*
X147169271Y-76433479D01*
X147549815Y-76276242D01*
X147841219Y-75985346D01*
X147999120Y-75605077D01*
X147999479Y-75193329D01*
X147842242Y-74812785D01*
X147551346Y-74521381D01*
X147171077Y-74363480D01*
X146759329Y-74363121D01*
X146378785Y-74520358D01*
X146087381Y-74811254D01*
X145929480Y-75191523D01*
X145929334Y-75358464D01*
X145512298Y-75775500D01*
X118913546Y-75775500D01*
X119048539Y-75748648D01*
X119295101Y-75583901D01*
X122220602Y-72658400D01*
X124784560Y-72658400D01*
X124784560Y-74799200D01*
X124833843Y-75046965D01*
X124974191Y-75257009D01*
X125184235Y-75397357D01*
X125432000Y-75446640D01*
X127032000Y-75446640D01*
X127279765Y-75397357D01*
X127489809Y-75257009D01*
X127630157Y-75046965D01*
X127658882Y-74902552D01*
X127757302Y-75049848D01*
X128222849Y-75360917D01*
X128772000Y-75470150D01*
X129321151Y-75360917D01*
X129786698Y-75049848D01*
X130042000Y-74667762D01*
X130297302Y-75049848D01*
X130762849Y-75360917D01*
X131312000Y-75470150D01*
X131861151Y-75360917D01*
X132326698Y-75049848D01*
X132582000Y-74667762D01*
X132837302Y-75049848D01*
X133302849Y-75360917D01*
X133852000Y-75470150D01*
X134401151Y-75360917D01*
X134866698Y-75049848D01*
X135122000Y-74667762D01*
X135377302Y-75049848D01*
X135842849Y-75360917D01*
X136392000Y-75470150D01*
X136941151Y-75360917D01*
X137406698Y-75049848D01*
X137662000Y-74667762D01*
X137917302Y-75049848D01*
X138382849Y-75360917D01*
X138932000Y-75470150D01*
X139481151Y-75360917D01*
X139946698Y-75049848D01*
X140199507Y-74671493D01*
X140547104Y-75103700D01*
X141040181Y-75373567D01*
X141122961Y-75391104D01*
X141345000Y-75269115D01*
X141345000Y-73726200D01*
X141599000Y-73726200D01*
X141599000Y-75269115D01*
X141821039Y-75391104D01*
X141903819Y-75373567D01*
X142396896Y-75103700D01*
X142749166Y-74665683D01*
X142907000Y-74126200D01*
X142907000Y-73726200D01*
X141599000Y-73726200D01*
X141345000Y-73726200D01*
X141325000Y-73726200D01*
X141325000Y-73472200D01*
X141345000Y-73472200D01*
X141345000Y-73452200D01*
X141599000Y-73452200D01*
X141599000Y-73472200D01*
X142907000Y-73472200D01*
X142907000Y-73072200D01*
X142785936Y-72658400D01*
X150805700Y-72658400D01*
X151096539Y-72600548D01*
X151343101Y-72435801D01*
X151784467Y-71994435D01*
X151949671Y-71994579D01*
X152330215Y-71837342D01*
X152621619Y-71546446D01*
X152779520Y-71166177D01*
X152779879Y-70754429D01*
X152634879Y-70403500D01*
X166693398Y-70403500D01*
X176437299Y-80147401D01*
G36*
X77586898Y-88654300D02*
X74579302Y-88654300D01*
X73536229Y-87611227D01*
X73554005Y-87603864D01*
X73628139Y-87357745D01*
X72800000Y-86529605D01*
X72785858Y-86543748D01*
X72606252Y-86364142D01*
X72620395Y-86350000D01*
X72606252Y-86335858D01*
X72785858Y-86156253D01*
X72800000Y-86170395D01*
X72814143Y-86156253D01*
X72993748Y-86335858D01*
X72979605Y-86350000D01*
X73807745Y-87178139D01*
X74053864Y-87104005D01*
X74246965Y-86566777D01*
X74219778Y-85996546D01*
X74163219Y-85860000D01*
X74792598Y-85860000D01*
X77586898Y-88654300D01*
X77586898Y-88654300D01*
G37*
X77586898Y-88654300D02*
X74579302Y-88654300D01*
X73536229Y-87611227D01*
X73554005Y-87603864D01*
X73628139Y-87357745D01*
X72800000Y-86529605D01*
X72785858Y-86543748D01*
X72606252Y-86364142D01*
X72620395Y-86350000D01*
X72606252Y-86335858D01*
X72785858Y-86156253D01*
X72800000Y-86170395D01*
X72814143Y-86156253D01*
X72993748Y-86335858D01*
X72979605Y-86350000D01*
X73807745Y-87178139D01*
X74053864Y-87104005D01*
X74246965Y-86566777D01*
X74219778Y-85996546D01*
X74163219Y-85860000D01*
X74792598Y-85860000D01*
X77586898Y-88654300D01*
G36*
X123118748Y-86385858D02*
X123104605Y-86400000D01*
X123118748Y-86414143D01*
X122939143Y-86593748D01*
X122925000Y-86579605D01*
X122910858Y-86593748D01*
X122731253Y-86414143D01*
X122745395Y-86400000D01*
X122731253Y-86385858D01*
X122910858Y-86206253D01*
X122925000Y-86220395D01*
X122939143Y-86206253D01*
X123118748Y-86385858D01*
X123118748Y-86385858D01*
G37*
X123118748Y-86385858D02*
X123104605Y-86400000D01*
X123118748Y-86414143D01*
X122939143Y-86593748D01*
X122925000Y-86579605D01*
X122910858Y-86593748D01*
X122731253Y-86414143D01*
X122745395Y-86400000D01*
X122731253Y-86385858D01*
X122910858Y-86206253D01*
X122925000Y-86220395D01*
X122939143Y-86206253D01*
X123118748Y-86385858D01*
G36*
X97818748Y-86310858D02*
X97804605Y-86325000D01*
X97818748Y-86339142D01*
X97639143Y-86518748D01*
X97625000Y-86504605D01*
X97610858Y-86518748D01*
X97431252Y-86339142D01*
X97445395Y-86325000D01*
X97431252Y-86310858D01*
X97610858Y-86131253D01*
X97625000Y-86145395D01*
X97639143Y-86131253D01*
X97818748Y-86310858D01*
X97818748Y-86310858D01*
G37*
X97818748Y-86310858D02*
X97804605Y-86325000D01*
X97818748Y-86339142D01*
X97639143Y-86518748D01*
X97625000Y-86504605D01*
X97610858Y-86518748D01*
X97431252Y-86339142D01*
X97445395Y-86325000D01*
X97431252Y-86310858D01*
X97610858Y-86131253D01*
X97625000Y-86145395D01*
X97639143Y-86131253D01*
X97818748Y-86310858D01*
G36*
X74778160Y-74460300D02*
X69783100Y-74460300D01*
X69492261Y-74518152D01*
X69245699Y-74682899D01*
X67450333Y-76478265D01*
X67285129Y-76478121D01*
X66904585Y-76635358D01*
X66613181Y-76926254D01*
X66455280Y-77306523D01*
X66454995Y-77633200D01*
X62498902Y-77633200D01*
X59830977Y-74965275D01*
X59839698Y-74959448D01*
X60095000Y-74577362D01*
X60350302Y-74959448D01*
X60815849Y-75270517D01*
X61365000Y-75379750D01*
X61914151Y-75270517D01*
X62379698Y-74959448D01*
X62635000Y-74577362D01*
X62890302Y-74959448D01*
X63355849Y-75270517D01*
X63905000Y-75379750D01*
X64454151Y-75270517D01*
X64919698Y-74959448D01*
X65172507Y-74581093D01*
X65520104Y-75013300D01*
X66013181Y-75283167D01*
X66095961Y-75300704D01*
X66318000Y-75178715D01*
X66318000Y-73635800D01*
X66572000Y-73635800D01*
X66572000Y-75178715D01*
X66794039Y-75300704D01*
X66876819Y-75283167D01*
X67369896Y-75013300D01*
X67722166Y-74575283D01*
X67880000Y-74035800D01*
X67880000Y-73635800D01*
X66572000Y-73635800D01*
X66318000Y-73635800D01*
X66298000Y-73635800D01*
X66298000Y-73381800D01*
X66318000Y-73381800D01*
X66318000Y-73361800D01*
X66572000Y-73361800D01*
X66572000Y-73381800D01*
X67880000Y-73381800D01*
X67880000Y-73367781D01*
X68010300Y-73393700D01*
X71868500Y-73393700D01*
X72159339Y-73335848D01*
X72405901Y-73171101D01*
X72647302Y-72929700D01*
X74778160Y-72929700D01*
X74778160Y-74460300D01*
X74778160Y-74460300D01*
G37*
X74778160Y-74460300D02*
X69783100Y-74460300D01*
X69492261Y-74518152D01*
X69245699Y-74682899D01*
X67450333Y-76478265D01*
X67285129Y-76478121D01*
X66904585Y-76635358D01*
X66613181Y-76926254D01*
X66455280Y-77306523D01*
X66454995Y-77633200D01*
X62498902Y-77633200D01*
X59830977Y-74965275D01*
X59839698Y-74959448D01*
X60095000Y-74577362D01*
X60350302Y-74959448D01*
X60815849Y-75270517D01*
X61365000Y-75379750D01*
X61914151Y-75270517D01*
X62379698Y-74959448D01*
X62635000Y-74577362D01*
X62890302Y-74959448D01*
X63355849Y-75270517D01*
X63905000Y-75379750D01*
X64454151Y-75270517D01*
X64919698Y-74959448D01*
X65172507Y-74581093D01*
X65520104Y-75013300D01*
X66013181Y-75283167D01*
X66095961Y-75300704D01*
X66318000Y-75178715D01*
X66318000Y-73635800D01*
X66572000Y-73635800D01*
X66572000Y-75178715D01*
X66794039Y-75300704D01*
X66876819Y-75283167D01*
X67369896Y-75013300D01*
X67722166Y-74575283D01*
X67880000Y-74035800D01*
X67880000Y-73635800D01*
X66572000Y-73635800D01*
X66318000Y-73635800D01*
X66298000Y-73635800D01*
X66298000Y-73381800D01*
X66318000Y-73381800D01*
X66318000Y-73361800D01*
X66572000Y-73361800D01*
X66572000Y-73381800D01*
X67880000Y-73381800D01*
X67880000Y-73367781D01*
X68010300Y-73393700D01*
X71868500Y-73393700D01*
X72159339Y-73335848D01*
X72405901Y-73171101D01*
X72647302Y-72929700D01*
X74778160Y-72929700D01*
X74778160Y-74460300D01*
G36*
X99355560Y-74721200D02*
X99404843Y-74968965D01*
X99545191Y-75179009D01*
X99755235Y-75319357D01*
X100003000Y-75368640D01*
X100121767Y-75368640D01*
X100265599Y-75583901D01*
X100512161Y-75748648D01*
X100803000Y-75806500D01*
X106653183Y-75806500D01*
X106510981Y-75948454D01*
X106353080Y-76328723D01*
X106352728Y-76732600D01*
X91512702Y-76732600D01*
X89931577Y-75151475D01*
X89940298Y-75145648D01*
X90193107Y-74767293D01*
X90540704Y-75199500D01*
X91033781Y-75469367D01*
X91116561Y-75486904D01*
X91338600Y-75364915D01*
X91338600Y-73822000D01*
X91592600Y-73822000D01*
X91592600Y-75364915D01*
X91814639Y-75486904D01*
X91897419Y-75469367D01*
X92390496Y-75199500D01*
X92742766Y-74761483D01*
X92900600Y-74222000D01*
X92900600Y-73822000D01*
X91592600Y-73822000D01*
X91338600Y-73822000D01*
X91318600Y-73822000D01*
X91318600Y-73568000D01*
X91338600Y-73568000D01*
X91338600Y-73548000D01*
X91592600Y-73548000D01*
X91592600Y-73568000D01*
X92900600Y-73568000D01*
X92900600Y-73168000D01*
X92780034Y-72755900D01*
X99355560Y-72755900D01*
X99355560Y-74721200D01*
X99355560Y-74721200D01*
G37*
X99355560Y-74721200D02*
X99404843Y-74968965D01*
X99545191Y-75179009D01*
X99755235Y-75319357D01*
X100003000Y-75368640D01*
X100121767Y-75368640D01*
X100265599Y-75583901D01*
X100512161Y-75748648D01*
X100803000Y-75806500D01*
X106653183Y-75806500D01*
X106510981Y-75948454D01*
X106353080Y-76328723D01*
X106352728Y-76732600D01*
X91512702Y-76732600D01*
X89931577Y-75151475D01*
X89940298Y-75145648D01*
X90193107Y-74767293D01*
X90540704Y-75199500D01*
X91033781Y-75469367D01*
X91116561Y-75486904D01*
X91338600Y-75364915D01*
X91338600Y-73822000D01*
X91592600Y-73822000D01*
X91592600Y-75364915D01*
X91814639Y-75486904D01*
X91897419Y-75469367D01*
X92390496Y-75199500D01*
X92742766Y-74761483D01*
X92900600Y-74222000D01*
X92900600Y-73822000D01*
X91592600Y-73822000D01*
X91338600Y-73822000D01*
X91318600Y-73822000D01*
X91318600Y-73568000D01*
X91338600Y-73568000D01*
X91338600Y-73548000D01*
X91592600Y-73548000D01*
X91592600Y-73568000D01*
X92900600Y-73568000D01*
X92900600Y-73168000D01*
X92780034Y-72755900D01*
X99355560Y-72755900D01*
X99355560Y-74721200D01*
G36*
X118442898Y-74286500D02*
X117408282Y-74286500D01*
X117478000Y-74048200D01*
X117478000Y-73648200D01*
X116170000Y-73648200D01*
X116170000Y-73668200D01*
X115916000Y-73668200D01*
X115916000Y-73648200D01*
X115896000Y-73648200D01*
X115896000Y-73394200D01*
X115916000Y-73394200D01*
X115916000Y-73374200D01*
X116170000Y-73374200D01*
X116170000Y-73394200D01*
X117478000Y-73394200D01*
X117478000Y-72994200D01*
X117320166Y-72454717D01*
X117121747Y-72208000D01*
X120521398Y-72208000D01*
X118442898Y-74286500D01*
X118442898Y-74286500D01*
G37*
X118442898Y-74286500D02*
X117408282Y-74286500D01*
X117478000Y-74048200D01*
X117478000Y-73648200D01*
X116170000Y-73648200D01*
X116170000Y-73668200D01*
X115916000Y-73668200D01*
X115916000Y-73648200D01*
X115896000Y-73648200D01*
X115896000Y-73394200D01*
X115916000Y-73394200D01*
X115916000Y-73374200D01*
X116170000Y-73374200D01*
X116170000Y-73394200D01*
X117478000Y-73394200D01*
X117478000Y-72994200D01*
X117320166Y-72454717D01*
X117121747Y-72208000D01*
X120521398Y-72208000D01*
X118442898Y-74286500D01*
G36*
X49980799Y-68929301D02*
X50227360Y-69094048D01*
X50518200Y-69151900D01*
X55741948Y-69151900D01*
X55583285Y-69217458D01*
X55291881Y-69508354D01*
X55133980Y-69888623D01*
X55133621Y-70300371D01*
X55290858Y-70680915D01*
X55581754Y-70972319D01*
X55962023Y-71130220D01*
X56128964Y-71130366D01*
X56203498Y-71204900D01*
X55837300Y-71204900D01*
X55546461Y-71262752D01*
X55299899Y-71427499D01*
X54705476Y-72021922D01*
X54483085Y-71873325D01*
X54447148Y-71692661D01*
X54282401Y-71446099D01*
X54035839Y-71281352D01*
X53745000Y-71223500D01*
X50082802Y-71223500D01*
X48600127Y-69740825D01*
X48629005Y-69728864D01*
X48703139Y-69482745D01*
X47875000Y-68654605D01*
X47860858Y-68668748D01*
X47681252Y-68489142D01*
X47695395Y-68475000D01*
X47681252Y-68460858D01*
X47860858Y-68281253D01*
X47875000Y-68295395D01*
X47889143Y-68281253D01*
X48068748Y-68460858D01*
X48054605Y-68475000D01*
X48882745Y-69303139D01*
X49128864Y-69229005D01*
X49321965Y-68691777D01*
X49300873Y-68249375D01*
X49980799Y-68929301D01*
X49980799Y-68929301D01*
G37*
X49980799Y-68929301D02*
X50227360Y-69094048D01*
X50518200Y-69151900D01*
X55741948Y-69151900D01*
X55583285Y-69217458D01*
X55291881Y-69508354D01*
X55133980Y-69888623D01*
X55133621Y-70300371D01*
X55290858Y-70680915D01*
X55581754Y-70972319D01*
X55962023Y-71130220D01*
X56128964Y-71130366D01*
X56203498Y-71204900D01*
X55837300Y-71204900D01*
X55546461Y-71262752D01*
X55299899Y-71427499D01*
X54705476Y-72021922D01*
X54483085Y-71873325D01*
X54447148Y-71692661D01*
X54282401Y-71446099D01*
X54035839Y-71281352D01*
X53745000Y-71223500D01*
X50082802Y-71223500D01*
X48600127Y-69740825D01*
X48629005Y-69728864D01*
X48703139Y-69482745D01*
X47875000Y-68654605D01*
X47860858Y-68668748D01*
X47681252Y-68489142D01*
X47695395Y-68475000D01*
X47681252Y-68460858D01*
X47860858Y-68281253D01*
X47875000Y-68295395D01*
X47889143Y-68281253D01*
X48068748Y-68460858D01*
X48054605Y-68475000D01*
X48882745Y-69303139D01*
X49128864Y-69229005D01*
X49321965Y-68691777D01*
X49300873Y-68249375D01*
X49980799Y-68929301D01*
G36*
X74899833Y-67060101D02*
X75210902Y-67525648D01*
X75676449Y-67836717D01*
X76225600Y-67945950D01*
X76774751Y-67836717D01*
X77240298Y-67525648D01*
X77495600Y-67143562D01*
X77750902Y-67525648D01*
X78216449Y-67836717D01*
X78765600Y-67945950D01*
X79314751Y-67836717D01*
X79780298Y-67525648D01*
X80035600Y-67143562D01*
X80290902Y-67525648D01*
X80756449Y-67836717D01*
X81305600Y-67945950D01*
X81854751Y-67836717D01*
X82320298Y-67525648D01*
X82575600Y-67143562D01*
X82830902Y-67525648D01*
X83296449Y-67836717D01*
X83845600Y-67945950D01*
X84369527Y-67841734D01*
X84413358Y-67947815D01*
X84704254Y-68239219D01*
X85084523Y-68397120D01*
X85251464Y-68397266D01*
X86133698Y-69279500D01*
X74096658Y-69279500D01*
X74271965Y-68791777D01*
X74244778Y-68221546D01*
X74078864Y-67820995D01*
X73832745Y-67746861D01*
X73004605Y-68575000D01*
X73018748Y-68589142D01*
X72839142Y-68768748D01*
X72825000Y-68754605D01*
X72810858Y-68768748D01*
X72631252Y-68589142D01*
X72645395Y-68575000D01*
X72631252Y-68560858D01*
X72810858Y-68381252D01*
X72825000Y-68395395D01*
X73653139Y-67567255D01*
X73579005Y-67321136D01*
X73572517Y-67318804D01*
X73636800Y-67292243D01*
X74040824Y-66888923D01*
X74063215Y-66835000D01*
X74855058Y-66835000D01*
X74899833Y-67060101D01*
X74899833Y-67060101D01*
G37*
X74899833Y-67060101D02*
X75210902Y-67525648D01*
X75676449Y-67836717D01*
X76225600Y-67945950D01*
X76774751Y-67836717D01*
X77240298Y-67525648D01*
X77495600Y-67143562D01*
X77750902Y-67525648D01*
X78216449Y-67836717D01*
X78765600Y-67945950D01*
X79314751Y-67836717D01*
X79780298Y-67525648D01*
X80035600Y-67143562D01*
X80290902Y-67525648D01*
X80756449Y-67836717D01*
X81305600Y-67945950D01*
X81854751Y-67836717D01*
X82320298Y-67525648D01*
X82575600Y-67143562D01*
X82830902Y-67525648D01*
X83296449Y-67836717D01*
X83845600Y-67945950D01*
X84369527Y-67841734D01*
X84413358Y-67947815D01*
X84704254Y-68239219D01*
X85084523Y-68397120D01*
X85251464Y-68397266D01*
X86133698Y-69279500D01*
X74096658Y-69279500D01*
X74271965Y-68791777D01*
X74244778Y-68221546D01*
X74078864Y-67820995D01*
X73832745Y-67746861D01*
X73004605Y-68575000D01*
X73018748Y-68589142D01*
X72839142Y-68768748D01*
X72825000Y-68754605D01*
X72810858Y-68768748D01*
X72631252Y-68589142D01*
X72645395Y-68575000D01*
X72631252Y-68560858D01*
X72810858Y-68381252D01*
X72825000Y-68395395D01*
X73653139Y-67567255D01*
X73579005Y-67321136D01*
X73572517Y-67318804D01*
X73636800Y-67292243D01*
X74040824Y-66888923D01*
X74063215Y-66835000D01*
X74855058Y-66835000D01*
X74899833Y-67060101D01*
G36*
X123018748Y-68535858D02*
X123004605Y-68550000D01*
X123018748Y-68564143D01*
X122839143Y-68743748D01*
X122825000Y-68729605D01*
X122810858Y-68743748D01*
X122631253Y-68564143D01*
X122645395Y-68550000D01*
X122631252Y-68535858D01*
X122810858Y-68356253D01*
X122825000Y-68370395D01*
X122839143Y-68356253D01*
X123018748Y-68535858D01*
X123018748Y-68535858D01*
G37*
X123018748Y-68535858D02*
X123004605Y-68550000D01*
X123018748Y-68564143D01*
X122839143Y-68743748D01*
X122825000Y-68729605D01*
X122810858Y-68743748D01*
X122631253Y-68564143D01*
X122645395Y-68550000D01*
X122631252Y-68535858D01*
X122810858Y-68356253D01*
X122825000Y-68370395D01*
X122839143Y-68356253D01*
X123018748Y-68535858D01*
G36*
X97593748Y-68410858D02*
X97579605Y-68425000D01*
X97593748Y-68439143D01*
X97414143Y-68618748D01*
X97400000Y-68604605D01*
X97385858Y-68618748D01*
X97206253Y-68439143D01*
X97220395Y-68425000D01*
X97206253Y-68410858D01*
X97385858Y-68231253D01*
X97400000Y-68245395D01*
X97414143Y-68231253D01*
X97593748Y-68410858D01*
X97593748Y-68410858D01*
G37*
X97593748Y-68410858D02*
X97579605Y-68425000D01*
X97593748Y-68439143D01*
X97414143Y-68618748D01*
X97400000Y-68604605D01*
X97385858Y-68618748D01*
X97206253Y-68439143D01*
X97220395Y-68425000D01*
X97206253Y-68410858D01*
X97385858Y-68231253D01*
X97400000Y-68245395D01*
X97414143Y-68231253D01*
X97593748Y-68410858D01*
G36*
X175140199Y-56017401D02*
X175386761Y-56182148D01*
X175677600Y-56240000D01*
X176737352Y-56240000D01*
X176635907Y-56750000D01*
X176748946Y-57318285D01*
X177070853Y-57800054D01*
X177400026Y-58020000D01*
X177070853Y-58239946D01*
X176748946Y-58721715D01*
X176635907Y-59290000D01*
X176748946Y-59858285D01*
X177070853Y-60340054D01*
X177400026Y-60560000D01*
X177070853Y-60779946D01*
X176748946Y-61261715D01*
X176635907Y-61830000D01*
X176748946Y-62398285D01*
X177070853Y-62880054D01*
X177400026Y-63100000D01*
X177070853Y-63319946D01*
X176748946Y-63801715D01*
X176635907Y-64370000D01*
X176748946Y-64938285D01*
X177070853Y-65420054D01*
X177400026Y-65640000D01*
X177070853Y-65859946D01*
X176877046Y-66150000D01*
X173344102Y-66150000D01*
X172909028Y-65714926D01*
X173029519Y-65594646D01*
X173187420Y-65214377D01*
X173187779Y-64802629D01*
X173030542Y-64422085D01*
X172739646Y-64130681D01*
X172540826Y-64048124D01*
X166061292Y-57568590D01*
X166233181Y-57662667D01*
X166315961Y-57680204D01*
X166538000Y-57558215D01*
X166538000Y-56015300D01*
X166792000Y-56015300D01*
X166792000Y-57558215D01*
X167014039Y-57680204D01*
X167096819Y-57662667D01*
X167589896Y-57392800D01*
X167942166Y-56954783D01*
X168100000Y-56415300D01*
X168100000Y-56015300D01*
X166792000Y-56015300D01*
X166538000Y-56015300D01*
X166518000Y-56015300D01*
X166518000Y-55761300D01*
X166538000Y-55761300D01*
X166538000Y-55741300D01*
X166792000Y-55741300D01*
X166792000Y-55761300D01*
X168100000Y-55761300D01*
X168100000Y-55361300D01*
X168030282Y-55123000D01*
X174245798Y-55123000D01*
X175140199Y-56017401D01*
X175140199Y-56017401D01*
G37*
X175140199Y-56017401D02*
X175386761Y-56182148D01*
X175677600Y-56240000D01*
X176737352Y-56240000D01*
X176635907Y-56750000D01*
X176748946Y-57318285D01*
X177070853Y-57800054D01*
X177400026Y-58020000D01*
X177070853Y-58239946D01*
X176748946Y-58721715D01*
X176635907Y-59290000D01*
X176748946Y-59858285D01*
X177070853Y-60340054D01*
X177400026Y-60560000D01*
X177070853Y-60779946D01*
X176748946Y-61261715D01*
X176635907Y-61830000D01*
X176748946Y-62398285D01*
X177070853Y-62880054D01*
X177400026Y-63100000D01*
X177070853Y-63319946D01*
X176748946Y-63801715D01*
X176635907Y-64370000D01*
X176748946Y-64938285D01*
X177070853Y-65420054D01*
X177400026Y-65640000D01*
X177070853Y-65859946D01*
X176877046Y-66150000D01*
X173344102Y-66150000D01*
X172909028Y-65714926D01*
X173029519Y-65594646D01*
X173187420Y-65214377D01*
X173187779Y-64802629D01*
X173030542Y-64422085D01*
X172739646Y-64130681D01*
X172540826Y-64048124D01*
X166061292Y-57568590D01*
X166233181Y-57662667D01*
X166315961Y-57680204D01*
X166538000Y-57558215D01*
X166538000Y-56015300D01*
X166792000Y-56015300D01*
X166792000Y-57558215D01*
X167014039Y-57680204D01*
X167096819Y-57662667D01*
X167589896Y-57392800D01*
X167942166Y-56954783D01*
X168100000Y-56415300D01*
X168100000Y-56015300D01*
X166792000Y-56015300D01*
X166538000Y-56015300D01*
X166518000Y-56015300D01*
X166518000Y-55761300D01*
X166538000Y-55761300D01*
X166538000Y-55741300D01*
X166792000Y-55741300D01*
X166792000Y-55761300D01*
X168100000Y-55761300D01*
X168100000Y-55361300D01*
X168030282Y-55123000D01*
X174245798Y-55123000D01*
X175140199Y-56017401D01*
G36*
X74643660Y-54580000D02*
X74643660Y-56980000D01*
X74692943Y-57227765D01*
X74833291Y-57437809D01*
X75043335Y-57578157D01*
X75291100Y-57627440D01*
X75409867Y-57627440D01*
X75553699Y-57842701D01*
X77179298Y-59468300D01*
X67076602Y-59468300D01*
X64792877Y-57184575D01*
X64801598Y-57178748D01*
X65054407Y-56800393D01*
X65402004Y-57232600D01*
X65895081Y-57502467D01*
X65977861Y-57520004D01*
X66199900Y-57398015D01*
X66199900Y-55855100D01*
X66453900Y-55855100D01*
X66453900Y-57398015D01*
X66675939Y-57520004D01*
X66758719Y-57502467D01*
X67251796Y-57232600D01*
X67604066Y-56794583D01*
X67761900Y-56255100D01*
X67761900Y-55855100D01*
X66453900Y-55855100D01*
X66199900Y-55855100D01*
X66179900Y-55855100D01*
X66179900Y-55601100D01*
X66199900Y-55601100D01*
X66199900Y-55581100D01*
X66453900Y-55581100D01*
X66453900Y-55601100D01*
X67761900Y-55601100D01*
X67761900Y-55201100D01*
X67604066Y-54661617D01*
X67525880Y-54564400D01*
X74646763Y-54564400D01*
X74643660Y-54580000D01*
X74643660Y-54580000D01*
G37*
X74643660Y-54580000D02*
X74643660Y-56980000D01*
X74692943Y-57227765D01*
X74833291Y-57437809D01*
X75043335Y-57578157D01*
X75291100Y-57627440D01*
X75409867Y-57627440D01*
X75553699Y-57842701D01*
X77179298Y-59468300D01*
X67076602Y-59468300D01*
X64792877Y-57184575D01*
X64801598Y-57178748D01*
X65054407Y-56800393D01*
X65402004Y-57232600D01*
X65895081Y-57502467D01*
X65977861Y-57520004D01*
X66199900Y-57398015D01*
X66199900Y-55855100D01*
X66453900Y-55855100D01*
X66453900Y-57398015D01*
X66675939Y-57520004D01*
X66758719Y-57502467D01*
X67251796Y-57232600D01*
X67604066Y-56794583D01*
X67761900Y-56255100D01*
X67761900Y-55855100D01*
X66453900Y-55855100D01*
X66199900Y-55855100D01*
X66179900Y-55855100D01*
X66179900Y-55601100D01*
X66199900Y-55601100D01*
X66199900Y-55581100D01*
X66453900Y-55581100D01*
X66453900Y-55601100D01*
X67761900Y-55601100D01*
X67761900Y-55201100D01*
X67604066Y-54661617D01*
X67525880Y-54564400D01*
X74646763Y-54564400D01*
X74643660Y-54580000D01*
G36*
X119823485Y-53625658D02*
X119532081Y-53916554D01*
X119374180Y-54296823D01*
X119373821Y-54708571D01*
X119531058Y-55089115D01*
X119821954Y-55380519D01*
X120202223Y-55538420D01*
X120613971Y-55538779D01*
X120994515Y-55381542D01*
X121253508Y-55123000D01*
X124994560Y-55123000D01*
X124994560Y-57088300D01*
X125043843Y-57336065D01*
X125149306Y-57493900D01*
X116620745Y-57493900D01*
X116967896Y-57303900D01*
X117320166Y-56865883D01*
X117478000Y-56326400D01*
X117478000Y-55926400D01*
X116170000Y-55926400D01*
X116170000Y-55946400D01*
X115916000Y-55946400D01*
X115916000Y-55926400D01*
X115896000Y-55926400D01*
X115896000Y-55672400D01*
X115916000Y-55672400D01*
X115916000Y-54129485D01*
X116170000Y-54129485D01*
X116170000Y-55672400D01*
X117478000Y-55672400D01*
X117478000Y-55272400D01*
X117320166Y-54732917D01*
X116967896Y-54294900D01*
X116474819Y-54025033D01*
X116392039Y-54007496D01*
X116170000Y-54129485D01*
X115916000Y-54129485D01*
X115693961Y-54007496D01*
X115611181Y-54025033D01*
X115118104Y-54294900D01*
X114770507Y-54727107D01*
X114517698Y-54348752D01*
X114241085Y-54163925D01*
X114205148Y-53983261D01*
X114040401Y-53736699D01*
X113793839Y-53571952D01*
X113503000Y-53514100D01*
X104974602Y-53514100D01*
X104963302Y-53502800D01*
X120120825Y-53502800D01*
X119823485Y-53625658D01*
X119823485Y-53625658D01*
G37*
X119823485Y-53625658D02*
X119532081Y-53916554D01*
X119374180Y-54296823D01*
X119373821Y-54708571D01*
X119531058Y-55089115D01*
X119821954Y-55380519D01*
X120202223Y-55538420D01*
X120613971Y-55538779D01*
X120994515Y-55381542D01*
X121253508Y-55123000D01*
X124994560Y-55123000D01*
X124994560Y-57088300D01*
X125043843Y-57336065D01*
X125149306Y-57493900D01*
X116620745Y-57493900D01*
X116967896Y-57303900D01*
X117320166Y-56865883D01*
X117478000Y-56326400D01*
X117478000Y-55926400D01*
X116170000Y-55926400D01*
X116170000Y-55946400D01*
X115916000Y-55946400D01*
X115916000Y-55926400D01*
X115896000Y-55926400D01*
X115896000Y-55672400D01*
X115916000Y-55672400D01*
X115916000Y-54129485D01*
X116170000Y-54129485D01*
X116170000Y-55672400D01*
X117478000Y-55672400D01*
X117478000Y-55272400D01*
X117320166Y-54732917D01*
X116967896Y-54294900D01*
X116474819Y-54025033D01*
X116392039Y-54007496D01*
X116170000Y-54129485D01*
X115916000Y-54129485D01*
X115693961Y-54007496D01*
X115611181Y-54025033D01*
X115118104Y-54294900D01*
X114770507Y-54727107D01*
X114517698Y-54348752D01*
X114241085Y-54163925D01*
X114205148Y-53983261D01*
X114040401Y-53736699D01*
X113793839Y-53571952D01*
X113503000Y-53514100D01*
X104974602Y-53514100D01*
X104963302Y-53502800D01*
X120120825Y-53502800D01*
X119823485Y-53625658D01*
G36*
X97346798Y-57037300D02*
X92454804Y-57037300D01*
X92608266Y-56846483D01*
X92766100Y-56307000D01*
X92766100Y-55907000D01*
X91458100Y-55907000D01*
X91458100Y-55927000D01*
X91204100Y-55927000D01*
X91204100Y-55907000D01*
X91184100Y-55907000D01*
X91184100Y-55653000D01*
X91204100Y-55653000D01*
X91204100Y-55633000D01*
X91458100Y-55633000D01*
X91458100Y-55653000D01*
X92766100Y-55653000D01*
X92766100Y-55253000D01*
X92696382Y-55014700D01*
X95324198Y-55014700D01*
X97346798Y-57037300D01*
X97346798Y-57037300D01*
G37*
X97346798Y-57037300D02*
X92454804Y-57037300D01*
X92608266Y-56846483D01*
X92766100Y-56307000D01*
X92766100Y-55907000D01*
X91458100Y-55907000D01*
X91458100Y-55927000D01*
X91204100Y-55927000D01*
X91204100Y-55907000D01*
X91184100Y-55907000D01*
X91184100Y-55653000D01*
X91204100Y-55653000D01*
X91204100Y-55633000D01*
X91458100Y-55633000D01*
X91458100Y-55653000D01*
X92766100Y-55653000D01*
X92766100Y-55253000D01*
X92696382Y-55014700D01*
X95324198Y-55014700D01*
X97346798Y-57037300D01*
G36*
X149977560Y-56655700D02*
X143046667Y-56655700D01*
X143117000Y-56415300D01*
X143117000Y-56015300D01*
X141809000Y-56015300D01*
X141809000Y-56035300D01*
X141555000Y-56035300D01*
X141555000Y-56015300D01*
X141535000Y-56015300D01*
X141535000Y-55761300D01*
X141555000Y-55761300D01*
X141555000Y-55741300D01*
X141809000Y-55741300D01*
X141809000Y-55761300D01*
X143117000Y-55761300D01*
X143117000Y-55361300D01*
X143047282Y-55123000D01*
X149977560Y-55123000D01*
X149977560Y-56655700D01*
X149977560Y-56655700D01*
G37*
X149977560Y-56655700D02*
X143046667Y-56655700D01*
X143117000Y-56415300D01*
X143117000Y-56015300D01*
X141809000Y-56015300D01*
X141809000Y-56035300D01*
X141555000Y-56035300D01*
X141555000Y-56015300D01*
X141535000Y-56015300D01*
X141535000Y-55761300D01*
X141555000Y-55761300D01*
X141555000Y-55741300D01*
X141809000Y-55741300D01*
X141809000Y-55761300D01*
X143117000Y-55761300D01*
X143117000Y-55361300D01*
X143047282Y-55123000D01*
X149977560Y-55123000D01*
X149977560Y-56655700D01*
G36*
X49761133Y-49093201D02*
X50072202Y-49558748D01*
X50537749Y-49869817D01*
X51086900Y-49979050D01*
X51636051Y-49869817D01*
X52101598Y-49558748D01*
X52356900Y-49176662D01*
X52612202Y-49558748D01*
X52620923Y-49564575D01*
X47004400Y-55181098D01*
X47004400Y-51890871D01*
X47508223Y-52071965D01*
X48078454Y-52044778D01*
X48479005Y-51878864D01*
X48553139Y-51632745D01*
X47725000Y-50804605D01*
X47710858Y-50818748D01*
X47531252Y-50639142D01*
X47545395Y-50625000D01*
X47904605Y-50625000D01*
X48732745Y-51453139D01*
X48978864Y-51379005D01*
X49171965Y-50841777D01*
X49144778Y-50271546D01*
X48978864Y-49870995D01*
X48732745Y-49796861D01*
X47904605Y-50625000D01*
X47545395Y-50625000D01*
X47531252Y-50610858D01*
X47710858Y-50431252D01*
X47725000Y-50445395D01*
X48553139Y-49617255D01*
X48479005Y-49371136D01*
X48472517Y-49368804D01*
X48536800Y-49342243D01*
X48940824Y-48938923D01*
X48970232Y-48868100D01*
X49716358Y-48868100D01*
X49761133Y-49093201D01*
X49761133Y-49093201D01*
G37*
X49761133Y-49093201D02*
X50072202Y-49558748D01*
X50537749Y-49869817D01*
X51086900Y-49979050D01*
X51636051Y-49869817D01*
X52101598Y-49558748D01*
X52356900Y-49176662D01*
X52612202Y-49558748D01*
X52620923Y-49564575D01*
X47004400Y-55181098D01*
X47004400Y-51890871D01*
X47508223Y-52071965D01*
X48078454Y-52044778D01*
X48479005Y-51878864D01*
X48553139Y-51632745D01*
X47725000Y-50804605D01*
X47710858Y-50818748D01*
X47531252Y-50639142D01*
X47545395Y-50625000D01*
X47904605Y-50625000D01*
X48732745Y-51453139D01*
X48978864Y-51379005D01*
X49171965Y-50841777D01*
X49144778Y-50271546D01*
X48978864Y-49870995D01*
X48732745Y-49796861D01*
X47904605Y-50625000D01*
X47545395Y-50625000D01*
X47531252Y-50610858D01*
X47710858Y-50431252D01*
X47725000Y-50445395D01*
X48553139Y-49617255D01*
X48479005Y-49371136D01*
X48472517Y-49368804D01*
X48536800Y-49342243D01*
X48940824Y-48938923D01*
X48970232Y-48868100D01*
X49716358Y-48868100D01*
X49761133Y-49093201D01*
G36*
X70723199Y-47544899D02*
X70672575Y-47620664D01*
X70383681Y-47909054D01*
X70225780Y-48289323D01*
X70225421Y-48701071D01*
X70382658Y-49081615D01*
X70673554Y-49373019D01*
X71053823Y-49530920D01*
X71465571Y-49531279D01*
X71846115Y-49374042D01*
X71857784Y-49362394D01*
X71936077Y-49440824D01*
X72002544Y-49468423D01*
X71995995Y-49471136D01*
X71921861Y-49717255D01*
X72750000Y-50545395D01*
X73578139Y-49717255D01*
X73504005Y-49471136D01*
X73497517Y-49468804D01*
X73561800Y-49442243D01*
X73965824Y-49038923D01*
X74015205Y-48920000D01*
X74720558Y-48920000D01*
X74765333Y-49145101D01*
X75076402Y-49610648D01*
X75541949Y-49921717D01*
X76091100Y-50030950D01*
X76640251Y-49921717D01*
X77105798Y-49610648D01*
X77361100Y-49228562D01*
X77616402Y-49610648D01*
X77893015Y-49795475D01*
X77928952Y-49976139D01*
X78093699Y-50222701D01*
X80125998Y-52255000D01*
X70023302Y-52255000D01*
X69501047Y-51732745D01*
X71921861Y-51732745D01*
X71995995Y-51978864D01*
X72533223Y-52171965D01*
X73103454Y-52144778D01*
X73504005Y-51978864D01*
X73578139Y-51732745D01*
X72750000Y-50904605D01*
X71921861Y-51732745D01*
X69501047Y-51732745D01*
X68276525Y-50508223D01*
X71303035Y-50508223D01*
X71330222Y-51078454D01*
X71496136Y-51479005D01*
X71742255Y-51553139D01*
X72570395Y-50725000D01*
X72929605Y-50725000D01*
X73757745Y-51553139D01*
X74003864Y-51479005D01*
X74196965Y-50941777D01*
X74169778Y-50371546D01*
X74003864Y-49970995D01*
X73757745Y-49896861D01*
X72929605Y-50725000D01*
X72570395Y-50725000D01*
X71742255Y-49896861D01*
X71496136Y-49970995D01*
X71303035Y-50508223D01*
X68276525Y-50508223D01*
X67332877Y-49564575D01*
X67341598Y-49558748D01*
X67652667Y-49093201D01*
X67761900Y-48544050D01*
X67761900Y-47672150D01*
X67652667Y-47122999D01*
X67341598Y-46657452D01*
X66876051Y-46346383D01*
X66326900Y-46237150D01*
X65777749Y-46346383D01*
X65312202Y-46657452D01*
X65056900Y-47039538D01*
X64801598Y-46657452D01*
X64524985Y-46472625D01*
X64489048Y-46291961D01*
X64399137Y-46157400D01*
X72110698Y-46157400D01*
X70723199Y-47544899D01*
X70723199Y-47544899D01*
G37*
X70723199Y-47544899D02*
X70672575Y-47620664D01*
X70383681Y-47909054D01*
X70225780Y-48289323D01*
X70225421Y-48701071D01*
X70382658Y-49081615D01*
X70673554Y-49373019D01*
X71053823Y-49530920D01*
X71465571Y-49531279D01*
X71846115Y-49374042D01*
X71857784Y-49362394D01*
X71936077Y-49440824D01*
X72002544Y-49468423D01*
X71995995Y-49471136D01*
X71921861Y-49717255D01*
X72750000Y-50545395D01*
X73578139Y-49717255D01*
X73504005Y-49471136D01*
X73497517Y-49468804D01*
X73561800Y-49442243D01*
X73965824Y-49038923D01*
X74015205Y-48920000D01*
X74720558Y-48920000D01*
X74765333Y-49145101D01*
X75076402Y-49610648D01*
X75541949Y-49921717D01*
X76091100Y-50030950D01*
X76640251Y-49921717D01*
X77105798Y-49610648D01*
X77361100Y-49228562D01*
X77616402Y-49610648D01*
X77893015Y-49795475D01*
X77928952Y-49976139D01*
X78093699Y-50222701D01*
X80125998Y-52255000D01*
X70023302Y-52255000D01*
X69501047Y-51732745D01*
X71921861Y-51732745D01*
X71995995Y-51978864D01*
X72533223Y-52171965D01*
X73103454Y-52144778D01*
X73504005Y-51978864D01*
X73578139Y-51732745D01*
X72750000Y-50904605D01*
X71921861Y-51732745D01*
X69501047Y-51732745D01*
X68276525Y-50508223D01*
X71303035Y-50508223D01*
X71330222Y-51078454D01*
X71496136Y-51479005D01*
X71742255Y-51553139D01*
X72570395Y-50725000D01*
X72929605Y-50725000D01*
X73757745Y-51553139D01*
X74003864Y-51479005D01*
X74196965Y-50941777D01*
X74169778Y-50371546D01*
X74003864Y-49970995D01*
X73757745Y-49896861D01*
X72929605Y-50725000D01*
X72570395Y-50725000D01*
X71742255Y-49896861D01*
X71496136Y-49970995D01*
X71303035Y-50508223D01*
X68276525Y-50508223D01*
X67332877Y-49564575D01*
X67341598Y-49558748D01*
X67652667Y-49093201D01*
X67761900Y-48544050D01*
X67761900Y-47672150D01*
X67652667Y-47122999D01*
X67341598Y-46657452D01*
X66876051Y-46346383D01*
X66326900Y-46237150D01*
X65777749Y-46346383D01*
X65312202Y-46657452D01*
X65056900Y-47039538D01*
X64801598Y-46657452D01*
X64524985Y-46472625D01*
X64489048Y-46291961D01*
X64399137Y-46157400D01*
X72110698Y-46157400D01*
X70723199Y-47544899D01*
G36*
X148343748Y-50860858D02*
X148329605Y-50875000D01*
X148343748Y-50889143D01*
X148164143Y-51068748D01*
X148150000Y-51054605D01*
X148135858Y-51068748D01*
X147956252Y-50889142D01*
X147970395Y-50875000D01*
X147956253Y-50860858D01*
X148135858Y-50681253D01*
X148150000Y-50695395D01*
X148164143Y-50681253D01*
X148343748Y-50860858D01*
X148343748Y-50860858D01*
G37*
X148343748Y-50860858D02*
X148329605Y-50875000D01*
X148343748Y-50889143D01*
X148164143Y-51068748D01*
X148150000Y-51054605D01*
X148135858Y-51068748D01*
X147956252Y-50889142D01*
X147970395Y-50875000D01*
X147956253Y-50860858D01*
X148135858Y-50681253D01*
X148150000Y-50695395D01*
X148164143Y-50681253D01*
X148343748Y-50860858D01*
G36*
X123293748Y-50785858D02*
X123279605Y-50800000D01*
X123293748Y-50814142D01*
X123114143Y-50993748D01*
X123100000Y-50979605D01*
X123085858Y-50993748D01*
X122906252Y-50814142D01*
X122920395Y-50800000D01*
X122906253Y-50785858D01*
X123085858Y-50606253D01*
X123100000Y-50620395D01*
X123114143Y-50606253D01*
X123293748Y-50785858D01*
X123293748Y-50785858D01*
G37*
X123293748Y-50785858D02*
X123279605Y-50800000D01*
X123293748Y-50814142D01*
X123114143Y-50993748D01*
X123100000Y-50979605D01*
X123085858Y-50993748D01*
X122906252Y-50814142D01*
X122920395Y-50800000D01*
X122906253Y-50785858D01*
X123085858Y-50606253D01*
X123100000Y-50620395D01*
X123114143Y-50606253D01*
X123293748Y-50785858D01*
G36*
X97593748Y-50660858D02*
X97579605Y-50675000D01*
X97593748Y-50689142D01*
X97414143Y-50868748D01*
X97400000Y-50854605D01*
X97385858Y-50868748D01*
X97206252Y-50689142D01*
X97220395Y-50675000D01*
X97206252Y-50660858D01*
X97385858Y-50481253D01*
X97400000Y-50495395D01*
X97414143Y-50481253D01*
X97593748Y-50660858D01*
X97593748Y-50660858D01*
G37*
X97593748Y-50660858D02*
X97579605Y-50675000D01*
X97593748Y-50689142D01*
X97414143Y-50868748D01*
X97400000Y-50854605D01*
X97385858Y-50868748D01*
X97206252Y-50689142D01*
X97220395Y-50675000D01*
X97206252Y-50660858D01*
X97385858Y-50481253D01*
X97400000Y-50495395D01*
X97414143Y-50481253D01*
X97593748Y-50660858D01*
G36*
X49761133Y-31365101D02*
X50072202Y-31830648D01*
X50537749Y-32141717D01*
X51086900Y-32250950D01*
X51596900Y-32149505D01*
X51596900Y-32745198D01*
X49424099Y-34917999D01*
X49259352Y-35164561D01*
X49201500Y-35455400D01*
X49201500Y-39424700D01*
X49259352Y-39715539D01*
X49424099Y-39962101D01*
X55776753Y-46314755D01*
X55617749Y-46346383D01*
X55152202Y-46657452D01*
X54896900Y-47039538D01*
X54641598Y-46657452D01*
X54176051Y-46346383D01*
X53626900Y-46237150D01*
X53077749Y-46346383D01*
X52612202Y-46657452D01*
X52356900Y-47039538D01*
X52101598Y-46657452D01*
X51636051Y-46346383D01*
X51086900Y-46237150D01*
X50537749Y-46346383D01*
X50072202Y-46657452D01*
X49761133Y-47122999D01*
X49716358Y-47348100D01*
X48956663Y-47348100D01*
X48942243Y-47313200D01*
X48538923Y-46909176D01*
X48011691Y-46690250D01*
X47440813Y-46689752D01*
X47004400Y-46870074D01*
X47004400Y-33840772D01*
X47045995Y-33978864D01*
X47583223Y-34171965D01*
X48153454Y-34144778D01*
X48554005Y-33978864D01*
X48628139Y-33732745D01*
X47800000Y-32904605D01*
X47785858Y-32918748D01*
X47606252Y-32739142D01*
X47620395Y-32725000D01*
X47979605Y-32725000D01*
X48807745Y-33553139D01*
X49053864Y-33479005D01*
X49246965Y-32941777D01*
X49219778Y-32371546D01*
X49053864Y-31970995D01*
X48807745Y-31896861D01*
X47979605Y-32725000D01*
X47620395Y-32725000D01*
X47606252Y-32710858D01*
X47785858Y-32531252D01*
X47800000Y-32545395D01*
X48628139Y-31717255D01*
X48554005Y-31471136D01*
X48547517Y-31468804D01*
X48611800Y-31442243D01*
X49015824Y-31038923D01*
X49038215Y-30985000D01*
X49685526Y-30985000D01*
X49761133Y-31365101D01*
X49761133Y-31365101D01*
G37*
X49761133Y-31365101D02*
X50072202Y-31830648D01*
X50537749Y-32141717D01*
X51086900Y-32250950D01*
X51596900Y-32149505D01*
X51596900Y-32745198D01*
X49424099Y-34917999D01*
X49259352Y-35164561D01*
X49201500Y-35455400D01*
X49201500Y-39424700D01*
X49259352Y-39715539D01*
X49424099Y-39962101D01*
X55776753Y-46314755D01*
X55617749Y-46346383D01*
X55152202Y-46657452D01*
X54896900Y-47039538D01*
X54641598Y-46657452D01*
X54176051Y-46346383D01*
X53626900Y-46237150D01*
X53077749Y-46346383D01*
X52612202Y-46657452D01*
X52356900Y-47039538D01*
X52101598Y-46657452D01*
X51636051Y-46346383D01*
X51086900Y-46237150D01*
X50537749Y-46346383D01*
X50072202Y-46657452D01*
X49761133Y-47122999D01*
X49716358Y-47348100D01*
X48956663Y-47348100D01*
X48942243Y-47313200D01*
X48538923Y-46909176D01*
X48011691Y-46690250D01*
X47440813Y-46689752D01*
X47004400Y-46870074D01*
X47004400Y-33840772D01*
X47045995Y-33978864D01*
X47583223Y-34171965D01*
X48153454Y-34144778D01*
X48554005Y-33978864D01*
X48628139Y-33732745D01*
X47800000Y-32904605D01*
X47785858Y-32918748D01*
X47606252Y-32739142D01*
X47620395Y-32725000D01*
X47979605Y-32725000D01*
X48807745Y-33553139D01*
X49053864Y-33479005D01*
X49246965Y-32941777D01*
X49219778Y-32371546D01*
X49053864Y-31970995D01*
X48807745Y-31896861D01*
X47979605Y-32725000D01*
X47620395Y-32725000D01*
X47606252Y-32710858D01*
X47785858Y-32531252D01*
X47800000Y-32545395D01*
X48628139Y-31717255D01*
X48554005Y-31471136D01*
X48547517Y-31468804D01*
X48611800Y-31442243D01*
X49015824Y-31038923D01*
X49038215Y-30985000D01*
X49685526Y-30985000D01*
X49761133Y-31365101D01*
G36*
X176748946Y-36998285D02*
X176984132Y-37350266D01*
X173063998Y-41270400D01*
X138421702Y-41270400D01*
X139579401Y-40112701D01*
X139744148Y-39866140D01*
X139780085Y-39685475D01*
X140056698Y-39500648D01*
X140309507Y-39122293D01*
X140657104Y-39554500D01*
X141150181Y-39824367D01*
X141232961Y-39841904D01*
X141455000Y-39719915D01*
X141455000Y-38177000D01*
X141709000Y-38177000D01*
X141709000Y-39719915D01*
X141931039Y-39841904D01*
X142013819Y-39824367D01*
X142506896Y-39554500D01*
X142859166Y-39116483D01*
X143017000Y-38577000D01*
X143017000Y-38177000D01*
X141709000Y-38177000D01*
X141455000Y-38177000D01*
X141435000Y-38177000D01*
X141435000Y-37923000D01*
X141455000Y-37923000D01*
X141455000Y-37903000D01*
X141709000Y-37903000D01*
X141709000Y-37923000D01*
X143017000Y-37923000D01*
X143017000Y-37523000D01*
X142895907Y-37109100D01*
X150013560Y-37109100D01*
X150013560Y-39350000D01*
X150062843Y-39597765D01*
X150203191Y-39807809D01*
X150413235Y-39948157D01*
X150661000Y-39997440D01*
X152261000Y-39997440D01*
X152508765Y-39948157D01*
X152718809Y-39807809D01*
X152859157Y-39597765D01*
X152887882Y-39453352D01*
X152986302Y-39600648D01*
X153451849Y-39911717D01*
X154001000Y-40020950D01*
X154550151Y-39911717D01*
X155015698Y-39600648D01*
X155271000Y-39218562D01*
X155526302Y-39600648D01*
X155991849Y-39911717D01*
X156541000Y-40020950D01*
X157090151Y-39911717D01*
X157555698Y-39600648D01*
X157811000Y-39218562D01*
X158066302Y-39600648D01*
X158531849Y-39911717D01*
X159081000Y-40020950D01*
X159630151Y-39911717D01*
X160095698Y-39600648D01*
X160351000Y-39218562D01*
X160606302Y-39600648D01*
X161071849Y-39911717D01*
X161621000Y-40020950D01*
X162170151Y-39911717D01*
X162635698Y-39600648D01*
X162891000Y-39218562D01*
X163146302Y-39600648D01*
X163611849Y-39911717D01*
X164161000Y-40020950D01*
X164710151Y-39911717D01*
X165175698Y-39600648D01*
X165428507Y-39222293D01*
X165776104Y-39654500D01*
X166269181Y-39924367D01*
X166351961Y-39941904D01*
X166574000Y-39819915D01*
X166574000Y-38277000D01*
X166828000Y-38277000D01*
X166828000Y-39819915D01*
X167050039Y-39941904D01*
X167132819Y-39924367D01*
X167625896Y-39654500D01*
X167978166Y-39216483D01*
X168136000Y-38677000D01*
X168136000Y-38277000D01*
X166828000Y-38277000D01*
X166574000Y-38277000D01*
X166554000Y-38277000D01*
X166554000Y-38023000D01*
X166574000Y-38023000D01*
X166574000Y-38003000D01*
X166828000Y-38003000D01*
X166828000Y-38023000D01*
X168136000Y-38023000D01*
X168136000Y-37623000D01*
X167985651Y-37109100D01*
X176063900Y-37109100D01*
X176354739Y-37051248D01*
X176601301Y-36886501D01*
X176705904Y-36781898D01*
X176748946Y-36998285D01*
X176748946Y-36998285D01*
G37*
X176748946Y-36998285D02*
X176984132Y-37350266D01*
X173063998Y-41270400D01*
X138421702Y-41270400D01*
X139579401Y-40112701D01*
X139744148Y-39866140D01*
X139780085Y-39685475D01*
X140056698Y-39500648D01*
X140309507Y-39122293D01*
X140657104Y-39554500D01*
X141150181Y-39824367D01*
X141232961Y-39841904D01*
X141455000Y-39719915D01*
X141455000Y-38177000D01*
X141709000Y-38177000D01*
X141709000Y-39719915D01*
X141931039Y-39841904D01*
X142013819Y-39824367D01*
X142506896Y-39554500D01*
X142859166Y-39116483D01*
X143017000Y-38577000D01*
X143017000Y-38177000D01*
X141709000Y-38177000D01*
X141455000Y-38177000D01*
X141435000Y-38177000D01*
X141435000Y-37923000D01*
X141455000Y-37923000D01*
X141455000Y-37903000D01*
X141709000Y-37903000D01*
X141709000Y-37923000D01*
X143017000Y-37923000D01*
X143017000Y-37523000D01*
X142895907Y-37109100D01*
X150013560Y-37109100D01*
X150013560Y-39350000D01*
X150062843Y-39597765D01*
X150203191Y-39807809D01*
X150413235Y-39948157D01*
X150661000Y-39997440D01*
X152261000Y-39997440D01*
X152508765Y-39948157D01*
X152718809Y-39807809D01*
X152859157Y-39597765D01*
X152887882Y-39453352D01*
X152986302Y-39600648D01*
X153451849Y-39911717D01*
X154001000Y-40020950D01*
X154550151Y-39911717D01*
X155015698Y-39600648D01*
X155271000Y-39218562D01*
X155526302Y-39600648D01*
X155991849Y-39911717D01*
X156541000Y-40020950D01*
X157090151Y-39911717D01*
X157555698Y-39600648D01*
X157811000Y-39218562D01*
X158066302Y-39600648D01*
X158531849Y-39911717D01*
X159081000Y-40020950D01*
X159630151Y-39911717D01*
X160095698Y-39600648D01*
X160351000Y-39218562D01*
X160606302Y-39600648D01*
X161071849Y-39911717D01*
X161621000Y-40020950D01*
X162170151Y-39911717D01*
X162635698Y-39600648D01*
X162891000Y-39218562D01*
X163146302Y-39600648D01*
X163611849Y-39911717D01*
X164161000Y-40020950D01*
X164710151Y-39911717D01*
X165175698Y-39600648D01*
X165428507Y-39222293D01*
X165776104Y-39654500D01*
X166269181Y-39924367D01*
X166351961Y-39941904D01*
X166574000Y-39819915D01*
X166574000Y-38277000D01*
X166828000Y-38277000D01*
X166828000Y-39819915D01*
X167050039Y-39941904D01*
X167132819Y-39924367D01*
X167625896Y-39654500D01*
X167978166Y-39216483D01*
X168136000Y-38677000D01*
X168136000Y-38277000D01*
X166828000Y-38277000D01*
X166574000Y-38277000D01*
X166554000Y-38277000D01*
X166554000Y-38023000D01*
X166574000Y-38023000D01*
X166574000Y-38003000D01*
X166828000Y-38003000D01*
X166828000Y-38023000D01*
X168136000Y-38023000D01*
X168136000Y-37623000D01*
X167985651Y-37109100D01*
X176063900Y-37109100D01*
X176354739Y-37051248D01*
X176601301Y-36886501D01*
X176705904Y-36781898D01*
X176748946Y-36998285D01*
G36*
X124894560Y-39250000D02*
X124903949Y-39297200D01*
X117173509Y-39297200D01*
X117379166Y-39041483D01*
X117537000Y-38502000D01*
X117537000Y-38102000D01*
X116229000Y-38102000D01*
X116229000Y-38122000D01*
X115975000Y-38122000D01*
X115975000Y-38102000D01*
X115955000Y-38102000D01*
X115955000Y-37848000D01*
X115975000Y-37848000D01*
X115975000Y-37828000D01*
X116229000Y-37828000D01*
X116229000Y-37848000D01*
X117537000Y-37848000D01*
X117537000Y-37448000D01*
X117467252Y-37209600D01*
X124894560Y-37209600D01*
X124894560Y-39250000D01*
X124894560Y-39250000D01*
G37*
X124894560Y-39250000D02*
X124903949Y-39297200D01*
X117173509Y-39297200D01*
X117379166Y-39041483D01*
X117537000Y-38502000D01*
X117537000Y-38102000D01*
X116229000Y-38102000D01*
X116229000Y-38122000D01*
X115975000Y-38122000D01*
X115975000Y-38102000D01*
X115955000Y-38102000D01*
X115955000Y-37848000D01*
X115975000Y-37848000D01*
X115975000Y-37828000D01*
X116229000Y-37828000D01*
X116229000Y-37848000D01*
X117537000Y-37848000D01*
X117537000Y-37448000D01*
X117467252Y-37209600D01*
X124894560Y-37209600D01*
X124894560Y-39250000D01*
G36*
X99414560Y-38765300D02*
X92696382Y-38765300D01*
X92766100Y-38527000D01*
X92766100Y-38127000D01*
X91458100Y-38127000D01*
X91458100Y-38147000D01*
X91204100Y-38147000D01*
X91204100Y-38127000D01*
X91184100Y-38127000D01*
X91184100Y-37873000D01*
X91204100Y-37873000D01*
X91204100Y-37853000D01*
X91458100Y-37853000D01*
X91458100Y-37873000D01*
X92766100Y-37873000D01*
X92766100Y-37473000D01*
X92762969Y-37462297D01*
X92932515Y-37392242D01*
X93115476Y-37209600D01*
X99414560Y-37209600D01*
X99414560Y-38765300D01*
X99414560Y-38765300D01*
G37*
X99414560Y-38765300D02*
X92696382Y-38765300D01*
X92766100Y-38527000D01*
X92766100Y-38127000D01*
X91458100Y-38127000D01*
X91458100Y-38147000D01*
X91204100Y-38147000D01*
X91204100Y-38127000D01*
X91184100Y-38127000D01*
X91184100Y-37873000D01*
X91204100Y-37873000D01*
X91204100Y-37853000D01*
X91458100Y-37853000D01*
X91458100Y-37873000D01*
X92766100Y-37873000D01*
X92766100Y-37473000D01*
X92762969Y-37462297D01*
X92932515Y-37392242D01*
X93115476Y-37209600D01*
X99414560Y-37209600D01*
X99414560Y-38765300D01*
G36*
X66453900Y-37873000D02*
X66473900Y-37873000D01*
X66473900Y-38127000D01*
X66453900Y-38127000D01*
X66453900Y-38147000D01*
X66199900Y-38147000D01*
X66199900Y-38127000D01*
X66179900Y-38127000D01*
X66179900Y-37873000D01*
X66199900Y-37873000D01*
X66199900Y-37853000D01*
X66453900Y-37853000D01*
X66453900Y-37873000D01*
X66453900Y-37873000D01*
G37*
X66453900Y-37873000D02*
X66473900Y-37873000D01*
X66473900Y-38127000D01*
X66453900Y-38127000D01*
X66453900Y-38147000D01*
X66199900Y-38147000D01*
X66199900Y-38127000D01*
X66179900Y-38127000D01*
X66179900Y-37873000D01*
X66199900Y-37873000D01*
X66199900Y-37853000D01*
X66453900Y-37853000D01*
X66453900Y-37873000D01*
G36*
X83173699Y-28317299D02*
X83008952Y-28563861D01*
X82973015Y-28744525D01*
X82696402Y-28929352D01*
X82441100Y-29311438D01*
X82185798Y-28929352D01*
X81720251Y-28618283D01*
X81171100Y-28509050D01*
X80621949Y-28618283D01*
X80156402Y-28929352D01*
X79901100Y-29311438D01*
X79645798Y-28929352D01*
X79180251Y-28618283D01*
X78631100Y-28509050D01*
X78081949Y-28618283D01*
X77616402Y-28929352D01*
X77361100Y-29311438D01*
X77105798Y-28929352D01*
X76640251Y-28618283D01*
X76091100Y-28509050D01*
X75541949Y-28618283D01*
X75076402Y-28929352D01*
X74765333Y-29394899D01*
X74726525Y-29590000D01*
X74013646Y-29590000D01*
X73992243Y-29538200D01*
X73588923Y-29134176D01*
X73061691Y-28915250D01*
X72490813Y-28914752D01*
X71963200Y-29132757D01*
X71559176Y-29536077D01*
X71340250Y-30063309D01*
X71339752Y-30634187D01*
X71557757Y-31161800D01*
X71961077Y-31565824D01*
X72027544Y-31593423D01*
X72020995Y-31596136D01*
X71946861Y-31842255D01*
X72775000Y-32670395D01*
X73603139Y-31842255D01*
X73529005Y-31596136D01*
X73522517Y-31593804D01*
X73586800Y-31567243D01*
X73990824Y-31163923D01*
X74013215Y-31110000D01*
X74714590Y-31110000D01*
X74765333Y-31365101D01*
X75076402Y-31830648D01*
X75541949Y-32141717D01*
X76091100Y-32250950D01*
X76640251Y-32141717D01*
X77105798Y-31830648D01*
X77361100Y-31448562D01*
X77616402Y-31830648D01*
X78081949Y-32141717D01*
X78631100Y-32250950D01*
X79180251Y-32141717D01*
X79645798Y-31830648D01*
X79901100Y-31448562D01*
X80156402Y-31830648D01*
X80433015Y-32015475D01*
X80468952Y-32196139D01*
X80633699Y-32442701D01*
X80672460Y-32468600D01*
X75215902Y-32468600D01*
X74879177Y-32328780D01*
X74467429Y-32328421D01*
X74175160Y-32449184D01*
X74028864Y-32095995D01*
X73782745Y-32021861D01*
X72954605Y-32850000D01*
X72968748Y-32864142D01*
X72789142Y-33043748D01*
X72775000Y-33029605D01*
X71946861Y-33857745D01*
X71981125Y-33971500D01*
X66445602Y-33971500D01*
X65107325Y-32633223D01*
X71328035Y-32633223D01*
X71355222Y-33203454D01*
X71521136Y-33604005D01*
X71767255Y-33678139D01*
X72595395Y-32850000D01*
X71767255Y-32021861D01*
X71521136Y-32095995D01*
X71328035Y-32633223D01*
X65107325Y-32633223D01*
X64503760Y-32029658D01*
X64801598Y-31830648D01*
X65056900Y-31448562D01*
X65312202Y-31830648D01*
X65777749Y-32141717D01*
X66326900Y-32250950D01*
X66876051Y-32141717D01*
X67341598Y-31830648D01*
X67652667Y-31365101D01*
X67761900Y-30815950D01*
X67761900Y-29944050D01*
X67652667Y-29394899D01*
X67341598Y-28929352D01*
X66876051Y-28618283D01*
X66326900Y-28509050D01*
X65777749Y-28618283D01*
X65312202Y-28929352D01*
X65056900Y-29311438D01*
X64801598Y-28929352D01*
X64792877Y-28923525D01*
X65586202Y-28130200D01*
X83360798Y-28130200D01*
X83173699Y-28317299D01*
X83173699Y-28317299D01*
G37*
X83173699Y-28317299D02*
X83008952Y-28563861D01*
X82973015Y-28744525D01*
X82696402Y-28929352D01*
X82441100Y-29311438D01*
X82185798Y-28929352D01*
X81720251Y-28618283D01*
X81171100Y-28509050D01*
X80621949Y-28618283D01*
X80156402Y-28929352D01*
X79901100Y-29311438D01*
X79645798Y-28929352D01*
X79180251Y-28618283D01*
X78631100Y-28509050D01*
X78081949Y-28618283D01*
X77616402Y-28929352D01*
X77361100Y-29311438D01*
X77105798Y-28929352D01*
X76640251Y-28618283D01*
X76091100Y-28509050D01*
X75541949Y-28618283D01*
X75076402Y-28929352D01*
X74765333Y-29394899D01*
X74726525Y-29590000D01*
X74013646Y-29590000D01*
X73992243Y-29538200D01*
X73588923Y-29134176D01*
X73061691Y-28915250D01*
X72490813Y-28914752D01*
X71963200Y-29132757D01*
X71559176Y-29536077D01*
X71340250Y-30063309D01*
X71339752Y-30634187D01*
X71557757Y-31161800D01*
X71961077Y-31565824D01*
X72027544Y-31593423D01*
X72020995Y-31596136D01*
X71946861Y-31842255D01*
X72775000Y-32670395D01*
X73603139Y-31842255D01*
X73529005Y-31596136D01*
X73522517Y-31593804D01*
X73586800Y-31567243D01*
X73990824Y-31163923D01*
X74013215Y-31110000D01*
X74714590Y-31110000D01*
X74765333Y-31365101D01*
X75076402Y-31830648D01*
X75541949Y-32141717D01*
X76091100Y-32250950D01*
X76640251Y-32141717D01*
X77105798Y-31830648D01*
X77361100Y-31448562D01*
X77616402Y-31830648D01*
X78081949Y-32141717D01*
X78631100Y-32250950D01*
X79180251Y-32141717D01*
X79645798Y-31830648D01*
X79901100Y-31448562D01*
X80156402Y-31830648D01*
X80433015Y-32015475D01*
X80468952Y-32196139D01*
X80633699Y-32442701D01*
X80672460Y-32468600D01*
X75215902Y-32468600D01*
X74879177Y-32328780D01*
X74467429Y-32328421D01*
X74175160Y-32449184D01*
X74028864Y-32095995D01*
X73782745Y-32021861D01*
X72954605Y-32850000D01*
X72968748Y-32864142D01*
X72789142Y-33043748D01*
X72775000Y-33029605D01*
X71946861Y-33857745D01*
X71981125Y-33971500D01*
X66445602Y-33971500D01*
X65107325Y-32633223D01*
X71328035Y-32633223D01*
X71355222Y-33203454D01*
X71521136Y-33604005D01*
X71767255Y-33678139D01*
X72595395Y-32850000D01*
X71767255Y-32021861D01*
X71521136Y-32095995D01*
X71328035Y-32633223D01*
X65107325Y-32633223D01*
X64503760Y-32029658D01*
X64801598Y-31830648D01*
X65056900Y-31448562D01*
X65312202Y-31830648D01*
X65777749Y-32141717D01*
X66326900Y-32250950D01*
X66876051Y-32141717D01*
X67341598Y-31830648D01*
X67652667Y-31365101D01*
X67761900Y-30815950D01*
X67761900Y-29944050D01*
X67652667Y-29394899D01*
X67341598Y-28929352D01*
X66876051Y-28618283D01*
X66326900Y-28509050D01*
X65777749Y-28618283D01*
X65312202Y-28929352D01*
X65056900Y-29311438D01*
X64801598Y-28929352D01*
X64792877Y-28923525D01*
X65586202Y-28130200D01*
X83360798Y-28130200D01*
X83173699Y-28317299D01*
G36*
X145525199Y-32237401D02*
X145771760Y-32402148D01*
X146062600Y-32460000D01*
X146876242Y-32460000D01*
X146778035Y-32733223D01*
X146805222Y-33303454D01*
X146853621Y-33420300D01*
X124391783Y-33420300D01*
X124446965Y-33266777D01*
X124419778Y-32696546D01*
X124253864Y-32295995D01*
X124007745Y-32221861D01*
X123179605Y-33050000D01*
X123193748Y-33064143D01*
X123014143Y-33243748D01*
X123000000Y-33229605D01*
X122985858Y-33243748D01*
X122806253Y-33064143D01*
X122820395Y-33050000D01*
X122806252Y-33035858D01*
X122985858Y-32856252D01*
X123000000Y-32870395D01*
X123828139Y-32042255D01*
X123754005Y-31796136D01*
X123747517Y-31793804D01*
X123811800Y-31767243D01*
X124215824Y-31363923D01*
X124238215Y-31310000D01*
X124995327Y-31310000D01*
X125016233Y-31415101D01*
X125327302Y-31880648D01*
X125792849Y-32191717D01*
X126342000Y-32300950D01*
X126891151Y-32191717D01*
X127356698Y-31880648D01*
X127612000Y-31498562D01*
X127867302Y-31880648D01*
X128332849Y-32191717D01*
X128882000Y-32300950D01*
X129431151Y-32191717D01*
X129896698Y-31880648D01*
X130152000Y-31498562D01*
X130407302Y-31880648D01*
X130872849Y-32191717D01*
X131422000Y-32300950D01*
X131971151Y-32191717D01*
X132436698Y-31880648D01*
X132692000Y-31498562D01*
X132947302Y-31880648D01*
X133412849Y-32191717D01*
X133962000Y-32300950D01*
X134511151Y-32191717D01*
X134976698Y-31880648D01*
X135232000Y-31498562D01*
X135487302Y-31880648D01*
X135952849Y-32191717D01*
X136502000Y-32300950D01*
X137051151Y-32191717D01*
X137516698Y-31880648D01*
X137772000Y-31498562D01*
X138027302Y-31880648D01*
X138492849Y-32191717D01*
X139042000Y-32300950D01*
X139591151Y-32191717D01*
X140056698Y-31880648D01*
X140312000Y-31498562D01*
X140567302Y-31880648D01*
X141032849Y-32191717D01*
X141582000Y-32300950D01*
X142131151Y-32191717D01*
X142596698Y-31880648D01*
X142907767Y-31415101D01*
X143017000Y-30865950D01*
X143017000Y-29994050D01*
X142951237Y-29663439D01*
X145525199Y-32237401D01*
X145525199Y-32237401D01*
G37*
X145525199Y-32237401D02*
X145771760Y-32402148D01*
X146062600Y-32460000D01*
X146876242Y-32460000D01*
X146778035Y-32733223D01*
X146805222Y-33303454D01*
X146853621Y-33420300D01*
X124391783Y-33420300D01*
X124446965Y-33266777D01*
X124419778Y-32696546D01*
X124253864Y-32295995D01*
X124007745Y-32221861D01*
X123179605Y-33050000D01*
X123193748Y-33064143D01*
X123014143Y-33243748D01*
X123000000Y-33229605D01*
X122985858Y-33243748D01*
X122806253Y-33064143D01*
X122820395Y-33050000D01*
X122806252Y-33035858D01*
X122985858Y-32856252D01*
X123000000Y-32870395D01*
X123828139Y-32042255D01*
X123754005Y-31796136D01*
X123747517Y-31793804D01*
X123811800Y-31767243D01*
X124215824Y-31363923D01*
X124238215Y-31310000D01*
X124995327Y-31310000D01*
X125016233Y-31415101D01*
X125327302Y-31880648D01*
X125792849Y-32191717D01*
X126342000Y-32300950D01*
X126891151Y-32191717D01*
X127356698Y-31880648D01*
X127612000Y-31498562D01*
X127867302Y-31880648D01*
X128332849Y-32191717D01*
X128882000Y-32300950D01*
X129431151Y-32191717D01*
X129896698Y-31880648D01*
X130152000Y-31498562D01*
X130407302Y-31880648D01*
X130872849Y-32191717D01*
X131422000Y-32300950D01*
X131971151Y-32191717D01*
X132436698Y-31880648D01*
X132692000Y-31498562D01*
X132947302Y-31880648D01*
X133412849Y-32191717D01*
X133962000Y-32300950D01*
X134511151Y-32191717D01*
X134976698Y-31880648D01*
X135232000Y-31498562D01*
X135487302Y-31880648D01*
X135952849Y-32191717D01*
X136502000Y-32300950D01*
X137051151Y-32191717D01*
X137516698Y-31880648D01*
X137772000Y-31498562D01*
X138027302Y-31880648D01*
X138492849Y-32191717D01*
X139042000Y-32300950D01*
X139591151Y-32191717D01*
X140056698Y-31880648D01*
X140312000Y-31498562D01*
X140567302Y-31880648D01*
X141032849Y-32191717D01*
X141582000Y-32300950D01*
X142131151Y-32191717D01*
X142596698Y-31880648D01*
X142907767Y-31415101D01*
X143017000Y-30865950D01*
X143017000Y-29994050D01*
X142951237Y-29663439D01*
X145525199Y-32237401D01*
G36*
X148418748Y-32935858D02*
X148404605Y-32950000D01*
X148418748Y-32964142D01*
X148239143Y-33143748D01*
X148225000Y-33129605D01*
X148210858Y-33143748D01*
X148031252Y-32964142D01*
X148045395Y-32950000D01*
X148031252Y-32935858D01*
X148210858Y-32756253D01*
X148225000Y-32770395D01*
X148239143Y-32756253D01*
X148418748Y-32935858D01*
X148418748Y-32935858D01*
G37*
X148418748Y-32935858D02*
X148404605Y-32950000D01*
X148418748Y-32964142D01*
X148239143Y-33143748D01*
X148225000Y-33129605D01*
X148210858Y-33143748D01*
X148031252Y-32964142D01*
X148045395Y-32950000D01*
X148031252Y-32935858D01*
X148210858Y-32756253D01*
X148225000Y-32770395D01*
X148239143Y-32756253D01*
X148418748Y-32935858D01*
G36*
X97743748Y-32910858D02*
X97729605Y-32925000D01*
X97743748Y-32939143D01*
X97564143Y-33118748D01*
X97550000Y-33104605D01*
X97535858Y-33118748D01*
X97356253Y-32939143D01*
X97370395Y-32925000D01*
X97356252Y-32910858D01*
X97535858Y-32731253D01*
X97550000Y-32745395D01*
X97564143Y-32731253D01*
X97743748Y-32910858D01*
X97743748Y-32910858D01*
G37*
X97743748Y-32910858D02*
X97729605Y-32925000D01*
X97743748Y-32939143D01*
X97564143Y-33118748D01*
X97550000Y-33104605D01*
X97535858Y-33118748D01*
X97356253Y-32939143D01*
X97370395Y-32925000D01*
X97356252Y-32910858D01*
X97535858Y-32731253D01*
X97550000Y-32745395D01*
X97564143Y-32731253D01*
X97743748Y-32910858D01*
M02*
