G04 #@! TF.FileFunction,Copper,L2,Bot,Signal*
%FSLAX46Y46*%
G04 Gerber Fmt 4.6, Leading zero omitted, Abs format (unit mm)*
G04 Created by KiCad (PCBNEW (2016-09-07 BZR 7135, Git c8cf783)-product) date Sat Feb  4 03:26:47 2017*
%MOMM*%
%LPD*%
G01*
G04 APERTURE LIST*
%ADD10C,0.100000*%
%ADD11R,1.600000X2.400000*%
%ADD12O,1.600000X2.400000*%
%ADD13R,1.700000X1.700000*%
%ADD14O,1.700000X1.700000*%
%ADD15C,1.600000*%
%ADD16C,0.800000*%
%ADD17C,0.250000*%
%ADD18C,0.254000*%
G04 APERTURE END LIST*
D10*
D11*
X51086900Y-38000000D03*
D12*
X66326900Y-30380000D03*
X53626900Y-38000000D03*
X63786900Y-30380000D03*
X56166900Y-38000000D03*
X61246900Y-30380000D03*
X58706900Y-38000000D03*
X58706900Y-30380000D03*
X61246900Y-38000000D03*
X56166900Y-30380000D03*
X63786900Y-38000000D03*
X53626900Y-30380000D03*
X66326900Y-38000000D03*
X51086900Y-30380000D03*
D11*
X76091100Y-38000000D03*
D12*
X91331100Y-30380000D03*
X78631100Y-38000000D03*
X88791100Y-30380000D03*
X81171100Y-38000000D03*
X86251100Y-30380000D03*
X83711100Y-38000000D03*
X83711100Y-30380000D03*
X86251100Y-38000000D03*
X81171100Y-30380000D03*
X88791100Y-38000000D03*
X78631100Y-30380000D03*
X91331100Y-38000000D03*
X76091100Y-30380000D03*
D11*
X100862000Y-37975000D03*
D12*
X116102000Y-30355000D03*
X103402000Y-37975000D03*
X113562000Y-30355000D03*
X105942000Y-37975000D03*
X111022000Y-30355000D03*
X108482000Y-37975000D03*
X108482000Y-30355000D03*
X111022000Y-37975000D03*
X105942000Y-30355000D03*
X113562000Y-37975000D03*
X103402000Y-30355000D03*
X116102000Y-37975000D03*
X100862000Y-30355000D03*
D11*
X126342000Y-38050000D03*
D12*
X141582000Y-30430000D03*
X128882000Y-38050000D03*
X139042000Y-30430000D03*
X131422000Y-38050000D03*
X136502000Y-30430000D03*
X133962000Y-38050000D03*
X133962000Y-30430000D03*
X136502000Y-38050000D03*
X131422000Y-30430000D03*
X139042000Y-38050000D03*
X128882000Y-30430000D03*
X141582000Y-38050000D03*
X126342000Y-30430000D03*
D11*
X151461000Y-38150000D03*
D12*
X166701000Y-30530000D03*
X154001000Y-38150000D03*
X164161000Y-30530000D03*
X156541000Y-38150000D03*
X161621000Y-30530000D03*
X159081000Y-38150000D03*
X159081000Y-30530000D03*
X161621000Y-38150000D03*
X156541000Y-30530000D03*
X164161000Y-38150000D03*
X154001000Y-30530000D03*
X166701000Y-38150000D03*
X151461000Y-30530000D03*
D11*
X51086900Y-55728100D03*
D12*
X66326900Y-48108100D03*
X53626900Y-55728100D03*
X63786900Y-48108100D03*
X56166900Y-55728100D03*
X61246900Y-48108100D03*
X58706900Y-55728100D03*
X58706900Y-48108100D03*
X61246900Y-55728100D03*
X56166900Y-48108100D03*
X63786900Y-55728100D03*
X53626900Y-48108100D03*
X66326900Y-55728100D03*
X51086900Y-48108100D03*
D11*
X76091100Y-55780000D03*
D12*
X91331100Y-48160000D03*
X78631100Y-55780000D03*
X88791100Y-48160000D03*
X81171100Y-55780000D03*
X86251100Y-48160000D03*
X83711100Y-55780000D03*
X83711100Y-48160000D03*
X86251100Y-55780000D03*
X81171100Y-48160000D03*
X88791100Y-55780000D03*
X78631100Y-48160000D03*
X91331100Y-55780000D03*
X76091100Y-48160000D03*
D11*
X100803000Y-55799400D03*
D12*
X116043000Y-48179400D03*
X103343000Y-55799400D03*
X113503000Y-48179400D03*
X105883000Y-55799400D03*
X110963000Y-48179400D03*
X108423000Y-55799400D03*
X108423000Y-48179400D03*
X110963000Y-55799400D03*
X105883000Y-48179400D03*
X113503000Y-55799400D03*
X103343000Y-48179400D03*
X116043000Y-55799400D03*
X100803000Y-48179400D03*
D11*
X126442000Y-55888300D03*
D12*
X141682000Y-48268300D03*
X128982000Y-55888300D03*
X139142000Y-48268300D03*
X131522000Y-55888300D03*
X136602000Y-48268300D03*
X134062000Y-55888300D03*
X134062000Y-48268300D03*
X136602000Y-55888300D03*
X131522000Y-48268300D03*
X139142000Y-55888300D03*
X128982000Y-48268300D03*
X141682000Y-55888300D03*
X126442000Y-48268300D03*
D11*
X151425000Y-55888300D03*
D12*
X166665000Y-48268300D03*
X153965000Y-55888300D03*
X164125000Y-48268300D03*
X156505000Y-55888300D03*
X161585000Y-48268300D03*
X159045000Y-55888300D03*
X159045000Y-48268300D03*
X161585000Y-55888300D03*
X156505000Y-48268300D03*
X164125000Y-55888300D03*
X153965000Y-48268300D03*
X166665000Y-55888300D03*
X151425000Y-48268300D03*
D11*
X51205000Y-73508800D03*
D12*
X66445000Y-65888800D03*
X53745000Y-73508800D03*
X63905000Y-65888800D03*
X56285000Y-73508800D03*
X61365000Y-65888800D03*
X58825000Y-73508800D03*
X58825000Y-65888800D03*
X61365000Y-73508800D03*
X56285000Y-65888800D03*
X63905000Y-73508800D03*
X53745000Y-65888800D03*
X66445000Y-73508800D03*
X51205000Y-65888800D03*
D11*
X76225600Y-73695000D03*
D12*
X91465600Y-66075000D03*
X78765600Y-73695000D03*
X88925600Y-66075000D03*
X81305600Y-73695000D03*
X86385600Y-66075000D03*
X83845600Y-73695000D03*
X83845600Y-66075000D03*
X86385600Y-73695000D03*
X81305600Y-66075000D03*
X88925600Y-73695000D03*
X78765600Y-66075000D03*
X91465600Y-73695000D03*
X76225600Y-66075000D03*
D11*
X100803000Y-73521200D03*
D12*
X116043000Y-65901200D03*
X103343000Y-73521200D03*
X113503000Y-65901200D03*
X105883000Y-73521200D03*
X110963000Y-65901200D03*
X108423000Y-73521200D03*
X108423000Y-65901200D03*
X110963000Y-73521200D03*
X105883000Y-65901200D03*
X113503000Y-73521200D03*
X103343000Y-65901200D03*
X116043000Y-73521200D03*
X100803000Y-65901200D03*
D11*
X126232000Y-73599200D03*
D12*
X141472000Y-65979200D03*
X128772000Y-73599200D03*
X138932000Y-65979200D03*
X131312000Y-73599200D03*
X136392000Y-65979200D03*
X133852000Y-73599200D03*
X133852000Y-65979200D03*
X136392000Y-73599200D03*
X131312000Y-65979200D03*
X138932000Y-73599200D03*
X128772000Y-65979200D03*
X141472000Y-73599200D03*
X126232000Y-65979200D03*
D11*
X51380000Y-91390000D03*
D12*
X66620000Y-83770000D03*
X53920000Y-91390000D03*
X64080000Y-83770000D03*
X56460000Y-91390000D03*
X61540000Y-83770000D03*
X59000000Y-91390000D03*
X59000000Y-83770000D03*
X61540000Y-91390000D03*
X56460000Y-83770000D03*
X64080000Y-91390000D03*
X53920000Y-83770000D03*
X66620000Y-91390000D03*
X51380000Y-83770000D03*
D11*
X76091100Y-91390000D03*
D12*
X91331100Y-83770000D03*
X78631100Y-91390000D03*
X88791100Y-83770000D03*
X81171100Y-91390000D03*
X86251100Y-83770000D03*
X83711100Y-91390000D03*
X83711100Y-83770000D03*
X86251100Y-91390000D03*
X81171100Y-83770000D03*
X88791100Y-91390000D03*
X78631100Y-83770000D03*
X91331100Y-91390000D03*
X76091100Y-83770000D03*
D11*
X100912000Y-91390000D03*
D12*
X116152000Y-83770000D03*
X103452000Y-91390000D03*
X113612000Y-83770000D03*
X105992000Y-91390000D03*
X111072000Y-83770000D03*
X108532000Y-91390000D03*
X108532000Y-83770000D03*
X111072000Y-91390000D03*
X105992000Y-83770000D03*
X113612000Y-91390000D03*
X103452000Y-83770000D03*
X116152000Y-91390000D03*
X100912000Y-83770000D03*
D11*
X126232000Y-91390000D03*
D12*
X141472000Y-83770000D03*
X128772000Y-91390000D03*
X138932000Y-83770000D03*
X131312000Y-91390000D03*
X136392000Y-83770000D03*
X133852000Y-91390000D03*
X133852000Y-83770000D03*
X136392000Y-91390000D03*
X131312000Y-83770000D03*
X138932000Y-91390000D03*
X128772000Y-83770000D03*
X141472000Y-91390000D03*
X126232000Y-83770000D03*
D11*
X51105000Y-108995000D03*
D12*
X66345000Y-101375000D03*
X53645000Y-108995000D03*
X63805000Y-101375000D03*
X56185000Y-108995000D03*
X61265000Y-101375000D03*
X58725000Y-108995000D03*
X58725000Y-101375000D03*
X61265000Y-108995000D03*
X56185000Y-101375000D03*
X63805000Y-108995000D03*
X53645000Y-101375000D03*
X66345000Y-108995000D03*
X51105000Y-101375000D03*
D11*
X76200600Y-108995000D03*
D12*
X91440600Y-101375000D03*
X78740600Y-108995000D03*
X88900600Y-101375000D03*
X81280600Y-108995000D03*
X86360600Y-101375000D03*
X83820600Y-108995000D03*
X83820600Y-101375000D03*
X86360600Y-108995000D03*
X81280600Y-101375000D03*
X88900600Y-108995000D03*
X78740600Y-101375000D03*
X91440600Y-108995000D03*
X76200600Y-101375000D03*
D11*
X100812000Y-108995000D03*
D12*
X116052000Y-101375000D03*
X103352000Y-108995000D03*
X113512000Y-101375000D03*
X105892000Y-108995000D03*
X110972000Y-101375000D03*
X108432000Y-108995000D03*
X108432000Y-101375000D03*
X110972000Y-108995000D03*
X105892000Y-101375000D03*
X113512000Y-108995000D03*
X103352000Y-101375000D03*
X116052000Y-108995000D03*
X100812000Y-101375000D03*
D13*
X178150000Y-26270000D03*
D14*
X180690000Y-26270000D03*
X178150000Y-28810000D03*
X180690000Y-28810000D03*
X178150000Y-31350000D03*
X180690000Y-31350000D03*
X178150000Y-33890000D03*
X180690000Y-33890000D03*
X178150000Y-36430000D03*
X180690000Y-36430000D03*
X178150000Y-38970000D03*
X180690000Y-38970000D03*
X178150000Y-41510000D03*
X180690000Y-41510000D03*
X178150000Y-44050000D03*
X180690000Y-44050000D03*
X178150000Y-46590000D03*
X180690000Y-46590000D03*
X178150000Y-49130000D03*
X180690000Y-49130000D03*
X178150000Y-51670000D03*
X180690000Y-51670000D03*
X178150000Y-54210000D03*
X180690000Y-54210000D03*
X178150000Y-56750000D03*
X180690000Y-56750000D03*
X178150000Y-59290000D03*
X180690000Y-59290000D03*
X178150000Y-61830000D03*
X180690000Y-61830000D03*
X178150000Y-64370000D03*
X180690000Y-64370000D03*
X178150000Y-66910000D03*
X180690000Y-66910000D03*
X178150000Y-69450000D03*
X180690000Y-69450000D03*
X178150000Y-71990000D03*
X180690000Y-71990000D03*
X178150000Y-74530000D03*
X180690000Y-74530000D03*
X178150000Y-77070000D03*
X180690000Y-77070000D03*
X178150000Y-79610000D03*
X180690000Y-79610000D03*
X178150000Y-82150000D03*
X180690000Y-82150000D03*
X178150000Y-84690000D03*
X180690000Y-84690000D03*
X178150000Y-87230000D03*
X180690000Y-87230000D03*
X178150000Y-89770000D03*
X180690000Y-89770000D03*
X178150000Y-92310000D03*
X180690000Y-92310000D03*
X178150000Y-94850000D03*
X180690000Y-94850000D03*
X178150000Y-97390000D03*
X180690000Y-97390000D03*
X178150000Y-99930000D03*
X180690000Y-99930000D03*
X178150000Y-102470000D03*
X180690000Y-102470000D03*
X178150000Y-105010000D03*
X180690000Y-105010000D03*
X178150000Y-107550000D03*
X180690000Y-107550000D03*
X178150000Y-110090000D03*
X180690000Y-110090000D03*
X178150000Y-112630000D03*
X180690000Y-112630000D03*
D15*
X97450000Y-101525000D03*
X97450000Y-104025000D03*
X72900000Y-101425000D03*
X72900000Y-103925000D03*
X47725000Y-101350000D03*
X47725000Y-103850000D03*
X122925000Y-83900000D03*
X122925000Y-86400000D03*
X97625000Y-83825000D03*
X97625000Y-86325000D03*
X72800000Y-83850000D03*
X72800000Y-86350000D03*
X48050000Y-83675000D03*
X48050000Y-86175000D03*
X122825000Y-66050000D03*
X122825000Y-68550000D03*
X97400000Y-65925000D03*
X97400000Y-68425000D03*
X72825000Y-66075000D03*
X72825000Y-68575000D03*
X47875000Y-65975000D03*
X47875000Y-68475000D03*
X148150000Y-48375000D03*
X148150000Y-50875000D03*
X123100000Y-48300000D03*
X123100000Y-50800000D03*
X97400000Y-48175000D03*
X97400000Y-50675000D03*
X72750000Y-48225000D03*
X72750000Y-50725000D03*
X47725000Y-48125000D03*
X47725000Y-50625000D03*
X148225000Y-30450000D03*
X148225000Y-32950000D03*
X123000000Y-30550000D03*
X123000000Y-33050000D03*
X97550000Y-30425000D03*
X97550000Y-32925000D03*
X72775000Y-30350000D03*
X72775000Y-32850000D03*
X47800000Y-30225000D03*
X47800000Y-32725000D03*
D16*
X151815300Y-92096600D03*
X62089300Y-81089200D03*
X123696900Y-45311100D03*
X111150400Y-42703200D03*
X133233000Y-42941300D03*
X111604100Y-45818000D03*
X99831800Y-40364700D03*
X127559400Y-50576500D03*
X111062800Y-50684600D03*
X83053500Y-41335600D03*
X142283700Y-23906200D03*
X100139300Y-34562500D03*
X154261600Y-28545800D03*
X111930300Y-104763900D03*
X167090400Y-53372100D03*
X144418900Y-65001400D03*
X82628800Y-82261000D03*
X115825100Y-86293100D03*
X76055300Y-39822200D03*
X92347000Y-36514300D03*
X121086900Y-34399500D03*
X87657700Y-33953900D03*
X88273800Y-35554500D03*
X120409000Y-54503600D03*
X106947300Y-69996700D03*
X112493300Y-69432800D03*
X148151500Y-28545800D03*
X155696100Y-51430200D03*
X113155800Y-42050600D03*
X68265300Y-41490100D03*
X68507800Y-105930700D03*
X56168800Y-70095400D03*
X109603500Y-70897300D03*
X132467100Y-67702300D03*
X88889600Y-68459200D03*
X125325700Y-59911800D03*
X91727200Y-60503300D03*
X67490100Y-77513300D03*
X112057300Y-72173300D03*
X84234300Y-41461900D03*
X57626400Y-27601600D03*
X154136800Y-26823400D03*
X173491600Y-70802800D03*
X88085500Y-53015000D03*
X97237800Y-62848400D03*
X75299400Y-62848400D03*
X145762800Y-24585800D03*
X166991800Y-34103800D03*
X74672400Y-33363600D03*
X88629300Y-70039500D03*
X84956400Y-81150100D03*
X163253200Y-80066600D03*
X103853900Y-53468200D03*
X171124600Y-70802800D03*
X98816900Y-62744600D03*
X99482300Y-69598900D03*
X85291300Y-67362300D03*
X96237000Y-69895900D03*
X87255700Y-58790800D03*
X118637700Y-42030400D03*
X83742400Y-60953600D03*
X144140100Y-61508700D03*
X72530200Y-111404100D03*
X109680000Y-50710100D03*
X55122200Y-106227400D03*
X147570700Y-59753800D03*
X95144800Y-60640800D03*
X104969100Y-110554800D03*
X172152600Y-65007600D03*
X131568700Y-89072700D03*
X125974300Y-89072700D03*
X112261500Y-96527800D03*
X103232200Y-40862500D03*
X97819300Y-45859100D03*
X71260600Y-48496100D03*
X102797800Y-79118500D03*
X72956300Y-44672100D03*
X143376400Y-78859400D03*
X64132200Y-80831600D03*
X160023800Y-63755800D03*
X75214200Y-43616200D03*
X170791200Y-86704200D03*
X82978000Y-80959800D03*
X82978000Y-77166600D03*
X151744700Y-70959400D03*
X140825200Y-70393200D03*
X68916400Y-71880900D03*
X120296900Y-68484600D03*
X107567100Y-98096100D03*
X69511100Y-98101700D03*
X131802800Y-79202200D03*
X168086500Y-96666900D03*
X170675600Y-98504600D03*
X139440500Y-93783500D03*
X159120000Y-87842100D03*
X144440100Y-94675900D03*
X83863700Y-94608800D03*
X146964300Y-75398300D03*
X107387900Y-76535500D03*
X143239800Y-85992600D03*
X126563300Y-86686800D03*
X181707800Y-80693300D03*
X76383300Y-113355600D03*
X82706600Y-113105900D03*
X170570100Y-64211000D03*
X155184100Y-108467500D03*
D17*
X58706900Y-28854700D02*
X66326900Y-28854700D01*
X58706900Y-30380000D02*
X58706900Y-28854700D01*
X66326900Y-30380000D02*
X66326900Y-28854700D01*
X126742600Y-89864700D02*
X131312000Y-85295300D01*
X126232000Y-89864700D02*
X126742600Y-89864700D01*
X126232000Y-91390000D02*
X126232000Y-89864700D01*
X131312000Y-83770000D02*
X131312000Y-85295300D01*
X161761900Y-82150000D02*
X151815300Y-92096600D01*
X176974700Y-82150000D02*
X161761900Y-82150000D01*
X178150000Y-82150000D02*
X176974700Y-82150000D01*
X55038700Y-35573500D02*
X58706900Y-31905300D01*
X55038700Y-58405600D02*
X55038700Y-35573500D01*
X57699600Y-61066500D02*
X55038700Y-58405600D01*
X57699600Y-76699500D02*
X57699600Y-61066500D01*
X62089300Y-81089200D02*
X57699600Y-76699500D01*
X58706900Y-30380000D02*
X58706900Y-31905300D01*
X53626900Y-30380000D02*
X53626900Y-38000000D01*
X113612000Y-91390000D02*
X113612000Y-83770000D01*
X113612000Y-83770000D02*
X113612000Y-82244700D01*
X121691300Y-74165400D02*
X113612000Y-82244700D01*
X121691300Y-65366500D02*
X121691300Y-74165400D01*
X122425200Y-64632600D02*
X121691300Y-65366500D01*
X122425200Y-53173500D02*
X122425200Y-64632600D01*
X124225400Y-51373300D02*
X122425200Y-53173500D01*
X124225400Y-45839600D02*
X124225400Y-51373300D01*
X123696900Y-45311100D02*
X124225400Y-45839600D01*
X161585000Y-51823000D02*
X159045000Y-54363000D01*
X161585000Y-48268300D02*
X161585000Y-51823000D01*
X159045000Y-55888300D02*
X159045000Y-54363000D01*
X108482000Y-40034800D02*
X111150400Y-42703200D01*
X108482000Y-37975000D02*
X108482000Y-40034800D01*
X136602000Y-46310300D02*
X133233000Y-42941300D01*
X136602000Y-48268300D02*
X136602000Y-46310300D01*
X133852000Y-91390000D02*
X133852000Y-89864700D01*
X136602000Y-48268300D02*
X136602000Y-49793600D01*
X135126000Y-88590700D02*
X133852000Y-89864700D01*
X135126000Y-82970700D02*
X135126000Y-88590700D01*
X140099900Y-77996800D02*
X135126000Y-82970700D01*
X140099900Y-70092800D02*
X140099900Y-77996800D01*
X140275400Y-69917300D02*
X140099900Y-70092800D01*
X140275400Y-53467000D02*
X140275400Y-69917300D01*
X136602000Y-49793600D02*
X140275400Y-53467000D01*
X105942000Y-37975000D02*
X105942000Y-39500300D01*
X111604100Y-45162400D02*
X111604100Y-45818000D01*
X105942000Y-39500300D02*
X111604100Y-45162400D01*
X100696200Y-39500300D02*
X99831800Y-40364700D01*
X100862000Y-39500300D02*
X100696200Y-39500300D01*
X100862000Y-37975000D02*
X100862000Y-39500300D01*
X153965000Y-51823000D02*
X151425000Y-54363000D01*
X153965000Y-48268300D02*
X153965000Y-51823000D01*
X151425000Y-55888300D02*
X151425000Y-54363000D01*
X103402000Y-37975000D02*
X103402000Y-39500300D01*
X128772000Y-83770000D02*
X128772000Y-82244700D01*
X124600400Y-78073100D02*
X128772000Y-82244700D01*
X124600400Y-53535500D02*
X124600400Y-78073100D01*
X127559400Y-50576500D02*
X124600400Y-53535500D01*
X83652600Y-40736500D02*
X83053500Y-41335600D01*
X86958000Y-40736500D02*
X83652600Y-40736500D01*
X95539200Y-49317700D02*
X86958000Y-40736500D01*
X97890300Y-49317700D02*
X95539200Y-49317700D01*
X98899300Y-48308700D02*
X97890300Y-49317700D01*
X98899300Y-48091500D02*
X98899300Y-48308700D01*
X104644500Y-42346300D02*
X98899300Y-48091500D01*
X109660300Y-47362100D02*
X104644500Y-42346300D01*
X109660300Y-49282100D02*
X109660300Y-47362100D01*
X111062800Y-50684600D02*
X109660300Y-49282100D01*
X156505000Y-48268300D02*
X156505000Y-49793600D01*
X153965000Y-55888300D02*
X153965000Y-54363000D01*
X154431300Y-53896700D02*
X153965000Y-54363000D01*
X154431300Y-51669300D02*
X154431300Y-53896700D01*
X156307000Y-49793600D02*
X154431300Y-51669300D01*
X156505000Y-49793600D02*
X156307000Y-49793600D01*
X104644500Y-40742800D02*
X103402000Y-39500300D01*
X104644500Y-42346300D02*
X104644500Y-40742800D01*
X62772200Y-36474700D02*
X61246900Y-36474700D01*
X75340700Y-23906200D02*
X62772200Y-36474700D01*
X142283700Y-23906200D02*
X75340700Y-23906200D01*
X61246900Y-38000000D02*
X61246900Y-36474700D01*
X112329400Y-40807700D02*
X111022000Y-39500300D01*
X112329400Y-61594800D02*
X112329400Y-40807700D01*
X109548400Y-64375800D02*
X112329400Y-61594800D01*
X109548400Y-68421400D02*
X109548400Y-64375800D01*
X107293000Y-70676800D02*
X109548400Y-68421400D01*
X107293000Y-75414800D02*
X107293000Y-70676800D01*
X108532000Y-76653800D02*
X107293000Y-75414800D01*
X108532000Y-82244700D02*
X108532000Y-76653800D01*
X108532000Y-83658800D02*
X108532000Y-82244700D01*
X108532000Y-83658800D02*
X108532000Y-83770000D01*
X108021400Y-85295300D02*
X103452000Y-89864700D01*
X108532000Y-85295300D02*
X108021400Y-85295300D01*
X103452000Y-91390000D02*
X103452000Y-89864700D01*
X108532000Y-83770000D02*
X108532000Y-85295300D01*
X111022000Y-38408500D02*
X111022000Y-39500300D01*
X111022000Y-38408500D02*
X111022000Y-37975000D01*
X111022000Y-37975000D02*
X111022000Y-36449700D01*
X103402000Y-30355000D02*
X103402000Y-31767700D01*
X100731800Y-33970000D02*
X100139300Y-34562500D01*
X103402000Y-33970000D02*
X100731800Y-33970000D01*
X103402000Y-31767700D02*
X103402000Y-33970000D01*
X105881700Y-36449700D02*
X111022000Y-36449700D01*
X103402000Y-33970000D02*
X105881700Y-36449700D01*
X99786700Y-86420600D02*
X100912000Y-85295300D01*
X99786700Y-98824400D02*
X99786700Y-86420600D01*
X100812000Y-99849700D02*
X99786700Y-98824400D01*
X100812000Y-101375000D02*
X100812000Y-99849700D01*
X100912000Y-83770000D02*
X100912000Y-85295300D01*
X51105000Y-101375000D02*
X51105000Y-99849700D01*
X126442000Y-48268300D02*
X126442000Y-49793600D01*
X76091100Y-30380000D02*
X76091100Y-31905300D01*
X76091100Y-48160000D02*
X76091100Y-46634700D01*
X146200200Y-28425200D02*
X148225000Y-30450000D01*
X126821500Y-28425200D02*
X146200200Y-28425200D01*
X126342000Y-28904700D02*
X126821500Y-28425200D01*
X126342000Y-30430000D02*
X126342000Y-28904700D01*
X77289800Y-33104000D02*
X76091100Y-31905300D01*
X77289800Y-45436000D02*
X77289800Y-33104000D01*
X76091100Y-46634700D02*
X77289800Y-45436000D01*
X51205000Y-65888800D02*
X51205000Y-67414100D01*
X52212200Y-63356300D02*
X51205000Y-64363500D01*
X52212200Y-50758700D02*
X52212200Y-63356300D01*
X51086900Y-49633400D02*
X52212200Y-50758700D01*
X51086900Y-48108100D02*
X51086900Y-49633400D01*
X51205000Y-65888800D02*
X51205000Y-64363500D01*
X155162500Y-43005500D02*
X151425000Y-46743000D01*
X155162500Y-35756800D02*
X155162500Y-43005500D01*
X151461000Y-32055300D02*
X155162500Y-35756800D01*
X151425000Y-48268300D02*
X151425000Y-46743000D01*
X151461000Y-30584600D02*
X151461000Y-32055300D01*
X151461000Y-30584600D02*
X151461000Y-30530000D01*
X151461000Y-30530000D02*
X151461000Y-29004700D01*
X178150000Y-26270000D02*
X176974700Y-26270000D01*
X76091100Y-48160000D02*
X76091100Y-49685300D01*
X101186300Y-49704700D02*
X100803000Y-49704700D01*
X104579300Y-53097700D02*
X101186300Y-49704700D01*
X104579300Y-58074500D02*
X104579300Y-53097700D01*
X100803000Y-61850800D02*
X104579300Y-58074500D01*
X100803000Y-65901200D02*
X100803000Y-61850800D01*
X100803000Y-48179400D02*
X100803000Y-49704700D01*
X52212200Y-45457500D02*
X51086900Y-46582800D01*
X52212200Y-33030600D02*
X52212200Y-45457500D01*
X51086900Y-31905300D02*
X52212200Y-33030600D01*
X51086900Y-30380000D02*
X51086900Y-31905300D01*
X51086900Y-48108100D02*
X51086900Y-46582800D01*
X77216400Y-98833900D02*
X76200600Y-99849700D01*
X77216400Y-86420600D02*
X77216400Y-98833900D01*
X76091100Y-85295300D02*
X77216400Y-86420600D01*
X76091100Y-83770000D02*
X76091100Y-85295300D01*
X76200600Y-101375000D02*
X76200600Y-99849700D01*
X76225600Y-61009500D02*
X76225600Y-66075000D01*
X74965700Y-59749600D02*
X76225600Y-61009500D01*
X74965700Y-50810700D02*
X74965700Y-59749600D01*
X76091100Y-49685300D02*
X74965700Y-50810700D01*
X75100300Y-81253900D02*
X76091100Y-82244700D01*
X75100300Y-68725600D02*
X75100300Y-81253900D01*
X76225600Y-67600300D02*
X75100300Y-68725600D01*
X76225600Y-66075000D02*
X76225600Y-67600300D01*
X76091100Y-83770000D02*
X76091100Y-82244700D01*
X124013900Y-83900000D02*
X124143900Y-83770000D01*
X122925000Y-83900000D02*
X124013900Y-83900000D01*
X124143900Y-83770000D02*
X126232000Y-83770000D01*
X124143900Y-66050000D02*
X124143900Y-83770000D01*
X122825000Y-66050000D02*
X124143900Y-66050000D01*
X124143900Y-52091700D02*
X126442000Y-49793600D01*
X124143900Y-66050000D02*
X124143900Y-52091700D01*
X151461000Y-28473500D02*
X151461000Y-29004700D01*
X153870400Y-26064100D02*
X151461000Y-28473500D01*
X176768800Y-26064100D02*
X153870400Y-26064100D01*
X176974700Y-26270000D02*
X176768800Y-26064100D01*
X52505300Y-86420600D02*
X51380000Y-85295300D01*
X52505300Y-92724800D02*
X52505300Y-86420600D01*
X51105100Y-94125000D02*
X52505300Y-92724800D01*
X51105000Y-94125000D02*
X51105100Y-94125000D01*
X51105000Y-99849700D02*
X51105000Y-94125000D01*
X52330300Y-68539400D02*
X51205000Y-67414100D01*
X52330300Y-81294400D02*
X52330300Y-68539400D01*
X51380000Y-82244700D02*
X52330300Y-81294400D01*
X51380000Y-83770000D02*
X51380000Y-82244700D01*
X51380000Y-83770000D02*
X51380000Y-85295300D01*
X96405000Y-31570000D02*
X97550000Y-30425000D01*
X96405000Y-47180000D02*
X96405000Y-31570000D01*
X97400000Y-48175000D02*
X96405000Y-47180000D01*
X164125000Y-48268300D02*
X164125000Y-46743000D01*
X91331100Y-28854700D02*
X83711100Y-28854700D01*
X91331100Y-30380000D02*
X91331100Y-28854700D01*
X83711100Y-30380000D02*
X83711100Y-28854700D01*
X155271000Y-29555200D02*
X154261600Y-28545800D01*
X155271000Y-31311200D02*
X155271000Y-29555200D01*
X160351000Y-36391200D02*
X155271000Y-31311200D01*
X160351000Y-42969000D02*
X160351000Y-36391200D01*
X164125000Y-46743000D02*
X160351000Y-42969000D01*
X113512000Y-103182200D02*
X113512000Y-101375000D01*
X111930300Y-104763900D02*
X113512000Y-103182200D01*
X165539600Y-54922900D02*
X167090400Y-53372100D01*
X165539600Y-56502700D02*
X165539600Y-54922900D01*
X163604700Y-58437600D02*
X165539600Y-56502700D01*
X162856500Y-58437600D02*
X163604700Y-58437600D01*
X145912700Y-75381400D02*
X162856500Y-58437600D01*
X145912700Y-81466300D02*
X145912700Y-75381400D01*
X137662000Y-89717000D02*
X145912700Y-81466300D01*
X137662000Y-92131000D02*
X137662000Y-89717000D01*
X129943300Y-99849700D02*
X137662000Y-92131000D01*
X113512000Y-99849700D02*
X129943300Y-99849700D01*
X113512000Y-101375000D02*
X113512000Y-99849700D01*
X126232000Y-73599200D02*
X126232000Y-72073900D01*
X133852000Y-65979200D02*
X133852000Y-67504500D01*
X86360600Y-108995000D02*
X86360600Y-107469700D01*
X131312000Y-72073900D02*
X126232000Y-72073900D01*
X131312000Y-73599200D02*
X131312000Y-72073900D01*
X131312000Y-70044500D02*
X131312000Y-72073900D01*
X133852000Y-67504500D02*
X131312000Y-70044500D01*
X78631100Y-30380000D02*
X78631100Y-31905300D01*
X78631100Y-38000000D02*
X78631100Y-31905300D01*
X145736100Y-45400200D02*
X151461000Y-39675300D01*
X145736100Y-63684200D02*
X145736100Y-45400200D01*
X144418900Y-65001400D02*
X145736100Y-63684200D01*
X151461000Y-38150000D02*
X151461000Y-39675300D01*
X129949000Y-78841500D02*
X126232000Y-75124500D01*
X129949000Y-84601100D02*
X129949000Y-78841500D01*
X129236400Y-85313700D02*
X129949000Y-84601100D01*
X123430300Y-85313700D02*
X129236400Y-85313700D01*
X123354900Y-85238300D02*
X123430300Y-85313700D01*
X116879900Y-85238300D02*
X123354900Y-85238300D01*
X115825100Y-86293100D02*
X116879900Y-85238300D01*
X126232000Y-73599200D02*
X126232000Y-75124500D01*
X82539800Y-103648900D02*
X86360600Y-107469700D01*
X82539800Y-82261000D02*
X82539800Y-103648900D01*
X77498700Y-77219900D02*
X82539800Y-82261000D01*
X77498700Y-47047400D02*
X77498700Y-77219900D01*
X78631100Y-45915000D02*
X77498700Y-47047400D01*
X78631100Y-38000000D02*
X78631100Y-45915000D01*
X82539800Y-82261000D02*
X82628800Y-82261000D01*
X76055300Y-45364900D02*
X76055300Y-39822200D01*
X74176400Y-47243800D02*
X76055300Y-45364900D01*
X74176400Y-102905500D02*
X74176400Y-47243800D01*
X78740600Y-107469700D02*
X74176400Y-102905500D01*
X78740600Y-108995000D02*
X78740600Y-107469700D01*
X87738000Y-31905300D02*
X86251100Y-31905300D01*
X92347000Y-36514300D02*
X87738000Y-31905300D01*
X86251100Y-30380000D02*
X86251100Y-31905300D01*
X161585000Y-55888300D02*
X161585000Y-57413600D01*
X133962000Y-38050000D02*
X133962000Y-39575300D01*
X103862600Y-107469700D02*
X103352000Y-107469700D01*
X108432000Y-102900300D02*
X103862600Y-107469700D01*
X103352000Y-108995000D02*
X103352000Y-107469700D01*
X108432000Y-101375000D02*
X108432000Y-101808500D01*
X108432000Y-101808500D02*
X108432000Y-102900300D01*
X117325200Y-92915300D02*
X128772000Y-92915300D01*
X108432000Y-101808500D02*
X117325200Y-92915300D01*
X128772000Y-91390000D02*
X128772000Y-92802700D01*
X128772000Y-92802700D02*
X128772000Y-92915300D01*
X146044500Y-72966600D02*
X146044500Y-67653000D01*
X137662000Y-81349100D02*
X146044500Y-72966600D01*
X137662000Y-86713000D02*
X137662000Y-81349100D01*
X135122000Y-89253000D02*
X137662000Y-86713000D01*
X135122000Y-92118400D02*
X135122000Y-89253000D01*
X134325100Y-92915300D02*
X135122000Y-92118400D01*
X128772000Y-92915300D02*
X134325100Y-92915300D01*
X156283900Y-57413600D02*
X146044500Y-67653000D01*
X161585000Y-57413600D02*
X156283900Y-57413600D01*
X137862800Y-43476100D02*
X133962000Y-39575300D01*
X137862800Y-49924400D02*
X137862800Y-43476100D01*
X143245000Y-55306600D02*
X137862800Y-49924400D01*
X143245000Y-64853500D02*
X143245000Y-55306600D01*
X146044500Y-67653000D02*
X143245000Y-64853500D01*
X126437800Y-34399500D02*
X121086900Y-34399500D01*
X128882000Y-31955300D02*
X126437800Y-34399500D01*
X85136900Y-36474700D02*
X83711100Y-36474700D01*
X87657700Y-33953900D02*
X85136900Y-36474700D01*
X83711100Y-38000000D02*
X83711100Y-36474700D01*
X128882000Y-30430000D02*
X128882000Y-31955300D01*
X87353600Y-36474700D02*
X86251100Y-36474700D01*
X88273800Y-35554500D02*
X87353600Y-36474700D01*
X86251100Y-38000000D02*
X86251100Y-36474700D01*
X131522000Y-57413600D02*
X126442000Y-57413600D01*
X131522000Y-55888300D02*
X131522000Y-57413600D01*
X126442000Y-55888300D02*
X126442000Y-57413600D01*
X108482000Y-30355000D02*
X108482000Y-28829700D01*
X133962000Y-30430000D02*
X133962000Y-28904700D01*
X116654700Y-28829600D02*
X120319800Y-32494700D01*
X115628500Y-28829600D02*
X116654700Y-28829600D01*
X114905900Y-29552200D02*
X115628500Y-28829600D01*
X114905900Y-31027900D02*
X114905900Y-29552200D01*
X114013600Y-31920200D02*
X114905900Y-31027900D01*
X113103200Y-31920200D02*
X114013600Y-31920200D01*
X112292000Y-31109000D02*
X113103200Y-31920200D01*
X112292000Y-29559800D02*
X112292000Y-31109000D01*
X111561900Y-28829700D02*
X112292000Y-29559800D01*
X108482000Y-28829700D02*
X111561900Y-28829700D01*
X120922700Y-31891800D02*
X120319800Y-32494700D01*
X125812200Y-31891800D02*
X120922700Y-31891800D01*
X125904100Y-31983700D02*
X125812200Y-31891800D01*
X126807100Y-31983700D02*
X125904100Y-31983700D01*
X127612000Y-31178800D02*
X126807100Y-31983700D01*
X127612000Y-29701100D02*
X127612000Y-31178800D01*
X128408400Y-28904700D02*
X127612000Y-29701100D01*
X133962000Y-28904700D02*
X128408400Y-28904700D01*
X120319800Y-54414400D02*
X120409000Y-54503600D01*
X120319800Y-32494700D02*
X120319800Y-54414400D01*
X104948100Y-71995900D02*
X106947300Y-69996700D01*
X103343000Y-71995900D02*
X104948100Y-71995900D01*
X119408200Y-35186500D02*
X116102000Y-31880300D01*
X119408200Y-59849800D02*
X119408200Y-35186500D01*
X114858800Y-64399200D02*
X119408200Y-59849800D01*
X114858800Y-67067300D02*
X114858800Y-64399200D01*
X112493300Y-69432800D02*
X114858800Y-67067300D01*
X116102000Y-30355000D02*
X116102000Y-31880300D01*
X103343000Y-73521200D02*
X103343000Y-71995900D01*
X58706900Y-55728100D02*
X58706900Y-54202800D01*
X113562000Y-30355000D02*
X113562000Y-28829700D01*
X114458000Y-27933700D02*
X113562000Y-28829700D01*
X147539400Y-27933700D02*
X114458000Y-27933700D01*
X148151500Y-28545800D02*
X147539400Y-27933700D01*
X57512900Y-53008800D02*
X58706900Y-54202800D01*
X57512900Y-47275000D02*
X57512900Y-53008800D01*
X63380100Y-41407800D02*
X57512900Y-47275000D01*
X64947800Y-41407800D02*
X63380100Y-41407800D01*
X69278000Y-37077600D02*
X64947800Y-41407800D01*
X69278000Y-34673100D02*
X69278000Y-37077600D01*
X72351100Y-31600000D02*
X69278000Y-34673100D01*
X73138200Y-31600000D02*
X72351100Y-31600000D01*
X73976100Y-30762100D02*
X73138200Y-31600000D01*
X73976100Y-29779400D02*
X73976100Y-30762100D01*
X75820000Y-27935500D02*
X73976100Y-29779400D01*
X112667800Y-27935500D02*
X75820000Y-27935500D01*
X113562000Y-28829700D02*
X112667800Y-27935500D01*
X136392000Y-73599200D02*
X136392000Y-72073900D01*
X136602000Y-55888300D02*
X136602000Y-57413600D01*
X137526400Y-70939500D02*
X136392000Y-72073900D01*
X137526400Y-58338000D02*
X137526400Y-70939500D01*
X136602000Y-57413600D02*
X137526400Y-58338000D01*
X154001000Y-32543500D02*
X154001000Y-30530000D01*
X157678800Y-36221300D02*
X154001000Y-32543500D01*
X157678800Y-49447500D02*
X157678800Y-36221300D01*
X155696100Y-51430200D02*
X157678800Y-49447500D01*
X136392000Y-65979200D02*
X136392000Y-64453900D01*
X154001000Y-38150000D02*
X154001000Y-36624700D01*
X136502000Y-34610100D02*
X136502000Y-30430000D01*
X135400500Y-34610100D02*
X136502000Y-34610100D01*
X132692000Y-37318600D02*
X135400500Y-34610100D01*
X132692000Y-38980200D02*
X132692000Y-37318600D01*
X132482800Y-39189400D02*
X132692000Y-38980200D01*
X132482800Y-43569900D02*
X132482800Y-39189400D01*
X135476600Y-46563700D02*
X132482800Y-43569900D01*
X135476600Y-63538500D02*
X135476600Y-46563700D01*
X136392000Y-64453900D02*
X135476600Y-63538500D01*
X151986400Y-34610100D02*
X154001000Y-36624700D01*
X136502000Y-34610100D02*
X151986400Y-34610100D01*
X113155800Y-40322400D02*
X113155800Y-42050600D01*
X112147400Y-39314000D02*
X113155800Y-40322400D01*
X112147400Y-34129700D02*
X112147400Y-39314000D01*
X111022000Y-33004300D02*
X112147400Y-34129700D01*
X111022000Y-30355000D02*
X111022000Y-33004300D01*
X61647300Y-48108100D02*
X61246900Y-48108100D01*
X68265300Y-41490100D02*
X61647300Y-48108100D01*
X58825000Y-65888800D02*
X58825000Y-64363500D01*
X105942000Y-30355000D02*
X105942000Y-28829700D01*
X105513400Y-28401100D02*
X105942000Y-28829700D01*
X76062500Y-28401100D02*
X105513400Y-28401100D01*
X74922700Y-29540900D02*
X76062500Y-28401100D01*
X74922700Y-32501500D02*
X74922700Y-29540900D01*
X75397700Y-32976500D02*
X74922700Y-32501500D01*
X75397700Y-33664100D02*
X75397700Y-32976500D01*
X74820800Y-34241000D02*
X75397700Y-33664100D01*
X74820800Y-41605700D02*
X74820800Y-34241000D01*
X62516900Y-53909600D02*
X74820800Y-41605700D01*
X62516900Y-60671600D02*
X62516900Y-53909600D01*
X58825000Y-64363500D02*
X62516900Y-60671600D01*
X62635000Y-71224100D02*
X58825000Y-67414100D01*
X62635000Y-74274700D02*
X62635000Y-71224100D01*
X64273900Y-75913600D02*
X62635000Y-74274700D01*
X66950400Y-75913600D02*
X64273900Y-75913600D01*
X68215500Y-77178700D02*
X66950400Y-75913600D01*
X68215500Y-79453000D02*
X68215500Y-77178700D01*
X65423900Y-82244600D02*
X68215500Y-79453000D01*
X65423900Y-86424200D02*
X65423900Y-82244600D01*
X62908100Y-88940000D02*
X65423900Y-86424200D01*
X62908100Y-92418300D02*
X62908100Y-88940000D01*
X68507800Y-98018000D02*
X62908100Y-92418300D01*
X68507800Y-105930700D02*
X68507800Y-98018000D01*
X58825000Y-65888800D02*
X58825000Y-67414100D01*
X113562000Y-37975000D02*
X113562000Y-39500300D01*
X56168800Y-69837900D02*
X56168800Y-70095400D01*
X53745000Y-67414100D02*
X56168800Y-69837900D01*
X109603500Y-70897300D02*
X109693000Y-70897300D01*
X109693000Y-94100200D02*
X109693000Y-70897300D01*
X105892000Y-97901200D02*
X109693000Y-94100200D01*
X105892000Y-101375000D02*
X105892000Y-97901200D01*
X114633700Y-40572000D02*
X113562000Y-39500300D01*
X114633700Y-61975100D02*
X114633700Y-40572000D01*
X112233000Y-64375800D02*
X114633700Y-61975100D01*
X112233000Y-68357300D02*
X112233000Y-64375800D01*
X109693000Y-70897300D02*
X112233000Y-68357300D01*
X53745000Y-65888800D02*
X53745000Y-67414100D01*
X131422000Y-44708700D02*
X131422000Y-38050000D01*
X132649900Y-45936600D02*
X131422000Y-44708700D01*
X132649900Y-67519500D02*
X132649900Y-45936600D01*
X132467100Y-67702300D02*
X132649900Y-67519500D01*
X88889600Y-68651000D02*
X88889600Y-68459200D01*
X83845600Y-73695000D02*
X88889600Y-68651000D01*
X142151500Y-31955300D02*
X141582000Y-31955300D01*
X142501600Y-31605200D02*
X142151500Y-31955300D01*
X148707800Y-31605200D02*
X142501600Y-31605200D01*
X149370200Y-30942800D02*
X148707800Y-31605200D01*
X149370200Y-28708800D02*
X149370200Y-30942800D01*
X147236100Y-26574700D02*
X149370200Y-28708800D01*
X146498800Y-26574700D02*
X147236100Y-26574700D01*
X143078200Y-23154100D02*
X146498800Y-26574700D01*
X55613500Y-23154100D02*
X143078200Y-23154100D01*
X49459100Y-29308500D02*
X55613500Y-23154100D01*
X49459100Y-104842700D02*
X49459100Y-29308500D01*
X52230400Y-107614000D02*
X49459100Y-104842700D01*
X52230400Y-109633200D02*
X52230400Y-107614000D01*
X53140600Y-110543400D02*
X52230400Y-109633200D01*
X64313700Y-110543400D02*
X53140600Y-110543400D01*
X65075000Y-109782100D02*
X64313700Y-110543400D01*
X65075000Y-104170300D02*
X65075000Y-109782100D01*
X66345000Y-102900300D02*
X65075000Y-104170300D01*
X66345000Y-101375000D02*
X66345000Y-102900300D01*
X141582000Y-30430000D02*
X141582000Y-31955300D01*
X139042000Y-30430000D02*
X139042000Y-28904700D01*
X91440600Y-101375000D02*
X91440600Y-99849700D01*
X128772000Y-65979200D02*
X128772000Y-64453900D01*
X128982000Y-48268300D02*
X128982000Y-46743000D01*
X92597200Y-61373300D02*
X91727200Y-60503300D01*
X92597200Y-74824400D02*
X92597200Y-61373300D01*
X87643600Y-79778000D02*
X92597200Y-74824400D01*
X87643600Y-96052700D02*
X87643600Y-79778000D01*
X91440600Y-99849700D02*
X87643600Y-96052700D01*
X125316600Y-59902700D02*
X125325700Y-59911800D01*
X125316600Y-54486500D02*
X125316600Y-59902700D01*
X128982000Y-50821100D02*
X125316600Y-54486500D01*
X128982000Y-48268300D02*
X128982000Y-50821100D01*
X125325700Y-61007600D02*
X128772000Y-64453900D01*
X125325700Y-59911800D02*
X125325700Y-61007600D01*
X136012900Y-28904700D02*
X139042000Y-28904700D01*
X135232000Y-29685600D02*
X136012900Y-28904700D01*
X135232000Y-31360200D02*
X135232000Y-29685600D01*
X130029500Y-36562700D02*
X135232000Y-31360200D01*
X130029500Y-45695500D02*
X130029500Y-36562700D01*
X128982000Y-46743000D02*
X130029500Y-45695500D01*
X63805000Y-95180300D02*
X61540000Y-92915300D01*
X63805000Y-101375000D02*
X63805000Y-95180300D01*
X61540000Y-91390000D02*
X61540000Y-92915300D01*
X56460000Y-83770000D02*
X56460000Y-85295300D01*
X61540000Y-91390000D02*
X61540000Y-90627300D01*
X63805000Y-101375000D02*
X63805000Y-102900300D01*
X57474700Y-86310000D02*
X61540000Y-86310000D01*
X56460000Y-85295300D02*
X57474700Y-86310000D01*
X62554700Y-85295300D02*
X61540000Y-86310000D01*
X64080000Y-85295300D02*
X62554700Y-85295300D01*
X61540000Y-86310000D02*
X61540000Y-90627300D01*
X63805000Y-108995000D02*
X63805000Y-107469700D01*
X64080000Y-84203500D02*
X64080000Y-85295300D01*
X64080000Y-84203500D02*
X64080000Y-83770000D01*
X67490100Y-78834600D02*
X67490100Y-77513300D01*
X64080000Y-82244700D02*
X67490100Y-78834600D01*
X64080000Y-83770000D02*
X64080000Y-82244700D01*
X121409800Y-62820800D02*
X112057300Y-72173300D01*
X121409800Y-40442200D02*
X121409800Y-62820800D01*
X129896700Y-31955300D02*
X121409800Y-40442200D01*
X131422000Y-31955300D02*
X129896700Y-31955300D01*
X131422000Y-30430000D02*
X131422000Y-31955300D01*
X63805000Y-107469700D02*
X63457600Y-107122300D01*
X56185000Y-108995000D02*
X56185000Y-107469700D01*
X56532400Y-103247700D02*
X56532400Y-107122300D01*
X56185000Y-102900300D02*
X56532400Y-103247700D01*
X63457600Y-107122300D02*
X56532400Y-107122300D01*
X56532400Y-107122300D02*
X56185000Y-107469700D01*
X56185000Y-101375000D02*
X56185000Y-102900300D01*
X63805000Y-106774900D02*
X63805000Y-102900300D01*
X63457600Y-107122300D02*
X63805000Y-106774900D01*
X78765600Y-66075000D02*
X78765600Y-64549700D01*
X82359100Y-43337100D02*
X84234300Y-41461900D01*
X82359100Y-60956200D02*
X82359100Y-43337100D01*
X78765600Y-64549700D02*
X82359100Y-60956200D01*
X51838300Y-27601600D02*
X57626400Y-27601600D01*
X49911500Y-29528400D02*
X51838300Y-27601600D01*
X49911500Y-103736200D02*
X49911500Y-29528400D01*
X53645000Y-107469700D02*
X49911500Y-103736200D01*
X156318100Y-29004700D02*
X156541000Y-29004700D01*
X154136800Y-26823400D02*
X156318100Y-29004700D01*
X156541000Y-30530000D02*
X156541000Y-29004700D01*
X53645000Y-108995000D02*
X53645000Y-107469700D01*
X174678800Y-71990000D02*
X173491600Y-70802800D01*
X178150000Y-71990000D02*
X174678800Y-71990000D01*
X133852000Y-75124500D02*
X128772000Y-75124500D01*
X133852000Y-73599200D02*
X133852000Y-75124500D01*
X128772000Y-73599200D02*
X128772000Y-75124500D01*
X134977300Y-70948600D02*
X133852000Y-72073900D01*
X134977300Y-58328900D02*
X134977300Y-70948600D01*
X134062000Y-57413600D02*
X134977300Y-58328900D01*
X134062000Y-55888300D02*
X134062000Y-57413600D01*
X133852000Y-73599200D02*
X133852000Y-72073900D01*
X83820600Y-101375000D02*
X83820600Y-99849700D01*
X90063700Y-54993200D02*
X88085500Y-53015000D01*
X90063700Y-74715000D02*
X90063700Y-54993200D01*
X86463200Y-78315500D02*
X90063700Y-74715000D01*
X86463200Y-80962700D02*
X86463200Y-78315500D01*
X85071500Y-82354400D02*
X86463200Y-80962700D01*
X85071500Y-98598800D02*
X85071500Y-82354400D01*
X83820600Y-99849700D02*
X85071500Y-98598800D01*
X99677700Y-58450000D02*
X100803000Y-57324700D01*
X99677700Y-62930100D02*
X99677700Y-58450000D01*
X99132500Y-63475300D02*
X99677700Y-62930100D01*
X97864700Y-63475300D02*
X99132500Y-63475300D01*
X97237800Y-62848400D02*
X97864700Y-63475300D01*
X100803000Y-55799400D02*
X100803000Y-57324700D01*
X74649900Y-63497900D02*
X75299400Y-62848400D01*
X74649900Y-101924000D02*
X74649900Y-63497900D01*
X75655500Y-102929600D02*
X74649900Y-101924000D01*
X76707400Y-102929600D02*
X75655500Y-102929600D01*
X77470600Y-102166400D02*
X76707400Y-102929600D01*
X77470600Y-100444800D02*
X77470600Y-102166400D01*
X78631100Y-99284300D02*
X77470600Y-100444800D01*
X78631100Y-91390000D02*
X78631100Y-99284300D01*
X178683800Y-24585800D02*
X145762800Y-24585800D01*
X179514700Y-25416700D02*
X178683800Y-24585800D01*
X179514700Y-31906800D02*
X179514700Y-25416700D01*
X180322600Y-32714700D02*
X179514700Y-31906800D01*
X180690000Y-32714700D02*
X180322600Y-32714700D01*
X180690000Y-33890000D02*
X180690000Y-32714700D01*
X169318000Y-36430000D02*
X166991800Y-34103800D01*
X178150000Y-36430000D02*
X169318000Y-36430000D01*
X61246900Y-52690900D02*
X61246900Y-55728100D01*
X65056900Y-48880900D02*
X61246900Y-52690900D01*
X65056900Y-46164300D02*
X65056900Y-48880900D01*
X70523700Y-40697500D02*
X65056900Y-46164300D01*
X70523700Y-37512300D02*
X70523700Y-40697500D01*
X74672400Y-33363600D02*
X70523700Y-37512300D01*
X100303400Y-60364300D02*
X103343000Y-57324700D01*
X100303400Y-63832100D02*
X100303400Y-60364300D01*
X98750000Y-65385500D02*
X100303400Y-63832100D01*
X98750000Y-71587400D02*
X98750000Y-65385500D01*
X90167100Y-80170300D02*
X98750000Y-71587400D01*
X90167100Y-94319000D02*
X90167100Y-80170300D01*
X92589500Y-96741400D02*
X90167100Y-94319000D01*
X92589500Y-102254900D02*
X92589500Y-96741400D01*
X91943900Y-102900500D02*
X92589500Y-102254900D01*
X90930200Y-102900500D02*
X91943900Y-102900500D01*
X90170600Y-102140900D02*
X90930200Y-102900500D01*
X90170600Y-100444800D02*
X90170600Y-102140900D01*
X86251100Y-96525300D02*
X90170600Y-100444800D01*
X86251100Y-91390000D02*
X86251100Y-96525300D01*
X103343000Y-55799400D02*
X103343000Y-57324700D01*
X180690000Y-71990000D02*
X180690000Y-73165300D01*
X87655600Y-71013200D02*
X88629300Y-70039500D01*
X87655600Y-75220400D02*
X87655600Y-71013200D01*
X84956400Y-77919600D02*
X87655600Y-75220400D01*
X84956400Y-81150100D02*
X84956400Y-77919600D01*
X165037000Y-78282800D02*
X163253200Y-80066600D01*
X181153400Y-78282800D02*
X165037000Y-78282800D01*
X181865300Y-77570900D02*
X181153400Y-78282800D01*
X181865300Y-73973200D02*
X181865300Y-77570900D01*
X181057400Y-73165300D02*
X181865300Y-73973200D01*
X180690000Y-73165300D02*
X181057400Y-73165300D01*
X91331100Y-48160000D02*
X91331100Y-49685300D01*
X95114000Y-53468200D02*
X103853900Y-53468200D01*
X91331100Y-49685300D02*
X95114000Y-53468200D01*
X176216500Y-75894700D02*
X171124600Y-70802800D01*
X178706800Y-75894700D02*
X176216500Y-75894700D01*
X179514700Y-76702600D02*
X178706800Y-75894700D01*
X179514700Y-77070000D02*
X179514700Y-76702600D01*
X98816900Y-59711100D02*
X88791100Y-49685300D01*
X98816900Y-62744600D02*
X98816900Y-59711100D01*
X88791100Y-48160000D02*
X88791100Y-49685300D01*
X180690000Y-77070000D02*
X179514700Y-77070000D01*
X108423000Y-55799400D02*
X108423000Y-57324700D01*
X85125700Y-58719900D02*
X83711100Y-57305300D01*
X85125700Y-67196700D02*
X85125700Y-58719900D01*
X85291300Y-67362300D02*
X85125700Y-67196700D01*
X83711100Y-55780000D02*
X83711100Y-57305300D01*
X99482300Y-74093500D02*
X99482300Y-69598900D01*
X91331100Y-82244700D02*
X99482300Y-74093500D01*
X101944600Y-63803100D02*
X108423000Y-57324700D01*
X101944600Y-67136600D02*
X101944600Y-63803100D01*
X99482300Y-69598900D02*
X101944600Y-67136600D01*
X91331100Y-83770000D02*
X91331100Y-82244700D01*
X83711100Y-48160000D02*
X83711100Y-49685300D01*
X87306200Y-49685300D02*
X83711100Y-49685300D01*
X96237000Y-58616100D02*
X87306200Y-49685300D01*
X96237000Y-69895900D02*
X96237000Y-58616100D01*
X86251100Y-57786200D02*
X86251100Y-55780000D01*
X87255700Y-58790800D02*
X86251100Y-57786200D01*
X88791100Y-55780000D02*
X88791100Y-57305300D01*
X83711100Y-83770000D02*
X83711100Y-82244700D01*
X88791100Y-58281200D02*
X88791100Y-57305300D01*
X87655600Y-59416700D02*
X88791100Y-58281200D01*
X87655600Y-67893500D02*
X87655600Y-59416700D01*
X82720300Y-72828800D02*
X87655600Y-67893500D01*
X82720300Y-74561200D02*
X82720300Y-72828800D01*
X83711100Y-75552000D02*
X82720300Y-74561200D01*
X83711100Y-82244700D02*
X83711100Y-75552000D01*
X116043000Y-44625100D02*
X116043000Y-48179400D01*
X118637700Y-42030400D02*
X116043000Y-44625100D01*
X144140100Y-52251700D02*
X141682000Y-49793600D01*
X144140100Y-61508700D02*
X144140100Y-52251700D01*
X141682000Y-48268300D02*
X141682000Y-49793600D01*
X82674500Y-62021500D02*
X83742400Y-60953600D01*
X82674500Y-67874400D02*
X82674500Y-62021500D01*
X81305600Y-69243300D02*
X82674500Y-67874400D01*
X81305600Y-73695000D02*
X81305600Y-69243300D01*
X109680000Y-61475900D02*
X109680000Y-50710100D01*
X107153000Y-64002900D02*
X109680000Y-61475900D01*
X107153000Y-67511000D02*
X107153000Y-64002900D01*
X101928400Y-72735600D02*
X107153000Y-67511000D01*
X101928400Y-75046600D02*
X101928400Y-72735600D01*
X99289100Y-77685900D02*
X101928400Y-75046600D01*
X99289100Y-96683500D02*
X99289100Y-77685900D01*
X90170600Y-105802000D02*
X99289100Y-96683500D01*
X90170600Y-109746000D02*
X90170600Y-105802000D01*
X89374900Y-110541700D02*
X90170600Y-109746000D01*
X85892200Y-110541700D02*
X89374900Y-110541700D01*
X85090600Y-109740100D02*
X85892200Y-110541700D01*
X85090600Y-108250200D02*
X85090600Y-109740100D01*
X84297500Y-107457100D02*
X85090600Y-108250200D01*
X83366800Y-107457100D02*
X84297500Y-107457100D01*
X82550600Y-108273300D02*
X83366800Y-107457100D01*
X82550600Y-109925200D02*
X82550600Y-108273300D01*
X81071700Y-111404100D02*
X82550600Y-109925200D01*
X72530200Y-111404100D02*
X81071700Y-111404100D01*
X58725000Y-101375000D02*
X58725000Y-99849700D01*
X55018600Y-106123800D02*
X55122200Y-106227400D01*
X55018600Y-100511400D02*
X55018600Y-106123800D01*
X55680300Y-99849700D02*
X55018600Y-100511400D01*
X58725000Y-99849700D02*
X55680300Y-99849700D01*
X81171100Y-91390000D02*
X81171100Y-83770000D01*
X76225600Y-77299200D02*
X76225600Y-73695000D01*
X81171100Y-82244700D02*
X76225600Y-77299200D01*
X81171100Y-83770000D02*
X81171100Y-82244700D01*
X152097300Y-59753800D02*
X147570700Y-59753800D01*
X155235000Y-56616100D02*
X152097300Y-59753800D01*
X155235000Y-54223000D02*
X155235000Y-56616100D01*
X160315000Y-49143000D02*
X155235000Y-54223000D01*
X160315000Y-47470800D02*
X160315000Y-49143000D01*
X161065900Y-46719900D02*
X160315000Y-47470800D01*
X162090600Y-46719900D02*
X161065900Y-46719900D01*
X162777800Y-47407100D02*
X162090600Y-46719900D01*
X162777800Y-48920000D02*
X162777800Y-47407100D01*
X163651400Y-49793600D02*
X162777800Y-48920000D01*
X166665000Y-49793600D02*
X163651400Y-49793600D01*
X166665000Y-48268300D02*
X166665000Y-49793600D01*
X88791100Y-91390000D02*
X88791100Y-83770000D01*
X95144800Y-73960000D02*
X95144800Y-60640800D01*
X88791100Y-80313700D02*
X95144800Y-73960000D01*
X88791100Y-83770000D02*
X88791100Y-80313700D01*
X88900600Y-108995000D02*
X88900600Y-101375000D01*
X63905000Y-65888800D02*
X63905000Y-67414100D01*
X81280600Y-108995000D02*
X81280600Y-101375000D01*
X81280600Y-108995000D02*
X81280600Y-110520300D01*
X75177500Y-110520300D02*
X81280600Y-110520300D01*
X70514300Y-105857100D02*
X75177500Y-110520300D01*
X70514300Y-72453000D02*
X70514300Y-105857100D01*
X65475400Y-67414100D02*
X70514300Y-72453000D01*
X63905000Y-67414100D02*
X65475400Y-67414100D01*
X130658500Y-106501700D02*
X172152600Y-65007600D01*
X108930800Y-106501700D02*
X130658500Y-106501700D01*
X107162000Y-108270500D02*
X108930800Y-106501700D01*
X107162000Y-109770300D02*
X107162000Y-108270500D01*
X106377500Y-110554800D02*
X107162000Y-109770300D01*
X104969100Y-110554800D02*
X106377500Y-110554800D01*
X131312000Y-89329400D02*
X131568700Y-89072700D01*
X131312000Y-91390000D02*
X131312000Y-89329400D01*
X113040800Y-96527800D02*
X112261500Y-96527800D01*
X120495900Y-89072700D02*
X113040800Y-96527800D01*
X125974300Y-89072700D02*
X120495900Y-89072700D01*
X98235600Y-45859100D02*
X97819300Y-45859100D01*
X103232200Y-40862500D02*
X98235600Y-45859100D01*
X71260600Y-59547900D02*
X66445000Y-64363500D01*
X71260600Y-48496100D02*
X71260600Y-59547900D01*
X66445000Y-65888800D02*
X66445000Y-64363500D01*
X105924000Y-82244700D02*
X102797800Y-79118500D01*
X105992000Y-82244700D02*
X105924000Y-82244700D01*
X105992000Y-83770000D02*
X105992000Y-82244700D01*
X61365000Y-62515000D02*
X61365000Y-65888800D01*
X65180100Y-58699900D02*
X61365000Y-62515000D01*
X65180100Y-52448300D02*
X65180100Y-58699900D01*
X72956300Y-44672100D02*
X65180100Y-52448300D01*
X180690000Y-44050000D02*
X179514700Y-44050000D01*
X143376400Y-76271600D02*
X143376400Y-78859400D01*
X162710400Y-56937600D02*
X143376400Y-76271600D01*
X162710400Y-55234700D02*
X162710400Y-56937600D01*
X172719800Y-45225300D02*
X162710400Y-55234700D01*
X178706800Y-45225300D02*
X172719800Y-45225300D01*
X179514700Y-44417400D02*
X178706800Y-45225300D01*
X179514700Y-44050000D02*
X179514700Y-44417400D01*
X61365000Y-78064400D02*
X61365000Y-73508800D01*
X64132200Y-80831600D02*
X61365000Y-78064400D01*
X180690000Y-46590000D02*
X179514700Y-46590000D01*
X161801600Y-63755800D02*
X160023800Y-63755800D01*
X177792100Y-47765300D02*
X161801600Y-63755800D01*
X178706800Y-47765300D02*
X177792100Y-47765300D01*
X179514700Y-46957400D02*
X178706800Y-47765300D01*
X179514700Y-46590000D02*
X179514700Y-46957400D01*
X63905000Y-68051000D02*
X63905000Y-73508800D01*
X62767700Y-66913700D02*
X63905000Y-68051000D01*
X62767700Y-62254400D02*
X62767700Y-66913700D01*
X68517000Y-56505100D02*
X62767700Y-62254400D01*
X68517000Y-50214000D02*
X68517000Y-56505100D01*
X75114800Y-43616200D02*
X68517000Y-50214000D01*
X75214200Y-43616200D02*
X75114800Y-43616200D01*
X173908900Y-86704200D02*
X170791200Y-86704200D01*
X176974700Y-89770000D02*
X173908900Y-86704200D01*
X78765600Y-76747400D02*
X78765600Y-73695000D01*
X82978000Y-80959800D02*
X78765600Y-76747400D01*
X178150000Y-89770000D02*
X176974700Y-89770000D01*
X81305600Y-66075000D02*
X81305600Y-67600300D01*
X82978000Y-77166500D02*
X82978000Y-77166600D01*
X82778800Y-77166500D02*
X82978000Y-77166500D01*
X80180000Y-74567700D02*
X82778800Y-77166500D01*
X80180000Y-68725900D02*
X80180000Y-74567700D01*
X81305600Y-67600300D02*
X80180000Y-68725900D01*
X155644400Y-70959400D02*
X151744700Y-70959400D01*
X173758500Y-52845300D02*
X155644400Y-70959400D01*
X178706800Y-52845300D02*
X173758500Y-52845300D01*
X179514700Y-52037400D02*
X178706800Y-52845300D01*
X179514700Y-51670000D02*
X179514700Y-52037400D01*
X180690000Y-51670000D02*
X179514700Y-51670000D01*
X140825200Y-68151300D02*
X140825200Y-70393200D01*
X141472000Y-67504500D02*
X140825200Y-68151300D01*
X68916400Y-79948300D02*
X66620000Y-82244700D01*
X68916400Y-71880900D02*
X68916400Y-79948300D01*
X141472000Y-65979200D02*
X141472000Y-67504500D01*
X66620000Y-83770000D02*
X66620000Y-82244700D01*
X112486600Y-93176600D02*
X107567100Y-98096100D01*
X112486600Y-80445100D02*
X112486600Y-93176600D01*
X120296900Y-72634800D02*
X112486600Y-80445100D01*
X120296900Y-68484600D02*
X120296900Y-72634800D01*
X64324700Y-92915300D02*
X69511100Y-98101700D01*
X64080000Y-92915300D02*
X64324700Y-92915300D01*
X64080000Y-91390000D02*
X64080000Y-92915300D01*
X134854300Y-79202200D02*
X138932000Y-75124500D01*
X131802800Y-79202200D02*
X134854300Y-79202200D01*
X138932000Y-73599200D02*
X138932000Y-75124500D01*
X173775200Y-90978200D02*
X168086500Y-96666900D01*
X178642800Y-90978200D02*
X173775200Y-90978200D01*
X179325400Y-90295600D02*
X178642800Y-90978200D01*
X179325400Y-89433600D02*
X179325400Y-90295600D01*
X180164400Y-88594600D02*
X179325400Y-89433600D01*
X180987800Y-88594600D02*
X180164400Y-88594600D01*
X183355100Y-86227300D02*
X180987800Y-88594600D01*
X183355100Y-55211800D02*
X183355100Y-86227300D01*
X181155200Y-53011900D02*
X183355100Y-55211800D01*
X180203900Y-53011900D02*
X181155200Y-53011900D01*
X179504800Y-53711000D02*
X180203900Y-53011900D01*
X179504800Y-55564800D02*
X179504800Y-53711000D01*
X180690000Y-56750000D02*
X179504800Y-55564800D01*
X179514700Y-99562600D02*
X179514700Y-99930000D01*
X178706800Y-98754700D02*
X179514700Y-99562600D01*
X170925700Y-98754700D02*
X178706800Y-98754700D01*
X170675600Y-98504600D02*
X170925700Y-98754700D01*
X180690000Y-99930000D02*
X179514700Y-99930000D01*
X178150000Y-59290000D02*
X176974700Y-59290000D01*
X176516900Y-59290000D02*
X176974700Y-59290000D01*
X142023400Y-93783500D02*
X176516900Y-59290000D01*
X139440500Y-93783500D02*
X142023400Y-93783500D01*
X175403900Y-105010000D02*
X178150000Y-105010000D01*
X159120000Y-88726100D02*
X175403900Y-105010000D01*
X159120000Y-87842100D02*
X159120000Y-88726100D01*
X180690000Y-59290000D02*
X179514700Y-59290000D01*
X83711100Y-94456200D02*
X83863700Y-94608800D01*
X83711100Y-91390000D02*
X83711100Y-94456200D01*
X179514700Y-59657400D02*
X179514700Y-59290000D01*
X178706800Y-60465300D02*
X179514700Y-59657400D01*
X177817200Y-60465300D02*
X178706800Y-60465300D01*
X144440100Y-93842400D02*
X177817200Y-60465300D01*
X144440100Y-94675900D02*
X144440100Y-93842400D01*
X154055000Y-75398300D02*
X146964300Y-75398300D01*
X175243300Y-54210000D02*
X154055000Y-75398300D01*
X178150000Y-54210000D02*
X175243300Y-54210000D01*
X101896600Y-89864700D02*
X100912000Y-89864700D01*
X107387900Y-84373400D02*
X101896600Y-89864700D01*
X107387900Y-76535500D02*
X107387900Y-84373400D01*
X100912000Y-91390000D02*
X100912000Y-89864700D01*
X144200200Y-85992600D02*
X143239800Y-85992600D01*
X172172800Y-58020000D02*
X144200200Y-85992600D01*
X181120300Y-58020000D02*
X172172800Y-58020000D01*
X181912400Y-57227900D02*
X181120300Y-58020000D01*
X181912400Y-56240400D02*
X181912400Y-57227900D01*
X181057300Y-55385300D02*
X181912400Y-56240400D01*
X180690000Y-55385300D02*
X181057300Y-55385300D01*
X104743500Y-96703800D02*
X108532000Y-92915300D01*
X104743500Y-102297500D02*
X104743500Y-96703800D01*
X105373700Y-102927700D02*
X104743500Y-102297500D01*
X106331000Y-102927700D02*
X105373700Y-102927700D01*
X107162000Y-102096700D02*
X106331000Y-102927700D01*
X107162000Y-99872100D02*
X107162000Y-102096700D01*
X114882000Y-92152100D02*
X107162000Y-99872100D01*
X114882000Y-90661100D02*
X114882000Y-92152100D01*
X117021000Y-88522100D02*
X114882000Y-90661100D01*
X124728000Y-88522100D02*
X117021000Y-88522100D01*
X126563300Y-86686800D02*
X124728000Y-88522100D01*
X108532000Y-91390000D02*
X108532000Y-92915300D01*
X180690000Y-54210000D02*
X180690000Y-55385300D01*
X51105000Y-108995000D02*
X51105000Y-110520300D01*
X52728400Y-112143700D02*
X51105000Y-110520300D01*
X82006200Y-112143700D02*
X52728400Y-112143700D01*
X82219600Y-111930300D02*
X82006200Y-112143700D01*
X130890700Y-111930300D02*
X82219600Y-111930300D01*
X162029000Y-80792000D02*
X130890700Y-111930300D01*
X181609100Y-80792000D02*
X162029000Y-80792000D01*
X181707800Y-80693300D02*
X181609100Y-80792000D01*
X81431200Y-113355600D02*
X76383300Y-113355600D01*
X82406200Y-112380600D02*
X81431200Y-113355600D01*
X132702400Y-112380600D02*
X82406200Y-112380600D01*
X161663000Y-83420000D02*
X132702400Y-112380600D01*
X181124000Y-83420000D02*
X161663000Y-83420000D01*
X182445000Y-82099000D02*
X181124000Y-83420000D01*
X182445000Y-66125000D02*
X182445000Y-82099000D01*
X180690000Y-64370000D02*
X182445000Y-66125000D01*
X132742900Y-113105900D02*
X82706600Y-113105900D01*
X159950400Y-85898400D02*
X132742900Y-113105900D01*
X181173900Y-85898400D02*
X159950400Y-85898400D01*
X182901900Y-84170400D02*
X181173900Y-85898400D01*
X182901900Y-62372100D02*
X182901900Y-84170400D01*
X181176300Y-60646500D02*
X182901900Y-62372100D01*
X180141500Y-60646500D02*
X181176300Y-60646500D01*
X179325300Y-61462700D02*
X180141500Y-60646500D01*
X179325300Y-61830000D02*
X179325300Y-61462700D01*
X178150000Y-61830000D02*
X179325300Y-61830000D01*
X180690000Y-61830000D02*
X180690000Y-63005300D01*
X83820600Y-108995000D02*
X83820600Y-110520300D01*
X84599700Y-111299400D02*
X83820600Y-110520300D01*
X129543400Y-111299400D02*
X84599700Y-111299400D01*
X170767400Y-70075400D02*
X129543400Y-111299400D01*
X174126300Y-70075400D02*
X170767400Y-70075400D01*
X174699200Y-70648300D02*
X174126300Y-70075400D01*
X181203200Y-70648300D02*
X174699200Y-70648300D01*
X181896200Y-69955300D02*
X181203200Y-70648300D01*
X181896200Y-66436000D02*
X181896200Y-69955300D01*
X181100200Y-65640000D02*
X181896200Y-66436000D01*
X180208200Y-65640000D02*
X181100200Y-65640000D01*
X179514600Y-64946400D02*
X180208200Y-65640000D01*
X179514600Y-63813400D02*
X179514600Y-64946400D01*
X180322700Y-63005300D02*
X179514600Y-63813400D01*
X180690000Y-63005300D02*
X180322700Y-63005300D01*
X103840700Y-110520300D02*
X100812000Y-110520300D01*
X104622000Y-109739000D02*
X103840700Y-110520300D01*
X104622000Y-108266700D02*
X104622000Y-109739000D01*
X107339100Y-105549600D02*
X104622000Y-108266700D01*
X126647700Y-105549600D02*
X107339100Y-105549600D01*
X139281900Y-92915400D02*
X126647700Y-105549600D01*
X141962900Y-92915400D02*
X139281900Y-92915400D01*
X170570100Y-64308200D02*
X141962900Y-92915400D01*
X170570100Y-64211000D02*
X170570100Y-64308200D01*
X100812000Y-108995000D02*
X100812000Y-110520300D01*
X110291800Y-107135200D02*
X108432000Y-108995000D01*
X133070700Y-107135200D02*
X110291800Y-107135200D01*
X172120600Y-68085300D02*
X133070700Y-107135200D01*
X178706800Y-68085300D02*
X172120600Y-68085300D01*
X179514700Y-67277400D02*
X178706800Y-68085300D01*
X179514700Y-66910000D02*
X179514700Y-67277400D01*
X180690000Y-66910000D02*
X179514700Y-66910000D01*
X155631300Y-108914700D02*
X155184100Y-108467500D01*
X178706800Y-108914700D02*
X155631300Y-108914700D01*
X179514700Y-109722600D02*
X178706800Y-108914700D01*
X179514700Y-110090000D02*
X179514700Y-109722600D01*
X180690000Y-110090000D02*
X179514700Y-110090000D01*
D18*
G36*
X183915000Y-54708071D02*
X183892501Y-54674399D01*
X181836842Y-52618740D01*
X182091054Y-52238285D01*
X182204093Y-51670000D01*
X182091054Y-51101715D01*
X181769147Y-50619946D01*
X181439974Y-50400000D01*
X181769147Y-50180054D01*
X182091054Y-49698285D01*
X182204093Y-49130000D01*
X182091054Y-48561715D01*
X181769147Y-48079946D01*
X181439974Y-47860000D01*
X181769147Y-47640054D01*
X182091054Y-47158285D01*
X182204093Y-46590000D01*
X182091054Y-46021715D01*
X181769147Y-45539946D01*
X181439974Y-45320000D01*
X181769147Y-45100054D01*
X182091054Y-44618285D01*
X182204093Y-44050000D01*
X182091054Y-43481715D01*
X181769147Y-42999946D01*
X181439974Y-42780000D01*
X181769147Y-42560054D01*
X182091054Y-42078285D01*
X182204093Y-41510000D01*
X182091054Y-40941715D01*
X181769147Y-40459946D01*
X181439974Y-40240000D01*
X181769147Y-40020054D01*
X182091054Y-39538285D01*
X182204093Y-38970000D01*
X182091054Y-38401715D01*
X181769147Y-37919946D01*
X181439974Y-37700000D01*
X181769147Y-37480054D01*
X182091054Y-36998285D01*
X182204093Y-36430000D01*
X182091054Y-35861715D01*
X181769147Y-35379946D01*
X181439974Y-35160000D01*
X181769147Y-34940054D01*
X182091054Y-34458285D01*
X182204093Y-33890000D01*
X182091054Y-33321715D01*
X181769147Y-32839946D01*
X181439974Y-32620000D01*
X181769147Y-32400054D01*
X182091054Y-31918285D01*
X182204093Y-31350000D01*
X182091054Y-30781715D01*
X181769147Y-30299946D01*
X181439974Y-30080000D01*
X181769147Y-29860054D01*
X182091054Y-29378285D01*
X182204093Y-28810000D01*
X182091054Y-28241715D01*
X181769147Y-27759946D01*
X181439974Y-27540000D01*
X181769147Y-27320054D01*
X182091054Y-26838285D01*
X182204093Y-26270000D01*
X182091054Y-25701715D01*
X181769147Y-25219946D01*
X181287378Y-24898039D01*
X180719093Y-24785000D01*
X180660907Y-24785000D01*
X180092622Y-24898039D01*
X180073265Y-24910973D01*
X180052101Y-24879299D01*
X179221201Y-24048399D01*
X178974639Y-23883652D01*
X178683800Y-23825800D01*
X146466561Y-23825800D01*
X146349846Y-23708881D01*
X145969577Y-23550980D01*
X145557829Y-23550621D01*
X145177285Y-23707858D01*
X144941817Y-23942915D01*
X143615601Y-22616699D01*
X143369039Y-22451952D01*
X143078200Y-22394100D01*
X55613500Y-22394100D01*
X55322661Y-22451952D01*
X55076099Y-22616699D01*
X48921699Y-28771099D01*
X48756952Y-29017661D01*
X48734595Y-29130058D01*
X48613923Y-29009176D01*
X48086691Y-28790250D01*
X47515813Y-28789752D01*
X46988200Y-29007757D01*
X46584176Y-29411077D01*
X46365250Y-29938309D01*
X46364752Y-30509187D01*
X46582757Y-31036800D01*
X46986077Y-31440824D01*
X47052544Y-31468423D01*
X47045995Y-31471136D01*
X46971861Y-31717255D01*
X47800000Y-32545395D01*
X47814142Y-32531252D01*
X47993748Y-32710858D01*
X47979605Y-32725000D01*
X47993748Y-32739142D01*
X47814142Y-32918748D01*
X47800000Y-32904605D01*
X46971861Y-33732745D01*
X47045995Y-33978864D01*
X47583223Y-34171965D01*
X48153454Y-34144778D01*
X48554005Y-33978864D01*
X48628139Y-33732747D01*
X48699100Y-33803708D01*
X48699100Y-47069633D01*
X48538923Y-46909176D01*
X48011691Y-46690250D01*
X47440813Y-46689752D01*
X46913200Y-46907757D01*
X46509176Y-47311077D01*
X46290250Y-47838309D01*
X46289752Y-48409187D01*
X46507757Y-48936800D01*
X46911077Y-49340824D01*
X46977544Y-49368423D01*
X46970995Y-49371136D01*
X46896861Y-49617255D01*
X47725000Y-50445395D01*
X47739142Y-50431252D01*
X47918748Y-50610858D01*
X47904605Y-50625000D01*
X47918748Y-50639142D01*
X47739142Y-50818748D01*
X47725000Y-50804605D01*
X46896861Y-51632745D01*
X46970995Y-51878864D01*
X47508223Y-52071965D01*
X48078454Y-52044778D01*
X48479005Y-51878864D01*
X48553139Y-51632747D01*
X48668014Y-51747622D01*
X48699100Y-51716536D01*
X48699100Y-64769371D01*
X48688923Y-64759176D01*
X48161691Y-64540250D01*
X47590813Y-64539752D01*
X47063200Y-64757757D01*
X46659176Y-65161077D01*
X46440250Y-65688309D01*
X46439752Y-66259187D01*
X46657757Y-66786800D01*
X47061077Y-67190824D01*
X47127544Y-67218423D01*
X47120995Y-67221136D01*
X47046861Y-67467255D01*
X47875000Y-68295395D01*
X47889142Y-68281252D01*
X48068748Y-68460858D01*
X48054605Y-68475000D01*
X48068748Y-68489142D01*
X47889142Y-68668748D01*
X47875000Y-68654605D01*
X47046861Y-69482745D01*
X47120995Y-69728864D01*
X47658223Y-69921965D01*
X48228454Y-69894778D01*
X48629005Y-69728864D01*
X48699100Y-69496154D01*
X48699100Y-82390735D01*
X48336691Y-82240250D01*
X47765813Y-82239752D01*
X47238200Y-82457757D01*
X46834176Y-82861077D01*
X46615250Y-83388309D01*
X46614752Y-83959187D01*
X46832757Y-84486800D01*
X47236077Y-84890824D01*
X47302544Y-84918423D01*
X47295995Y-84921136D01*
X47221861Y-85167255D01*
X48050000Y-85995395D01*
X48064142Y-85981252D01*
X48243748Y-86160858D01*
X48229605Y-86175000D01*
X48243748Y-86189142D01*
X48064142Y-86368748D01*
X48050000Y-86354605D01*
X47221861Y-87182745D01*
X47295995Y-87428864D01*
X47833223Y-87621965D01*
X48403454Y-87594778D01*
X48699100Y-87472317D01*
X48699100Y-100294633D01*
X48538923Y-100134176D01*
X48011691Y-99915250D01*
X47440813Y-99914752D01*
X46913200Y-100132757D01*
X46509176Y-100536077D01*
X46290250Y-101063309D01*
X46289752Y-101634187D01*
X46507757Y-102161800D01*
X46911077Y-102565824D01*
X46977544Y-102593423D01*
X46970995Y-102596136D01*
X46896861Y-102842255D01*
X47725000Y-103670395D01*
X47739142Y-103656252D01*
X47918748Y-103835858D01*
X47904605Y-103850000D01*
X47918748Y-103864142D01*
X47739142Y-104043748D01*
X47725000Y-104029605D01*
X46896861Y-104857745D01*
X46970995Y-105103864D01*
X47508223Y-105296965D01*
X48078454Y-105269778D01*
X48479005Y-105103864D01*
X48553139Y-104857747D01*
X48668014Y-104972622D01*
X48715498Y-104925138D01*
X48756952Y-105133539D01*
X48921699Y-105380101D01*
X50689158Y-107147560D01*
X50305000Y-107147560D01*
X50057235Y-107196843D01*
X49847191Y-107337191D01*
X49706843Y-107547235D01*
X49657560Y-107795000D01*
X49657560Y-110195000D01*
X49706843Y-110442765D01*
X49847191Y-110652809D01*
X50057235Y-110793157D01*
X50305000Y-110842440D01*
X50423767Y-110842440D01*
X50567599Y-111057701D01*
X52190999Y-112681101D01*
X52437560Y-112845848D01*
X52728400Y-112903700D01*
X75450264Y-112903700D01*
X75348480Y-113148823D01*
X75348121Y-113560571D01*
X75505358Y-113941115D01*
X75796254Y-114232519D01*
X76176523Y-114390420D01*
X76588271Y-114390779D01*
X76968815Y-114233542D01*
X77086963Y-114115600D01*
X81431200Y-114115600D01*
X81722039Y-114057748D01*
X81968601Y-113893001D01*
X81999274Y-113862328D01*
X82119554Y-113982819D01*
X82499823Y-114140720D01*
X82911571Y-114141079D01*
X83292115Y-113983842D01*
X83410263Y-113865900D01*
X132742900Y-113865900D01*
X133033739Y-113808048D01*
X133280301Y-113643301D01*
X158360000Y-88563603D01*
X158360000Y-88726100D01*
X158417852Y-89016939D01*
X158582599Y-89263501D01*
X174866499Y-105547401D01*
X175113060Y-105712148D01*
X175403900Y-105770000D01*
X176877046Y-105770000D01*
X177070853Y-106060054D01*
X177400026Y-106280000D01*
X177070853Y-106499946D01*
X176748946Y-106981715D01*
X176635907Y-107550000D01*
X176748946Y-108118285D01*
X176773278Y-108154700D01*
X156174725Y-108154700D01*
X156062042Y-107881985D01*
X155771146Y-107590581D01*
X155390877Y-107432680D01*
X154979129Y-107432321D01*
X154598585Y-107589558D01*
X154307181Y-107880454D01*
X154149280Y-108260723D01*
X154148921Y-108672471D01*
X154306158Y-109053015D01*
X154597054Y-109344419D01*
X154977323Y-109502320D01*
X155169307Y-109502487D01*
X155340460Y-109616848D01*
X155631300Y-109674700D01*
X176718515Y-109674700D01*
X176635907Y-110090000D01*
X176748946Y-110658285D01*
X177070853Y-111140054D01*
X177400026Y-111360000D01*
X177070853Y-111579946D01*
X176748946Y-112061715D01*
X176635907Y-112630000D01*
X176748946Y-113198285D01*
X177070853Y-113680054D01*
X177552622Y-114001961D01*
X178120907Y-114115000D01*
X178179093Y-114115000D01*
X178747378Y-114001961D01*
X179229147Y-113680054D01*
X179418345Y-113396899D01*
X179418355Y-113396924D01*
X179808642Y-113825183D01*
X180333108Y-114071486D01*
X180563000Y-113950819D01*
X180563000Y-112757000D01*
X180817000Y-112757000D01*
X180817000Y-113950819D01*
X181046892Y-114071486D01*
X181571358Y-113825183D01*
X181961645Y-113396924D01*
X182131476Y-112986890D01*
X182010155Y-112757000D01*
X180817000Y-112757000D01*
X180563000Y-112757000D01*
X180543000Y-112757000D01*
X180543000Y-112503000D01*
X180563000Y-112503000D01*
X180563000Y-112483000D01*
X180817000Y-112483000D01*
X180817000Y-112503000D01*
X182010155Y-112503000D01*
X182131476Y-112273110D01*
X181961645Y-111863076D01*
X181571358Y-111434817D01*
X181428447Y-111367702D01*
X181769147Y-111140054D01*
X182091054Y-110658285D01*
X182204093Y-110090000D01*
X182091054Y-109521715D01*
X181769147Y-109039946D01*
X181439974Y-108820000D01*
X181769147Y-108600054D01*
X182091054Y-108118285D01*
X182204093Y-107550000D01*
X182091054Y-106981715D01*
X181769147Y-106499946D01*
X181439974Y-106280000D01*
X181769147Y-106060054D01*
X182091054Y-105578285D01*
X182204093Y-105010000D01*
X182091054Y-104441715D01*
X181769147Y-103959946D01*
X181439974Y-103740000D01*
X181769147Y-103520054D01*
X182091054Y-103038285D01*
X182204093Y-102470000D01*
X182091054Y-101901715D01*
X181769147Y-101419946D01*
X181439974Y-101200000D01*
X181769147Y-100980054D01*
X182091054Y-100498285D01*
X182204093Y-99930000D01*
X182091054Y-99361715D01*
X181769147Y-98879946D01*
X181439974Y-98660000D01*
X181769147Y-98440054D01*
X182091054Y-97958285D01*
X182204093Y-97390000D01*
X182091054Y-96821715D01*
X181769147Y-96339946D01*
X181439974Y-96120000D01*
X181769147Y-95900054D01*
X182091054Y-95418285D01*
X182204093Y-94850000D01*
X182091054Y-94281715D01*
X181769147Y-93799946D01*
X181439974Y-93580000D01*
X181769147Y-93360054D01*
X182091054Y-92878285D01*
X182204093Y-92310000D01*
X182091054Y-91741715D01*
X181769147Y-91259946D01*
X181439974Y-91040000D01*
X181769147Y-90820054D01*
X182091054Y-90338285D01*
X182204093Y-89770000D01*
X182091054Y-89201715D01*
X181836482Y-88820720D01*
X183892501Y-86764701D01*
X183915000Y-86731029D01*
X183915000Y-117365000D01*
X39860000Y-117365000D01*
X39860000Y-103633223D01*
X46278035Y-103633223D01*
X46305222Y-104203454D01*
X46471136Y-104604005D01*
X46717255Y-104678139D01*
X47545395Y-103850000D01*
X46717255Y-103021861D01*
X46471136Y-103095995D01*
X46278035Y-103633223D01*
X39860000Y-103633223D01*
X39860000Y-85958223D01*
X46603035Y-85958223D01*
X46630222Y-86528454D01*
X46796136Y-86929005D01*
X47042255Y-87003139D01*
X47870395Y-86175000D01*
X47042255Y-85346861D01*
X46796136Y-85420995D01*
X46603035Y-85958223D01*
X39860000Y-85958223D01*
X39860000Y-68258223D01*
X46428035Y-68258223D01*
X46455222Y-68828454D01*
X46621136Y-69229005D01*
X46867255Y-69303139D01*
X47695395Y-68475000D01*
X46867255Y-67646861D01*
X46621136Y-67720995D01*
X46428035Y-68258223D01*
X39860000Y-68258223D01*
X39860000Y-50408223D01*
X46278035Y-50408223D01*
X46305222Y-50978454D01*
X46471136Y-51379005D01*
X46717255Y-51453139D01*
X47545395Y-50625000D01*
X46717255Y-49796861D01*
X46471136Y-49870995D01*
X46278035Y-50408223D01*
X39860000Y-50408223D01*
X39860000Y-32508223D01*
X46353035Y-32508223D01*
X46380222Y-33078454D01*
X46546136Y-33479005D01*
X46792255Y-33553139D01*
X47620395Y-32725000D01*
X46792255Y-31896861D01*
X46546136Y-31970995D01*
X46353035Y-32508223D01*
X39860000Y-32508223D01*
X39860000Y-22110000D01*
X183915000Y-22110000D01*
X183915000Y-54708071D01*
X183915000Y-54708071D01*
G37*
X183915000Y-54708071D02*
X183892501Y-54674399D01*
X181836842Y-52618740D01*
X182091054Y-52238285D01*
X182204093Y-51670000D01*
X182091054Y-51101715D01*
X181769147Y-50619946D01*
X181439974Y-50400000D01*
X181769147Y-50180054D01*
X182091054Y-49698285D01*
X182204093Y-49130000D01*
X182091054Y-48561715D01*
X181769147Y-48079946D01*
X181439974Y-47860000D01*
X181769147Y-47640054D01*
X182091054Y-47158285D01*
X182204093Y-46590000D01*
X182091054Y-46021715D01*
X181769147Y-45539946D01*
X181439974Y-45320000D01*
X181769147Y-45100054D01*
X182091054Y-44618285D01*
X182204093Y-44050000D01*
X182091054Y-43481715D01*
X181769147Y-42999946D01*
X181439974Y-42780000D01*
X181769147Y-42560054D01*
X182091054Y-42078285D01*
X182204093Y-41510000D01*
X182091054Y-40941715D01*
X181769147Y-40459946D01*
X181439974Y-40240000D01*
X181769147Y-40020054D01*
X182091054Y-39538285D01*
X182204093Y-38970000D01*
X182091054Y-38401715D01*
X181769147Y-37919946D01*
X181439974Y-37700000D01*
X181769147Y-37480054D01*
X182091054Y-36998285D01*
X182204093Y-36430000D01*
X182091054Y-35861715D01*
X181769147Y-35379946D01*
X181439974Y-35160000D01*
X181769147Y-34940054D01*
X182091054Y-34458285D01*
X182204093Y-33890000D01*
X182091054Y-33321715D01*
X181769147Y-32839946D01*
X181439974Y-32620000D01*
X181769147Y-32400054D01*
X182091054Y-31918285D01*
X182204093Y-31350000D01*
X182091054Y-30781715D01*
X181769147Y-30299946D01*
X181439974Y-30080000D01*
X181769147Y-29860054D01*
X182091054Y-29378285D01*
X182204093Y-28810000D01*
X182091054Y-28241715D01*
X181769147Y-27759946D01*
X181439974Y-27540000D01*
X181769147Y-27320054D01*
X182091054Y-26838285D01*
X182204093Y-26270000D01*
X182091054Y-25701715D01*
X181769147Y-25219946D01*
X181287378Y-24898039D01*
X180719093Y-24785000D01*
X180660907Y-24785000D01*
X180092622Y-24898039D01*
X180073265Y-24910973D01*
X180052101Y-24879299D01*
X179221201Y-24048399D01*
X178974639Y-23883652D01*
X178683800Y-23825800D01*
X146466561Y-23825800D01*
X146349846Y-23708881D01*
X145969577Y-23550980D01*
X145557829Y-23550621D01*
X145177285Y-23707858D01*
X144941817Y-23942915D01*
X143615601Y-22616699D01*
X143369039Y-22451952D01*
X143078200Y-22394100D01*
X55613500Y-22394100D01*
X55322661Y-22451952D01*
X55076099Y-22616699D01*
X48921699Y-28771099D01*
X48756952Y-29017661D01*
X48734595Y-29130058D01*
X48613923Y-29009176D01*
X48086691Y-28790250D01*
X47515813Y-28789752D01*
X46988200Y-29007757D01*
X46584176Y-29411077D01*
X46365250Y-29938309D01*
X46364752Y-30509187D01*
X46582757Y-31036800D01*
X46986077Y-31440824D01*
X47052544Y-31468423D01*
X47045995Y-31471136D01*
X46971861Y-31717255D01*
X47800000Y-32545395D01*
X47814142Y-32531252D01*
X47993748Y-32710858D01*
X47979605Y-32725000D01*
X47993748Y-32739142D01*
X47814142Y-32918748D01*
X47800000Y-32904605D01*
X46971861Y-33732745D01*
X47045995Y-33978864D01*
X47583223Y-34171965D01*
X48153454Y-34144778D01*
X48554005Y-33978864D01*
X48628139Y-33732747D01*
X48699100Y-33803708D01*
X48699100Y-47069633D01*
X48538923Y-46909176D01*
X48011691Y-46690250D01*
X47440813Y-46689752D01*
X46913200Y-46907757D01*
X46509176Y-47311077D01*
X46290250Y-47838309D01*
X46289752Y-48409187D01*
X46507757Y-48936800D01*
X46911077Y-49340824D01*
X46977544Y-49368423D01*
X46970995Y-49371136D01*
X46896861Y-49617255D01*
X47725000Y-50445395D01*
X47739142Y-50431252D01*
X47918748Y-50610858D01*
X47904605Y-50625000D01*
X47918748Y-50639142D01*
X47739142Y-50818748D01*
X47725000Y-50804605D01*
X46896861Y-51632745D01*
X46970995Y-51878864D01*
X47508223Y-52071965D01*
X48078454Y-52044778D01*
X48479005Y-51878864D01*
X48553139Y-51632747D01*
X48668014Y-51747622D01*
X48699100Y-51716536D01*
X48699100Y-64769371D01*
X48688923Y-64759176D01*
X48161691Y-64540250D01*
X47590813Y-64539752D01*
X47063200Y-64757757D01*
X46659176Y-65161077D01*
X46440250Y-65688309D01*
X46439752Y-66259187D01*
X46657757Y-66786800D01*
X47061077Y-67190824D01*
X47127544Y-67218423D01*
X47120995Y-67221136D01*
X47046861Y-67467255D01*
X47875000Y-68295395D01*
X47889142Y-68281252D01*
X48068748Y-68460858D01*
X48054605Y-68475000D01*
X48068748Y-68489142D01*
X47889142Y-68668748D01*
X47875000Y-68654605D01*
X47046861Y-69482745D01*
X47120995Y-69728864D01*
X47658223Y-69921965D01*
X48228454Y-69894778D01*
X48629005Y-69728864D01*
X48699100Y-69496154D01*
X48699100Y-82390735D01*
X48336691Y-82240250D01*
X47765813Y-82239752D01*
X47238200Y-82457757D01*
X46834176Y-82861077D01*
X46615250Y-83388309D01*
X46614752Y-83959187D01*
X46832757Y-84486800D01*
X47236077Y-84890824D01*
X47302544Y-84918423D01*
X47295995Y-84921136D01*
X47221861Y-85167255D01*
X48050000Y-85995395D01*
X48064142Y-85981252D01*
X48243748Y-86160858D01*
X48229605Y-86175000D01*
X48243748Y-86189142D01*
X48064142Y-86368748D01*
X48050000Y-86354605D01*
X47221861Y-87182745D01*
X47295995Y-87428864D01*
X47833223Y-87621965D01*
X48403454Y-87594778D01*
X48699100Y-87472317D01*
X48699100Y-100294633D01*
X48538923Y-100134176D01*
X48011691Y-99915250D01*
X47440813Y-99914752D01*
X46913200Y-100132757D01*
X46509176Y-100536077D01*
X46290250Y-101063309D01*
X46289752Y-101634187D01*
X46507757Y-102161800D01*
X46911077Y-102565824D01*
X46977544Y-102593423D01*
X46970995Y-102596136D01*
X46896861Y-102842255D01*
X47725000Y-103670395D01*
X47739142Y-103656252D01*
X47918748Y-103835858D01*
X47904605Y-103850000D01*
X47918748Y-103864142D01*
X47739142Y-104043748D01*
X47725000Y-104029605D01*
X46896861Y-104857745D01*
X46970995Y-105103864D01*
X47508223Y-105296965D01*
X48078454Y-105269778D01*
X48479005Y-105103864D01*
X48553139Y-104857747D01*
X48668014Y-104972622D01*
X48715498Y-104925138D01*
X48756952Y-105133539D01*
X48921699Y-105380101D01*
X50689158Y-107147560D01*
X50305000Y-107147560D01*
X50057235Y-107196843D01*
X49847191Y-107337191D01*
X49706843Y-107547235D01*
X49657560Y-107795000D01*
X49657560Y-110195000D01*
X49706843Y-110442765D01*
X49847191Y-110652809D01*
X50057235Y-110793157D01*
X50305000Y-110842440D01*
X50423767Y-110842440D01*
X50567599Y-111057701D01*
X52190999Y-112681101D01*
X52437560Y-112845848D01*
X52728400Y-112903700D01*
X75450264Y-112903700D01*
X75348480Y-113148823D01*
X75348121Y-113560571D01*
X75505358Y-113941115D01*
X75796254Y-114232519D01*
X76176523Y-114390420D01*
X76588271Y-114390779D01*
X76968815Y-114233542D01*
X77086963Y-114115600D01*
X81431200Y-114115600D01*
X81722039Y-114057748D01*
X81968601Y-113893001D01*
X81999274Y-113862328D01*
X82119554Y-113982819D01*
X82499823Y-114140720D01*
X82911571Y-114141079D01*
X83292115Y-113983842D01*
X83410263Y-113865900D01*
X132742900Y-113865900D01*
X133033739Y-113808048D01*
X133280301Y-113643301D01*
X158360000Y-88563603D01*
X158360000Y-88726100D01*
X158417852Y-89016939D01*
X158582599Y-89263501D01*
X174866499Y-105547401D01*
X175113060Y-105712148D01*
X175403900Y-105770000D01*
X176877046Y-105770000D01*
X177070853Y-106060054D01*
X177400026Y-106280000D01*
X177070853Y-106499946D01*
X176748946Y-106981715D01*
X176635907Y-107550000D01*
X176748946Y-108118285D01*
X176773278Y-108154700D01*
X156174725Y-108154700D01*
X156062042Y-107881985D01*
X155771146Y-107590581D01*
X155390877Y-107432680D01*
X154979129Y-107432321D01*
X154598585Y-107589558D01*
X154307181Y-107880454D01*
X154149280Y-108260723D01*
X154148921Y-108672471D01*
X154306158Y-109053015D01*
X154597054Y-109344419D01*
X154977323Y-109502320D01*
X155169307Y-109502487D01*
X155340460Y-109616848D01*
X155631300Y-109674700D01*
X176718515Y-109674700D01*
X176635907Y-110090000D01*
X176748946Y-110658285D01*
X177070853Y-111140054D01*
X177400026Y-111360000D01*
X177070853Y-111579946D01*
X176748946Y-112061715D01*
X176635907Y-112630000D01*
X176748946Y-113198285D01*
X177070853Y-113680054D01*
X177552622Y-114001961D01*
X178120907Y-114115000D01*
X178179093Y-114115000D01*
X178747378Y-114001961D01*
X179229147Y-113680054D01*
X179418345Y-113396899D01*
X179418355Y-113396924D01*
X179808642Y-113825183D01*
X180333108Y-114071486D01*
X180563000Y-113950819D01*
X180563000Y-112757000D01*
X180817000Y-112757000D01*
X180817000Y-113950819D01*
X181046892Y-114071486D01*
X181571358Y-113825183D01*
X181961645Y-113396924D01*
X182131476Y-112986890D01*
X182010155Y-112757000D01*
X180817000Y-112757000D01*
X180563000Y-112757000D01*
X180543000Y-112757000D01*
X180543000Y-112503000D01*
X180563000Y-112503000D01*
X180563000Y-112483000D01*
X180817000Y-112483000D01*
X180817000Y-112503000D01*
X182010155Y-112503000D01*
X182131476Y-112273110D01*
X181961645Y-111863076D01*
X181571358Y-111434817D01*
X181428447Y-111367702D01*
X181769147Y-111140054D01*
X182091054Y-110658285D01*
X182204093Y-110090000D01*
X182091054Y-109521715D01*
X181769147Y-109039946D01*
X181439974Y-108820000D01*
X181769147Y-108600054D01*
X182091054Y-108118285D01*
X182204093Y-107550000D01*
X182091054Y-106981715D01*
X181769147Y-106499946D01*
X181439974Y-106280000D01*
X181769147Y-106060054D01*
X182091054Y-105578285D01*
X182204093Y-105010000D01*
X182091054Y-104441715D01*
X181769147Y-103959946D01*
X181439974Y-103740000D01*
X181769147Y-103520054D01*
X182091054Y-103038285D01*
X182204093Y-102470000D01*
X182091054Y-101901715D01*
X181769147Y-101419946D01*
X181439974Y-101200000D01*
X181769147Y-100980054D01*
X182091054Y-100498285D01*
X182204093Y-99930000D01*
X182091054Y-99361715D01*
X181769147Y-98879946D01*
X181439974Y-98660000D01*
X181769147Y-98440054D01*
X182091054Y-97958285D01*
X182204093Y-97390000D01*
X182091054Y-96821715D01*
X181769147Y-96339946D01*
X181439974Y-96120000D01*
X181769147Y-95900054D01*
X182091054Y-95418285D01*
X182204093Y-94850000D01*
X182091054Y-94281715D01*
X181769147Y-93799946D01*
X181439974Y-93580000D01*
X181769147Y-93360054D01*
X182091054Y-92878285D01*
X182204093Y-92310000D01*
X182091054Y-91741715D01*
X181769147Y-91259946D01*
X181439974Y-91040000D01*
X181769147Y-90820054D01*
X182091054Y-90338285D01*
X182204093Y-89770000D01*
X182091054Y-89201715D01*
X181836482Y-88820720D01*
X183892501Y-86764701D01*
X183915000Y-86731029D01*
X183915000Y-117365000D01*
X39860000Y-117365000D01*
X39860000Y-103633223D01*
X46278035Y-103633223D01*
X46305222Y-104203454D01*
X46471136Y-104604005D01*
X46717255Y-104678139D01*
X47545395Y-103850000D01*
X46717255Y-103021861D01*
X46471136Y-103095995D01*
X46278035Y-103633223D01*
X39860000Y-103633223D01*
X39860000Y-85958223D01*
X46603035Y-85958223D01*
X46630222Y-86528454D01*
X46796136Y-86929005D01*
X47042255Y-87003139D01*
X47870395Y-86175000D01*
X47042255Y-85346861D01*
X46796136Y-85420995D01*
X46603035Y-85958223D01*
X39860000Y-85958223D01*
X39860000Y-68258223D01*
X46428035Y-68258223D01*
X46455222Y-68828454D01*
X46621136Y-69229005D01*
X46867255Y-69303139D01*
X47695395Y-68475000D01*
X46867255Y-67646861D01*
X46621136Y-67720995D01*
X46428035Y-68258223D01*
X39860000Y-68258223D01*
X39860000Y-50408223D01*
X46278035Y-50408223D01*
X46305222Y-50978454D01*
X46471136Y-51379005D01*
X46717255Y-51453139D01*
X47545395Y-50625000D01*
X46717255Y-49796861D01*
X46471136Y-49870995D01*
X46278035Y-50408223D01*
X39860000Y-50408223D01*
X39860000Y-32508223D01*
X46353035Y-32508223D01*
X46380222Y-33078454D01*
X46546136Y-33479005D01*
X46792255Y-33553139D01*
X47620395Y-32725000D01*
X46792255Y-31896861D01*
X46546136Y-31970995D01*
X46353035Y-32508223D01*
X39860000Y-32508223D01*
X39860000Y-22110000D01*
X183915000Y-22110000D01*
X183915000Y-54708071D01*
G36*
X69754300Y-105857100D02*
X69812152Y-106147939D01*
X69976899Y-106394501D01*
X74226498Y-110644100D01*
X73233961Y-110644100D01*
X73117246Y-110527181D01*
X72736977Y-110369280D01*
X72325229Y-110368921D01*
X71944685Y-110526158D01*
X71653281Y-110817054D01*
X71495380Y-111197323D01*
X71495217Y-111383700D01*
X53043202Y-111383700D01*
X52918779Y-111259277D01*
X53140600Y-111303400D01*
X64313700Y-111303400D01*
X64604539Y-111245548D01*
X64851101Y-111080801D01*
X65428052Y-110503850D01*
X65913181Y-110769367D01*
X65995961Y-110786904D01*
X66218000Y-110664915D01*
X66218000Y-109122000D01*
X66472000Y-109122000D01*
X66472000Y-110664915D01*
X66694039Y-110786904D01*
X66776819Y-110769367D01*
X67269896Y-110499500D01*
X67622166Y-110061483D01*
X67780000Y-109522000D01*
X67780000Y-109122000D01*
X66472000Y-109122000D01*
X66218000Y-109122000D01*
X66198000Y-109122000D01*
X66198000Y-108868000D01*
X66218000Y-108868000D01*
X66218000Y-107325085D01*
X66472000Y-107325085D01*
X66472000Y-108868000D01*
X67780000Y-108868000D01*
X67780000Y-108468000D01*
X67622166Y-107928517D01*
X67269896Y-107490500D01*
X66776819Y-107220633D01*
X66694039Y-107203096D01*
X66472000Y-107325085D01*
X66218000Y-107325085D01*
X65995961Y-107203096D01*
X65913181Y-107220633D01*
X65835000Y-107263422D01*
X65835000Y-104485102D01*
X66882401Y-103437701D01*
X67047148Y-103191140D01*
X67083085Y-103010475D01*
X67359698Y-102825648D01*
X67670767Y-102360101D01*
X67747800Y-101972830D01*
X67747800Y-105226939D01*
X67630881Y-105343654D01*
X67472980Y-105723923D01*
X67472621Y-106135671D01*
X67629858Y-106516215D01*
X67920754Y-106807619D01*
X68301023Y-106965520D01*
X68712771Y-106965879D01*
X69093315Y-106808642D01*
X69384719Y-106517746D01*
X69542620Y-106137477D01*
X69542979Y-105725729D01*
X69385742Y-105345185D01*
X69267800Y-105227037D01*
X69267800Y-99121354D01*
X69304323Y-99136520D01*
X69716071Y-99136879D01*
X69754300Y-99121083D01*
X69754300Y-105857100D01*
X69754300Y-105857100D01*
G37*
X69754300Y-105857100D02*
X69812152Y-106147939D01*
X69976899Y-106394501D01*
X74226498Y-110644100D01*
X73233961Y-110644100D01*
X73117246Y-110527181D01*
X72736977Y-110369280D01*
X72325229Y-110368921D01*
X71944685Y-110526158D01*
X71653281Y-110817054D01*
X71495380Y-111197323D01*
X71495217Y-111383700D01*
X53043202Y-111383700D01*
X52918779Y-111259277D01*
X53140600Y-111303400D01*
X64313700Y-111303400D01*
X64604539Y-111245548D01*
X64851101Y-111080801D01*
X65428052Y-110503850D01*
X65913181Y-110769367D01*
X65995961Y-110786904D01*
X66218000Y-110664915D01*
X66218000Y-109122000D01*
X66472000Y-109122000D01*
X66472000Y-110664915D01*
X66694039Y-110786904D01*
X66776819Y-110769367D01*
X67269896Y-110499500D01*
X67622166Y-110061483D01*
X67780000Y-109522000D01*
X67780000Y-109122000D01*
X66472000Y-109122000D01*
X66218000Y-109122000D01*
X66198000Y-109122000D01*
X66198000Y-108868000D01*
X66218000Y-108868000D01*
X66218000Y-107325085D01*
X66472000Y-107325085D01*
X66472000Y-108868000D01*
X67780000Y-108868000D01*
X67780000Y-108468000D01*
X67622166Y-107928517D01*
X67269896Y-107490500D01*
X66776819Y-107220633D01*
X66694039Y-107203096D01*
X66472000Y-107325085D01*
X66218000Y-107325085D01*
X65995961Y-107203096D01*
X65913181Y-107220633D01*
X65835000Y-107263422D01*
X65835000Y-104485102D01*
X66882401Y-103437701D01*
X67047148Y-103191140D01*
X67083085Y-103010475D01*
X67359698Y-102825648D01*
X67670767Y-102360101D01*
X67747800Y-101972830D01*
X67747800Y-105226939D01*
X67630881Y-105343654D01*
X67472980Y-105723923D01*
X67472621Y-106135671D01*
X67629858Y-106516215D01*
X67920754Y-106807619D01*
X68301023Y-106965520D01*
X68712771Y-106965879D01*
X69093315Y-106808642D01*
X69384719Y-106517746D01*
X69542620Y-106137477D01*
X69542979Y-105725729D01*
X69385742Y-105345185D01*
X69267800Y-105227037D01*
X69267800Y-99121354D01*
X69304323Y-99136520D01*
X69716071Y-99136879D01*
X69754300Y-99121083D01*
X69754300Y-105857100D01*
G36*
X99026700Y-98824400D02*
X99084552Y-99115239D01*
X99249299Y-99361801D01*
X99806023Y-99918525D01*
X99797302Y-99924352D01*
X99486233Y-100389899D01*
X99377000Y-100939050D01*
X99377000Y-101810950D01*
X99486233Y-102360101D01*
X99797302Y-102825648D01*
X100262849Y-103136717D01*
X100812000Y-103245950D01*
X101361151Y-103136717D01*
X101826698Y-102825648D01*
X102082000Y-102443562D01*
X102337302Y-102825648D01*
X102802849Y-103136717D01*
X103352000Y-103245950D01*
X103901151Y-103136717D01*
X104264879Y-102893681D01*
X104836299Y-103465101D01*
X105082860Y-103629848D01*
X105373700Y-103687700D01*
X106331000Y-103687700D01*
X106621839Y-103629848D01*
X106639351Y-103618147D01*
X103547798Y-106709700D01*
X103352000Y-106709700D01*
X103061161Y-106767552D01*
X102814599Y-106932299D01*
X102649852Y-107178861D01*
X102613915Y-107359525D01*
X102337302Y-107544352D01*
X102238882Y-107691648D01*
X102210157Y-107547235D01*
X102069809Y-107337191D01*
X101859765Y-107196843D01*
X101612000Y-107147560D01*
X100012000Y-107147560D01*
X99764235Y-107196843D01*
X99554191Y-107337191D01*
X99413843Y-107547235D01*
X99364560Y-107795000D01*
X99364560Y-110195000D01*
X99413843Y-110442765D01*
X99478413Y-110539400D01*
X92292594Y-110539400D01*
X92365496Y-110499500D01*
X92717766Y-110061483D01*
X92875600Y-109522000D01*
X92875600Y-109122000D01*
X91567600Y-109122000D01*
X91567600Y-109142000D01*
X91313600Y-109142000D01*
X91313600Y-109122000D01*
X91293600Y-109122000D01*
X91293600Y-108868000D01*
X91313600Y-108868000D01*
X91313600Y-107325085D01*
X91567600Y-107325085D01*
X91567600Y-108868000D01*
X92875600Y-108868000D01*
X92875600Y-108468000D01*
X92717766Y-107928517D01*
X92365496Y-107490500D01*
X91872419Y-107220633D01*
X91789639Y-107203096D01*
X91567600Y-107325085D01*
X91313600Y-107325085D01*
X91091561Y-107203096D01*
X91008781Y-107220633D01*
X90930600Y-107263422D01*
X90930600Y-106116802D01*
X92014657Y-105032745D01*
X96621861Y-105032745D01*
X96695995Y-105278864D01*
X97233223Y-105471965D01*
X97803454Y-105444778D01*
X98204005Y-105278864D01*
X98278139Y-105032745D01*
X97450000Y-104204605D01*
X96621861Y-105032745D01*
X92014657Y-105032745D01*
X93239179Y-103808223D01*
X96003035Y-103808223D01*
X96030222Y-104378454D01*
X96196136Y-104779005D01*
X96442255Y-104853139D01*
X97270395Y-104025000D01*
X97629605Y-104025000D01*
X98457745Y-104853139D01*
X98703864Y-104779005D01*
X98896965Y-104241777D01*
X98869778Y-103671546D01*
X98703864Y-103270995D01*
X98457745Y-103196861D01*
X97629605Y-104025000D01*
X97270395Y-104025000D01*
X96442255Y-103196861D01*
X96196136Y-103270995D01*
X96003035Y-103808223D01*
X93239179Y-103808223D01*
X96161641Y-100885761D01*
X96015250Y-101238309D01*
X96014752Y-101809187D01*
X96232757Y-102336800D01*
X96636077Y-102740824D01*
X96702544Y-102768423D01*
X96695995Y-102771136D01*
X96621861Y-103017255D01*
X97450000Y-103845395D01*
X98278139Y-103017255D01*
X98204005Y-102771136D01*
X98197517Y-102768804D01*
X98261800Y-102742243D01*
X98665824Y-102338923D01*
X98884750Y-101811691D01*
X98885248Y-101240813D01*
X98667243Y-100713200D01*
X98263923Y-100309176D01*
X97736691Y-100090250D01*
X97165813Y-100089752D01*
X96811076Y-100236326D01*
X99026700Y-98020702D01*
X99026700Y-98824400D01*
X99026700Y-98824400D01*
G37*
X99026700Y-98824400D02*
X99084552Y-99115239D01*
X99249299Y-99361801D01*
X99806023Y-99918525D01*
X99797302Y-99924352D01*
X99486233Y-100389899D01*
X99377000Y-100939050D01*
X99377000Y-101810950D01*
X99486233Y-102360101D01*
X99797302Y-102825648D01*
X100262849Y-103136717D01*
X100812000Y-103245950D01*
X101361151Y-103136717D01*
X101826698Y-102825648D01*
X102082000Y-102443562D01*
X102337302Y-102825648D01*
X102802849Y-103136717D01*
X103352000Y-103245950D01*
X103901151Y-103136717D01*
X104264879Y-102893681D01*
X104836299Y-103465101D01*
X105082860Y-103629848D01*
X105373700Y-103687700D01*
X106331000Y-103687700D01*
X106621839Y-103629848D01*
X106639351Y-103618147D01*
X103547798Y-106709700D01*
X103352000Y-106709700D01*
X103061161Y-106767552D01*
X102814599Y-106932299D01*
X102649852Y-107178861D01*
X102613915Y-107359525D01*
X102337302Y-107544352D01*
X102238882Y-107691648D01*
X102210157Y-107547235D01*
X102069809Y-107337191D01*
X101859765Y-107196843D01*
X101612000Y-107147560D01*
X100012000Y-107147560D01*
X99764235Y-107196843D01*
X99554191Y-107337191D01*
X99413843Y-107547235D01*
X99364560Y-107795000D01*
X99364560Y-110195000D01*
X99413843Y-110442765D01*
X99478413Y-110539400D01*
X92292594Y-110539400D01*
X92365496Y-110499500D01*
X92717766Y-110061483D01*
X92875600Y-109522000D01*
X92875600Y-109122000D01*
X91567600Y-109122000D01*
X91567600Y-109142000D01*
X91313600Y-109142000D01*
X91313600Y-109122000D01*
X91293600Y-109122000D01*
X91293600Y-108868000D01*
X91313600Y-108868000D01*
X91313600Y-107325085D01*
X91567600Y-107325085D01*
X91567600Y-108868000D01*
X92875600Y-108868000D01*
X92875600Y-108468000D01*
X92717766Y-107928517D01*
X92365496Y-107490500D01*
X91872419Y-107220633D01*
X91789639Y-107203096D01*
X91567600Y-107325085D01*
X91313600Y-107325085D01*
X91091561Y-107203096D01*
X91008781Y-107220633D01*
X90930600Y-107263422D01*
X90930600Y-106116802D01*
X92014657Y-105032745D01*
X96621861Y-105032745D01*
X96695995Y-105278864D01*
X97233223Y-105471965D01*
X97803454Y-105444778D01*
X98204005Y-105278864D01*
X98278139Y-105032745D01*
X97450000Y-104204605D01*
X96621861Y-105032745D01*
X92014657Y-105032745D01*
X93239179Y-103808223D01*
X96003035Y-103808223D01*
X96030222Y-104378454D01*
X96196136Y-104779005D01*
X96442255Y-104853139D01*
X97270395Y-104025000D01*
X97629605Y-104025000D01*
X98457745Y-104853139D01*
X98703864Y-104779005D01*
X98896965Y-104241777D01*
X98869778Y-103671546D01*
X98703864Y-103270995D01*
X98457745Y-103196861D01*
X97629605Y-104025000D01*
X97270395Y-104025000D01*
X96442255Y-103196861D01*
X96196136Y-103270995D01*
X96003035Y-103808223D01*
X93239179Y-103808223D01*
X96161641Y-100885761D01*
X96015250Y-101238309D01*
X96014752Y-101809187D01*
X96232757Y-102336800D01*
X96636077Y-102740824D01*
X96702544Y-102768423D01*
X96695995Y-102771136D01*
X96621861Y-103017255D01*
X97450000Y-103845395D01*
X98278139Y-103017255D01*
X98204005Y-102771136D01*
X98197517Y-102768804D01*
X98261800Y-102742243D01*
X98665824Y-102338923D01*
X98884750Y-101811691D01*
X98885248Y-101240813D01*
X98667243Y-100713200D01*
X98263923Y-100309176D01*
X97736691Y-100090250D01*
X97165813Y-100089752D01*
X96811076Y-100236326D01*
X99026700Y-98020702D01*
X99026700Y-98824400D01*
G36*
X129228598Y-110539400D02*
X116903994Y-110539400D01*
X116976896Y-110499500D01*
X117329166Y-110061483D01*
X117487000Y-109522000D01*
X117487000Y-109122000D01*
X116179000Y-109122000D01*
X116179000Y-109142000D01*
X115925000Y-109142000D01*
X115925000Y-109122000D01*
X115905000Y-109122000D01*
X115905000Y-108868000D01*
X115925000Y-108868000D01*
X115925000Y-108848000D01*
X116179000Y-108848000D01*
X116179000Y-108868000D01*
X117487000Y-108868000D01*
X117487000Y-108468000D01*
X117329166Y-107928517D01*
X117302371Y-107895200D01*
X131872798Y-107895200D01*
X129228598Y-110539400D01*
X129228598Y-110539400D01*
G37*
X129228598Y-110539400D02*
X116903994Y-110539400D01*
X116976896Y-110499500D01*
X117329166Y-110061483D01*
X117487000Y-109522000D01*
X117487000Y-109122000D01*
X116179000Y-109122000D01*
X116179000Y-109142000D01*
X115925000Y-109142000D01*
X115925000Y-109122000D01*
X115905000Y-109122000D01*
X115905000Y-108868000D01*
X115925000Y-108868000D01*
X115925000Y-108848000D01*
X116179000Y-108848000D01*
X116179000Y-108868000D01*
X117487000Y-108868000D01*
X117487000Y-108468000D01*
X117329166Y-107928517D01*
X117302371Y-107895200D01*
X131872798Y-107895200D01*
X129228598Y-110539400D01*
G36*
X72533223Y-52171965D02*
X73103454Y-52144778D01*
X73416400Y-52015151D01*
X73416400Y-64766776D01*
X73111691Y-64640250D01*
X72540813Y-64639752D01*
X72013200Y-64857757D01*
X71609176Y-65261077D01*
X71390250Y-65788309D01*
X71389752Y-66359187D01*
X71607757Y-66886800D01*
X72011077Y-67290824D01*
X72077544Y-67318423D01*
X72070995Y-67321136D01*
X71996861Y-67567255D01*
X72825000Y-68395395D01*
X72839142Y-68381252D01*
X73018748Y-68560858D01*
X73004605Y-68575000D01*
X73018748Y-68589143D01*
X72839142Y-68768748D01*
X72825000Y-68754605D01*
X71996861Y-69582745D01*
X72070995Y-69828864D01*
X72608223Y-70021965D01*
X73178454Y-69994778D01*
X73416400Y-69896217D01*
X73416400Y-82552157D01*
X73086691Y-82415250D01*
X72515813Y-82414752D01*
X71988200Y-82632757D01*
X71584176Y-83036077D01*
X71365250Y-83563309D01*
X71364752Y-84134187D01*
X71582757Y-84661800D01*
X71986077Y-85065824D01*
X72052544Y-85093423D01*
X72045995Y-85096136D01*
X71971861Y-85342255D01*
X72800000Y-86170395D01*
X72814142Y-86156252D01*
X72993748Y-86335858D01*
X72979605Y-86350000D01*
X72993748Y-86364142D01*
X72814142Y-86543748D01*
X72800000Y-86529605D01*
X71971861Y-87357745D01*
X72045995Y-87603864D01*
X72583223Y-87796965D01*
X73153454Y-87769778D01*
X73416400Y-87660862D01*
X73416400Y-100085634D01*
X73186691Y-99990250D01*
X72615813Y-99989752D01*
X72088200Y-100207757D01*
X71684176Y-100611077D01*
X71465250Y-101138309D01*
X71464752Y-101709187D01*
X71682757Y-102236800D01*
X72086077Y-102640824D01*
X72152544Y-102668423D01*
X72145995Y-102671136D01*
X72071861Y-102917255D01*
X72900000Y-103745395D01*
X72914143Y-103731253D01*
X73093748Y-103910858D01*
X73079605Y-103925000D01*
X73907745Y-104753139D01*
X74153864Y-104679005D01*
X74344562Y-104148464D01*
X77734623Y-107538525D01*
X77725902Y-107544352D01*
X77627482Y-107691648D01*
X77598757Y-107547235D01*
X77458409Y-107337191D01*
X77248365Y-107196843D01*
X77000600Y-107147560D01*
X75400600Y-107147560D01*
X75152835Y-107196843D01*
X74942791Y-107337191D01*
X74802443Y-107547235D01*
X74753160Y-107795000D01*
X74753160Y-109021158D01*
X71274300Y-105542298D01*
X71274300Y-104932745D01*
X72071861Y-104932745D01*
X72145995Y-105178864D01*
X72683223Y-105371965D01*
X73253454Y-105344778D01*
X73654005Y-105178864D01*
X73728139Y-104932745D01*
X72900000Y-104104605D01*
X72071861Y-104932745D01*
X71274300Y-104932745D01*
X71274300Y-103708223D01*
X71453035Y-103708223D01*
X71480222Y-104278454D01*
X71646136Y-104679005D01*
X71892255Y-104753139D01*
X72720395Y-103925000D01*
X71892255Y-103096861D01*
X71646136Y-103170995D01*
X71453035Y-103708223D01*
X71274300Y-103708223D01*
X71274300Y-86133223D01*
X71353035Y-86133223D01*
X71380222Y-86703454D01*
X71546136Y-87104005D01*
X71792255Y-87178139D01*
X72620395Y-86350000D01*
X71792255Y-85521861D01*
X71546136Y-85595995D01*
X71353035Y-86133223D01*
X71274300Y-86133223D01*
X71274300Y-72453000D01*
X71216448Y-72162161D01*
X71051701Y-71915599D01*
X67494325Y-68358223D01*
X71378035Y-68358223D01*
X71405222Y-68928454D01*
X71571136Y-69329005D01*
X71817255Y-69403139D01*
X72645395Y-68575000D01*
X71817255Y-67746861D01*
X71571136Y-67820995D01*
X71378035Y-68358223D01*
X67494325Y-68358223D01*
X66821051Y-67684949D01*
X66994151Y-67650517D01*
X67459698Y-67339448D01*
X67770767Y-66873901D01*
X67880000Y-66324750D01*
X67880000Y-65452850D01*
X67770767Y-64903699D01*
X67459698Y-64438152D01*
X67450977Y-64432325D01*
X71798001Y-60085301D01*
X71962748Y-59838739D01*
X72020600Y-59547900D01*
X72020600Y-51987708D01*
X72533223Y-52171965D01*
X72533223Y-52171965D01*
G37*
X72533223Y-52171965D02*
X73103454Y-52144778D01*
X73416400Y-52015151D01*
X73416400Y-64766776D01*
X73111691Y-64640250D01*
X72540813Y-64639752D01*
X72013200Y-64857757D01*
X71609176Y-65261077D01*
X71390250Y-65788309D01*
X71389752Y-66359187D01*
X71607757Y-66886800D01*
X72011077Y-67290824D01*
X72077544Y-67318423D01*
X72070995Y-67321136D01*
X71996861Y-67567255D01*
X72825000Y-68395395D01*
X72839142Y-68381252D01*
X73018748Y-68560858D01*
X73004605Y-68575000D01*
X73018748Y-68589143D01*
X72839142Y-68768748D01*
X72825000Y-68754605D01*
X71996861Y-69582745D01*
X72070995Y-69828864D01*
X72608223Y-70021965D01*
X73178454Y-69994778D01*
X73416400Y-69896217D01*
X73416400Y-82552157D01*
X73086691Y-82415250D01*
X72515813Y-82414752D01*
X71988200Y-82632757D01*
X71584176Y-83036077D01*
X71365250Y-83563309D01*
X71364752Y-84134187D01*
X71582757Y-84661800D01*
X71986077Y-85065824D01*
X72052544Y-85093423D01*
X72045995Y-85096136D01*
X71971861Y-85342255D01*
X72800000Y-86170395D01*
X72814142Y-86156252D01*
X72993748Y-86335858D01*
X72979605Y-86350000D01*
X72993748Y-86364142D01*
X72814142Y-86543748D01*
X72800000Y-86529605D01*
X71971861Y-87357745D01*
X72045995Y-87603864D01*
X72583223Y-87796965D01*
X73153454Y-87769778D01*
X73416400Y-87660862D01*
X73416400Y-100085634D01*
X73186691Y-99990250D01*
X72615813Y-99989752D01*
X72088200Y-100207757D01*
X71684176Y-100611077D01*
X71465250Y-101138309D01*
X71464752Y-101709187D01*
X71682757Y-102236800D01*
X72086077Y-102640824D01*
X72152544Y-102668423D01*
X72145995Y-102671136D01*
X72071861Y-102917255D01*
X72900000Y-103745395D01*
X72914143Y-103731253D01*
X73093748Y-103910858D01*
X73079605Y-103925000D01*
X73907745Y-104753139D01*
X74153864Y-104679005D01*
X74344562Y-104148464D01*
X77734623Y-107538525D01*
X77725902Y-107544352D01*
X77627482Y-107691648D01*
X77598757Y-107547235D01*
X77458409Y-107337191D01*
X77248365Y-107196843D01*
X77000600Y-107147560D01*
X75400600Y-107147560D01*
X75152835Y-107196843D01*
X74942791Y-107337191D01*
X74802443Y-107547235D01*
X74753160Y-107795000D01*
X74753160Y-109021158D01*
X71274300Y-105542298D01*
X71274300Y-104932745D01*
X72071861Y-104932745D01*
X72145995Y-105178864D01*
X72683223Y-105371965D01*
X73253454Y-105344778D01*
X73654005Y-105178864D01*
X73728139Y-104932745D01*
X72900000Y-104104605D01*
X72071861Y-104932745D01*
X71274300Y-104932745D01*
X71274300Y-103708223D01*
X71453035Y-103708223D01*
X71480222Y-104278454D01*
X71646136Y-104679005D01*
X71892255Y-104753139D01*
X72720395Y-103925000D01*
X71892255Y-103096861D01*
X71646136Y-103170995D01*
X71453035Y-103708223D01*
X71274300Y-103708223D01*
X71274300Y-86133223D01*
X71353035Y-86133223D01*
X71380222Y-86703454D01*
X71546136Y-87104005D01*
X71792255Y-87178139D01*
X72620395Y-86350000D01*
X71792255Y-85521861D01*
X71546136Y-85595995D01*
X71353035Y-86133223D01*
X71274300Y-86133223D01*
X71274300Y-72453000D01*
X71216448Y-72162161D01*
X71051701Y-71915599D01*
X67494325Y-68358223D01*
X71378035Y-68358223D01*
X71405222Y-68928454D01*
X71571136Y-69329005D01*
X71817255Y-69403139D01*
X72645395Y-68575000D01*
X71817255Y-67746861D01*
X71571136Y-67820995D01*
X71378035Y-68358223D01*
X67494325Y-68358223D01*
X66821051Y-67684949D01*
X66994151Y-67650517D01*
X67459698Y-67339448D01*
X67770767Y-66873901D01*
X67880000Y-66324750D01*
X67880000Y-65452850D01*
X67770767Y-64903699D01*
X67459698Y-64438152D01*
X67450977Y-64432325D01*
X71798001Y-60085301D01*
X71962748Y-59838739D01*
X72020600Y-59547900D01*
X72020600Y-51987708D01*
X72533223Y-52171965D01*
G36*
X99545191Y-75179009D02*
X99755235Y-75319357D01*
X100003000Y-75368640D01*
X100531558Y-75368640D01*
X98751699Y-77148499D01*
X98586952Y-77395061D01*
X98529100Y-77685900D01*
X98529100Y-82699510D01*
X98438923Y-82609176D01*
X97911691Y-82390250D01*
X97340813Y-82389752D01*
X96813200Y-82607757D01*
X96409176Y-83011077D01*
X96190250Y-83538309D01*
X96189752Y-84109187D01*
X96407757Y-84636800D01*
X96811077Y-85040824D01*
X96877544Y-85068423D01*
X96870995Y-85071136D01*
X96796861Y-85317255D01*
X97625000Y-86145395D01*
X97639142Y-86131252D01*
X97818748Y-86310858D01*
X97804605Y-86325000D01*
X97818748Y-86339142D01*
X97639142Y-86518748D01*
X97625000Y-86504605D01*
X96796861Y-87332745D01*
X96870995Y-87578864D01*
X97408223Y-87771965D01*
X97978454Y-87744778D01*
X98379005Y-87578864D01*
X98453139Y-87332747D01*
X98529100Y-87408708D01*
X98529100Y-96368698D01*
X93349500Y-101548298D01*
X93349500Y-96741400D01*
X93291648Y-96450561D01*
X93126901Y-96203999D01*
X90927100Y-94004198D01*
X90927100Y-93170260D01*
X90982061Y-93181904D01*
X91204100Y-93059915D01*
X91204100Y-91517000D01*
X91458100Y-91517000D01*
X91458100Y-93059915D01*
X91680139Y-93181904D01*
X91762919Y-93164367D01*
X92255996Y-92894500D01*
X92608266Y-92456483D01*
X92766100Y-91917000D01*
X92766100Y-91517000D01*
X91458100Y-91517000D01*
X91204100Y-91517000D01*
X91184100Y-91517000D01*
X91184100Y-91263000D01*
X91204100Y-91263000D01*
X91204100Y-89720085D01*
X91458100Y-89720085D01*
X91458100Y-91263000D01*
X92766100Y-91263000D01*
X92766100Y-90863000D01*
X92608266Y-90323517D01*
X92255996Y-89885500D01*
X91762919Y-89615633D01*
X91680139Y-89598096D01*
X91458100Y-89720085D01*
X91204100Y-89720085D01*
X90982061Y-89598096D01*
X90927100Y-89609740D01*
X90927100Y-86108223D01*
X96178035Y-86108223D01*
X96205222Y-86678454D01*
X96371136Y-87079005D01*
X96617255Y-87153139D01*
X97445395Y-86325000D01*
X96617255Y-85496861D01*
X96371136Y-85570995D01*
X96178035Y-86108223D01*
X90927100Y-86108223D01*
X90927100Y-85560589D01*
X91331100Y-85640950D01*
X91880251Y-85531717D01*
X92345798Y-85220648D01*
X92656867Y-84755101D01*
X92766100Y-84205950D01*
X92766100Y-83334050D01*
X92656867Y-82784899D01*
X92345798Y-82319352D01*
X92337077Y-82313525D01*
X99515712Y-75134890D01*
X99545191Y-75179009D01*
X99545191Y-75179009D01*
G37*
X99545191Y-75179009D02*
X99755235Y-75319357D01*
X100003000Y-75368640D01*
X100531558Y-75368640D01*
X98751699Y-77148499D01*
X98586952Y-77395061D01*
X98529100Y-77685900D01*
X98529100Y-82699510D01*
X98438923Y-82609176D01*
X97911691Y-82390250D01*
X97340813Y-82389752D01*
X96813200Y-82607757D01*
X96409176Y-83011077D01*
X96190250Y-83538309D01*
X96189752Y-84109187D01*
X96407757Y-84636800D01*
X96811077Y-85040824D01*
X96877544Y-85068423D01*
X96870995Y-85071136D01*
X96796861Y-85317255D01*
X97625000Y-86145395D01*
X97639142Y-86131252D01*
X97818748Y-86310858D01*
X97804605Y-86325000D01*
X97818748Y-86339142D01*
X97639142Y-86518748D01*
X97625000Y-86504605D01*
X96796861Y-87332745D01*
X96870995Y-87578864D01*
X97408223Y-87771965D01*
X97978454Y-87744778D01*
X98379005Y-87578864D01*
X98453139Y-87332747D01*
X98529100Y-87408708D01*
X98529100Y-96368698D01*
X93349500Y-101548298D01*
X93349500Y-96741400D01*
X93291648Y-96450561D01*
X93126901Y-96203999D01*
X90927100Y-94004198D01*
X90927100Y-93170260D01*
X90982061Y-93181904D01*
X91204100Y-93059915D01*
X91204100Y-91517000D01*
X91458100Y-91517000D01*
X91458100Y-93059915D01*
X91680139Y-93181904D01*
X91762919Y-93164367D01*
X92255996Y-92894500D01*
X92608266Y-92456483D01*
X92766100Y-91917000D01*
X92766100Y-91517000D01*
X91458100Y-91517000D01*
X91204100Y-91517000D01*
X91184100Y-91517000D01*
X91184100Y-91263000D01*
X91204100Y-91263000D01*
X91204100Y-89720085D01*
X91458100Y-89720085D01*
X91458100Y-91263000D01*
X92766100Y-91263000D01*
X92766100Y-90863000D01*
X92608266Y-90323517D01*
X92255996Y-89885500D01*
X91762919Y-89615633D01*
X91680139Y-89598096D01*
X91458100Y-89720085D01*
X91204100Y-89720085D01*
X90982061Y-89598096D01*
X90927100Y-89609740D01*
X90927100Y-86108223D01*
X96178035Y-86108223D01*
X96205222Y-86678454D01*
X96371136Y-87079005D01*
X96617255Y-87153139D01*
X97445395Y-86325000D01*
X96617255Y-85496861D01*
X96371136Y-85570995D01*
X96178035Y-86108223D01*
X90927100Y-86108223D01*
X90927100Y-85560589D01*
X91331100Y-85640950D01*
X91880251Y-85531717D01*
X92345798Y-85220648D01*
X92656867Y-84755101D01*
X92766100Y-84205950D01*
X92766100Y-83334050D01*
X92656867Y-82784899D01*
X92345798Y-82319352D01*
X92337077Y-82313525D01*
X99515712Y-75134890D01*
X99545191Y-75179009D01*
G36*
X69754300Y-72767802D02*
X69754300Y-97082004D01*
X69717877Y-97066880D01*
X69550936Y-97066734D01*
X65186884Y-92702682D01*
X65347507Y-92462293D01*
X65695104Y-92894500D01*
X66188181Y-93164367D01*
X66270961Y-93181904D01*
X66493000Y-93059915D01*
X66493000Y-91517000D01*
X66747000Y-91517000D01*
X66747000Y-93059915D01*
X66969039Y-93181904D01*
X67051819Y-93164367D01*
X67544896Y-92894500D01*
X67897166Y-92456483D01*
X68055000Y-91917000D01*
X68055000Y-91517000D01*
X66747000Y-91517000D01*
X66493000Y-91517000D01*
X66473000Y-91517000D01*
X66473000Y-91263000D01*
X66493000Y-91263000D01*
X66493000Y-89720085D01*
X66747000Y-89720085D01*
X66747000Y-91263000D01*
X68055000Y-91263000D01*
X68055000Y-90863000D01*
X67897166Y-90323517D01*
X67544896Y-89885500D01*
X67051819Y-89615633D01*
X66969039Y-89598096D01*
X66747000Y-89720085D01*
X66493000Y-89720085D01*
X66270961Y-89598096D01*
X66188181Y-89615633D01*
X65695104Y-89885500D01*
X65347507Y-90317707D01*
X65094698Y-89939352D01*
X64629151Y-89628283D01*
X64080000Y-89519050D01*
X63668100Y-89600982D01*
X63668100Y-89254802D01*
X65961301Y-86961601D01*
X66126048Y-86715040D01*
X66137314Y-86658400D01*
X66183900Y-86424200D01*
X66183900Y-85554204D01*
X66620000Y-85640950D01*
X67169151Y-85531717D01*
X67634698Y-85220648D01*
X67945767Y-84755101D01*
X68055000Y-84205950D01*
X68055000Y-83334050D01*
X67945767Y-82784899D01*
X67634698Y-82319352D01*
X67625977Y-82313525D01*
X69453801Y-80485701D01*
X69618548Y-80239139D01*
X69676400Y-79948300D01*
X69676400Y-72689902D01*
X69754300Y-72767802D01*
X69754300Y-72767802D01*
G37*
X69754300Y-72767802D02*
X69754300Y-97082004D01*
X69717877Y-97066880D01*
X69550936Y-97066734D01*
X65186884Y-92702682D01*
X65347507Y-92462293D01*
X65695104Y-92894500D01*
X66188181Y-93164367D01*
X66270961Y-93181904D01*
X66493000Y-93059915D01*
X66493000Y-91517000D01*
X66747000Y-91517000D01*
X66747000Y-93059915D01*
X66969039Y-93181904D01*
X67051819Y-93164367D01*
X67544896Y-92894500D01*
X67897166Y-92456483D01*
X68055000Y-91917000D01*
X68055000Y-91517000D01*
X66747000Y-91517000D01*
X66493000Y-91517000D01*
X66473000Y-91517000D01*
X66473000Y-91263000D01*
X66493000Y-91263000D01*
X66493000Y-89720085D01*
X66747000Y-89720085D01*
X66747000Y-91263000D01*
X68055000Y-91263000D01*
X68055000Y-90863000D01*
X67897166Y-90323517D01*
X67544896Y-89885500D01*
X67051819Y-89615633D01*
X66969039Y-89598096D01*
X66747000Y-89720085D01*
X66493000Y-89720085D01*
X66270961Y-89598096D01*
X66188181Y-89615633D01*
X65695104Y-89885500D01*
X65347507Y-90317707D01*
X65094698Y-89939352D01*
X64629151Y-89628283D01*
X64080000Y-89519050D01*
X63668100Y-89600982D01*
X63668100Y-89254802D01*
X65961301Y-86961601D01*
X66126048Y-86715040D01*
X66137314Y-86658400D01*
X66183900Y-86424200D01*
X66183900Y-85554204D01*
X66620000Y-85640950D01*
X67169151Y-85531717D01*
X67634698Y-85220648D01*
X67945767Y-84755101D01*
X68055000Y-84205950D01*
X68055000Y-83334050D01*
X67945767Y-82784899D01*
X67634698Y-82319352D01*
X67625977Y-82313525D01*
X69453801Y-80485701D01*
X69618548Y-80239139D01*
X69676400Y-79948300D01*
X69676400Y-72689902D01*
X69754300Y-72767802D01*
G36*
X171277476Y-63454622D02*
X171157146Y-63334081D01*
X170776877Y-63176180D01*
X170365129Y-63175821D01*
X169984585Y-63333058D01*
X169693181Y-63623954D01*
X169535280Y-64004223D01*
X169535050Y-64268448D01*
X142907000Y-90896498D01*
X142907000Y-90863000D01*
X142749166Y-90323517D01*
X142396896Y-89885500D01*
X141903819Y-89615633D01*
X141821039Y-89598096D01*
X141599000Y-89720085D01*
X141599000Y-91263000D01*
X141619000Y-91263000D01*
X141619000Y-91517000D01*
X141599000Y-91517000D01*
X141599000Y-91537000D01*
X141345000Y-91537000D01*
X141345000Y-91517000D01*
X141325000Y-91517000D01*
X141325000Y-91263000D01*
X141345000Y-91263000D01*
X141345000Y-89720085D01*
X141122961Y-89598096D01*
X141040181Y-89615633D01*
X140547104Y-89885500D01*
X140199507Y-90317707D01*
X139946698Y-89939352D01*
X139481151Y-89628283D01*
X138934295Y-89519507D01*
X142219711Y-86234091D01*
X142361858Y-86578115D01*
X142652754Y-86869519D01*
X143033023Y-87027420D01*
X143444771Y-87027779D01*
X143825315Y-86870542D01*
X143943463Y-86752600D01*
X144200200Y-86752600D01*
X144491039Y-86694748D01*
X144737601Y-86530001D01*
X172487602Y-58780000D01*
X175952098Y-58780000D01*
X171277476Y-63454622D01*
X171277476Y-63454622D01*
G37*
X171277476Y-63454622D02*
X171157146Y-63334081D01*
X170776877Y-63176180D01*
X170365129Y-63175821D01*
X169984585Y-63333058D01*
X169693181Y-63623954D01*
X169535280Y-64004223D01*
X169535050Y-64268448D01*
X142907000Y-90896498D01*
X142907000Y-90863000D01*
X142749166Y-90323517D01*
X142396896Y-89885500D01*
X141903819Y-89615633D01*
X141821039Y-89598096D01*
X141599000Y-89720085D01*
X141599000Y-91263000D01*
X141619000Y-91263000D01*
X141619000Y-91517000D01*
X141599000Y-91517000D01*
X141599000Y-91537000D01*
X141345000Y-91537000D01*
X141345000Y-91517000D01*
X141325000Y-91517000D01*
X141325000Y-91263000D01*
X141345000Y-91263000D01*
X141345000Y-89720085D01*
X141122961Y-89598096D01*
X141040181Y-89615633D01*
X140547104Y-89885500D01*
X140199507Y-90317707D01*
X139946698Y-89939352D01*
X139481151Y-89628283D01*
X138934295Y-89519507D01*
X142219711Y-86234091D01*
X142361858Y-86578115D01*
X142652754Y-86869519D01*
X143033023Y-87027420D01*
X143444771Y-87027779D01*
X143825315Y-86870542D01*
X143943463Y-86752600D01*
X144200200Y-86752600D01*
X144491039Y-86694748D01*
X144737601Y-86530001D01*
X172487602Y-58780000D01*
X175952098Y-58780000D01*
X171277476Y-63454622D01*
G36*
X116279000Y-91263000D02*
X116299000Y-91263000D01*
X116299000Y-91517000D01*
X116279000Y-91517000D01*
X116279000Y-91537000D01*
X116025000Y-91537000D01*
X116025000Y-91517000D01*
X116005000Y-91517000D01*
X116005000Y-91263000D01*
X116025000Y-91263000D01*
X116025000Y-91243000D01*
X116279000Y-91243000D01*
X116279000Y-91263000D01*
X116279000Y-91263000D01*
G37*
X116279000Y-91263000D02*
X116299000Y-91263000D01*
X116299000Y-91517000D01*
X116279000Y-91517000D01*
X116279000Y-91537000D01*
X116025000Y-91537000D01*
X116025000Y-91517000D01*
X116005000Y-91517000D01*
X116005000Y-91263000D01*
X116025000Y-91263000D01*
X116025000Y-91243000D01*
X116279000Y-91243000D01*
X116279000Y-91263000D01*
G36*
X115137302Y-85220648D02*
X115356258Y-85366950D01*
X115239585Y-85415158D01*
X114948181Y-85706054D01*
X114790280Y-86086323D01*
X114789921Y-86498071D01*
X114947158Y-86878615D01*
X115238054Y-87170019D01*
X115618323Y-87327920D01*
X116030071Y-87328279D01*
X116410615Y-87171042D01*
X116702019Y-86880146D01*
X116859920Y-86499877D01*
X116860066Y-86332936D01*
X117194702Y-85998300D01*
X121544504Y-85998300D01*
X121478035Y-86183223D01*
X121505222Y-86753454D01*
X121671136Y-87154005D01*
X121917255Y-87228139D01*
X122745395Y-86400000D01*
X122731253Y-86385858D01*
X122910858Y-86206253D01*
X122925000Y-86220395D01*
X122939143Y-86206253D01*
X123118748Y-86385858D01*
X123104605Y-86400000D01*
X123932745Y-87228139D01*
X124178864Y-87154005D01*
X124371965Y-86616777D01*
X124346073Y-86073700D01*
X125712480Y-86073700D01*
X125686381Y-86099754D01*
X125528480Y-86480023D01*
X125528334Y-86646964D01*
X124413198Y-87762100D01*
X123417701Y-87762100D01*
X123679005Y-87653864D01*
X123753139Y-87407745D01*
X122925000Y-86579605D01*
X122096861Y-87407745D01*
X122170995Y-87653864D01*
X122472119Y-87762100D01*
X117021000Y-87762100D01*
X116730161Y-87819952D01*
X116483599Y-87984699D01*
X114568100Y-89900198D01*
X114372000Y-89769168D01*
X114372000Y-85390832D01*
X114626698Y-85220648D01*
X114882000Y-84838562D01*
X115137302Y-85220648D01*
X115137302Y-85220648D01*
G37*
X115137302Y-85220648D02*
X115356258Y-85366950D01*
X115239585Y-85415158D01*
X114948181Y-85706054D01*
X114790280Y-86086323D01*
X114789921Y-86498071D01*
X114947158Y-86878615D01*
X115238054Y-87170019D01*
X115618323Y-87327920D01*
X116030071Y-87328279D01*
X116410615Y-87171042D01*
X116702019Y-86880146D01*
X116859920Y-86499877D01*
X116860066Y-86332936D01*
X117194702Y-85998300D01*
X121544504Y-85998300D01*
X121478035Y-86183223D01*
X121505222Y-86753454D01*
X121671136Y-87154005D01*
X121917255Y-87228139D01*
X122745395Y-86400000D01*
X122731253Y-86385858D01*
X122910858Y-86206253D01*
X122925000Y-86220395D01*
X122939143Y-86206253D01*
X123118748Y-86385858D01*
X123104605Y-86400000D01*
X123932745Y-87228139D01*
X124178864Y-87154005D01*
X124371965Y-86616777D01*
X124346073Y-86073700D01*
X125712480Y-86073700D01*
X125686381Y-86099754D01*
X125528480Y-86480023D01*
X125528334Y-86646964D01*
X124413198Y-87762100D01*
X123417701Y-87762100D01*
X123679005Y-87653864D01*
X123753139Y-87407745D01*
X122925000Y-86579605D01*
X122096861Y-87407745D01*
X122170995Y-87653864D01*
X122472119Y-87762100D01*
X117021000Y-87762100D01*
X116730161Y-87819952D01*
X116483599Y-87984699D01*
X114568100Y-89900198D01*
X114372000Y-89769168D01*
X114372000Y-85390832D01*
X114626698Y-85220648D01*
X114882000Y-84838562D01*
X115137302Y-85220648D01*
G36*
X121665200Y-64317798D02*
X121153899Y-64829099D01*
X120989152Y-65075661D01*
X120931300Y-65366500D01*
X120931300Y-67655118D01*
X120883946Y-67607681D01*
X120503677Y-67449780D01*
X120091929Y-67449421D01*
X119711385Y-67606658D01*
X119419981Y-67897554D01*
X119262080Y-68277823D01*
X119261721Y-68689571D01*
X119418958Y-69070115D01*
X119536900Y-69188263D01*
X119536900Y-72319998D01*
X117341237Y-74515661D01*
X117478000Y-74048200D01*
X117478000Y-73648200D01*
X116170000Y-73648200D01*
X116170000Y-75191115D01*
X116392039Y-75313104D01*
X116474819Y-75295567D01*
X116665926Y-75190972D01*
X111949199Y-79907699D01*
X111784452Y-80154261D01*
X111726600Y-80445100D01*
X111726600Y-82078742D01*
X111621151Y-82008283D01*
X111072000Y-81899050D01*
X110522849Y-82008283D01*
X110453000Y-82054955D01*
X110453000Y-75290705D01*
X110963000Y-75392150D01*
X111512151Y-75282917D01*
X111977698Y-74971848D01*
X112233000Y-74589762D01*
X112488302Y-74971848D01*
X112953849Y-75282917D01*
X113503000Y-75392150D01*
X114052151Y-75282917D01*
X114517698Y-74971848D01*
X114770507Y-74593493D01*
X115118104Y-75025700D01*
X115611181Y-75295567D01*
X115693961Y-75313104D01*
X115916000Y-75191115D01*
X115916000Y-73648200D01*
X115896000Y-73648200D01*
X115896000Y-73394200D01*
X115916000Y-73394200D01*
X115916000Y-71851285D01*
X116170000Y-71851285D01*
X116170000Y-73394200D01*
X117478000Y-73394200D01*
X117478000Y-72994200D01*
X117320166Y-72454717D01*
X116967896Y-72016700D01*
X116474819Y-71746833D01*
X116392039Y-71729296D01*
X116170000Y-71851285D01*
X115916000Y-71851285D01*
X115693961Y-71729296D01*
X115611181Y-71746833D01*
X115118104Y-72016700D01*
X114770507Y-72448907D01*
X114517698Y-72070552D01*
X114052151Y-71759483D01*
X113629908Y-71675494D01*
X121665200Y-63640202D01*
X121665200Y-64317798D01*
X121665200Y-64317798D01*
G37*
X121665200Y-64317798D02*
X121153899Y-64829099D01*
X120989152Y-65075661D01*
X120931300Y-65366500D01*
X120931300Y-67655118D01*
X120883946Y-67607681D01*
X120503677Y-67449780D01*
X120091929Y-67449421D01*
X119711385Y-67606658D01*
X119419981Y-67897554D01*
X119262080Y-68277823D01*
X119261721Y-68689571D01*
X119418958Y-69070115D01*
X119536900Y-69188263D01*
X119536900Y-72319998D01*
X117341237Y-74515661D01*
X117478000Y-74048200D01*
X117478000Y-73648200D01*
X116170000Y-73648200D01*
X116170000Y-75191115D01*
X116392039Y-75313104D01*
X116474819Y-75295567D01*
X116665926Y-75190972D01*
X111949199Y-79907699D01*
X111784452Y-80154261D01*
X111726600Y-80445100D01*
X111726600Y-82078742D01*
X111621151Y-82008283D01*
X111072000Y-81899050D01*
X110522849Y-82008283D01*
X110453000Y-82054955D01*
X110453000Y-75290705D01*
X110963000Y-75392150D01*
X111512151Y-75282917D01*
X111977698Y-74971848D01*
X112233000Y-74589762D01*
X112488302Y-74971848D01*
X112953849Y-75282917D01*
X113503000Y-75392150D01*
X114052151Y-75282917D01*
X114517698Y-74971848D01*
X114770507Y-74593493D01*
X115118104Y-75025700D01*
X115611181Y-75295567D01*
X115693961Y-75313104D01*
X115916000Y-75191115D01*
X115916000Y-73648200D01*
X115896000Y-73648200D01*
X115896000Y-73394200D01*
X115916000Y-73394200D01*
X115916000Y-71851285D01*
X116170000Y-71851285D01*
X116170000Y-73394200D01*
X117478000Y-73394200D01*
X117478000Y-72994200D01*
X117320166Y-72454717D01*
X116967896Y-72016700D01*
X116474819Y-71746833D01*
X116392039Y-71729296D01*
X116170000Y-71851285D01*
X115916000Y-71851285D01*
X115693961Y-71729296D01*
X115611181Y-71746833D01*
X115118104Y-72016700D01*
X114770507Y-72448907D01*
X114517698Y-72070552D01*
X114052151Y-71759483D01*
X113629908Y-71675494D01*
X121665200Y-63640202D01*
X121665200Y-64317798D01*
G36*
X145284500Y-67967802D02*
X145284500Y-72651798D01*
X140859900Y-77076398D01*
X140859900Y-75274897D01*
X141040181Y-75373567D01*
X141122961Y-75391104D01*
X141345000Y-75269115D01*
X141345000Y-73726200D01*
X141599000Y-73726200D01*
X141599000Y-75269115D01*
X141821039Y-75391104D01*
X141903819Y-75373567D01*
X142396896Y-75103700D01*
X142749166Y-74665683D01*
X142907000Y-74126200D01*
X142907000Y-73726200D01*
X141599000Y-73726200D01*
X141345000Y-73726200D01*
X141325000Y-73726200D01*
X141325000Y-73472200D01*
X141345000Y-73472200D01*
X141345000Y-71929285D01*
X141599000Y-71929285D01*
X141599000Y-73472200D01*
X142907000Y-73472200D01*
X142907000Y-73072200D01*
X142749166Y-72532717D01*
X142396896Y-72094700D01*
X141903819Y-71824833D01*
X141821039Y-71807296D01*
X141599000Y-71929285D01*
X141345000Y-71929285D01*
X141122961Y-71807296D01*
X141040181Y-71824833D01*
X140859900Y-71923503D01*
X140859900Y-71428231D01*
X141030171Y-71428379D01*
X141410715Y-71271142D01*
X141702119Y-70980246D01*
X141860020Y-70599977D01*
X141860379Y-70188229D01*
X141703142Y-69807685D01*
X141585200Y-69689537D01*
X141585200Y-68466102D01*
X142009401Y-68041901D01*
X142174148Y-67795340D01*
X142210085Y-67614675D01*
X142486698Y-67429848D01*
X142797767Y-66964301D01*
X142907000Y-66415150D01*
X142907000Y-65590302D01*
X145284500Y-67967802D01*
X145284500Y-67967802D01*
G37*
X145284500Y-67967802D02*
X145284500Y-72651798D01*
X140859900Y-77076398D01*
X140859900Y-75274897D01*
X141040181Y-75373567D01*
X141122961Y-75391104D01*
X141345000Y-75269115D01*
X141345000Y-73726200D01*
X141599000Y-73726200D01*
X141599000Y-75269115D01*
X141821039Y-75391104D01*
X141903819Y-75373567D01*
X142396896Y-75103700D01*
X142749166Y-74665683D01*
X142907000Y-74126200D01*
X142907000Y-73726200D01*
X141599000Y-73726200D01*
X141345000Y-73726200D01*
X141325000Y-73726200D01*
X141325000Y-73472200D01*
X141345000Y-73472200D01*
X141345000Y-71929285D01*
X141599000Y-71929285D01*
X141599000Y-73472200D01*
X142907000Y-73472200D01*
X142907000Y-73072200D01*
X142749166Y-72532717D01*
X142396896Y-72094700D01*
X141903819Y-71824833D01*
X141821039Y-71807296D01*
X141599000Y-71929285D01*
X141345000Y-71929285D01*
X141122961Y-71807296D01*
X141040181Y-71824833D01*
X140859900Y-71923503D01*
X140859900Y-71428231D01*
X141030171Y-71428379D01*
X141410715Y-71271142D01*
X141702119Y-70980246D01*
X141860020Y-70599977D01*
X141860379Y-70188229D01*
X141703142Y-69807685D01*
X141585200Y-69689537D01*
X141585200Y-68466102D01*
X142009401Y-68041901D01*
X142174148Y-67795340D01*
X142210085Y-67614675D01*
X142486698Y-67429848D01*
X142797767Y-66964301D01*
X142907000Y-66415150D01*
X142907000Y-65590302D01*
X145284500Y-67967802D01*
G36*
X68160022Y-71173524D02*
X68039481Y-71293854D01*
X67881580Y-71674123D01*
X67881221Y-72085871D01*
X68038458Y-72466415D01*
X68156400Y-72584563D01*
X68156400Y-76044798D01*
X67487801Y-75376199D01*
X67241239Y-75211452D01*
X67070062Y-75177403D01*
X67369896Y-75013300D01*
X67722166Y-74575283D01*
X67880000Y-74035800D01*
X67880000Y-73635800D01*
X66572000Y-73635800D01*
X66572000Y-73655800D01*
X66318000Y-73655800D01*
X66318000Y-73635800D01*
X66298000Y-73635800D01*
X66298000Y-73381800D01*
X66318000Y-73381800D01*
X66318000Y-71838885D01*
X66572000Y-71838885D01*
X66572000Y-73381800D01*
X67880000Y-73381800D01*
X67880000Y-72981800D01*
X67722166Y-72442317D01*
X67369896Y-72004300D01*
X66876819Y-71734433D01*
X66794039Y-71716896D01*
X66572000Y-71838885D01*
X66318000Y-71838885D01*
X66095961Y-71716896D01*
X66013181Y-71734433D01*
X65520104Y-72004300D01*
X65172507Y-72436507D01*
X64919698Y-72058152D01*
X64665000Y-71887968D01*
X64665000Y-68174100D01*
X65160598Y-68174100D01*
X68160022Y-71173524D01*
X68160022Y-71173524D01*
G37*
X68160022Y-71173524D02*
X68039481Y-71293854D01*
X67881580Y-71674123D01*
X67881221Y-72085871D01*
X68038458Y-72466415D01*
X68156400Y-72584563D01*
X68156400Y-76044798D01*
X67487801Y-75376199D01*
X67241239Y-75211452D01*
X67070062Y-75177403D01*
X67369896Y-75013300D01*
X67722166Y-74575283D01*
X67880000Y-74035800D01*
X67880000Y-73635800D01*
X66572000Y-73635800D01*
X66572000Y-73655800D01*
X66318000Y-73655800D01*
X66318000Y-73635800D01*
X66298000Y-73635800D01*
X66298000Y-73381800D01*
X66318000Y-73381800D01*
X66318000Y-71838885D01*
X66572000Y-71838885D01*
X66572000Y-73381800D01*
X67880000Y-73381800D01*
X67880000Y-72981800D01*
X67722166Y-72442317D01*
X67369896Y-72004300D01*
X66876819Y-71734433D01*
X66794039Y-71716896D01*
X66572000Y-71838885D01*
X66318000Y-71838885D01*
X66095961Y-71716896D01*
X66013181Y-71734433D01*
X65520104Y-72004300D01*
X65172507Y-72436507D01*
X64919698Y-72058152D01*
X64665000Y-71887968D01*
X64665000Y-68174100D01*
X65160598Y-68174100D01*
X68160022Y-71173524D01*
G36*
X91458100Y-55653000D02*
X91478100Y-55653000D01*
X91478100Y-55907000D01*
X91458100Y-55907000D01*
X91458100Y-57449915D01*
X91680139Y-57571904D01*
X91762919Y-57554367D01*
X92255996Y-57284500D01*
X92608266Y-56846483D01*
X92766100Y-56307000D01*
X92766100Y-56220002D01*
X95477000Y-58930902D01*
X95477000Y-59658060D01*
X95351577Y-59605980D01*
X94939829Y-59605621D01*
X94559285Y-59762858D01*
X94267881Y-60053754D01*
X94109980Y-60434023D01*
X94109621Y-60845771D01*
X94266858Y-61226315D01*
X94384800Y-61344463D01*
X94384800Y-73645198D01*
X93357200Y-74672798D01*
X93357200Y-61373300D01*
X93299348Y-61082461D01*
X93134601Y-60835899D01*
X92762235Y-60463533D01*
X92762379Y-60298329D01*
X92605142Y-59917785D01*
X92314246Y-59626381D01*
X91933977Y-59468480D01*
X91522229Y-59468121D01*
X91141685Y-59625358D01*
X90850281Y-59916254D01*
X90823700Y-59980268D01*
X90823700Y-57513001D01*
X90899281Y-57554367D01*
X90982061Y-57571904D01*
X91204100Y-57449915D01*
X91204100Y-55907000D01*
X91184100Y-55907000D01*
X91184100Y-55653000D01*
X91204100Y-55653000D01*
X91204100Y-55633000D01*
X91458100Y-55633000D01*
X91458100Y-55653000D01*
X91458100Y-55653000D01*
G37*
X91458100Y-55653000D02*
X91478100Y-55653000D01*
X91478100Y-55907000D01*
X91458100Y-55907000D01*
X91458100Y-57449915D01*
X91680139Y-57571904D01*
X91762919Y-57554367D01*
X92255996Y-57284500D01*
X92608266Y-56846483D01*
X92766100Y-56307000D01*
X92766100Y-56220002D01*
X95477000Y-58930902D01*
X95477000Y-59658060D01*
X95351577Y-59605980D01*
X94939829Y-59605621D01*
X94559285Y-59762858D01*
X94267881Y-60053754D01*
X94109980Y-60434023D01*
X94109621Y-60845771D01*
X94266858Y-61226315D01*
X94384800Y-61344463D01*
X94384800Y-73645198D01*
X93357200Y-74672798D01*
X93357200Y-61373300D01*
X93299348Y-61082461D01*
X93134601Y-60835899D01*
X92762235Y-60463533D01*
X92762379Y-60298329D01*
X92605142Y-59917785D01*
X92314246Y-59626381D01*
X91933977Y-59468480D01*
X91522229Y-59468121D01*
X91141685Y-59625358D01*
X90850281Y-59916254D01*
X90823700Y-59980268D01*
X90823700Y-57513001D01*
X90899281Y-57554367D01*
X90982061Y-57571904D01*
X91204100Y-57449915D01*
X91204100Y-55907000D01*
X91184100Y-55907000D01*
X91184100Y-55653000D01*
X91204100Y-55653000D01*
X91204100Y-55633000D01*
X91458100Y-55633000D01*
X91458100Y-55653000D01*
G36*
X90916449Y-67836717D02*
X91465600Y-67945950D01*
X91837200Y-67872034D01*
X91837200Y-71907876D01*
X91814639Y-71903096D01*
X91592600Y-72025085D01*
X91592600Y-73568000D01*
X91612600Y-73568000D01*
X91612600Y-73822000D01*
X91592600Y-73822000D01*
X91592600Y-73842000D01*
X91338600Y-73842000D01*
X91338600Y-73822000D01*
X91318600Y-73822000D01*
X91318600Y-73568000D01*
X91338600Y-73568000D01*
X91338600Y-72025085D01*
X91116561Y-71903096D01*
X91033781Y-71920633D01*
X90823700Y-72035613D01*
X90823700Y-67774744D01*
X90916449Y-67836717D01*
X90916449Y-67836717D01*
G37*
X90916449Y-67836717D02*
X91465600Y-67945950D01*
X91837200Y-67872034D01*
X91837200Y-71907876D01*
X91814639Y-71903096D01*
X91592600Y-72025085D01*
X91592600Y-73568000D01*
X91612600Y-73568000D01*
X91612600Y-73822000D01*
X91592600Y-73822000D01*
X91592600Y-73842000D01*
X91338600Y-73842000D01*
X91338600Y-73822000D01*
X91318600Y-73822000D01*
X91318600Y-73568000D01*
X91338600Y-73568000D01*
X91338600Y-72025085D01*
X91116561Y-71903096D01*
X91033781Y-71920633D01*
X90823700Y-72035613D01*
X90823700Y-67774744D01*
X90916449Y-67836717D01*
G36*
X123018748Y-68535858D02*
X123004605Y-68550000D01*
X123018748Y-68564143D01*
X122839142Y-68743748D01*
X122825000Y-68729605D01*
X122810858Y-68743748D01*
X122631253Y-68564143D01*
X122645395Y-68550000D01*
X122631253Y-68535858D01*
X122810858Y-68356253D01*
X122825000Y-68370395D01*
X122839142Y-68356252D01*
X123018748Y-68535858D01*
X123018748Y-68535858D01*
G37*
X123018748Y-68535858D02*
X123004605Y-68550000D01*
X123018748Y-68564143D01*
X122839142Y-68743748D01*
X122825000Y-68729605D01*
X122810858Y-68743748D01*
X122631253Y-68564143D01*
X122645395Y-68550000D01*
X122631253Y-68535858D01*
X122810858Y-68356253D01*
X122825000Y-68370395D01*
X122839142Y-68356252D01*
X123018748Y-68535858D01*
G36*
X97593748Y-68410858D02*
X97579605Y-68425000D01*
X97593748Y-68439143D01*
X97414142Y-68618748D01*
X97400000Y-68604605D01*
X97385858Y-68618748D01*
X97206253Y-68439143D01*
X97220395Y-68425000D01*
X97206253Y-68410858D01*
X97385858Y-68231253D01*
X97400000Y-68245395D01*
X97414142Y-68231252D01*
X97593748Y-68410858D01*
X97593748Y-68410858D01*
G37*
X97593748Y-68410858D02*
X97579605Y-68425000D01*
X97593748Y-68439143D01*
X97414142Y-68618748D01*
X97400000Y-68604605D01*
X97385858Y-68618748D01*
X97206253Y-68439143D01*
X97220395Y-68425000D01*
X97206253Y-68410858D01*
X97385858Y-68231253D01*
X97400000Y-68245395D01*
X97414142Y-68231252D01*
X97593748Y-68410858D01*
G36*
X152986302Y-39600648D02*
X153451849Y-39911717D01*
X154001000Y-40020950D01*
X154402500Y-39941087D01*
X154402500Y-42690698D01*
X150887599Y-46205599D01*
X150722852Y-46452161D01*
X150686915Y-46632825D01*
X150410302Y-46817652D01*
X150099233Y-47283199D01*
X149990000Y-47832350D01*
X149990000Y-48704250D01*
X150099233Y-49253401D01*
X150410302Y-49718948D01*
X150875849Y-50030017D01*
X151425000Y-50139250D01*
X151974151Y-50030017D01*
X152439698Y-49718948D01*
X152695000Y-49336862D01*
X152950302Y-49718948D01*
X153205000Y-49889132D01*
X153205000Y-51508198D01*
X150887599Y-53825599D01*
X150743767Y-54040860D01*
X150625000Y-54040860D01*
X150377235Y-54090143D01*
X150167191Y-54230491D01*
X150026843Y-54440535D01*
X149977560Y-54688300D01*
X149977560Y-57088300D01*
X150026843Y-57336065D01*
X150167191Y-57546109D01*
X150377235Y-57686457D01*
X150625000Y-57735740D01*
X152225000Y-57735740D01*
X152472765Y-57686457D01*
X152682809Y-57546109D01*
X152823157Y-57336065D01*
X152851882Y-57191652D01*
X152950302Y-57338948D01*
X153242266Y-57534032D01*
X151782498Y-58993800D01*
X148274461Y-58993800D01*
X148157746Y-58876881D01*
X147777477Y-58718980D01*
X147365729Y-58718621D01*
X146985185Y-58875858D01*
X146693781Y-59166754D01*
X146535880Y-59547023D01*
X146535521Y-59958771D01*
X146692758Y-60339315D01*
X146983654Y-60630719D01*
X147363923Y-60788620D01*
X147775671Y-60788979D01*
X148156215Y-60631742D01*
X148274363Y-60513800D01*
X152097300Y-60513800D01*
X152111778Y-60510920D01*
X146044500Y-66578198D01*
X145175178Y-65708876D01*
X145295819Y-65588446D01*
X145453720Y-65208177D01*
X145453866Y-65041236D01*
X146273501Y-64221601D01*
X146438248Y-63975039D01*
X146496100Y-63684200D01*
X146496100Y-51882745D01*
X147321861Y-51882745D01*
X147395995Y-52128864D01*
X147933223Y-52321965D01*
X148503454Y-52294778D01*
X148904005Y-52128864D01*
X148978139Y-51882745D01*
X148150000Y-51054605D01*
X147321861Y-51882745D01*
X146496100Y-51882745D01*
X146496100Y-50658223D01*
X146703035Y-50658223D01*
X146730222Y-51228454D01*
X146896136Y-51629005D01*
X147142255Y-51703139D01*
X147970395Y-50875000D01*
X148329605Y-50875000D01*
X149157745Y-51703139D01*
X149403864Y-51629005D01*
X149596965Y-51091777D01*
X149569778Y-50521546D01*
X149403864Y-50120995D01*
X149157745Y-50046861D01*
X148329605Y-50875000D01*
X147970395Y-50875000D01*
X147142255Y-50046861D01*
X146896136Y-50120995D01*
X146703035Y-50658223D01*
X146496100Y-50658223D01*
X146496100Y-48659187D01*
X146714752Y-48659187D01*
X146932757Y-49186800D01*
X147336077Y-49590824D01*
X147402544Y-49618423D01*
X147395995Y-49621136D01*
X147321861Y-49867255D01*
X148150000Y-50695395D01*
X148978139Y-49867255D01*
X148904005Y-49621136D01*
X148897517Y-49618804D01*
X148961800Y-49592243D01*
X149365824Y-49188923D01*
X149584750Y-48661691D01*
X149585248Y-48090813D01*
X149367243Y-47563200D01*
X148963923Y-47159176D01*
X148436691Y-46940250D01*
X147865813Y-46939752D01*
X147338200Y-47157757D01*
X146934176Y-47561077D01*
X146715250Y-48088309D01*
X146714752Y-48659187D01*
X146496100Y-48659187D01*
X146496100Y-45715002D01*
X151998401Y-40212701D01*
X152142234Y-39997440D01*
X152261000Y-39997440D01*
X152508765Y-39948157D01*
X152718809Y-39807809D01*
X152859157Y-39597765D01*
X152887882Y-39453352D01*
X152986302Y-39600648D01*
X152986302Y-39600648D01*
G37*
X152986302Y-39600648D02*
X153451849Y-39911717D01*
X154001000Y-40020950D01*
X154402500Y-39941087D01*
X154402500Y-42690698D01*
X150887599Y-46205599D01*
X150722852Y-46452161D01*
X150686915Y-46632825D01*
X150410302Y-46817652D01*
X150099233Y-47283199D01*
X149990000Y-47832350D01*
X149990000Y-48704250D01*
X150099233Y-49253401D01*
X150410302Y-49718948D01*
X150875849Y-50030017D01*
X151425000Y-50139250D01*
X151974151Y-50030017D01*
X152439698Y-49718948D01*
X152695000Y-49336862D01*
X152950302Y-49718948D01*
X153205000Y-49889132D01*
X153205000Y-51508198D01*
X150887599Y-53825599D01*
X150743767Y-54040860D01*
X150625000Y-54040860D01*
X150377235Y-54090143D01*
X150167191Y-54230491D01*
X150026843Y-54440535D01*
X149977560Y-54688300D01*
X149977560Y-57088300D01*
X150026843Y-57336065D01*
X150167191Y-57546109D01*
X150377235Y-57686457D01*
X150625000Y-57735740D01*
X152225000Y-57735740D01*
X152472765Y-57686457D01*
X152682809Y-57546109D01*
X152823157Y-57336065D01*
X152851882Y-57191652D01*
X152950302Y-57338948D01*
X153242266Y-57534032D01*
X151782498Y-58993800D01*
X148274461Y-58993800D01*
X148157746Y-58876881D01*
X147777477Y-58718980D01*
X147365729Y-58718621D01*
X146985185Y-58875858D01*
X146693781Y-59166754D01*
X146535880Y-59547023D01*
X146535521Y-59958771D01*
X146692758Y-60339315D01*
X146983654Y-60630719D01*
X147363923Y-60788620D01*
X147775671Y-60788979D01*
X148156215Y-60631742D01*
X148274363Y-60513800D01*
X152097300Y-60513800D01*
X152111778Y-60510920D01*
X146044500Y-66578198D01*
X145175178Y-65708876D01*
X145295819Y-65588446D01*
X145453720Y-65208177D01*
X145453866Y-65041236D01*
X146273501Y-64221601D01*
X146438248Y-63975039D01*
X146496100Y-63684200D01*
X146496100Y-51882745D01*
X147321861Y-51882745D01*
X147395995Y-52128864D01*
X147933223Y-52321965D01*
X148503454Y-52294778D01*
X148904005Y-52128864D01*
X148978139Y-51882745D01*
X148150000Y-51054605D01*
X147321861Y-51882745D01*
X146496100Y-51882745D01*
X146496100Y-50658223D01*
X146703035Y-50658223D01*
X146730222Y-51228454D01*
X146896136Y-51629005D01*
X147142255Y-51703139D01*
X147970395Y-50875000D01*
X148329605Y-50875000D01*
X149157745Y-51703139D01*
X149403864Y-51629005D01*
X149596965Y-51091777D01*
X149569778Y-50521546D01*
X149403864Y-50120995D01*
X149157745Y-50046861D01*
X148329605Y-50875000D01*
X147970395Y-50875000D01*
X147142255Y-50046861D01*
X146896136Y-50120995D01*
X146703035Y-50658223D01*
X146496100Y-50658223D01*
X146496100Y-48659187D01*
X146714752Y-48659187D01*
X146932757Y-49186800D01*
X147336077Y-49590824D01*
X147402544Y-49618423D01*
X147395995Y-49621136D01*
X147321861Y-49867255D01*
X148150000Y-50695395D01*
X148978139Y-49867255D01*
X148904005Y-49621136D01*
X148897517Y-49618804D01*
X148961800Y-49592243D01*
X149365824Y-49188923D01*
X149584750Y-48661691D01*
X149585248Y-48090813D01*
X149367243Y-47563200D01*
X148963923Y-47159176D01*
X148436691Y-46940250D01*
X147865813Y-46939752D01*
X147338200Y-47157757D01*
X146934176Y-47561077D01*
X146715250Y-48088309D01*
X146714752Y-48659187D01*
X146496100Y-48659187D01*
X146496100Y-45715002D01*
X151998401Y-40212701D01*
X152142234Y-39997440D01*
X152261000Y-39997440D01*
X152508765Y-39948157D01*
X152718809Y-39807809D01*
X152859157Y-39597765D01*
X152887882Y-39453352D01*
X152986302Y-39600648D01*
G36*
X141809000Y-55761300D02*
X141829000Y-55761300D01*
X141829000Y-56015300D01*
X141809000Y-56015300D01*
X141809000Y-57558215D01*
X142031039Y-57680204D01*
X142113819Y-57662667D01*
X142485000Y-57459515D01*
X142485000Y-64527417D01*
X142021151Y-64217483D01*
X141472000Y-64108250D01*
X141035400Y-64195095D01*
X141035400Y-57545115D01*
X141250181Y-57662667D01*
X141332961Y-57680204D01*
X141555000Y-57558215D01*
X141555000Y-56015300D01*
X141535000Y-56015300D01*
X141535000Y-55761300D01*
X141555000Y-55761300D01*
X141555000Y-55741300D01*
X141809000Y-55741300D01*
X141809000Y-55761300D01*
X141809000Y-55761300D01*
G37*
X141809000Y-55761300D02*
X141829000Y-55761300D01*
X141829000Y-56015300D01*
X141809000Y-56015300D01*
X141809000Y-57558215D01*
X142031039Y-57680204D01*
X142113819Y-57662667D01*
X142485000Y-57459515D01*
X142485000Y-64527417D01*
X142021151Y-64217483D01*
X141472000Y-64108250D01*
X141035400Y-64195095D01*
X141035400Y-57545115D01*
X141250181Y-57662667D01*
X141332961Y-57680204D01*
X141555000Y-57558215D01*
X141555000Y-56015300D01*
X141535000Y-56015300D01*
X141535000Y-55761300D01*
X141555000Y-55761300D01*
X141555000Y-55741300D01*
X141809000Y-55741300D01*
X141809000Y-55761300D01*
G36*
X118648200Y-59534998D02*
X114321399Y-63861799D01*
X114156652Y-64108361D01*
X114138928Y-64197466D01*
X114052151Y-64139483D01*
X113628407Y-64055195D01*
X115171101Y-62512502D01*
X115281180Y-62347755D01*
X115335848Y-62265939D01*
X115393700Y-61975100D01*
X115393700Y-57454737D01*
X115611181Y-57573767D01*
X115693961Y-57591304D01*
X115916000Y-57469315D01*
X115916000Y-55926400D01*
X116170000Y-55926400D01*
X116170000Y-57469315D01*
X116392039Y-57591304D01*
X116474819Y-57573767D01*
X116967896Y-57303900D01*
X117320166Y-56865883D01*
X117478000Y-56326400D01*
X117478000Y-55926400D01*
X116170000Y-55926400D01*
X115916000Y-55926400D01*
X115896000Y-55926400D01*
X115896000Y-55672400D01*
X115916000Y-55672400D01*
X115916000Y-54129485D01*
X116170000Y-54129485D01*
X116170000Y-55672400D01*
X117478000Y-55672400D01*
X117478000Y-55272400D01*
X117320166Y-54732917D01*
X116967896Y-54294900D01*
X116474819Y-54025033D01*
X116392039Y-54007496D01*
X116170000Y-54129485D01*
X115916000Y-54129485D01*
X115693961Y-54007496D01*
X115611181Y-54025033D01*
X115393700Y-54144063D01*
X115393700Y-49874199D01*
X115493849Y-49941117D01*
X116043000Y-50050350D01*
X116592151Y-49941117D01*
X117057698Y-49630048D01*
X117368767Y-49164501D01*
X117478000Y-48615350D01*
X117478000Y-47743450D01*
X117368767Y-47194299D01*
X117057698Y-46728752D01*
X116803000Y-46558568D01*
X116803000Y-44939902D01*
X118648200Y-43094702D01*
X118648200Y-59534998D01*
X118648200Y-59534998D01*
G37*
X118648200Y-59534998D02*
X114321399Y-63861799D01*
X114156652Y-64108361D01*
X114138928Y-64197466D01*
X114052151Y-64139483D01*
X113628407Y-64055195D01*
X115171101Y-62512502D01*
X115281180Y-62347755D01*
X115335848Y-62265939D01*
X115393700Y-61975100D01*
X115393700Y-57454737D01*
X115611181Y-57573767D01*
X115693961Y-57591304D01*
X115916000Y-57469315D01*
X115916000Y-55926400D01*
X116170000Y-55926400D01*
X116170000Y-57469315D01*
X116392039Y-57591304D01*
X116474819Y-57573767D01*
X116967896Y-57303900D01*
X117320166Y-56865883D01*
X117478000Y-56326400D01*
X117478000Y-55926400D01*
X116170000Y-55926400D01*
X115916000Y-55926400D01*
X115896000Y-55926400D01*
X115896000Y-55672400D01*
X115916000Y-55672400D01*
X115916000Y-54129485D01*
X116170000Y-54129485D01*
X116170000Y-55672400D01*
X117478000Y-55672400D01*
X117478000Y-55272400D01*
X117320166Y-54732917D01*
X116967896Y-54294900D01*
X116474819Y-54025033D01*
X116392039Y-54007496D01*
X116170000Y-54129485D01*
X115916000Y-54129485D01*
X115693961Y-54007496D01*
X115611181Y-54025033D01*
X115393700Y-54144063D01*
X115393700Y-49874199D01*
X115493849Y-49941117D01*
X116043000Y-50050350D01*
X116592151Y-49941117D01*
X117057698Y-49630048D01*
X117368767Y-49164501D01*
X117478000Y-48615350D01*
X117478000Y-47743450D01*
X117368767Y-47194299D01*
X117057698Y-46728752D01*
X116803000Y-46558568D01*
X116803000Y-44939902D01*
X118648200Y-43094702D01*
X118648200Y-59534998D01*
G36*
X176748946Y-46021715D02*
X176635907Y-46590000D01*
X176748946Y-47158285D01*
X176979405Y-47503193D01*
X168100000Y-56382598D01*
X168100000Y-56015300D01*
X166792000Y-56015300D01*
X166792000Y-57558215D01*
X166877441Y-57605157D01*
X161486798Y-62995800D01*
X160727561Y-62995800D01*
X160610846Y-62878881D01*
X160230577Y-62720980D01*
X159818829Y-62720621D01*
X159528193Y-62840709D01*
X163171302Y-59197600D01*
X163604700Y-59197600D01*
X163895539Y-59139748D01*
X164142101Y-58975001D01*
X165733060Y-57384042D01*
X165740104Y-57392800D01*
X166233181Y-57662667D01*
X166315961Y-57680204D01*
X166538000Y-57558215D01*
X166538000Y-56015300D01*
X166518000Y-56015300D01*
X166518000Y-55761300D01*
X166538000Y-55761300D01*
X166538000Y-55741300D01*
X166792000Y-55741300D01*
X166792000Y-55761300D01*
X168100000Y-55761300D01*
X168100000Y-55361300D01*
X167942166Y-54821817D01*
X167589896Y-54383800D01*
X167487641Y-54327835D01*
X167675915Y-54250042D01*
X167967319Y-53959146D01*
X168125220Y-53578877D01*
X168125579Y-53167129D01*
X167968342Y-52786585D01*
X167677446Y-52495181D01*
X167297177Y-52337280D01*
X166885429Y-52336921D01*
X166540431Y-52479471D01*
X173034602Y-45985300D01*
X176773278Y-45985300D01*
X176748946Y-46021715D01*
X176748946Y-46021715D01*
G37*
X176748946Y-46021715D02*
X176635907Y-46590000D01*
X176748946Y-47158285D01*
X176979405Y-47503193D01*
X168100000Y-56382598D01*
X168100000Y-56015300D01*
X166792000Y-56015300D01*
X166792000Y-57558215D01*
X166877441Y-57605157D01*
X161486798Y-62995800D01*
X160727561Y-62995800D01*
X160610846Y-62878881D01*
X160230577Y-62720980D01*
X159818829Y-62720621D01*
X159528193Y-62840709D01*
X163171302Y-59197600D01*
X163604700Y-59197600D01*
X163895539Y-59139748D01*
X164142101Y-58975001D01*
X165733060Y-57384042D01*
X165740104Y-57392800D01*
X166233181Y-57662667D01*
X166315961Y-57680204D01*
X166538000Y-57558215D01*
X166538000Y-56015300D01*
X166518000Y-56015300D01*
X166518000Y-55761300D01*
X166538000Y-55761300D01*
X166538000Y-55741300D01*
X166792000Y-55741300D01*
X166792000Y-55761300D01*
X168100000Y-55761300D01*
X168100000Y-55361300D01*
X167942166Y-54821817D01*
X167589896Y-54383800D01*
X167487641Y-54327835D01*
X167675915Y-54250042D01*
X167967319Y-53959146D01*
X168125220Y-53578877D01*
X168125579Y-53167129D01*
X167968342Y-52786585D01*
X167677446Y-52495181D01*
X167297177Y-52337280D01*
X166885429Y-52336921D01*
X166540431Y-52479471D01*
X173034602Y-45985300D01*
X176773278Y-45985300D01*
X176748946Y-46021715D01*
G36*
X152995023Y-36693525D02*
X152986302Y-36699352D01*
X152887882Y-36846648D01*
X152859157Y-36702235D01*
X152718809Y-36492191D01*
X152508765Y-36351843D01*
X152261000Y-36302560D01*
X150661000Y-36302560D01*
X150413235Y-36351843D01*
X150203191Y-36492191D01*
X150062843Y-36702235D01*
X150013560Y-36950000D01*
X150013560Y-39350000D01*
X150062843Y-39597765D01*
X150203191Y-39807809D01*
X150233462Y-39828036D01*
X145198699Y-44862799D01*
X145033952Y-45109361D01*
X144976100Y-45400200D01*
X144976100Y-60881170D01*
X144900100Y-60805037D01*
X144900100Y-52251700D01*
X144872678Y-52113840D01*
X144842248Y-51960860D01*
X144677501Y-51714299D01*
X142687977Y-49724775D01*
X142696698Y-49718948D01*
X143007767Y-49253401D01*
X143117000Y-48704250D01*
X143117000Y-47832350D01*
X143007767Y-47283199D01*
X142696698Y-46817652D01*
X142231151Y-46506583D01*
X141682000Y-46397350D01*
X141132849Y-46506583D01*
X140667302Y-46817652D01*
X140412000Y-47199738D01*
X140156698Y-46817652D01*
X139691151Y-46506583D01*
X139142000Y-46397350D01*
X138622800Y-46500625D01*
X138622800Y-43476100D01*
X138585782Y-43290000D01*
X138564948Y-43185260D01*
X138400201Y-42938699D01*
X134967977Y-39506475D01*
X134976698Y-39500648D01*
X135232000Y-39118562D01*
X135487302Y-39500648D01*
X135952849Y-39811717D01*
X136502000Y-39920950D01*
X137051151Y-39811717D01*
X137516698Y-39500648D01*
X137772000Y-39118562D01*
X138027302Y-39500648D01*
X138492849Y-39811717D01*
X139042000Y-39920950D01*
X139591151Y-39811717D01*
X140056698Y-39500648D01*
X140309507Y-39122293D01*
X140657104Y-39554500D01*
X141150181Y-39824367D01*
X141232961Y-39841904D01*
X141455000Y-39719915D01*
X141455000Y-38177000D01*
X141709000Y-38177000D01*
X141709000Y-39719915D01*
X141931039Y-39841904D01*
X142013819Y-39824367D01*
X142506896Y-39554500D01*
X142859166Y-39116483D01*
X143017000Y-38577000D01*
X143017000Y-38177000D01*
X141709000Y-38177000D01*
X141455000Y-38177000D01*
X141435000Y-38177000D01*
X141435000Y-37923000D01*
X141455000Y-37923000D01*
X141455000Y-36380085D01*
X141709000Y-36380085D01*
X141709000Y-37923000D01*
X143017000Y-37923000D01*
X143017000Y-37523000D01*
X142859166Y-36983517D01*
X142506896Y-36545500D01*
X142013819Y-36275633D01*
X141931039Y-36258096D01*
X141709000Y-36380085D01*
X141455000Y-36380085D01*
X141232961Y-36258096D01*
X141150181Y-36275633D01*
X140657104Y-36545500D01*
X140309507Y-36977707D01*
X140056698Y-36599352D01*
X139591151Y-36288283D01*
X139042000Y-36179050D01*
X138492849Y-36288283D01*
X138027302Y-36599352D01*
X137772000Y-36981438D01*
X137516698Y-36599352D01*
X137051151Y-36288283D01*
X136502000Y-36179050D01*
X135952849Y-36288283D01*
X135487302Y-36599352D01*
X135232000Y-36981438D01*
X134976698Y-36599352D01*
X134682576Y-36402826D01*
X135715302Y-35370100D01*
X151671598Y-35370100D01*
X152995023Y-36693525D01*
X152995023Y-36693525D01*
G37*
X152995023Y-36693525D02*
X152986302Y-36699352D01*
X152887882Y-36846648D01*
X152859157Y-36702235D01*
X152718809Y-36492191D01*
X152508765Y-36351843D01*
X152261000Y-36302560D01*
X150661000Y-36302560D01*
X150413235Y-36351843D01*
X150203191Y-36492191D01*
X150062843Y-36702235D01*
X150013560Y-36950000D01*
X150013560Y-39350000D01*
X150062843Y-39597765D01*
X150203191Y-39807809D01*
X150233462Y-39828036D01*
X145198699Y-44862799D01*
X145033952Y-45109361D01*
X144976100Y-45400200D01*
X144976100Y-60881170D01*
X144900100Y-60805037D01*
X144900100Y-52251700D01*
X144872678Y-52113840D01*
X144842248Y-51960860D01*
X144677501Y-51714299D01*
X142687977Y-49724775D01*
X142696698Y-49718948D01*
X143007767Y-49253401D01*
X143117000Y-48704250D01*
X143117000Y-47832350D01*
X143007767Y-47283199D01*
X142696698Y-46817652D01*
X142231151Y-46506583D01*
X141682000Y-46397350D01*
X141132849Y-46506583D01*
X140667302Y-46817652D01*
X140412000Y-47199738D01*
X140156698Y-46817652D01*
X139691151Y-46506583D01*
X139142000Y-46397350D01*
X138622800Y-46500625D01*
X138622800Y-43476100D01*
X138585782Y-43290000D01*
X138564948Y-43185260D01*
X138400201Y-42938699D01*
X134967977Y-39506475D01*
X134976698Y-39500648D01*
X135232000Y-39118562D01*
X135487302Y-39500648D01*
X135952849Y-39811717D01*
X136502000Y-39920950D01*
X137051151Y-39811717D01*
X137516698Y-39500648D01*
X137772000Y-39118562D01*
X138027302Y-39500648D01*
X138492849Y-39811717D01*
X139042000Y-39920950D01*
X139591151Y-39811717D01*
X140056698Y-39500648D01*
X140309507Y-39122293D01*
X140657104Y-39554500D01*
X141150181Y-39824367D01*
X141232961Y-39841904D01*
X141455000Y-39719915D01*
X141455000Y-38177000D01*
X141709000Y-38177000D01*
X141709000Y-39719915D01*
X141931039Y-39841904D01*
X142013819Y-39824367D01*
X142506896Y-39554500D01*
X142859166Y-39116483D01*
X143017000Y-38577000D01*
X143017000Y-38177000D01*
X141709000Y-38177000D01*
X141455000Y-38177000D01*
X141435000Y-38177000D01*
X141435000Y-37923000D01*
X141455000Y-37923000D01*
X141455000Y-36380085D01*
X141709000Y-36380085D01*
X141709000Y-37923000D01*
X143017000Y-37923000D01*
X143017000Y-37523000D01*
X142859166Y-36983517D01*
X142506896Y-36545500D01*
X142013819Y-36275633D01*
X141931039Y-36258096D01*
X141709000Y-36380085D01*
X141455000Y-36380085D01*
X141232961Y-36258096D01*
X141150181Y-36275633D01*
X140657104Y-36545500D01*
X140309507Y-36977707D01*
X140056698Y-36599352D01*
X139591151Y-36288283D01*
X139042000Y-36179050D01*
X138492849Y-36288283D01*
X138027302Y-36599352D01*
X137772000Y-36981438D01*
X137516698Y-36599352D01*
X137051151Y-36288283D01*
X136502000Y-36179050D01*
X135952849Y-36288283D01*
X135487302Y-36599352D01*
X135232000Y-36981438D01*
X134976698Y-36599352D01*
X134682576Y-36402826D01*
X135715302Y-35370100D01*
X151671598Y-35370100D01*
X152995023Y-36693525D01*
G36*
X67757000Y-55184352D02*
X67604066Y-54661617D01*
X67251796Y-54223600D01*
X66758719Y-53953733D01*
X66675939Y-53936196D01*
X66453900Y-54058185D01*
X66453900Y-55601100D01*
X66473900Y-55601100D01*
X66473900Y-55855100D01*
X66453900Y-55855100D01*
X66453900Y-57398015D01*
X66515461Y-57431837D01*
X65940100Y-58007198D01*
X65940100Y-57512004D01*
X65977861Y-57520004D01*
X66199900Y-57398015D01*
X66199900Y-55855100D01*
X66179900Y-55855100D01*
X66179900Y-55601100D01*
X66199900Y-55601100D01*
X66199900Y-54058185D01*
X65977861Y-53936196D01*
X65940100Y-53944196D01*
X65940100Y-52763102D01*
X67757000Y-50946202D01*
X67757000Y-55184352D01*
X67757000Y-55184352D01*
G37*
X67757000Y-55184352D02*
X67604066Y-54661617D01*
X67251796Y-54223600D01*
X66758719Y-53953733D01*
X66675939Y-53936196D01*
X66453900Y-54058185D01*
X66453900Y-55601100D01*
X66473900Y-55601100D01*
X66473900Y-55855100D01*
X66453900Y-55855100D01*
X66453900Y-57398015D01*
X66515461Y-57431837D01*
X65940100Y-58007198D01*
X65940100Y-57512004D01*
X65977861Y-57520004D01*
X66199900Y-57398015D01*
X66199900Y-55855100D01*
X66179900Y-55855100D01*
X66179900Y-55601100D01*
X66199900Y-55601100D01*
X66199900Y-54058185D01*
X65977861Y-53936196D01*
X65940100Y-53944196D01*
X65940100Y-52763102D01*
X67757000Y-50946202D01*
X67757000Y-55184352D01*
G36*
X95001799Y-49855101D02*
X95248360Y-50019848D01*
X95296614Y-50029446D01*
X95539200Y-50077700D01*
X96089810Y-50077700D01*
X95953035Y-50458223D01*
X95980222Y-51028454D01*
X96146136Y-51429005D01*
X96392255Y-51503139D01*
X97220395Y-50675000D01*
X97206252Y-50660858D01*
X97385858Y-50481252D01*
X97400000Y-50495395D01*
X97414142Y-50481252D01*
X97593748Y-50660858D01*
X97579605Y-50675000D01*
X98407745Y-51503139D01*
X98653864Y-51429005D01*
X98846965Y-50891777D01*
X98819778Y-50321546D01*
X98653864Y-49920995D01*
X98429414Y-49853388D01*
X99417682Y-48865120D01*
X99477233Y-49164501D01*
X99788302Y-49630048D01*
X100064915Y-49814875D01*
X100100852Y-49995539D01*
X100265599Y-50242101D01*
X100512161Y-50406848D01*
X100803000Y-50464700D01*
X100871498Y-50464700D01*
X103114998Y-52708200D01*
X95428802Y-52708200D01*
X94403347Y-51682745D01*
X96571861Y-51682745D01*
X96645995Y-51928864D01*
X97183223Y-52121965D01*
X97753454Y-52094778D01*
X98154005Y-51928864D01*
X98228139Y-51682745D01*
X97400000Y-50854605D01*
X96571861Y-51682745D01*
X94403347Y-51682745D01*
X92337077Y-49616475D01*
X92345798Y-49610648D01*
X92656867Y-49145101D01*
X92766100Y-48595950D01*
X92766100Y-47724050D01*
X92740116Y-47593418D01*
X95001799Y-49855101D01*
X95001799Y-49855101D01*
G37*
X95001799Y-49855101D02*
X95248360Y-50019848D01*
X95296614Y-50029446D01*
X95539200Y-50077700D01*
X96089810Y-50077700D01*
X95953035Y-50458223D01*
X95980222Y-51028454D01*
X96146136Y-51429005D01*
X96392255Y-51503139D01*
X97220395Y-50675000D01*
X97206252Y-50660858D01*
X97385858Y-50481252D01*
X97400000Y-50495395D01*
X97414142Y-50481252D01*
X97593748Y-50660858D01*
X97579605Y-50675000D01*
X98407745Y-51503139D01*
X98653864Y-51429005D01*
X98846965Y-50891777D01*
X98819778Y-50321546D01*
X98653864Y-49920995D01*
X98429414Y-49853388D01*
X99417682Y-48865120D01*
X99477233Y-49164501D01*
X99788302Y-49630048D01*
X100064915Y-49814875D01*
X100100852Y-49995539D01*
X100265599Y-50242101D01*
X100512161Y-50406848D01*
X100803000Y-50464700D01*
X100871498Y-50464700D01*
X103114998Y-52708200D01*
X95428802Y-52708200D01*
X94403347Y-51682745D01*
X96571861Y-51682745D01*
X96645995Y-51928864D01*
X97183223Y-52121965D01*
X97753454Y-52094778D01*
X98154005Y-51928864D01*
X98228139Y-51682745D01*
X97400000Y-50854605D01*
X96571861Y-51682745D01*
X94403347Y-51682745D01*
X92337077Y-49616475D01*
X92345798Y-49610648D01*
X92656867Y-49145101D01*
X92766100Y-48595950D01*
X92766100Y-47724050D01*
X92740116Y-47593418D01*
X95001799Y-49855101D01*
G36*
X123100000Y-50620395D02*
X123114143Y-50606253D01*
X123293748Y-50785858D01*
X123279605Y-50800000D01*
X123293748Y-50814143D01*
X123114142Y-50993748D01*
X123100000Y-50979605D01*
X123085858Y-50993748D01*
X122906252Y-50814142D01*
X122920395Y-50800000D01*
X122906252Y-50785858D01*
X123085858Y-50606252D01*
X123100000Y-50620395D01*
X123100000Y-50620395D01*
G37*
X123100000Y-50620395D02*
X123114143Y-50606253D01*
X123293748Y-50785858D01*
X123279605Y-50800000D01*
X123293748Y-50814143D01*
X123114142Y-50993748D01*
X123100000Y-50979605D01*
X123085858Y-50993748D01*
X122906252Y-50814142D01*
X122920395Y-50800000D01*
X122906252Y-50785858D01*
X123085858Y-50606252D01*
X123100000Y-50620395D01*
G36*
X72943748Y-50710858D02*
X72929605Y-50725000D01*
X72943748Y-50739142D01*
X72764142Y-50918748D01*
X72750000Y-50904605D01*
X72735858Y-50918748D01*
X72556252Y-50739142D01*
X72570395Y-50725000D01*
X72556252Y-50710858D01*
X72735858Y-50531252D01*
X72750000Y-50545395D01*
X72764142Y-50531252D01*
X72943748Y-50710858D01*
X72943748Y-50710858D01*
G37*
X72943748Y-50710858D02*
X72929605Y-50725000D01*
X72943748Y-50739142D01*
X72764142Y-50918748D01*
X72750000Y-50904605D01*
X72735858Y-50918748D01*
X72556252Y-50739142D01*
X72570395Y-50725000D01*
X72556252Y-50710858D01*
X72735858Y-50531252D01*
X72750000Y-50545395D01*
X72764142Y-50531252D01*
X72943748Y-50710858D01*
G36*
X176652560Y-26951233D02*
X176652560Y-27120000D01*
X176701843Y-27367765D01*
X176842191Y-27577809D01*
X177052235Y-27718157D01*
X177114777Y-27730597D01*
X177070853Y-27759946D01*
X176748946Y-28241715D01*
X176635907Y-28810000D01*
X176748946Y-29378285D01*
X177070853Y-29860054D01*
X177400026Y-30080000D01*
X177070853Y-30299946D01*
X176748946Y-30781715D01*
X176635907Y-31350000D01*
X176748946Y-31918285D01*
X177070853Y-32400054D01*
X177400026Y-32620000D01*
X177070853Y-32839946D01*
X176748946Y-33321715D01*
X176635907Y-33890000D01*
X176748946Y-34458285D01*
X177070853Y-34940054D01*
X177400026Y-35160000D01*
X177070853Y-35379946D01*
X176877046Y-35670000D01*
X169632802Y-35670000D01*
X168026835Y-34064033D01*
X168026979Y-33898829D01*
X167869742Y-33518285D01*
X167578846Y-33226881D01*
X167198577Y-33068980D01*
X166786829Y-33068621D01*
X166406285Y-33225858D01*
X166114881Y-33516754D01*
X165956980Y-33897023D01*
X165956621Y-34308771D01*
X166113858Y-34689315D01*
X166404754Y-34980719D01*
X166785023Y-35138620D01*
X166951964Y-35138766D01*
X168780599Y-36967401D01*
X169027161Y-37132148D01*
X169318000Y-37190000D01*
X176877046Y-37190000D01*
X177070853Y-37480054D01*
X177400026Y-37700000D01*
X177070853Y-37919946D01*
X176748946Y-38401715D01*
X176635907Y-38970000D01*
X176748946Y-39538285D01*
X177070853Y-40020054D01*
X177400026Y-40240000D01*
X177070853Y-40459946D01*
X176748946Y-40941715D01*
X176635907Y-41510000D01*
X176748946Y-42078285D01*
X177070853Y-42560054D01*
X177400026Y-42780000D01*
X177070853Y-42999946D01*
X176748946Y-43481715D01*
X176635907Y-44050000D01*
X176718515Y-44465300D01*
X172719800Y-44465300D01*
X172428960Y-44523152D01*
X172182399Y-44687899D01*
X168083600Y-48786698D01*
X168100000Y-48704250D01*
X168100000Y-47832350D01*
X167990767Y-47283199D01*
X167679698Y-46817652D01*
X167214151Y-46506583D01*
X166665000Y-46397350D01*
X166115849Y-46506583D01*
X165650302Y-46817652D01*
X165395000Y-47199738D01*
X165139698Y-46817652D01*
X164863085Y-46632825D01*
X164827148Y-46452161D01*
X164662401Y-46205599D01*
X161111000Y-42654198D01*
X161111000Y-39919505D01*
X161621000Y-40020950D01*
X162170151Y-39911717D01*
X162635698Y-39600648D01*
X162891000Y-39218562D01*
X163146302Y-39600648D01*
X163611849Y-39911717D01*
X164161000Y-40020950D01*
X164710151Y-39911717D01*
X165175698Y-39600648D01*
X165428507Y-39222293D01*
X165776104Y-39654500D01*
X166269181Y-39924367D01*
X166351961Y-39941904D01*
X166574000Y-39819915D01*
X166574000Y-38277000D01*
X166828000Y-38277000D01*
X166828000Y-39819915D01*
X167050039Y-39941904D01*
X167132819Y-39924367D01*
X167625896Y-39654500D01*
X167978166Y-39216483D01*
X168136000Y-38677000D01*
X168136000Y-38277000D01*
X166828000Y-38277000D01*
X166574000Y-38277000D01*
X166554000Y-38277000D01*
X166554000Y-38023000D01*
X166574000Y-38023000D01*
X166574000Y-36480085D01*
X166828000Y-36480085D01*
X166828000Y-38023000D01*
X168136000Y-38023000D01*
X168136000Y-37623000D01*
X167978166Y-37083517D01*
X167625896Y-36645500D01*
X167132819Y-36375633D01*
X167050039Y-36358096D01*
X166828000Y-36480085D01*
X166574000Y-36480085D01*
X166351961Y-36358096D01*
X166269181Y-36375633D01*
X165776104Y-36645500D01*
X165428507Y-37077707D01*
X165175698Y-36699352D01*
X164710151Y-36388283D01*
X164161000Y-36279050D01*
X163611849Y-36388283D01*
X163146302Y-36699352D01*
X162891000Y-37081438D01*
X162635698Y-36699352D01*
X162170151Y-36388283D01*
X161621000Y-36279050D01*
X161108952Y-36380903D01*
X161053148Y-36100361D01*
X160888401Y-35853799D01*
X157231723Y-32197121D01*
X157555698Y-31980648D01*
X157811000Y-31598562D01*
X158066302Y-31980648D01*
X158531849Y-32291717D01*
X159081000Y-32400950D01*
X159630151Y-32291717D01*
X160095698Y-31980648D01*
X160351000Y-31598562D01*
X160606302Y-31980648D01*
X161071849Y-32291717D01*
X161621000Y-32400950D01*
X162170151Y-32291717D01*
X162635698Y-31980648D01*
X162891000Y-31598562D01*
X163146302Y-31980648D01*
X163611849Y-32291717D01*
X164161000Y-32400950D01*
X164710151Y-32291717D01*
X165175698Y-31980648D01*
X165431000Y-31598562D01*
X165686302Y-31980648D01*
X166151849Y-32291717D01*
X166701000Y-32400950D01*
X167250151Y-32291717D01*
X167715698Y-31980648D01*
X168026767Y-31515101D01*
X168136000Y-30965950D01*
X168136000Y-30094050D01*
X168026767Y-29544899D01*
X167715698Y-29079352D01*
X167250151Y-28768283D01*
X166701000Y-28659050D01*
X166151849Y-28768283D01*
X165686302Y-29079352D01*
X165431000Y-29461438D01*
X165175698Y-29079352D01*
X164710151Y-28768283D01*
X164161000Y-28659050D01*
X163611849Y-28768283D01*
X163146302Y-29079352D01*
X162891000Y-29461438D01*
X162635698Y-29079352D01*
X162170151Y-28768283D01*
X161621000Y-28659050D01*
X161071849Y-28768283D01*
X160606302Y-29079352D01*
X160351000Y-29461438D01*
X160095698Y-29079352D01*
X159630151Y-28768283D01*
X159081000Y-28659050D01*
X158531849Y-28768283D01*
X158066302Y-29079352D01*
X157811000Y-29461438D01*
X157555698Y-29079352D01*
X157279085Y-28894525D01*
X157243148Y-28713861D01*
X157078401Y-28467299D01*
X156831839Y-28302552D01*
X156655722Y-28267520D01*
X155212302Y-26824100D01*
X176462291Y-26824100D01*
X176652560Y-26951233D01*
X176652560Y-26951233D01*
G37*
X176652560Y-26951233D02*
X176652560Y-27120000D01*
X176701843Y-27367765D01*
X176842191Y-27577809D01*
X177052235Y-27718157D01*
X177114777Y-27730597D01*
X177070853Y-27759946D01*
X176748946Y-28241715D01*
X176635907Y-28810000D01*
X176748946Y-29378285D01*
X177070853Y-29860054D01*
X177400026Y-30080000D01*
X177070853Y-30299946D01*
X176748946Y-30781715D01*
X176635907Y-31350000D01*
X176748946Y-31918285D01*
X177070853Y-32400054D01*
X177400026Y-32620000D01*
X177070853Y-32839946D01*
X176748946Y-33321715D01*
X176635907Y-33890000D01*
X176748946Y-34458285D01*
X177070853Y-34940054D01*
X177400026Y-35160000D01*
X177070853Y-35379946D01*
X176877046Y-35670000D01*
X169632802Y-35670000D01*
X168026835Y-34064033D01*
X168026979Y-33898829D01*
X167869742Y-33518285D01*
X167578846Y-33226881D01*
X167198577Y-33068980D01*
X166786829Y-33068621D01*
X166406285Y-33225858D01*
X166114881Y-33516754D01*
X165956980Y-33897023D01*
X165956621Y-34308771D01*
X166113858Y-34689315D01*
X166404754Y-34980719D01*
X166785023Y-35138620D01*
X166951964Y-35138766D01*
X168780599Y-36967401D01*
X169027161Y-37132148D01*
X169318000Y-37190000D01*
X176877046Y-37190000D01*
X177070853Y-37480054D01*
X177400026Y-37700000D01*
X177070853Y-37919946D01*
X176748946Y-38401715D01*
X176635907Y-38970000D01*
X176748946Y-39538285D01*
X177070853Y-40020054D01*
X177400026Y-40240000D01*
X177070853Y-40459946D01*
X176748946Y-40941715D01*
X176635907Y-41510000D01*
X176748946Y-42078285D01*
X177070853Y-42560054D01*
X177400026Y-42780000D01*
X177070853Y-42999946D01*
X176748946Y-43481715D01*
X176635907Y-44050000D01*
X176718515Y-44465300D01*
X172719800Y-44465300D01*
X172428960Y-44523152D01*
X172182399Y-44687899D01*
X168083600Y-48786698D01*
X168100000Y-48704250D01*
X168100000Y-47832350D01*
X167990767Y-47283199D01*
X167679698Y-46817652D01*
X167214151Y-46506583D01*
X166665000Y-46397350D01*
X166115849Y-46506583D01*
X165650302Y-46817652D01*
X165395000Y-47199738D01*
X165139698Y-46817652D01*
X164863085Y-46632825D01*
X164827148Y-46452161D01*
X164662401Y-46205599D01*
X161111000Y-42654198D01*
X161111000Y-39919505D01*
X161621000Y-40020950D01*
X162170151Y-39911717D01*
X162635698Y-39600648D01*
X162891000Y-39218562D01*
X163146302Y-39600648D01*
X163611849Y-39911717D01*
X164161000Y-40020950D01*
X164710151Y-39911717D01*
X165175698Y-39600648D01*
X165428507Y-39222293D01*
X165776104Y-39654500D01*
X166269181Y-39924367D01*
X166351961Y-39941904D01*
X166574000Y-39819915D01*
X166574000Y-38277000D01*
X166828000Y-38277000D01*
X166828000Y-39819915D01*
X167050039Y-39941904D01*
X167132819Y-39924367D01*
X167625896Y-39654500D01*
X167978166Y-39216483D01*
X168136000Y-38677000D01*
X168136000Y-38277000D01*
X166828000Y-38277000D01*
X166574000Y-38277000D01*
X166554000Y-38277000D01*
X166554000Y-38023000D01*
X166574000Y-38023000D01*
X166574000Y-36480085D01*
X166828000Y-36480085D01*
X166828000Y-38023000D01*
X168136000Y-38023000D01*
X168136000Y-37623000D01*
X167978166Y-37083517D01*
X167625896Y-36645500D01*
X167132819Y-36375633D01*
X167050039Y-36358096D01*
X166828000Y-36480085D01*
X166574000Y-36480085D01*
X166351961Y-36358096D01*
X166269181Y-36375633D01*
X165776104Y-36645500D01*
X165428507Y-37077707D01*
X165175698Y-36699352D01*
X164710151Y-36388283D01*
X164161000Y-36279050D01*
X163611849Y-36388283D01*
X163146302Y-36699352D01*
X162891000Y-37081438D01*
X162635698Y-36699352D01*
X162170151Y-36388283D01*
X161621000Y-36279050D01*
X161108952Y-36380903D01*
X161053148Y-36100361D01*
X160888401Y-35853799D01*
X157231723Y-32197121D01*
X157555698Y-31980648D01*
X157811000Y-31598562D01*
X158066302Y-31980648D01*
X158531849Y-32291717D01*
X159081000Y-32400950D01*
X159630151Y-32291717D01*
X160095698Y-31980648D01*
X160351000Y-31598562D01*
X160606302Y-31980648D01*
X161071849Y-32291717D01*
X161621000Y-32400950D01*
X162170151Y-32291717D01*
X162635698Y-31980648D01*
X162891000Y-31598562D01*
X163146302Y-31980648D01*
X163611849Y-32291717D01*
X164161000Y-32400950D01*
X164710151Y-32291717D01*
X165175698Y-31980648D01*
X165431000Y-31598562D01*
X165686302Y-31980648D01*
X166151849Y-32291717D01*
X166701000Y-32400950D01*
X167250151Y-32291717D01*
X167715698Y-31980648D01*
X168026767Y-31515101D01*
X168136000Y-30965950D01*
X168136000Y-30094050D01*
X168026767Y-29544899D01*
X167715698Y-29079352D01*
X167250151Y-28768283D01*
X166701000Y-28659050D01*
X166151849Y-28768283D01*
X165686302Y-29079352D01*
X165431000Y-29461438D01*
X165175698Y-29079352D01*
X164710151Y-28768283D01*
X164161000Y-28659050D01*
X163611849Y-28768283D01*
X163146302Y-29079352D01*
X162891000Y-29461438D01*
X162635698Y-29079352D01*
X162170151Y-28768283D01*
X161621000Y-28659050D01*
X161071849Y-28768283D01*
X160606302Y-29079352D01*
X160351000Y-29461438D01*
X160095698Y-29079352D01*
X159630151Y-28768283D01*
X159081000Y-28659050D01*
X158531849Y-28768283D01*
X158066302Y-29079352D01*
X157811000Y-29461438D01*
X157555698Y-29079352D01*
X157279085Y-28894525D01*
X157243148Y-28713861D01*
X157078401Y-28467299D01*
X156831839Y-28302552D01*
X156655722Y-28267520D01*
X155212302Y-26824100D01*
X176462291Y-26824100D01*
X176652560Y-26951233D01*
G36*
X96738200Y-29207757D02*
X96334176Y-29611077D01*
X96115250Y-30138309D01*
X96114752Y-30709187D01*
X96137049Y-30763149D01*
X95867599Y-31032599D01*
X95702852Y-31279161D01*
X95645000Y-31570000D01*
X95645000Y-47180000D01*
X95702852Y-47470839D01*
X95867599Y-47717401D01*
X95986744Y-47836546D01*
X95965250Y-47888309D01*
X95964752Y-48459187D01*
X96005457Y-48557700D01*
X95854002Y-48557700D01*
X87495401Y-40199099D01*
X87248839Y-40034352D01*
X86958000Y-39976500D01*
X83652600Y-39976500D01*
X83361760Y-40034352D01*
X83115199Y-40199099D01*
X83013733Y-40300565D01*
X82848529Y-40300421D01*
X82467985Y-40457658D01*
X82176581Y-40748554D01*
X82018680Y-41128823D01*
X82018321Y-41540571D01*
X82175558Y-41921115D01*
X82437692Y-42183706D01*
X81821699Y-42799699D01*
X81656952Y-43046261D01*
X81599100Y-43337100D01*
X81599100Y-46374185D01*
X81171100Y-46289050D01*
X80621949Y-46398283D01*
X80156402Y-46709352D01*
X79901100Y-47091438D01*
X79645798Y-46709352D01*
X79197127Y-46409559D01*
X79333248Y-46205840D01*
X79349348Y-46124900D01*
X79391100Y-45915000D01*
X79391100Y-39620832D01*
X79645798Y-39450648D01*
X79901100Y-39068562D01*
X80156402Y-39450648D01*
X80621949Y-39761717D01*
X81171100Y-39870950D01*
X81720251Y-39761717D01*
X82185798Y-39450648D01*
X82441100Y-39068562D01*
X82696402Y-39450648D01*
X83161949Y-39761717D01*
X83711100Y-39870950D01*
X84260251Y-39761717D01*
X84725798Y-39450648D01*
X84981100Y-39068562D01*
X85236402Y-39450648D01*
X85701949Y-39761717D01*
X86251100Y-39870950D01*
X86800251Y-39761717D01*
X87265798Y-39450648D01*
X87521100Y-39068562D01*
X87776402Y-39450648D01*
X88241949Y-39761717D01*
X88791100Y-39870950D01*
X89340251Y-39761717D01*
X89805798Y-39450648D01*
X90058607Y-39072293D01*
X90406204Y-39504500D01*
X90899281Y-39774367D01*
X90982061Y-39791904D01*
X91204100Y-39669915D01*
X91204100Y-38127000D01*
X91458100Y-38127000D01*
X91458100Y-39669915D01*
X91680139Y-39791904D01*
X91762919Y-39774367D01*
X92255996Y-39504500D01*
X92608266Y-39066483D01*
X92766100Y-38527000D01*
X92766100Y-38127000D01*
X91458100Y-38127000D01*
X91204100Y-38127000D01*
X91184100Y-38127000D01*
X91184100Y-37873000D01*
X91204100Y-37873000D01*
X91204100Y-37853000D01*
X91458100Y-37853000D01*
X91458100Y-37873000D01*
X92766100Y-37873000D01*
X92766100Y-37473000D01*
X92762969Y-37462297D01*
X92932515Y-37392242D01*
X93223919Y-37101346D01*
X93381820Y-36721077D01*
X93382179Y-36309329D01*
X93224942Y-35928785D01*
X92934046Y-35637381D01*
X92553777Y-35479480D01*
X92386836Y-35479334D01*
X89097504Y-32190002D01*
X89340251Y-32141717D01*
X89805798Y-31830648D01*
X90061100Y-31448562D01*
X90316402Y-31830648D01*
X90781949Y-32141717D01*
X91331100Y-32250950D01*
X91880251Y-32141717D01*
X92345798Y-31830648D01*
X92656867Y-31365101D01*
X92766100Y-30815950D01*
X92766100Y-29944050D01*
X92656867Y-29394899D01*
X92500647Y-29161100D01*
X96851119Y-29161100D01*
X96738200Y-29207757D01*
X96738200Y-29207757D01*
G37*
X96738200Y-29207757D02*
X96334176Y-29611077D01*
X96115250Y-30138309D01*
X96114752Y-30709187D01*
X96137049Y-30763149D01*
X95867599Y-31032599D01*
X95702852Y-31279161D01*
X95645000Y-31570000D01*
X95645000Y-47180000D01*
X95702852Y-47470839D01*
X95867599Y-47717401D01*
X95986744Y-47836546D01*
X95965250Y-47888309D01*
X95964752Y-48459187D01*
X96005457Y-48557700D01*
X95854002Y-48557700D01*
X87495401Y-40199099D01*
X87248839Y-40034352D01*
X86958000Y-39976500D01*
X83652600Y-39976500D01*
X83361760Y-40034352D01*
X83115199Y-40199099D01*
X83013733Y-40300565D01*
X82848529Y-40300421D01*
X82467985Y-40457658D01*
X82176581Y-40748554D01*
X82018680Y-41128823D01*
X82018321Y-41540571D01*
X82175558Y-41921115D01*
X82437692Y-42183706D01*
X81821699Y-42799699D01*
X81656952Y-43046261D01*
X81599100Y-43337100D01*
X81599100Y-46374185D01*
X81171100Y-46289050D01*
X80621949Y-46398283D01*
X80156402Y-46709352D01*
X79901100Y-47091438D01*
X79645798Y-46709352D01*
X79197127Y-46409559D01*
X79333248Y-46205840D01*
X79349348Y-46124900D01*
X79391100Y-45915000D01*
X79391100Y-39620832D01*
X79645798Y-39450648D01*
X79901100Y-39068562D01*
X80156402Y-39450648D01*
X80621949Y-39761717D01*
X81171100Y-39870950D01*
X81720251Y-39761717D01*
X82185798Y-39450648D01*
X82441100Y-39068562D01*
X82696402Y-39450648D01*
X83161949Y-39761717D01*
X83711100Y-39870950D01*
X84260251Y-39761717D01*
X84725798Y-39450648D01*
X84981100Y-39068562D01*
X85236402Y-39450648D01*
X85701949Y-39761717D01*
X86251100Y-39870950D01*
X86800251Y-39761717D01*
X87265798Y-39450648D01*
X87521100Y-39068562D01*
X87776402Y-39450648D01*
X88241949Y-39761717D01*
X88791100Y-39870950D01*
X89340251Y-39761717D01*
X89805798Y-39450648D01*
X90058607Y-39072293D01*
X90406204Y-39504500D01*
X90899281Y-39774367D01*
X90982061Y-39791904D01*
X91204100Y-39669915D01*
X91204100Y-38127000D01*
X91458100Y-38127000D01*
X91458100Y-39669915D01*
X91680139Y-39791904D01*
X91762919Y-39774367D01*
X92255996Y-39504500D01*
X92608266Y-39066483D01*
X92766100Y-38527000D01*
X92766100Y-38127000D01*
X91458100Y-38127000D01*
X91204100Y-38127000D01*
X91184100Y-38127000D01*
X91184100Y-37873000D01*
X91204100Y-37873000D01*
X91204100Y-37853000D01*
X91458100Y-37853000D01*
X91458100Y-37873000D01*
X92766100Y-37873000D01*
X92766100Y-37473000D01*
X92762969Y-37462297D01*
X92932515Y-37392242D01*
X93223919Y-37101346D01*
X93381820Y-36721077D01*
X93382179Y-36309329D01*
X93224942Y-35928785D01*
X92934046Y-35637381D01*
X92553777Y-35479480D01*
X92386836Y-35479334D01*
X89097504Y-32190002D01*
X89340251Y-32141717D01*
X89805798Y-31830648D01*
X90061100Y-31448562D01*
X90316402Y-31830648D01*
X90781949Y-32141717D01*
X91331100Y-32250950D01*
X91880251Y-32141717D01*
X92345798Y-31830648D01*
X92656867Y-31365101D01*
X92766100Y-30815950D01*
X92766100Y-29944050D01*
X92656867Y-29394899D01*
X92500647Y-29161100D01*
X96851119Y-29161100D01*
X96738200Y-29207757D01*
G36*
X99536233Y-29369899D02*
X99427000Y-29919050D01*
X99427000Y-30790950D01*
X99536233Y-31340101D01*
X99847302Y-31805648D01*
X100312849Y-32116717D01*
X100862000Y-32225950D01*
X101411151Y-32116717D01*
X101876698Y-31805648D01*
X102132000Y-31423562D01*
X102387302Y-31805648D01*
X102642000Y-31975832D01*
X102642000Y-33210000D01*
X100731800Y-33210000D01*
X100440961Y-33267852D01*
X100194399Y-33432599D01*
X100099533Y-33527465D01*
X99934329Y-33527321D01*
X99553785Y-33684558D01*
X99262381Y-33975454D01*
X99104480Y-34355723D01*
X99104121Y-34767471D01*
X99261358Y-35148015D01*
X99552254Y-35439419D01*
X99932523Y-35597320D01*
X100344271Y-35597679D01*
X100724815Y-35440442D01*
X101016219Y-35149546D01*
X101174120Y-34769277D01*
X101174154Y-34730000D01*
X103087198Y-34730000D01*
X104908976Y-36551778D01*
X104672000Y-36906438D01*
X104416698Y-36524352D01*
X103951151Y-36213283D01*
X103402000Y-36104050D01*
X102852849Y-36213283D01*
X102387302Y-36524352D01*
X102288882Y-36671648D01*
X102260157Y-36527235D01*
X102119809Y-36317191D01*
X101909765Y-36176843D01*
X101662000Y-36127560D01*
X100062000Y-36127560D01*
X99814235Y-36176843D01*
X99604191Y-36317191D01*
X99463843Y-36527235D01*
X99414560Y-36775000D01*
X99414560Y-39175000D01*
X99459083Y-39398832D01*
X99246285Y-39486758D01*
X98954881Y-39777654D01*
X98796980Y-40157923D01*
X98796621Y-40569671D01*
X98953858Y-40950215D01*
X99244754Y-41241619D01*
X99625023Y-41399520D01*
X100036771Y-41399879D01*
X100417315Y-41242642D01*
X100708719Y-40951746D01*
X100866620Y-40571477D01*
X100866766Y-40404536D01*
X101048000Y-40223302D01*
X101152839Y-40202448D01*
X101399401Y-40037701D01*
X101543233Y-39822440D01*
X101662000Y-39822440D01*
X101909765Y-39773157D01*
X102119809Y-39632809D01*
X102260157Y-39422765D01*
X102288882Y-39278352D01*
X102387302Y-39425648D01*
X102663915Y-39610475D01*
X102699852Y-39791139D01*
X102789626Y-39925496D01*
X102646685Y-39984558D01*
X102355281Y-40275454D01*
X102197380Y-40655723D01*
X102197234Y-40822664D01*
X98145874Y-44874024D01*
X98026077Y-44824280D01*
X97614329Y-44823921D01*
X97233785Y-44981158D01*
X97165000Y-45049823D01*
X97165000Y-34311499D01*
X97333223Y-34371965D01*
X97903454Y-34344778D01*
X98304005Y-34178864D01*
X98378139Y-33932745D01*
X97550000Y-33104605D01*
X97535858Y-33118748D01*
X97356253Y-32939143D01*
X97370395Y-32925000D01*
X97729605Y-32925000D01*
X98557745Y-33753139D01*
X98803864Y-33679005D01*
X98996965Y-33141777D01*
X98969778Y-32571546D01*
X98803864Y-32170995D01*
X98557745Y-32096861D01*
X97729605Y-32925000D01*
X97370395Y-32925000D01*
X97356253Y-32910858D01*
X97535858Y-32731253D01*
X97550000Y-32745395D01*
X98378139Y-31917255D01*
X98304005Y-31671136D01*
X98297517Y-31668804D01*
X98361800Y-31642243D01*
X98765824Y-31238923D01*
X98984750Y-30711691D01*
X98985248Y-30140813D01*
X98767243Y-29613200D01*
X98363923Y-29209176D01*
X98248143Y-29161100D01*
X99675748Y-29161100D01*
X99536233Y-29369899D01*
X99536233Y-29369899D01*
G37*
X99536233Y-29369899D02*
X99427000Y-29919050D01*
X99427000Y-30790950D01*
X99536233Y-31340101D01*
X99847302Y-31805648D01*
X100312849Y-32116717D01*
X100862000Y-32225950D01*
X101411151Y-32116717D01*
X101876698Y-31805648D01*
X102132000Y-31423562D01*
X102387302Y-31805648D01*
X102642000Y-31975832D01*
X102642000Y-33210000D01*
X100731800Y-33210000D01*
X100440961Y-33267852D01*
X100194399Y-33432599D01*
X100099533Y-33527465D01*
X99934329Y-33527321D01*
X99553785Y-33684558D01*
X99262381Y-33975454D01*
X99104480Y-34355723D01*
X99104121Y-34767471D01*
X99261358Y-35148015D01*
X99552254Y-35439419D01*
X99932523Y-35597320D01*
X100344271Y-35597679D01*
X100724815Y-35440442D01*
X101016219Y-35149546D01*
X101174120Y-34769277D01*
X101174154Y-34730000D01*
X103087198Y-34730000D01*
X104908976Y-36551778D01*
X104672000Y-36906438D01*
X104416698Y-36524352D01*
X103951151Y-36213283D01*
X103402000Y-36104050D01*
X102852849Y-36213283D01*
X102387302Y-36524352D01*
X102288882Y-36671648D01*
X102260157Y-36527235D01*
X102119809Y-36317191D01*
X101909765Y-36176843D01*
X101662000Y-36127560D01*
X100062000Y-36127560D01*
X99814235Y-36176843D01*
X99604191Y-36317191D01*
X99463843Y-36527235D01*
X99414560Y-36775000D01*
X99414560Y-39175000D01*
X99459083Y-39398832D01*
X99246285Y-39486758D01*
X98954881Y-39777654D01*
X98796980Y-40157923D01*
X98796621Y-40569671D01*
X98953858Y-40950215D01*
X99244754Y-41241619D01*
X99625023Y-41399520D01*
X100036771Y-41399879D01*
X100417315Y-41242642D01*
X100708719Y-40951746D01*
X100866620Y-40571477D01*
X100866766Y-40404536D01*
X101048000Y-40223302D01*
X101152839Y-40202448D01*
X101399401Y-40037701D01*
X101543233Y-39822440D01*
X101662000Y-39822440D01*
X101909765Y-39773157D01*
X102119809Y-39632809D01*
X102260157Y-39422765D01*
X102288882Y-39278352D01*
X102387302Y-39425648D01*
X102663915Y-39610475D01*
X102699852Y-39791139D01*
X102789626Y-39925496D01*
X102646685Y-39984558D01*
X102355281Y-40275454D01*
X102197380Y-40655723D01*
X102197234Y-40822664D01*
X98145874Y-44874024D01*
X98026077Y-44824280D01*
X97614329Y-44823921D01*
X97233785Y-44981158D01*
X97165000Y-45049823D01*
X97165000Y-34311499D01*
X97333223Y-34371965D01*
X97903454Y-34344778D01*
X98304005Y-34178864D01*
X98378139Y-33932745D01*
X97550000Y-33104605D01*
X97535858Y-33118748D01*
X97356253Y-32939143D01*
X97370395Y-32925000D01*
X97729605Y-32925000D01*
X98557745Y-33753139D01*
X98803864Y-33679005D01*
X98996965Y-33141777D01*
X98969778Y-32571546D01*
X98803864Y-32170995D01*
X98557745Y-32096861D01*
X97729605Y-32925000D01*
X97370395Y-32925000D01*
X97356253Y-32910858D01*
X97535858Y-32731253D01*
X97550000Y-32745395D01*
X98378139Y-31917255D01*
X98304005Y-31671136D01*
X98297517Y-31668804D01*
X98361800Y-31642243D01*
X98765824Y-31238923D01*
X98984750Y-30711691D01*
X98985248Y-30140813D01*
X98767243Y-29613200D01*
X98363923Y-29209176D01*
X98248143Y-29161100D01*
X99675748Y-29161100D01*
X99536233Y-29369899D01*
G36*
X115363915Y-31990475D02*
X115399852Y-32171139D01*
X115564599Y-32417701D01*
X118648200Y-35501302D01*
X118648200Y-40995409D01*
X118432729Y-40995221D01*
X118052185Y-41152458D01*
X117760781Y-41443354D01*
X117602880Y-41823623D01*
X117602734Y-41990564D01*
X115505599Y-44087699D01*
X115393700Y-44255168D01*
X115393700Y-40572000D01*
X115335848Y-40281161D01*
X115171101Y-40034599D01*
X114567977Y-39431475D01*
X114576698Y-39425648D01*
X114829507Y-39047293D01*
X115177104Y-39479500D01*
X115670181Y-39749367D01*
X115752961Y-39766904D01*
X115975000Y-39644915D01*
X115975000Y-38102000D01*
X116229000Y-38102000D01*
X116229000Y-39644915D01*
X116451039Y-39766904D01*
X116533819Y-39749367D01*
X117026896Y-39479500D01*
X117379166Y-39041483D01*
X117537000Y-38502000D01*
X117537000Y-38102000D01*
X116229000Y-38102000D01*
X115975000Y-38102000D01*
X115955000Y-38102000D01*
X115955000Y-37848000D01*
X115975000Y-37848000D01*
X115975000Y-36305085D01*
X116229000Y-36305085D01*
X116229000Y-37848000D01*
X117537000Y-37848000D01*
X117537000Y-37448000D01*
X117379166Y-36908517D01*
X117026896Y-36470500D01*
X116533819Y-36200633D01*
X116451039Y-36183096D01*
X116229000Y-36305085D01*
X115975000Y-36305085D01*
X115752961Y-36183096D01*
X115670181Y-36200633D01*
X115177104Y-36470500D01*
X114829507Y-36902707D01*
X114576698Y-36524352D01*
X114111151Y-36213283D01*
X113562000Y-36104050D01*
X113012849Y-36213283D01*
X112907400Y-36283742D01*
X112907400Y-34129700D01*
X112849548Y-33838861D01*
X112684801Y-33592299D01*
X111782000Y-32689498D01*
X111782000Y-31975832D01*
X111963054Y-31854856D01*
X112565799Y-32457601D01*
X112812361Y-32622348D01*
X113103200Y-32680200D01*
X114013600Y-32680200D01*
X114304439Y-32622348D01*
X114551001Y-32457601D01*
X115156630Y-31851972D01*
X115363915Y-31990475D01*
X115363915Y-31990475D01*
G37*
X115363915Y-31990475D02*
X115399852Y-32171139D01*
X115564599Y-32417701D01*
X118648200Y-35501302D01*
X118648200Y-40995409D01*
X118432729Y-40995221D01*
X118052185Y-41152458D01*
X117760781Y-41443354D01*
X117602880Y-41823623D01*
X117602734Y-41990564D01*
X115505599Y-44087699D01*
X115393700Y-44255168D01*
X115393700Y-40572000D01*
X115335848Y-40281161D01*
X115171101Y-40034599D01*
X114567977Y-39431475D01*
X114576698Y-39425648D01*
X114829507Y-39047293D01*
X115177104Y-39479500D01*
X115670181Y-39749367D01*
X115752961Y-39766904D01*
X115975000Y-39644915D01*
X115975000Y-38102000D01*
X116229000Y-38102000D01*
X116229000Y-39644915D01*
X116451039Y-39766904D01*
X116533819Y-39749367D01*
X117026896Y-39479500D01*
X117379166Y-39041483D01*
X117537000Y-38502000D01*
X117537000Y-38102000D01*
X116229000Y-38102000D01*
X115975000Y-38102000D01*
X115955000Y-38102000D01*
X115955000Y-37848000D01*
X115975000Y-37848000D01*
X115975000Y-36305085D01*
X116229000Y-36305085D01*
X116229000Y-37848000D01*
X117537000Y-37848000D01*
X117537000Y-37448000D01*
X117379166Y-36908517D01*
X117026896Y-36470500D01*
X116533819Y-36200633D01*
X116451039Y-36183096D01*
X116229000Y-36305085D01*
X115975000Y-36305085D01*
X115752961Y-36183096D01*
X115670181Y-36200633D01*
X115177104Y-36470500D01*
X114829507Y-36902707D01*
X114576698Y-36524352D01*
X114111151Y-36213283D01*
X113562000Y-36104050D01*
X113012849Y-36213283D01*
X112907400Y-36283742D01*
X112907400Y-34129700D01*
X112849548Y-33838861D01*
X112684801Y-33592299D01*
X111782000Y-32689498D01*
X111782000Y-31975832D01*
X111963054Y-31854856D01*
X112565799Y-32457601D01*
X112812361Y-32622348D01*
X113103200Y-32680200D01*
X114013600Y-32680200D01*
X114304439Y-32622348D01*
X114551001Y-32457601D01*
X115156630Y-31851972D01*
X115363915Y-31990475D01*
G36*
X145961399Y-27112101D02*
X146053589Y-27173700D01*
X114458000Y-27173700D01*
X114167160Y-27231552D01*
X113920599Y-27396299D01*
X113562000Y-27754898D01*
X113205201Y-27398099D01*
X112958639Y-27233352D01*
X112667800Y-27175500D01*
X75820000Y-27175500D01*
X75529160Y-27233352D01*
X75282599Y-27398099D01*
X73558963Y-29121735D01*
X73061691Y-28915250D01*
X72490813Y-28914752D01*
X71963200Y-29132757D01*
X71559176Y-29536077D01*
X71340250Y-30063309D01*
X71339752Y-30634187D01*
X71557757Y-31161800D01*
X71636059Y-31240239D01*
X68740599Y-34135699D01*
X68575852Y-34382261D01*
X68518000Y-34673100D01*
X68518000Y-36762798D01*
X67761900Y-37518898D01*
X67761900Y-37473000D01*
X67604066Y-36933517D01*
X67251796Y-36495500D01*
X66758719Y-36225633D01*
X66675939Y-36208096D01*
X66453900Y-36330085D01*
X66453900Y-37873000D01*
X66473900Y-37873000D01*
X66473900Y-38127000D01*
X66453900Y-38127000D01*
X66453900Y-38147000D01*
X66199900Y-38147000D01*
X66199900Y-38127000D01*
X66179900Y-38127000D01*
X66179900Y-37873000D01*
X66199900Y-37873000D01*
X66199900Y-36330085D01*
X65977861Y-36208096D01*
X65895081Y-36225633D01*
X65402004Y-36495500D01*
X65054407Y-36927707D01*
X64801598Y-36549352D01*
X64336051Y-36238283D01*
X64125333Y-36196369D01*
X75655502Y-24666200D01*
X141579939Y-24666200D01*
X141696654Y-24783119D01*
X142076923Y-24941020D01*
X142488671Y-24941379D01*
X142869215Y-24784142D01*
X143160619Y-24493246D01*
X143213996Y-24364698D01*
X145961399Y-27112101D01*
X145961399Y-27112101D01*
G37*
X145961399Y-27112101D02*
X146053589Y-27173700D01*
X114458000Y-27173700D01*
X114167160Y-27231552D01*
X113920599Y-27396299D01*
X113562000Y-27754898D01*
X113205201Y-27398099D01*
X112958639Y-27233352D01*
X112667800Y-27175500D01*
X75820000Y-27175500D01*
X75529160Y-27233352D01*
X75282599Y-27398099D01*
X73558963Y-29121735D01*
X73061691Y-28915250D01*
X72490813Y-28914752D01*
X71963200Y-29132757D01*
X71559176Y-29536077D01*
X71340250Y-30063309D01*
X71339752Y-30634187D01*
X71557757Y-31161800D01*
X71636059Y-31240239D01*
X68740599Y-34135699D01*
X68575852Y-34382261D01*
X68518000Y-34673100D01*
X68518000Y-36762798D01*
X67761900Y-37518898D01*
X67761900Y-37473000D01*
X67604066Y-36933517D01*
X67251796Y-36495500D01*
X66758719Y-36225633D01*
X66675939Y-36208096D01*
X66453900Y-36330085D01*
X66453900Y-37873000D01*
X66473900Y-37873000D01*
X66473900Y-38127000D01*
X66453900Y-38127000D01*
X66453900Y-38147000D01*
X66199900Y-38147000D01*
X66199900Y-38127000D01*
X66179900Y-38127000D01*
X66179900Y-37873000D01*
X66199900Y-37873000D01*
X66199900Y-36330085D01*
X65977861Y-36208096D01*
X65895081Y-36225633D01*
X65402004Y-36495500D01*
X65054407Y-36927707D01*
X64801598Y-36549352D01*
X64336051Y-36238283D01*
X64125333Y-36196369D01*
X75655502Y-24666200D01*
X141579939Y-24666200D01*
X141696654Y-24783119D01*
X142076923Y-24941020D01*
X142488671Y-24941379D01*
X142869215Y-24784142D01*
X143160619Y-24493246D01*
X143213996Y-24364698D01*
X145961399Y-27112101D01*
G36*
X72775000Y-32670395D02*
X72789143Y-32656253D01*
X72968748Y-32835858D01*
X72954605Y-32850000D01*
X72968748Y-32864142D01*
X72789142Y-33043748D01*
X72775000Y-33029605D01*
X71946861Y-33857745D01*
X72020995Y-34103864D01*
X72558223Y-34296965D01*
X72669540Y-34291658D01*
X70038000Y-36923198D01*
X70038000Y-34987902D01*
X71492070Y-33533832D01*
X71521136Y-33604005D01*
X71767255Y-33678139D01*
X72595395Y-32850000D01*
X72581252Y-32835858D01*
X72760858Y-32656252D01*
X72775000Y-32670395D01*
X72775000Y-32670395D01*
G37*
X72775000Y-32670395D02*
X72789143Y-32656253D01*
X72968748Y-32835858D01*
X72954605Y-32850000D01*
X72968748Y-32864142D01*
X72789142Y-33043748D01*
X72775000Y-33029605D01*
X71946861Y-33857745D01*
X72020995Y-34103864D01*
X72558223Y-34296965D01*
X72669540Y-34291658D01*
X70038000Y-36923198D01*
X70038000Y-34987902D01*
X71492070Y-33533832D01*
X71521136Y-33604005D01*
X71767255Y-33678139D01*
X72595395Y-32850000D01*
X72581252Y-32835858D01*
X72760858Y-32656252D01*
X72775000Y-32670395D01*
G36*
X123193748Y-33035858D02*
X123179605Y-33050000D01*
X123193748Y-33064142D01*
X123014143Y-33243748D01*
X123000000Y-33229605D01*
X122985858Y-33243748D01*
X122806252Y-33064142D01*
X122820395Y-33050000D01*
X122806253Y-33035858D01*
X122985858Y-32856253D01*
X123000000Y-32870395D01*
X123014143Y-32856253D01*
X123193748Y-33035858D01*
X123193748Y-33035858D01*
G37*
X123193748Y-33035858D02*
X123179605Y-33050000D01*
X123193748Y-33064142D01*
X123014143Y-33243748D01*
X123000000Y-33229605D01*
X122985858Y-33243748D01*
X122806252Y-33064142D01*
X122820395Y-33050000D01*
X122806253Y-33035858D01*
X122985858Y-32856253D01*
X123000000Y-32870395D01*
X123014143Y-32856253D01*
X123193748Y-33035858D01*
G36*
X148418748Y-32935858D02*
X148404605Y-32950000D01*
X148418748Y-32964142D01*
X148239142Y-33143748D01*
X148225000Y-33129605D01*
X148210858Y-33143748D01*
X148031252Y-32964142D01*
X148045395Y-32950000D01*
X148031252Y-32935858D01*
X148210858Y-32756253D01*
X148225000Y-32770395D01*
X148239143Y-32756253D01*
X148418748Y-32935858D01*
X148418748Y-32935858D01*
G37*
X148418748Y-32935858D02*
X148404605Y-32950000D01*
X148418748Y-32964142D01*
X148239142Y-33143748D01*
X148225000Y-33129605D01*
X148210858Y-33143748D01*
X148031252Y-32964142D01*
X148045395Y-32950000D01*
X148031252Y-32935858D01*
X148210858Y-32756253D01*
X148225000Y-32770395D01*
X148239143Y-32756253D01*
X148418748Y-32935858D01*
M02*
