M48
;DRILL file {KiCad (2016-09-07 BZR 7135, Git c8cf783)-product} date Wed Feb  8 14:06:07 2017
;FORMAT={-:-/ absolute / inch / decimal}
FMAT,2
INCH,TZ
T1C0.016
T2C0.031
T3C0.035
T4C0.039
%
G90
G05
M72
T1
X2.6883Y-5.1436
X2.7323Y-4.3632
X2.7326Y-4.2601
X2.7588Y-5.1735
X2.7891Y-4.7851
X2.8026Y-5.2684
X2.8522Y-5.1222
X2.9272Y-4.8666
X2.954Y-4.787
X3.0481Y-5.1164
X3.1003Y-4.6368
X3.1845Y-5.4946
X3.199Y-4.3056
X3.2379Y-5.2041
X3.2665Y-5.1449
X3.3846Y-5.9407
X3.421Y-5.9149
X3.4349Y-4.6618
X3.4996Y-3.8324
X3.5212Y-3.699
X3.5747Y-3.7069
X3.6137Y-4.0338
X3.6646Y-3.0234
X3.6933Y-3.2415
X3.8959Y-4.0607
X3.8965Y-5.8498
X3.9133Y-3.9886
X3.9303Y-3.3169
X3.9675Y-6.033
X4.011Y-3.2418
X4.0412Y-3.2708
X4.1955Y-3.3477
X4.204Y-3.2121
X4.3087Y-5.9387
X4.3621Y-5.2117
X4.411Y-5.3945
X4.4596Y-3.7604
X4.4889Y-3.5055
X4.5256Y-3.2353
X4.5787Y-5.2309
X4.657Y-3.4234
X4.6702Y-5.4947
X4.6904Y-5.9927
X4.7666Y-5.6949
X4.8531Y-3.2796
X4.8654Y-4.9622
X4.877Y-3.7453
X4.8783Y-3.6997
X4.9238Y-3.4386
X4.9246Y-3.6018
X5.0248Y-3.3699
X5.0325Y-6.0045
X5.1127Y-6.2579
X5.1528Y-4.019
X5.154Y-3.9794
X5.2308Y-3.7636
X5.2566Y-3.7951
X5.3184Y-6.0053
X5.362Y-3.8954
X5.6831Y-3.9886
X5.7006Y-3.6703
X5.7479Y-3.2392
X5.7524Y-4.6743
X5.7776Y-4.4111
X6.0305Y-4.3987
X6.083Y-4.9672
X6.3863Y-5.7416
T2
X2.5981Y-5.5618
X2.6231Y-4.2118
X2.6231Y-4.3118
X2.6231Y-4.4118
X2.6231Y-4.5118
X2.6231Y-4.6118
X2.6231Y-4.7118
X2.6231Y-4.8118
X2.6231Y-4.9118
X2.6231Y-5.0118
X2.6981Y-5.5618
X2.7981Y-5.5618
X2.8981Y-5.5618
X2.9981Y-5.5618
X3.0981Y-5.5618
X3.1981Y-5.5618
X3.2981Y-5.5618
X3.3981Y-5.5618
X3.5481Y-4.2118
X3.5481Y-4.3118
X3.5481Y-4.4118
X3.5481Y-4.5118
X3.5481Y-4.6118
X3.5481Y-4.7118
X3.5481Y-4.8118
X3.5481Y-4.9118
X3.5481Y-5.0118
X3.5481Y-5.5618
X3.6481Y-5.5618
X3.7481Y-5.5618
X3.8481Y-5.5618
X3.9481Y-5.5618
X4.0481Y-5.5618
X4.1481Y-5.5618
X4.2481Y-5.5618
X4.3481Y-5.5618
X4.4981Y-5.5618
X4.5231Y-4.2118
X4.5231Y-4.3118
X4.5231Y-4.4118
X4.5231Y-4.5118
X4.5231Y-4.6118
X4.5231Y-4.7118
X4.5231Y-4.8118
X4.5231Y-4.9118
X4.5231Y-5.0118
X4.5981Y-5.5618
X4.6981Y-5.5618
X4.7981Y-5.5618
X4.8981Y-5.5618
X4.9981Y-5.5618
X5.0981Y-5.5618
X5.1981Y-5.5618
X5.2981Y-5.5618
X5.3981Y-4.2118
X5.3981Y-4.3118
X5.3981Y-4.4118
X5.3981Y-4.5118
X5.3981Y-4.6118
X5.3981Y-4.7118
X5.3981Y-4.8118
X5.3981Y-4.9118
X5.3981Y-5.0118
X5.4481Y-5.5618
X5.5481Y-5.5618
X5.6481Y-5.5618
X5.7481Y-5.5618
X5.8481Y-5.5618
X5.9481Y-5.5618
X6.0481Y-5.5618
X6.1481Y-5.5618
X6.2231Y-4.2118
X6.2231Y-4.3118
X6.2231Y-4.4118
X6.2231Y-4.5118
X6.2231Y-4.6118
X6.2231Y-4.7118
X6.2231Y-4.8118
X6.2231Y-4.9118
X6.2231Y-5.0118
X6.2481Y-5.5618
T3
X2.6981Y-5.3368
X2.7981Y-5.3368
X2.8481Y-3.3368
X2.8481Y-3.4368
X2.8481Y-3.5368
X2.8481Y-3.6368
X2.8481Y-3.7368
X2.8481Y-3.8368
X2.8481Y-3.9368
X2.8481Y-4.0368
X2.8481Y-4.1368
X2.8481Y-4.2368
X2.8481Y-4.3368
X2.8481Y-4.4368
X2.8481Y-4.5368
X2.8481Y-4.6368
X2.8481Y-4.7368
X2.8481Y-4.8368
X2.8481Y-4.9368
X2.8481Y-5.0368
X2.8981Y-5.3352
X2.9981Y-5.3352
X3.0981Y-5.3368
X3.1981Y-5.3368
X3.2981Y-5.3352
X3.3981Y-5.3352
X3.5481Y-5.3352
X3.6481Y-5.3352
X3.7481Y-5.3368
X3.7731Y-3.3368
X3.7731Y-3.4368
X3.7731Y-3.5368
X3.7731Y-3.6368
X3.7731Y-3.7368
X3.7731Y-3.8368
X3.7731Y-3.9368
X3.7731Y-4.0368
X3.7731Y-4.1368
X3.7731Y-4.2368
X3.7731Y-4.3368
X3.7731Y-4.4368
X3.7731Y-4.5368
X3.7731Y-4.6368
X3.7731Y-4.7368
X3.7731Y-4.8368
X3.7731Y-4.9368
X3.7731Y-5.0368
X3.8481Y-5.3368
X3.9481Y-5.3368
X4.0481Y-5.3368
X4.1481Y-5.3368
X4.2481Y-5.3368
X4.5981Y-5.3368
X4.6981Y-5.3368
X4.7481Y-3.3368
X4.7481Y-3.4368
X4.7481Y-3.5368
X4.7481Y-3.6368
X4.7481Y-3.7368
X4.7481Y-3.8368
X4.7481Y-3.9368
X4.7481Y-4.0368
X4.7481Y-4.1368
X4.7481Y-4.2368
X4.7481Y-4.3368
X4.7481Y-4.4368
X4.7481Y-4.5368
X4.7481Y-4.6368
X4.7481Y-4.7368
X4.7481Y-4.8368
X4.7481Y-4.9368
X4.7481Y-5.0368
X4.7981Y-5.3368
X4.8981Y-5.3368
X4.9981Y-5.3368
X5.0981Y-5.3368
X5.1981Y-5.3368
X5.2981Y-5.3368
X5.4481Y-5.3368
X5.5481Y-5.3368
X5.6231Y-3.3368
X5.6231Y-3.4368
X5.6231Y-3.5368
X5.6231Y-3.6368
X5.6231Y-3.7368
X5.6231Y-3.8368
X5.6231Y-3.9368
X5.6231Y-4.0368
X5.6231Y-4.1368
X5.6231Y-4.2368
X5.6231Y-4.3368
X5.6231Y-4.4368
X5.6231Y-4.5368
X5.6231Y-4.6368
X5.6231Y-4.7368
X5.6231Y-4.8368
X5.6231Y-4.9368
X5.6231Y-5.0368
X5.6481Y-5.3368
X5.7481Y-5.3368
X5.8481Y-5.3368
X5.9481Y-5.3368
X6.0481Y-5.3368
X6.1481Y-5.3368
T4
X2.729Y-6.0811
X2.729Y-6.1811
X2.7481Y-5.7118
X2.7481Y-5.8118
X2.754Y-3.081
X2.754Y-3.181
X2.829Y-6.0811
X2.829Y-6.1811
X2.854Y-3.081
X2.854Y-3.181
X2.929Y-6.0811
X2.929Y-6.1811
X2.9481Y-5.7118
X2.9481Y-5.8118
X2.954Y-3.081
X2.954Y-3.181
X3.029Y-6.0811
X3.029Y-6.1811
X3.054Y-3.081
X3.054Y-3.181
X3.129Y-6.0811
X3.129Y-6.1811
X3.1481Y-5.7118
X3.1481Y-5.8118
X3.154Y-3.081
X3.154Y-3.181
X3.229Y-6.0811
X3.229Y-6.1811
X3.254Y-3.081
X3.254Y-3.181
X3.329Y-6.0811
X3.329Y-6.1811
X3.3481Y-5.7118
X3.3481Y-5.8118
X3.354Y-3.081
X3.354Y-3.181
X3.429Y-6.0811
X3.429Y-6.1811
X3.454Y-3.081
X3.454Y-3.181
X3.529Y-6.0811
X3.529Y-6.1811
X3.554Y-3.081
X3.554Y-3.181
X3.5981Y-5.7118
X3.5981Y-5.8118
X3.629Y-6.0811
X3.629Y-6.1811
X3.654Y-3.081
X3.654Y-3.181
X3.729Y-6.0811
X3.729Y-6.1811
X3.754Y-3.081
X3.754Y-3.181
X3.7981Y-5.7118
X3.7981Y-5.8118
X3.829Y-6.0811
X3.829Y-6.1811
X3.854Y-3.081
X3.854Y-3.181
X3.929Y-6.0811
X3.929Y-6.1811
X3.954Y-3.081
X3.954Y-3.181
X3.9981Y-5.7118
X3.9981Y-5.8118
X4.029Y-6.0811
X4.029Y-6.1811
X4.054Y-3.081
X4.054Y-3.181
X4.129Y-6.0811
X4.129Y-6.1811
X4.154Y-3.081
X4.154Y-3.181
X4.1981Y-5.7118
X4.1981Y-5.8118
X4.229Y-6.0811
X4.229Y-6.1811
X4.254Y-3.081
X4.254Y-3.181
X4.329Y-6.0811
X4.329Y-6.1811
X4.354Y-3.081
X4.354Y-3.181
X4.429Y-6.0811
X4.429Y-6.1811
X4.454Y-3.081
X4.454Y-3.181
X4.529Y-6.0811
X4.529Y-6.1811
X4.554Y-3.081
X4.554Y-3.181
X4.629Y-6.0811
X4.629Y-6.1811
X4.6481Y-5.7118
X4.6481Y-5.8118
X4.654Y-3.081
X4.654Y-3.181
X4.729Y-6.0811
X4.729Y-6.1811
X4.754Y-3.081
X4.754Y-3.181
X4.829Y-6.0811
X4.829Y-6.1811
X4.8481Y-5.7118
X4.8481Y-5.8118
X4.854Y-3.081
X4.854Y-3.181
X4.929Y-6.0811
X4.929Y-6.1811
X4.954Y-3.081
X4.954Y-3.181
X5.029Y-6.0811
X5.029Y-6.1811
X5.0481Y-5.7118
X5.0481Y-5.8118
X5.054Y-3.081
X5.054Y-3.181
X5.129Y-6.0811
X5.129Y-6.1811
X5.154Y-3.081
X5.154Y-3.181
X5.229Y-6.0811
X5.229Y-6.1811
X5.2481Y-5.7118
X5.2481Y-5.8118
X5.254Y-3.081
X5.254Y-3.181
X5.329Y-6.0811
X5.329Y-6.1811
X5.354Y-3.081
X5.354Y-3.181
X5.429Y-6.0811
X5.429Y-6.1811
X5.454Y-3.081
X5.454Y-3.181
X5.4981Y-5.7118
X5.4981Y-5.8118
X5.529Y-6.0811
X5.529Y-6.1811
X5.554Y-3.081
X5.554Y-3.181
X5.629Y-6.0811
X5.629Y-6.1811
X5.654Y-3.081
X5.654Y-3.181
X5.6981Y-5.7118
X5.6981Y-5.8118
X5.729Y-6.0811
X5.729Y-6.1811
X5.754Y-3.081
X5.754Y-3.181
X5.829Y-6.0811
X5.829Y-6.1811
X5.854Y-3.081
X5.854Y-3.181
X5.8981Y-5.7118
X5.8981Y-5.8118
X5.929Y-6.0811
X5.929Y-6.1811
X5.954Y-3.081
X5.954Y-3.181
X6.029Y-6.0811
X6.029Y-6.1811
X6.054Y-3.081
X6.054Y-3.181
X6.0981Y-5.7118
X6.0981Y-5.8118
X6.129Y-6.0811
X6.129Y-6.1811
X6.154Y-3.081
X6.154Y-3.181
T0
M30
