G04 #@! TF.FileFunction,Soldermask,Bot*
%FSLAX46Y46*%
G04 Gerber Fmt 4.6, Leading zero omitted, Abs format (unit mm)*
G04 Created by KiCad (PCBNEW (2016-09-07 BZR 7135, Git c8cf783)-product) date Wed Feb  8 14:06:02 2017*
%MOMM*%
%LPD*%
G01*
G04 APERTURE LIST*
%ADD10C,0.100000*%
%ADD11R,1.700000X1.700000*%
%ADD12O,1.700000X1.700000*%
%ADD13R,1.800000X1.800000*%
%ADD14C,1.800000*%
%ADD15R,1.600000X1.600000*%
%ADD16O,1.600000X1.600000*%
G04 APERTURE END LIST*
D10*
D11*
X155677000Y-154459000D03*
D12*
X155677000Y-156999000D03*
X153137000Y-154459000D03*
X153137000Y-156999000D03*
X150597000Y-154459000D03*
X150597000Y-156999000D03*
X148057000Y-154459000D03*
X148057000Y-156999000D03*
X145517000Y-154459000D03*
X145517000Y-156999000D03*
X142977000Y-154459000D03*
X142977000Y-156999000D03*
X140437000Y-154459000D03*
X140437000Y-156999000D03*
X137897000Y-154459000D03*
X137897000Y-156999000D03*
X135357000Y-154459000D03*
X135357000Y-156999000D03*
X132817000Y-154459000D03*
X132817000Y-156999000D03*
X130277000Y-154459000D03*
X130277000Y-156999000D03*
X127737000Y-154459000D03*
X127737000Y-156999000D03*
X125197000Y-154459000D03*
X125197000Y-156999000D03*
X122657000Y-154459000D03*
X122657000Y-156999000D03*
X120117000Y-154459000D03*
X120117000Y-156999000D03*
X117577000Y-154459000D03*
X117577000Y-156999000D03*
X115037000Y-154459000D03*
X115037000Y-156999000D03*
X112497000Y-154459000D03*
X112497000Y-156999000D03*
X109957000Y-154459000D03*
X109957000Y-156999000D03*
X107417000Y-154459000D03*
X107417000Y-156999000D03*
X104877000Y-154459000D03*
X104877000Y-156999000D03*
X102337000Y-154459000D03*
X102337000Y-156999000D03*
X99797000Y-154459000D03*
X99797000Y-156999000D03*
X97257000Y-154459000D03*
X97257000Y-156999000D03*
X94717000Y-154459000D03*
X94717000Y-156999000D03*
X92177000Y-154459000D03*
X92177000Y-156999000D03*
X89637000Y-154459000D03*
X89637000Y-156999000D03*
X87097000Y-154459000D03*
X87097000Y-156999000D03*
X84557000Y-154459000D03*
X84557000Y-156999000D03*
X82017000Y-154459000D03*
X82017000Y-156999000D03*
X79477000Y-154459000D03*
X79477000Y-156999000D03*
X76937000Y-154459000D03*
X76937000Y-156999000D03*
X74397000Y-154459000D03*
X74397000Y-156999000D03*
X71857000Y-154459000D03*
X71857000Y-156999000D03*
X69317000Y-154459000D03*
X69317000Y-156999000D03*
D13*
X72342900Y-92375400D03*
D14*
X72342900Y-89835400D03*
D13*
X72342900Y-97455400D03*
D14*
X72342900Y-94915400D03*
D13*
X72342900Y-102535000D03*
D14*
X72342900Y-99995000D03*
D13*
X72342900Y-107615000D03*
D14*
X72342900Y-105075000D03*
D13*
X72342900Y-112695000D03*
D14*
X72342900Y-110155000D03*
D13*
X72342900Y-117775000D03*
D14*
X72342900Y-115235000D03*
D13*
X72342900Y-122855000D03*
D14*
X72342900Y-120315000D03*
D13*
X72342900Y-127935000D03*
D14*
X72342900Y-125395000D03*
D13*
X95837900Y-92375400D03*
D14*
X95837900Y-89835400D03*
D13*
X95837900Y-97455400D03*
D14*
X95837900Y-94915400D03*
D13*
X95837900Y-102535000D03*
D14*
X95837900Y-99995000D03*
D13*
X95837900Y-107615000D03*
D14*
X95837900Y-105075000D03*
D13*
X95837900Y-112695000D03*
D14*
X95837900Y-110155000D03*
D13*
X95837900Y-117775000D03*
D14*
X95837900Y-115235000D03*
D13*
X95837900Y-122855000D03*
D14*
X95837900Y-120315000D03*
D13*
X95837900Y-127935000D03*
D14*
X95837900Y-125395000D03*
D13*
X120603000Y-92375400D03*
D14*
X120603000Y-89835400D03*
D13*
X120603000Y-97455400D03*
D14*
X120603000Y-94915400D03*
D13*
X120603000Y-102535000D03*
D14*
X120603000Y-99995000D03*
D13*
X120603000Y-107615000D03*
D14*
X120603000Y-105075000D03*
D13*
X120603000Y-112695000D03*
D14*
X120603000Y-110155000D03*
D13*
X120603000Y-117775000D03*
D14*
X120603000Y-115235000D03*
D13*
X120603000Y-122855000D03*
D14*
X120603000Y-120315000D03*
D13*
X120603000Y-127935000D03*
D14*
X120603000Y-125395000D03*
D13*
X142828000Y-92375400D03*
D14*
X142828000Y-89835400D03*
D13*
X142828000Y-97455400D03*
D14*
X142828000Y-94915400D03*
D13*
X142828000Y-102535000D03*
D14*
X142828000Y-99995000D03*
D13*
X142828000Y-107615000D03*
D14*
X142828000Y-105075000D03*
D13*
X142828000Y-112695000D03*
D14*
X142828000Y-110155000D03*
D13*
X142828000Y-117775000D03*
D14*
X142828000Y-115235000D03*
D13*
X142828000Y-122855000D03*
D14*
X142828000Y-120315000D03*
D13*
X142828000Y-127935000D03*
D14*
X142828000Y-125395000D03*
D13*
X142828000Y-87295400D03*
D14*
X142828000Y-84755400D03*
D13*
X120603000Y-87295400D03*
D14*
X120603000Y-84755400D03*
D13*
X95837900Y-87295400D03*
D14*
X95837900Y-84755400D03*
D13*
X72342900Y-87295400D03*
D14*
X72342900Y-84755400D03*
D13*
X119333000Y-135555000D03*
D14*
X116793000Y-135555000D03*
D13*
X124413000Y-135555000D03*
D14*
X121873000Y-135555000D03*
D13*
X129493000Y-135555000D03*
D14*
X126953000Y-135555000D03*
D13*
X134573000Y-135555000D03*
D14*
X132033000Y-135555000D03*
D13*
X140923000Y-135555000D03*
D14*
X138383000Y-135555000D03*
D13*
X146003000Y-135555000D03*
D14*
X143463000Y-135555000D03*
D13*
X151083000Y-135555000D03*
D14*
X148543000Y-135555000D03*
D13*
X156163000Y-135555000D03*
D14*
X153623000Y-135555000D03*
D13*
X71072900Y-135555000D03*
D14*
X68532900Y-135555000D03*
D13*
X76152900Y-135515000D03*
D14*
X73612900Y-135515000D03*
D13*
X81232900Y-135555000D03*
D14*
X78692900Y-135555000D03*
D13*
X86312900Y-135515000D03*
D14*
X83772900Y-135515000D03*
D13*
X92662900Y-135515000D03*
D14*
X90122900Y-135515000D03*
D13*
X97742900Y-135555000D03*
D14*
X95202900Y-135555000D03*
D13*
X102823000Y-135555000D03*
D14*
X100283000Y-135555000D03*
D13*
X107903000Y-135555000D03*
D14*
X105363000Y-135555000D03*
D11*
X154893000Y-147620000D03*
D12*
X154893000Y-145080000D03*
D11*
X106633000Y-147620000D03*
D12*
X106633000Y-145080000D03*
D11*
X149813000Y-147620000D03*
D12*
X149813000Y-145080000D03*
D11*
X101553000Y-147620000D03*
D12*
X101553000Y-145080000D03*
D11*
X144733000Y-147620000D03*
D12*
X144733000Y-145080000D03*
D11*
X96472900Y-147620000D03*
D12*
X96472900Y-145080000D03*
D11*
X139653000Y-147620000D03*
D12*
X139653000Y-145080000D03*
D11*
X91392900Y-147620000D03*
D12*
X91392900Y-145080000D03*
D11*
X133303000Y-147620000D03*
D12*
X133303000Y-145080000D03*
D11*
X85042900Y-147620000D03*
D12*
X85042900Y-145080000D03*
D11*
X128223000Y-147620000D03*
D12*
X128223000Y-145080000D03*
D11*
X79962900Y-147620000D03*
D12*
X79962900Y-145080000D03*
D11*
X123143000Y-147620000D03*
D12*
X123143000Y-145080000D03*
D11*
X74882900Y-147620000D03*
D12*
X74882900Y-145080000D03*
D11*
X118063000Y-147620000D03*
D12*
X118063000Y-145080000D03*
D11*
X69802900Y-147620000D03*
D12*
X69802900Y-145080000D03*
D15*
X66627900Y-127300000D03*
D16*
X66627900Y-124760000D03*
X66627900Y-122220000D03*
X66627900Y-119680000D03*
X66627900Y-117140000D03*
X66627900Y-114600000D03*
X66627900Y-112060000D03*
X66627900Y-109520000D03*
X66627900Y-106980000D03*
D15*
X90122900Y-127300000D03*
D16*
X90122900Y-124760000D03*
X90122900Y-122220000D03*
X90122900Y-119680000D03*
X90122900Y-117140000D03*
X90122900Y-114600000D03*
X90122900Y-112060000D03*
X90122900Y-109520000D03*
X90122900Y-106980000D03*
D15*
X114888000Y-127300000D03*
D16*
X114888000Y-124760000D03*
X114888000Y-122220000D03*
X114888000Y-119680000D03*
X114888000Y-117140000D03*
X114888000Y-114600000D03*
X114888000Y-112060000D03*
X114888000Y-109520000D03*
X114888000Y-106980000D03*
D15*
X137113000Y-127300000D03*
D16*
X137113000Y-124760000D03*
X137113000Y-122220000D03*
X137113000Y-119680000D03*
X137113000Y-117140000D03*
X137113000Y-114600000D03*
X137113000Y-112060000D03*
X137113000Y-109520000D03*
X137113000Y-106980000D03*
D15*
X158068000Y-127300000D03*
D16*
X158068000Y-124760000D03*
X158068000Y-122220000D03*
X158068000Y-119680000D03*
X158068000Y-117140000D03*
X158068000Y-114600000D03*
X158068000Y-112060000D03*
X158068000Y-109520000D03*
X158068000Y-106980000D03*
D15*
X114253000Y-141270000D03*
D16*
X116793000Y-141270000D03*
X119333000Y-141270000D03*
X121873000Y-141270000D03*
X124413000Y-141270000D03*
X126953000Y-141270000D03*
X129493000Y-141270000D03*
X132033000Y-141270000D03*
X134573000Y-141270000D03*
D15*
X65992900Y-141270000D03*
D16*
X68532900Y-141270000D03*
X71072900Y-141270000D03*
X73612900Y-141270000D03*
X76152900Y-141270000D03*
X78692900Y-141270000D03*
X81232900Y-141270000D03*
X83772900Y-141270000D03*
X86312900Y-141270000D03*
D15*
X158703000Y-141270000D03*
D16*
X156163000Y-141270000D03*
X153623000Y-141270000D03*
X151083000Y-141270000D03*
X148543000Y-141270000D03*
X146003000Y-141270000D03*
X143463000Y-141270000D03*
X140923000Y-141270000D03*
X138383000Y-141270000D03*
D15*
X110443000Y-141270000D03*
D16*
X107903000Y-141270000D03*
X105363000Y-141270000D03*
X102823000Y-141270000D03*
X100283000Y-141270000D03*
X97743000Y-141270000D03*
X95203000Y-141270000D03*
X92663000Y-141270000D03*
X90123000Y-141270000D03*
D11*
X156312000Y-80798600D03*
D12*
X156312000Y-78258600D03*
X153772000Y-80798600D03*
X153772000Y-78258600D03*
X151232000Y-80798600D03*
X151232000Y-78258600D03*
X148692000Y-80798600D03*
X148692000Y-78258600D03*
X146152000Y-80798600D03*
X146152000Y-78258600D03*
X143612000Y-80798600D03*
X143612000Y-78258600D03*
X141072000Y-80798600D03*
X141072000Y-78258600D03*
X138532000Y-80798600D03*
X138532000Y-78258600D03*
X135992000Y-80798600D03*
X135992000Y-78258600D03*
X133452000Y-80798600D03*
X133452000Y-78258600D03*
X130912000Y-80798600D03*
X130912000Y-78258600D03*
X128372000Y-80798600D03*
X128372000Y-78258600D03*
X125832000Y-80798600D03*
X125832000Y-78258600D03*
X123292000Y-80798600D03*
X123292000Y-78258600D03*
X120752000Y-80798600D03*
X120752000Y-78258600D03*
X118212000Y-80798600D03*
X118212000Y-78258600D03*
X115672000Y-80798600D03*
X115672000Y-78258600D03*
X113132000Y-80798600D03*
X113132000Y-78258600D03*
X110592000Y-80798600D03*
X110592000Y-78258600D03*
X108052000Y-80798600D03*
X108052000Y-78258600D03*
X105512000Y-80798600D03*
X105512000Y-78258600D03*
X102972000Y-80798600D03*
X102972000Y-78258600D03*
X100432000Y-80798600D03*
X100432000Y-78258600D03*
X97892000Y-80798600D03*
X97892000Y-78258600D03*
X95352000Y-80798600D03*
X95352000Y-78258600D03*
X92812000Y-80798600D03*
X92812000Y-78258600D03*
X90272000Y-80798600D03*
X90272000Y-78258600D03*
X87732000Y-80798600D03*
X87732000Y-78258600D03*
X85192000Y-80798600D03*
X85192000Y-78258600D03*
X82652000Y-80798600D03*
X82652000Y-78258600D03*
X80112000Y-80798600D03*
X80112000Y-78258600D03*
X77572000Y-80798600D03*
X77572000Y-78258600D03*
X75032000Y-80798600D03*
X75032000Y-78258600D03*
X72492000Y-80798600D03*
X72492000Y-78258600D03*
X69952000Y-80798600D03*
X69952000Y-78258600D03*
M02*
