G04 #@! TF.FileFunction,Copper,L2,Bot,Signal*
%FSLAX46Y46*%
G04 Gerber Fmt 4.6, Leading zero omitted, Abs format (unit mm)*
G04 Created by KiCad (PCBNEW (2016-09-07 BZR 7135, Git c8cf783)-product) date Wed Feb  8 14:06:02 2017*
%MOMM*%
%LPD*%
G01*
G04 APERTURE LIST*
%ADD10C,0.100000*%
%ADD11R,1.700000X1.700000*%
%ADD12O,1.700000X1.700000*%
%ADD13R,1.800000X1.800000*%
%ADD14C,1.800000*%
%ADD15R,1.600000X1.600000*%
%ADD16O,1.600000X1.600000*%
%ADD17C,0.800000*%
%ADD18C,0.250000*%
G04 APERTURE END LIST*
D10*
D11*
X155677000Y-154459000D03*
D12*
X155677000Y-156999000D03*
X153137000Y-154459000D03*
X153137000Y-156999000D03*
X150597000Y-154459000D03*
X150597000Y-156999000D03*
X148057000Y-154459000D03*
X148057000Y-156999000D03*
X145517000Y-154459000D03*
X145517000Y-156999000D03*
X142977000Y-154459000D03*
X142977000Y-156999000D03*
X140437000Y-154459000D03*
X140437000Y-156999000D03*
X137897000Y-154459000D03*
X137897000Y-156999000D03*
X135357000Y-154459000D03*
X135357000Y-156999000D03*
X132817000Y-154459000D03*
X132817000Y-156999000D03*
X130277000Y-154459000D03*
X130277000Y-156999000D03*
X127737000Y-154459000D03*
X127737000Y-156999000D03*
X125197000Y-154459000D03*
X125197000Y-156999000D03*
X122657000Y-154459000D03*
X122657000Y-156999000D03*
X120117000Y-154459000D03*
X120117000Y-156999000D03*
X117577000Y-154459000D03*
X117577000Y-156999000D03*
X115037000Y-154459000D03*
X115037000Y-156999000D03*
X112497000Y-154459000D03*
X112497000Y-156999000D03*
X109957000Y-154459000D03*
X109957000Y-156999000D03*
X107417000Y-154459000D03*
X107417000Y-156999000D03*
X104877000Y-154459000D03*
X104877000Y-156999000D03*
X102337000Y-154459000D03*
X102337000Y-156999000D03*
X99797000Y-154459000D03*
X99797000Y-156999000D03*
X97257000Y-154459000D03*
X97257000Y-156999000D03*
X94717000Y-154459000D03*
X94717000Y-156999000D03*
X92177000Y-154459000D03*
X92177000Y-156999000D03*
X89637000Y-154459000D03*
X89637000Y-156999000D03*
X87097000Y-154459000D03*
X87097000Y-156999000D03*
X84557000Y-154459000D03*
X84557000Y-156999000D03*
X82017000Y-154459000D03*
X82017000Y-156999000D03*
X79477000Y-154459000D03*
X79477000Y-156999000D03*
X76937000Y-154459000D03*
X76937000Y-156999000D03*
X74397000Y-154459000D03*
X74397000Y-156999000D03*
X71857000Y-154459000D03*
X71857000Y-156999000D03*
X69317000Y-154459000D03*
X69317000Y-156999000D03*
D13*
X72342900Y-92375400D03*
D14*
X72342900Y-89835400D03*
D13*
X72342900Y-97455400D03*
D14*
X72342900Y-94915400D03*
D13*
X72342900Y-102535000D03*
D14*
X72342900Y-99995000D03*
D13*
X72342900Y-107615000D03*
D14*
X72342900Y-105075000D03*
D13*
X72342900Y-112695000D03*
D14*
X72342900Y-110155000D03*
D13*
X72342900Y-117775000D03*
D14*
X72342900Y-115235000D03*
D13*
X72342900Y-122855000D03*
D14*
X72342900Y-120315000D03*
D13*
X72342900Y-127935000D03*
D14*
X72342900Y-125395000D03*
D13*
X95837900Y-92375400D03*
D14*
X95837900Y-89835400D03*
D13*
X95837900Y-97455400D03*
D14*
X95837900Y-94915400D03*
D13*
X95837900Y-102535000D03*
D14*
X95837900Y-99995000D03*
D13*
X95837900Y-107615000D03*
D14*
X95837900Y-105075000D03*
D13*
X95837900Y-112695000D03*
D14*
X95837900Y-110155000D03*
D13*
X95837900Y-117775000D03*
D14*
X95837900Y-115235000D03*
D13*
X95837900Y-122855000D03*
D14*
X95837900Y-120315000D03*
D13*
X95837900Y-127935000D03*
D14*
X95837900Y-125395000D03*
D13*
X120603000Y-92375400D03*
D14*
X120603000Y-89835400D03*
D13*
X120603000Y-97455400D03*
D14*
X120603000Y-94915400D03*
D13*
X120603000Y-102535000D03*
D14*
X120603000Y-99995000D03*
D13*
X120603000Y-107615000D03*
D14*
X120603000Y-105075000D03*
D13*
X120603000Y-112695000D03*
D14*
X120603000Y-110155000D03*
D13*
X120603000Y-117775000D03*
D14*
X120603000Y-115235000D03*
D13*
X120603000Y-122855000D03*
D14*
X120603000Y-120315000D03*
D13*
X120603000Y-127935000D03*
D14*
X120603000Y-125395000D03*
D13*
X142828000Y-92375400D03*
D14*
X142828000Y-89835400D03*
D13*
X142828000Y-97455400D03*
D14*
X142828000Y-94915400D03*
D13*
X142828000Y-102535000D03*
D14*
X142828000Y-99995000D03*
D13*
X142828000Y-107615000D03*
D14*
X142828000Y-105075000D03*
D13*
X142828000Y-112695000D03*
D14*
X142828000Y-110155000D03*
D13*
X142828000Y-117775000D03*
D14*
X142828000Y-115235000D03*
D13*
X142828000Y-122855000D03*
D14*
X142828000Y-120315000D03*
D13*
X142828000Y-127935000D03*
D14*
X142828000Y-125395000D03*
D13*
X142828000Y-87295400D03*
D14*
X142828000Y-84755400D03*
D13*
X120603000Y-87295400D03*
D14*
X120603000Y-84755400D03*
D13*
X95837900Y-87295400D03*
D14*
X95837900Y-84755400D03*
D13*
X72342900Y-87295400D03*
D14*
X72342900Y-84755400D03*
D13*
X119333000Y-135555000D03*
D14*
X116793000Y-135555000D03*
D13*
X124413000Y-135555000D03*
D14*
X121873000Y-135555000D03*
D13*
X129493000Y-135555000D03*
D14*
X126953000Y-135555000D03*
D13*
X134573000Y-135555000D03*
D14*
X132033000Y-135555000D03*
D13*
X140923000Y-135555000D03*
D14*
X138383000Y-135555000D03*
D13*
X146003000Y-135555000D03*
D14*
X143463000Y-135555000D03*
D13*
X151083000Y-135555000D03*
D14*
X148543000Y-135555000D03*
D13*
X156163000Y-135555000D03*
D14*
X153623000Y-135555000D03*
D13*
X71072900Y-135555000D03*
D14*
X68532900Y-135555000D03*
D13*
X76152900Y-135515000D03*
D14*
X73612900Y-135515000D03*
D13*
X81232900Y-135555000D03*
D14*
X78692900Y-135555000D03*
D13*
X86312900Y-135515000D03*
D14*
X83772900Y-135515000D03*
D13*
X92662900Y-135515000D03*
D14*
X90122900Y-135515000D03*
D13*
X97742900Y-135555000D03*
D14*
X95202900Y-135555000D03*
D13*
X102823000Y-135555000D03*
D14*
X100283000Y-135555000D03*
D13*
X107903000Y-135555000D03*
D14*
X105363000Y-135555000D03*
D11*
X154893000Y-147620000D03*
D12*
X154893000Y-145080000D03*
D11*
X106633000Y-147620000D03*
D12*
X106633000Y-145080000D03*
D11*
X149813000Y-147620000D03*
D12*
X149813000Y-145080000D03*
D11*
X101553000Y-147620000D03*
D12*
X101553000Y-145080000D03*
D11*
X144733000Y-147620000D03*
D12*
X144733000Y-145080000D03*
D11*
X96472900Y-147620000D03*
D12*
X96472900Y-145080000D03*
D11*
X139653000Y-147620000D03*
D12*
X139653000Y-145080000D03*
D11*
X91392900Y-147620000D03*
D12*
X91392900Y-145080000D03*
D11*
X133303000Y-147620000D03*
D12*
X133303000Y-145080000D03*
D11*
X85042900Y-147620000D03*
D12*
X85042900Y-145080000D03*
D11*
X128223000Y-147620000D03*
D12*
X128223000Y-145080000D03*
D11*
X79962900Y-147620000D03*
D12*
X79962900Y-145080000D03*
D11*
X123143000Y-147620000D03*
D12*
X123143000Y-145080000D03*
D11*
X74882900Y-147620000D03*
D12*
X74882900Y-145080000D03*
D11*
X118063000Y-147620000D03*
D12*
X118063000Y-145080000D03*
D11*
X69802900Y-147620000D03*
D12*
X69802900Y-145080000D03*
D15*
X66627900Y-127300000D03*
D16*
X66627900Y-124760000D03*
X66627900Y-122220000D03*
X66627900Y-119680000D03*
X66627900Y-117140000D03*
X66627900Y-114600000D03*
X66627900Y-112060000D03*
X66627900Y-109520000D03*
X66627900Y-106980000D03*
D15*
X90122900Y-127300000D03*
D16*
X90122900Y-124760000D03*
X90122900Y-122220000D03*
X90122900Y-119680000D03*
X90122900Y-117140000D03*
X90122900Y-114600000D03*
X90122900Y-112060000D03*
X90122900Y-109520000D03*
X90122900Y-106980000D03*
D15*
X114888000Y-127300000D03*
D16*
X114888000Y-124760000D03*
X114888000Y-122220000D03*
X114888000Y-119680000D03*
X114888000Y-117140000D03*
X114888000Y-114600000D03*
X114888000Y-112060000D03*
X114888000Y-109520000D03*
X114888000Y-106980000D03*
D15*
X137113000Y-127300000D03*
D16*
X137113000Y-124760000D03*
X137113000Y-122220000D03*
X137113000Y-119680000D03*
X137113000Y-117140000D03*
X137113000Y-114600000D03*
X137113000Y-112060000D03*
X137113000Y-109520000D03*
X137113000Y-106980000D03*
D15*
X158068000Y-127300000D03*
D16*
X158068000Y-124760000D03*
X158068000Y-122220000D03*
X158068000Y-119680000D03*
X158068000Y-117140000D03*
X158068000Y-114600000D03*
X158068000Y-112060000D03*
X158068000Y-109520000D03*
X158068000Y-106980000D03*
D15*
X114253000Y-141270000D03*
D16*
X116793000Y-141270000D03*
X119333000Y-141270000D03*
X121873000Y-141270000D03*
X124413000Y-141270000D03*
X126953000Y-141270000D03*
X129493000Y-141270000D03*
X132033000Y-141270000D03*
X134573000Y-141270000D03*
D15*
X65992900Y-141270000D03*
D16*
X68532900Y-141270000D03*
X71072900Y-141270000D03*
X73612900Y-141270000D03*
X76152900Y-141270000D03*
X78692900Y-141270000D03*
X81232900Y-141270000D03*
X83772900Y-141270000D03*
X86312900Y-141270000D03*
D15*
X158703000Y-141270000D03*
D16*
X156163000Y-141270000D03*
X153623000Y-141270000D03*
X151083000Y-141270000D03*
X148543000Y-141270000D03*
X146003000Y-141270000D03*
X143463000Y-141270000D03*
X140923000Y-141270000D03*
X138383000Y-141270000D03*
D15*
X110443000Y-141270000D03*
D16*
X107903000Y-141270000D03*
X105363000Y-141270000D03*
X102823000Y-141270000D03*
X100283000Y-141270000D03*
X97743000Y-141270000D03*
X95203000Y-141270000D03*
X92663000Y-141270000D03*
X90123000Y-141270000D03*
D11*
X156312000Y-80798600D03*
D12*
X156312000Y-78258600D03*
X153772000Y-80798600D03*
X153772000Y-78258600D03*
X151232000Y-80798600D03*
X151232000Y-78258600D03*
X148692000Y-80798600D03*
X148692000Y-78258600D03*
X146152000Y-80798600D03*
X146152000Y-78258600D03*
X143612000Y-80798600D03*
X143612000Y-78258600D03*
X141072000Y-80798600D03*
X141072000Y-78258600D03*
X138532000Y-80798600D03*
X138532000Y-78258600D03*
X135992000Y-80798600D03*
X135992000Y-78258600D03*
X133452000Y-80798600D03*
X133452000Y-78258600D03*
X130912000Y-80798600D03*
X130912000Y-78258600D03*
X128372000Y-80798600D03*
X128372000Y-78258600D03*
X125832000Y-80798600D03*
X125832000Y-78258600D03*
X123292000Y-80798600D03*
X123292000Y-78258600D03*
X120752000Y-80798600D03*
X120752000Y-78258600D03*
X118212000Y-80798600D03*
X118212000Y-78258600D03*
X115672000Y-80798600D03*
X115672000Y-78258600D03*
X113132000Y-80798600D03*
X113132000Y-78258600D03*
X110592000Y-80798600D03*
X110592000Y-78258600D03*
X108052000Y-80798600D03*
X108052000Y-78258600D03*
X105512000Y-80798600D03*
X105512000Y-78258600D03*
X102972000Y-80798600D03*
X102972000Y-78258600D03*
X100432000Y-80798600D03*
X100432000Y-78258600D03*
X97892000Y-80798600D03*
X97892000Y-78258600D03*
X95352000Y-80798600D03*
X95352000Y-78258600D03*
X92812000Y-80798600D03*
X92812000Y-78258600D03*
X90272000Y-80798600D03*
X90272000Y-78258600D03*
X87732000Y-80798600D03*
X87732000Y-78258600D03*
X85192000Y-80798600D03*
X85192000Y-78258600D03*
X82652000Y-80798600D03*
X82652000Y-78258600D03*
X80112000Y-80798600D03*
X80112000Y-78258600D03*
X77572000Y-80798600D03*
X77572000Y-78258600D03*
X75032000Y-80798600D03*
X75032000Y-78258600D03*
X72492000Y-80798600D03*
X72492000Y-78258600D03*
X69952000Y-80798600D03*
X69952000Y-78258600D03*
D17*
X162211300Y-145837900D03*
X82243800Y-132184400D03*
X80887400Y-139563900D03*
X100773800Y-153239400D03*
X145995500Y-82276200D03*
X93080500Y-76794500D03*
X93810300Y-82333600D03*
X132861100Y-95594800D03*
X133518200Y-96395100D03*
X130912000Y-101076900D03*
X70842000Y-121540400D03*
X130881300Y-102083100D03*
X123908600Y-93973500D03*
X123876600Y-95129900D03*
X71187200Y-133817800D03*
X119136000Y-152214300D03*
X135088000Y-152533400D03*
X127628700Y-85594500D03*
X98971200Y-148585200D03*
X123267800Y-83301200D03*
X99830700Y-84250000D03*
X87247600Y-118410000D03*
X85969900Y-150892800D03*
X72445600Y-130104000D03*
X102645800Y-83078700D03*
X99398100Y-101309600D03*
X81253500Y-109362300D03*
X86893800Y-150237600D03*
X101880000Y-82342700D03*
X98956300Y-103142600D03*
X154508200Y-126167300D03*
X129862200Y-158951800D03*
X125065300Y-87339600D03*
X123581600Y-126041100D03*
X118622100Y-139564800D03*
X121070600Y-144649800D03*
X114950400Y-82176800D03*
X118288300Y-86954300D03*
X109441700Y-150843900D03*
X125084200Y-91486800D03*
X114018300Y-89040900D03*
X113272700Y-95514300D03*
X106782100Y-81586700D03*
X116298400Y-132865000D03*
X127824600Y-152513600D03*
X110796700Y-132376900D03*
X112038800Y-137021200D03*
X88889200Y-97342700D03*
X106565500Y-85032300D03*
X89438000Y-93955100D03*
X82969100Y-130681600D03*
X146109700Y-118727700D03*
X78747300Y-117775000D03*
X75032000Y-121589100D03*
X77422900Y-129956200D03*
X70074400Y-131406900D03*
X146751800Y-112042600D03*
X74349700Y-123612800D03*
X68283100Y-130646900D03*
X69407400Y-108206200D03*
X69401300Y-110825400D03*
X90798200Y-94154200D03*
X91788000Y-102458000D03*
X136194400Y-98943200D03*
X153174000Y-111726500D03*
X144351100Y-101309600D03*
X144796500Y-93225400D03*
D18*
X162211300Y-146749400D02*
X155677000Y-153283700D01*
X162211300Y-145837900D02*
X162211300Y-146749400D01*
X155677000Y-154459000D02*
X155677000Y-153283700D01*
X68532900Y-142634700D02*
X69802900Y-143904700D01*
X68532900Y-141270000D02*
X68532900Y-142634700D01*
X69802900Y-145080000D02*
X69802900Y-143904700D01*
X156312000Y-78258600D02*
X156312000Y-79433900D01*
X155677000Y-156999000D02*
X155677000Y-155823700D01*
X157120000Y-79433900D02*
X156312000Y-79433900D01*
X162936600Y-85250500D02*
X157120000Y-79433900D01*
X162936600Y-149372100D02*
X162936600Y-85250500D01*
X156485000Y-155823700D02*
X162936600Y-149372100D01*
X155677000Y-155823700D02*
X156485000Y-155823700D01*
X74882900Y-138010300D02*
X76152900Y-136740300D01*
X74882900Y-145080000D02*
X74882900Y-138010300D01*
X76152900Y-135515000D02*
X76152900Y-136740300D01*
X82243800Y-133318800D02*
X82243800Y-132184400D01*
X81232900Y-134329700D02*
X82243800Y-133318800D01*
X81232900Y-135555000D02*
X81232900Y-134942300D01*
X81232900Y-134942300D02*
X81232900Y-134329700D01*
X80887400Y-135287800D02*
X80887400Y-139563900D01*
X81232900Y-134942300D02*
X80887400Y-135287800D01*
X151232000Y-80798600D02*
X151232000Y-81973900D01*
X150597000Y-154459000D02*
X151772300Y-154459000D01*
X85042900Y-138010300D02*
X86312900Y-136740300D01*
X85042900Y-145080000D02*
X85042900Y-138010300D01*
X86312900Y-135515000D02*
X86312900Y-136740300D01*
X151772300Y-154091600D02*
X151772300Y-154459000D01*
X152580200Y-153283700D02*
X151772300Y-154091600D01*
X153322000Y-153283700D02*
X152580200Y-153283700D01*
X161035700Y-145570000D02*
X153322000Y-153283700D01*
X161035700Y-145350900D02*
X161035700Y-145570000D01*
X161733100Y-144653500D02*
X161035700Y-145350900D01*
X161733100Y-92475000D02*
X161733100Y-144653500D01*
X151232000Y-81973900D02*
X161733100Y-92475000D01*
X92662900Y-135515000D02*
X92662900Y-136740300D01*
X150597000Y-156999000D02*
X149421700Y-156999000D01*
X91392900Y-138010300D02*
X92662900Y-136740300D01*
X91392900Y-145080000D02*
X91392900Y-138010300D01*
X149421700Y-157366300D02*
X149421700Y-156999000D01*
X146579500Y-160208500D02*
X149421700Y-157366300D01*
X103823100Y-160208500D02*
X146579500Y-160208500D01*
X101067000Y-157452400D02*
X103823100Y-160208500D01*
X101067000Y-156568000D02*
X101067000Y-157452400D01*
X100322600Y-155823600D02*
X101067000Y-156568000D01*
X91808100Y-155823600D02*
X100322600Y-155823600D01*
X91001600Y-155017100D02*
X91808100Y-155823600D01*
X91001600Y-150666200D02*
X91001600Y-155017100D01*
X90217500Y-149882100D02*
X91001600Y-150666200D01*
X90217500Y-146622700D02*
X90217500Y-149882100D01*
X90584900Y-146255300D02*
X90217500Y-146622700D01*
X91392900Y-146255300D02*
X90584900Y-146255300D01*
X91392900Y-145080000D02*
X91392900Y-146255300D01*
X96472900Y-145080000D02*
X96472900Y-143904700D01*
X98896200Y-137933600D02*
X97742900Y-136780300D01*
X98896200Y-141775200D02*
X98896200Y-137933600D01*
X96766700Y-143904700D02*
X98896200Y-141775200D01*
X96472900Y-143904700D02*
X96766700Y-143904700D01*
X97742900Y-135555000D02*
X97742900Y-136780300D01*
X148692000Y-80798600D02*
X148692000Y-81973900D01*
X148057000Y-154459000D02*
X149232300Y-154459000D01*
X149232300Y-154088600D02*
X149232300Y-154459000D01*
X150037200Y-153283700D02*
X149232300Y-154088600D01*
X150305600Y-153283700D02*
X150037200Y-153283700D01*
X153484200Y-150105100D02*
X150305600Y-153283700D01*
X155853800Y-150105100D02*
X153484200Y-150105100D01*
X160585400Y-145373500D02*
X155853800Y-150105100D01*
X160585400Y-145164300D02*
X160585400Y-145373500D01*
X161282700Y-144467000D02*
X160585400Y-145164300D01*
X161282700Y-94564600D02*
X161282700Y-144467000D01*
X148692000Y-81973900D02*
X161282700Y-94564600D01*
X148692000Y-78258600D02*
X149867300Y-78258600D01*
X149242800Y-155813200D02*
X148057000Y-156999000D01*
X153449700Y-155813200D02*
X149242800Y-155813200D01*
X154407000Y-154855900D02*
X153449700Y-155813200D01*
X154407000Y-153189000D02*
X154407000Y-154855900D01*
X161486000Y-146110000D02*
X154407000Y-153189000D01*
X161486000Y-145537500D02*
X161486000Y-146110000D01*
X162183500Y-144840000D02*
X161486000Y-145537500D01*
X162183500Y-92066900D02*
X162183500Y-144840000D01*
X152407400Y-82290800D02*
X162183500Y-92066900D01*
X152407400Y-80309200D02*
X152407400Y-82290800D01*
X151532100Y-79433900D02*
X152407400Y-80309200D01*
X150675200Y-79433900D02*
X151532100Y-79433900D01*
X149867300Y-78626000D02*
X150675200Y-79433900D01*
X149867300Y-78258600D02*
X149867300Y-78626000D01*
X100377600Y-152843200D02*
X100773800Y-153239400D01*
X100377600Y-146624500D02*
X100377600Y-152843200D01*
X101922100Y-145080000D02*
X100377600Y-146624500D01*
X102031800Y-145080000D02*
X101922100Y-145080000D01*
X101553000Y-145080000D02*
X102031800Y-145080000D01*
X104013600Y-137970900D02*
X102823000Y-136780300D01*
X104013600Y-143098200D02*
X104013600Y-137970900D01*
X102031800Y-145080000D02*
X104013600Y-143098200D01*
X102823000Y-135555000D02*
X102823000Y-136780300D01*
X109034400Y-137911700D02*
X107903000Y-136780300D01*
X109034400Y-141797100D02*
X109034400Y-137911700D01*
X106926800Y-143904700D02*
X109034400Y-141797100D01*
X106633000Y-143904700D02*
X106926800Y-143904700D01*
X106633000Y-145080000D02*
X106633000Y-143904700D01*
X107903000Y-135555000D02*
X107903000Y-136780300D01*
X150137100Y-149838900D02*
X145517000Y-154459000D01*
X152284500Y-149838900D02*
X150137100Y-149838900D01*
X153328000Y-148795400D02*
X152284500Y-149838900D01*
X155889600Y-148795400D02*
X153328000Y-148795400D01*
X159684800Y-145000200D02*
X155889600Y-148795400D01*
X159684800Y-144791100D02*
X159684800Y-145000200D01*
X160344300Y-144131600D02*
X159684800Y-144791100D01*
X160344300Y-99806100D02*
X160344300Y-144131600D01*
X145995500Y-85457300D02*
X160344300Y-99806100D01*
X145995500Y-82276200D02*
X145995500Y-85457300D01*
X146152000Y-78258600D02*
X145564400Y-78258600D01*
X145517000Y-156999000D02*
X145517000Y-155823700D01*
X95837900Y-102535000D02*
X95837900Y-101309700D01*
X145884400Y-155823700D02*
X145517000Y-155823700D01*
X146692300Y-155015800D02*
X145884400Y-155823700D01*
X146692300Y-154157300D02*
X146692300Y-155015800D01*
X148701400Y-152148200D02*
X146692300Y-154157300D01*
X150753800Y-152148200D02*
X148701400Y-152148200D01*
X153247300Y-149654700D02*
X150753800Y-152148200D01*
X155667200Y-149654700D02*
X153247300Y-149654700D01*
X160135100Y-145186800D02*
X155667200Y-149654700D01*
X160135100Y-144977700D02*
X160135100Y-145186800D01*
X160794700Y-144318100D02*
X160135100Y-144977700D01*
X160794700Y-99619600D02*
X160794700Y-144318100D01*
X147422000Y-86246900D02*
X160794700Y-99619600D01*
X147422000Y-80116200D02*
X147422000Y-86246900D01*
X145564400Y-78258600D02*
X147422000Y-80116200D01*
X93810300Y-99798500D02*
X93810300Y-82333600D01*
X95321500Y-101309700D02*
X93810300Y-99798500D01*
X95837900Y-101309700D02*
X95321500Y-101309700D01*
X94705300Y-75169700D02*
X93080500Y-76794500D01*
X142475500Y-75169700D02*
X94705300Y-75169700D01*
X145564400Y-78258600D02*
X142475500Y-75169700D01*
X137897000Y-156999000D02*
X137897000Y-155823700D01*
X138532000Y-78846200D02*
X138532000Y-79433900D01*
X138532000Y-78846200D02*
X138532000Y-78258600D01*
X138532000Y-78258600D02*
X137356700Y-78258600D01*
X95837900Y-87295400D02*
X95837900Y-86070100D01*
X95378300Y-86070100D02*
X95837900Y-86070100D01*
X94612600Y-85304400D02*
X95378300Y-86070100D01*
X94612600Y-82055900D02*
X94612600Y-85304400D01*
X94139400Y-81582700D02*
X94612600Y-82055900D01*
X94139400Y-77791000D02*
X94139400Y-81582700D01*
X96288800Y-75641600D02*
X94139400Y-77791000D01*
X135107000Y-75641600D02*
X96288800Y-75641600D01*
X137356700Y-77891300D02*
X135107000Y-75641600D01*
X137356700Y-78258600D02*
X137356700Y-77891300D01*
X138899400Y-79433900D02*
X138532000Y-79433900D01*
X139707300Y-80241800D02*
X138899400Y-79433900D01*
X139707300Y-81153500D02*
X139707300Y-80241800D01*
X141437800Y-82884000D02*
X139707300Y-81153500D01*
X143364600Y-82884000D02*
X141437800Y-82884000D01*
X144912900Y-84432300D02*
X143364600Y-82884000D01*
X144912900Y-85069300D02*
X144912900Y-84432300D01*
X159871400Y-100027800D02*
X144912900Y-85069300D01*
X159871400Y-142191600D02*
X159871400Y-100027800D01*
X155753000Y-146310000D02*
X159871400Y-142191600D01*
X153906800Y-146310000D02*
X155753000Y-146310000D01*
X151053500Y-149163300D02*
X153906800Y-146310000D01*
X144022800Y-149163300D02*
X151053500Y-149163300D01*
X139072300Y-154113800D02*
X144022800Y-149163300D01*
X139072300Y-155015800D02*
X139072300Y-154113800D01*
X138264400Y-155823700D02*
X139072300Y-155015800D01*
X137897000Y-155823700D02*
X138264400Y-155823700D01*
X135357000Y-154459000D02*
X135357000Y-153283700D01*
X136175800Y-153283700D02*
X135357000Y-153283700D01*
X139584800Y-149874700D02*
X136175800Y-153283700D01*
X140221700Y-149874700D02*
X139584800Y-149874700D01*
X141688400Y-148408000D02*
X140221700Y-149874700D01*
X141688400Y-145648800D02*
X141688400Y-148408000D01*
X144733000Y-142604200D02*
X141688400Y-145648800D01*
X144733000Y-140945200D02*
X144733000Y-142604200D01*
X148362800Y-137315400D02*
X144733000Y-140945200D01*
X156677300Y-137315400D02*
X148362800Y-137315400D01*
X157405000Y-136587700D02*
X156677300Y-137315400D01*
X157405000Y-132221300D02*
X157405000Y-136587700D01*
X155683900Y-130500200D02*
X157405000Y-132221300D01*
X155683900Y-105138500D02*
X155683900Y-130500200D01*
X144071200Y-93525800D02*
X155683900Y-105138500D01*
X144071200Y-89297200D02*
X144071200Y-93525800D01*
X143319000Y-88545000D02*
X144071200Y-89297200D01*
X141809600Y-88545000D02*
X143319000Y-88545000D01*
X135992000Y-82727400D02*
X141809600Y-88545000D01*
X135992000Y-80798600D02*
X135992000Y-82727400D01*
X142828000Y-87295400D02*
X142828000Y-86682700D01*
X135992000Y-78258600D02*
X135992000Y-79433900D01*
X140787500Y-84642200D02*
X140963100Y-84817700D01*
X140692000Y-84642200D02*
X140787500Y-84642200D01*
X137167300Y-81117500D02*
X140692000Y-84642200D01*
X137167300Y-80241800D02*
X137167300Y-81117500D01*
X136359400Y-79433900D02*
X137167300Y-80241800D01*
X135992000Y-79433900D02*
X136359400Y-79433900D01*
X140963100Y-84817700D02*
X142828000Y-86682700D01*
X135357000Y-156999000D02*
X135357000Y-155823700D01*
X142285500Y-83495300D02*
X140963100Y-84817700D01*
X143339000Y-83495300D02*
X142285500Y-83495300D01*
X144229700Y-84386000D02*
X143339000Y-83495300D01*
X144229700Y-85520200D02*
X144229700Y-84386000D01*
X159203800Y-100494300D02*
X144229700Y-85520200D01*
X159203800Y-125233300D02*
X159203800Y-100494300D01*
X158262500Y-126174600D02*
X159203800Y-125233300D01*
X157065600Y-126174600D02*
X158262500Y-126174600D01*
X156942600Y-126297600D02*
X157065600Y-126174600D01*
X156942600Y-130105700D02*
X156942600Y-126297600D01*
X157392900Y-130556000D02*
X156942600Y-130105700D01*
X157392900Y-131192800D02*
X157392900Y-130556000D01*
X157909700Y-131709600D02*
X157392900Y-131192800D01*
X157909700Y-136763700D02*
X157909700Y-131709600D01*
X154979100Y-139694300D02*
X157909700Y-136763700D01*
X153535100Y-139694300D02*
X154979100Y-139694300D01*
X152353000Y-140876400D02*
X153535100Y-139694300D01*
X152353000Y-141596300D02*
X152353000Y-140876400D01*
X150389000Y-143560300D02*
X152353000Y-141596300D01*
X145358700Y-143560300D02*
X150389000Y-143560300D01*
X145226000Y-143693000D02*
X145358700Y-143560300D01*
X144424400Y-143693000D02*
X145226000Y-143693000D01*
X143538000Y-144579400D02*
X144424400Y-143693000D01*
X143538000Y-146907500D02*
X143538000Y-144579400D01*
X142138800Y-148306700D02*
X143538000Y-146907500D01*
X142138800Y-148594500D02*
X142138800Y-148306700D01*
X140408300Y-150325000D02*
X142138800Y-148594500D01*
X140336400Y-150325000D02*
X140408300Y-150325000D01*
X136627000Y-154034400D02*
X140336400Y-150325000D01*
X136627000Y-154921000D02*
X136627000Y-154034400D01*
X135724300Y-155823700D02*
X136627000Y-154921000D01*
X135357000Y-155823700D02*
X135724300Y-155823700D01*
X133452000Y-80798600D02*
X133452000Y-81973900D01*
X132861100Y-82564800D02*
X132861100Y-95594800D01*
X133452000Y-81973900D02*
X132861100Y-82564800D01*
X133518200Y-127876200D02*
X133518200Y-96395100D01*
X136664700Y-131022700D02*
X133518200Y-127876200D01*
X136664700Y-149211100D02*
X136664700Y-131022700D01*
X132817000Y-153058800D02*
X136664700Y-149211100D01*
X132817000Y-154459000D02*
X132817000Y-153058800D01*
X96297500Y-96230100D02*
X95837900Y-96230100D01*
X97063200Y-95464400D02*
X96297500Y-96230100D01*
X97063200Y-84072800D02*
X97063200Y-95464400D01*
X96669200Y-83678800D02*
X97063200Y-84072800D01*
X96669200Y-77816300D02*
X96669200Y-83678800D01*
X98384100Y-76101400D02*
X96669200Y-77816300D01*
X130486800Y-76101400D02*
X98384100Y-76101400D01*
X132276700Y-77891300D02*
X130486800Y-76101400D01*
X132276700Y-78258600D02*
X132276700Y-77891300D01*
X95837900Y-97455400D02*
X95837900Y-96230100D01*
X133452000Y-78258600D02*
X132977000Y-78258600D01*
X132977000Y-78258600D02*
X132276700Y-78258600D01*
X132817000Y-156999000D02*
X132817000Y-155823700D01*
X133184400Y-155823700D02*
X132817000Y-155823700D01*
X133992300Y-155015800D02*
X133184400Y-155823700D01*
X133992300Y-152603400D02*
X133992300Y-155015800D01*
X137115100Y-149480600D02*
X133992300Y-152603400D01*
X137115100Y-130035400D02*
X137115100Y-149480600D01*
X134716300Y-127636600D02*
X137115100Y-130035400D01*
X134716300Y-79997900D02*
X134716300Y-127636600D01*
X132977000Y-78258600D02*
X134716300Y-79997900D01*
X72342900Y-127935000D02*
X72342900Y-126709700D01*
X130912000Y-80798600D02*
X130912000Y-81973900D01*
X70842000Y-125668300D02*
X70842000Y-121540400D01*
X71883400Y-126709700D02*
X70842000Y-125668300D01*
X72342900Y-126709700D02*
X71883400Y-126709700D01*
X130912000Y-81973900D02*
X130912000Y-101076900D01*
X130912000Y-78258600D02*
X130912000Y-79433900D01*
X130277000Y-156999000D02*
X130277000Y-155823700D01*
X131372600Y-102083100D02*
X130881300Y-102083100D01*
X131372600Y-129152000D02*
X131372600Y-102083100D01*
X136214300Y-133993700D02*
X131372600Y-129152000D01*
X136214300Y-148337700D02*
X136214300Y-133993700D01*
X131452300Y-153099700D02*
X136214300Y-148337700D01*
X131452300Y-155015800D02*
X131452300Y-153099700D01*
X130644400Y-155823700D02*
X131452300Y-155015800D01*
X130277000Y-155823700D02*
X130644400Y-155823700D01*
X131279300Y-79433900D02*
X130912000Y-79433900D01*
X132087400Y-80242000D02*
X131279300Y-79433900D01*
X132087400Y-101368300D02*
X132087400Y-80242000D01*
X131372600Y-102083100D02*
X132087400Y-101368300D01*
X120603000Y-92375400D02*
X120603000Y-93600700D01*
X127737000Y-154459000D02*
X127737000Y-153283700D01*
X128372000Y-80798600D02*
X128372000Y-81973900D01*
X128372000Y-89510100D02*
X128372000Y-81973900D01*
X123908600Y-93973500D02*
X128372000Y-89510100D01*
X128104300Y-153283700D02*
X127737000Y-153283700D01*
X130718400Y-150669600D02*
X128104300Y-153283700D01*
X130718400Y-133012200D02*
X130718400Y-150669600D01*
X129510900Y-131804700D02*
X130718400Y-133012200D01*
X129510900Y-103194500D02*
X129510900Y-131804700D01*
X121828300Y-95511900D02*
X129510900Y-103194500D01*
X121828300Y-94366400D02*
X121828300Y-95511900D01*
X121062600Y-93600700D02*
X121828300Y-94366400D01*
X120603000Y-93600700D02*
X121062600Y-93600700D01*
X127369600Y-155823700D02*
X127737000Y-155823700D01*
X126561700Y-155015800D02*
X127369600Y-155823700D01*
X126561700Y-148252900D02*
X126561700Y-155015800D01*
X125682900Y-147374100D02*
X126561700Y-148252900D01*
X125682900Y-102535300D02*
X125682900Y-147374100D01*
X120603000Y-97455400D02*
X125682900Y-102535300D01*
X127737000Y-156999000D02*
X127737000Y-155823700D01*
X129563900Y-89442600D02*
X123876600Y-95129900D01*
X129563900Y-80258500D02*
X129563900Y-89442600D01*
X128739300Y-79433900D02*
X129563900Y-80258500D01*
X128372000Y-79433900D02*
X128739300Y-79433900D01*
X128372000Y-78258600D02*
X128372000Y-79433900D01*
X125197000Y-154459000D02*
X124021700Y-154459000D01*
X72342900Y-92375400D02*
X72342900Y-93600700D01*
X71187200Y-129871400D02*
X71187200Y-133817800D01*
X68675900Y-127360100D02*
X71187200Y-129871400D01*
X68675900Y-96808200D02*
X68675900Y-127360100D01*
X71883400Y-93600700D02*
X68675900Y-96808200D01*
X72342900Y-93600700D02*
X71883400Y-93600700D01*
X122144300Y-152214300D02*
X119136000Y-152214300D01*
X124021700Y-154091700D02*
X122144300Y-152214300D01*
X124021700Y-154459000D02*
X124021700Y-154091700D01*
X138356300Y-149265100D02*
X135088000Y-152533400D01*
X140194400Y-149265100D02*
X138356300Y-149265100D01*
X141013100Y-148446400D02*
X140194400Y-149265100D01*
X141013100Y-143575300D02*
X141013100Y-148446400D01*
X142193000Y-142395400D02*
X141013100Y-143575300D01*
X142193000Y-130307100D02*
X142193000Y-142395400D01*
X137821400Y-125935500D02*
X142193000Y-130307100D01*
X136633000Y-125935500D02*
X137821400Y-125935500D01*
X135986600Y-125289100D02*
X136633000Y-125935500D01*
X135986600Y-104296800D02*
X135986600Y-125289100D01*
X142828000Y-97455400D02*
X135986600Y-104296800D01*
X127007300Y-84973100D02*
X127628700Y-85594500D01*
X127007300Y-80241800D02*
X127007300Y-84973100D01*
X126199400Y-79433900D02*
X127007300Y-80241800D01*
X125832000Y-79433900D02*
X126199400Y-79433900D01*
X125832000Y-78258600D02*
X125832000Y-79433900D01*
X95837900Y-107615000D02*
X95837900Y-108840300D01*
X98971200Y-147869700D02*
X98971200Y-148585200D01*
X97546100Y-146444600D02*
X98971200Y-147869700D01*
X96169700Y-146444600D02*
X97546100Y-146444600D01*
X95247200Y-145522100D02*
X96169700Y-146444600D01*
X95247200Y-143153000D02*
X95247200Y-145522100D01*
X96517500Y-141882700D02*
X95247200Y-143153000D01*
X96517500Y-134137500D02*
X96517500Y-141882700D01*
X97518700Y-133136300D02*
X96517500Y-134137500D01*
X97518700Y-110061600D02*
X97518700Y-133136300D01*
X96297400Y-108840300D02*
X97518700Y-110061600D01*
X95837900Y-108840300D02*
X96297400Y-108840300D01*
X123267800Y-81998100D02*
X123267800Y-83301200D01*
X123292000Y-81973900D02*
X123267800Y-81998100D01*
X123292000Y-80798600D02*
X123292000Y-81973900D01*
X95837900Y-107615000D02*
X95837900Y-106389700D01*
X96297400Y-106389700D02*
X95837900Y-106389700D01*
X97753000Y-104934100D02*
X96297400Y-106389700D01*
X97753000Y-99363500D02*
X97753000Y-104934100D01*
X99830700Y-97285800D02*
X97753000Y-99363500D01*
X99830700Y-84250000D02*
X99830700Y-97285800D01*
X87538300Y-118700700D02*
X87247600Y-118410000D01*
X87538300Y-147425500D02*
X87538300Y-118700700D01*
X85969900Y-148993900D02*
X87538300Y-147425500D01*
X85969900Y-150892800D02*
X85969900Y-148993900D01*
X123292000Y-78258600D02*
X122116700Y-78258600D01*
X95837900Y-112695000D02*
X95837900Y-111469700D01*
X95378300Y-111469700D02*
X95837900Y-111469700D01*
X94612600Y-110704000D02*
X95378300Y-111469700D01*
X94612600Y-104563600D02*
X94612600Y-110704000D01*
X95415800Y-103760400D02*
X94612600Y-104563600D01*
X96872600Y-103760400D02*
X95415800Y-103760400D01*
X97063200Y-103569800D02*
X96872600Y-103760400D01*
X97063200Y-99129700D02*
X97063200Y-103569800D01*
X99105400Y-97087500D02*
X97063200Y-99129700D01*
X99105400Y-80424200D02*
X99105400Y-97087500D01*
X99906400Y-79623200D02*
X99105400Y-80424200D01*
X100802700Y-79623200D02*
X99906400Y-79623200D01*
X101702000Y-78723900D02*
X100802700Y-79623200D01*
X101702000Y-77815100D02*
X101702000Y-78723900D01*
X102952500Y-76564600D02*
X101702000Y-77815100D01*
X120790000Y-76564600D02*
X102952500Y-76564600D01*
X122116700Y-77891300D02*
X120790000Y-76564600D01*
X122116700Y-78258600D02*
X122116700Y-77891300D01*
X72342900Y-107615000D02*
X72342900Y-108840300D01*
X73568300Y-128981300D02*
X72445600Y-130104000D01*
X73568300Y-109595500D02*
X73568300Y-128981300D01*
X72813100Y-108840300D02*
X73568300Y-109595500D01*
X72342900Y-108840300D02*
X72813100Y-108840300D01*
X102645800Y-98061900D02*
X102645800Y-83078700D01*
X99398100Y-101309600D02*
X102645800Y-98061900D01*
X87988600Y-149142800D02*
X86893800Y-150237600D01*
X87988600Y-116097400D02*
X87988600Y-149142800D01*
X81253500Y-109362300D02*
X87988600Y-116097400D01*
X101880000Y-96828600D02*
X101880000Y-82342700D01*
X98653700Y-100054900D02*
X101880000Y-96828600D01*
X98653700Y-102840000D02*
X98653700Y-100054900D01*
X98956300Y-103142600D02*
X98653700Y-102840000D01*
X152445600Y-126167300D02*
X154508200Y-126167300D01*
X144053300Y-117775000D02*
X152445600Y-126167300D01*
X117577000Y-154459000D02*
X118752300Y-154459000D01*
X142828000Y-117775000D02*
X144053300Y-117775000D01*
X118212000Y-80798600D02*
X119387300Y-80798600D01*
X125065300Y-86841900D02*
X125065300Y-87339600D01*
X119387300Y-81163900D02*
X125065300Y-86841900D01*
X119387300Y-80798600D02*
X119387300Y-81163900D01*
X122915700Y-158951800D02*
X129862200Y-158951800D01*
X121481600Y-157517700D02*
X122915700Y-158951800D01*
X121481600Y-156699400D02*
X121481600Y-157517700D01*
X120416500Y-155634300D02*
X121481600Y-156699400D01*
X119560200Y-155634300D02*
X120416500Y-155634300D01*
X118752300Y-154826400D02*
X119560200Y-155634300D01*
X118752300Y-154459000D02*
X118752300Y-154826400D01*
X119662000Y-139564800D02*
X118622100Y-139564800D01*
X123143000Y-136083800D02*
X119662000Y-139564800D01*
X123143000Y-134280600D02*
X123143000Y-136083800D01*
X123581600Y-133842000D02*
X123143000Y-134280600D01*
X123581600Y-126041100D02*
X123581600Y-133842000D01*
X117209600Y-155823700D02*
X117577000Y-155823700D01*
X116401700Y-155015800D02*
X117209600Y-155823700D01*
X116401700Y-153898100D02*
X116401700Y-155015800D01*
X118965100Y-151334700D02*
X116401700Y-153898100D01*
X121615300Y-151334700D02*
X118965100Y-151334700D01*
X124384300Y-148565700D02*
X121615300Y-151334700D01*
X124384300Y-144648400D02*
X124384300Y-148565700D01*
X123617000Y-143881100D02*
X124384300Y-144648400D01*
X121839300Y-143881100D02*
X123617000Y-143881100D01*
X121070600Y-144649800D02*
X121839300Y-143881100D01*
X117577000Y-156999000D02*
X117577000Y-155823700D01*
X118288300Y-85514700D02*
X114950400Y-82176800D01*
X118288300Y-86954300D02*
X118288300Y-85514700D01*
X120603000Y-112695000D02*
X120603000Y-113920300D01*
X117974500Y-142311100D02*
X109441700Y-150843900D01*
X117974500Y-139942900D02*
X117974500Y-142311100D01*
X117896800Y-139865200D02*
X117974500Y-139942900D01*
X117896800Y-139264400D02*
X117896800Y-139865200D01*
X120642900Y-136518300D02*
X117896800Y-139264400D01*
X120642900Y-134129100D02*
X120642900Y-136518300D01*
X122750200Y-132021800D02*
X120642900Y-134129100D01*
X122750200Y-115608000D02*
X122750200Y-132021800D01*
X121062500Y-113920300D02*
X122750200Y-115608000D01*
X120603000Y-113920300D02*
X121062500Y-113920300D01*
X115672000Y-78258600D02*
X115672000Y-79433900D01*
X113861700Y-157366400D02*
X113861700Y-156999000D01*
X113053800Y-158174300D02*
X113861700Y-157366400D01*
X106913500Y-158174300D02*
X113053800Y-158174300D01*
X106228300Y-157489100D02*
X106913500Y-158174300D01*
X106228300Y-152569300D02*
X106228300Y-157489100D01*
X115567600Y-143230000D02*
X106228300Y-152569300D01*
X115567600Y-134640000D02*
X115567600Y-143230000D01*
X117024700Y-133182900D02*
X115567600Y-134640000D01*
X117024700Y-127236600D02*
X117024700Y-133182900D01*
X120180900Y-124080400D02*
X117024700Y-127236600D01*
X121637700Y-124080400D02*
X120180900Y-124080400D01*
X121828400Y-123889700D02*
X121637700Y-124080400D01*
X121828400Y-119766200D02*
X121828400Y-123889700D01*
X121062500Y-119000300D02*
X121828400Y-119766200D01*
X120603000Y-119000300D02*
X121062500Y-119000300D01*
X120603000Y-117775000D02*
X120603000Y-119000300D01*
X115037000Y-156999000D02*
X113861700Y-156999000D01*
X123822000Y-90224600D02*
X125084200Y-91486800D01*
X123822000Y-86235600D02*
X123822000Y-90224600D01*
X120706700Y-83120300D02*
X123822000Y-86235600D01*
X118823900Y-83120300D02*
X120706700Y-83120300D01*
X116847300Y-81143700D02*
X118823900Y-83120300D01*
X116847300Y-80241800D02*
X116847300Y-81143700D01*
X116039400Y-79433900D02*
X116847300Y-80241800D01*
X115672000Y-79433900D02*
X116039400Y-79433900D01*
X119333000Y-135555000D02*
X119333000Y-136780300D01*
X116793000Y-139320300D02*
X116793000Y-141270000D01*
X119333000Y-136780300D02*
X116793000Y-139320300D01*
X118063000Y-145080000D02*
X116887700Y-145080000D01*
X109957000Y-154459000D02*
X109957000Y-153283700D01*
X119333000Y-135555000D02*
X119333000Y-134329700D01*
X110592000Y-80798600D02*
X110592000Y-81973900D01*
X109957000Y-152010700D02*
X116887700Y-145080000D01*
X109957000Y-153283700D02*
X109957000Y-152010700D01*
X114018300Y-85400200D02*
X114018300Y-89040900D01*
X110592000Y-81973900D02*
X114018300Y-85400200D01*
X122299800Y-131362900D02*
X119333000Y-134329700D01*
X122299800Y-117211600D02*
X122299800Y-131362900D01*
X121637800Y-116549600D02*
X122299800Y-117211600D01*
X119551200Y-116549600D02*
X121637800Y-116549600D01*
X119188300Y-116912500D02*
X119551200Y-116549600D01*
X119188300Y-117141900D02*
X119188300Y-116912500D01*
X115476600Y-120853600D02*
X119188300Y-117141900D01*
X114430900Y-120853600D02*
X115476600Y-120853600D01*
X113272700Y-119695400D02*
X114430900Y-120853600D01*
X113272700Y-95514300D02*
X113272700Y-119695400D01*
X123822700Y-136780300D02*
X124413000Y-136780300D01*
X119333000Y-141270000D02*
X123822700Y-136780300D01*
X124413000Y-135555000D02*
X124413000Y-136780300D01*
X106782100Y-84140900D02*
X106782100Y-81586700D01*
X118649600Y-96008400D02*
X106782100Y-84140900D01*
X118649600Y-97807400D02*
X118649600Y-96008400D01*
X119523000Y-98680800D02*
X118649600Y-97807400D01*
X121033400Y-98680800D02*
X119523000Y-98680800D01*
X124413000Y-102060400D02*
X121033400Y-98680800D01*
X124413000Y-135555000D02*
X124413000Y-102060400D01*
X111132300Y-156631600D02*
X111132300Y-156999000D01*
X111940200Y-155823700D02*
X111132300Y-156631600D01*
X112797100Y-155823700D02*
X111940200Y-155823700D01*
X113672400Y-154948400D02*
X112797100Y-155823700D01*
X113672400Y-154090500D02*
X113672400Y-154948400D01*
X115760200Y-152002700D02*
X113672400Y-154090500D01*
X115875200Y-152002700D02*
X115760200Y-152002700D01*
X121967700Y-145910200D02*
X115875200Y-152002700D01*
X121967700Y-145080000D02*
X121967700Y-145910200D01*
X123143000Y-145080000D02*
X121967700Y-145080000D01*
X109957000Y-156999000D02*
X111132300Y-156999000D01*
X129493000Y-135555000D02*
X129493000Y-134329700D01*
X128223000Y-138050300D02*
X129493000Y-136780300D01*
X128223000Y-145080000D02*
X128223000Y-138050300D01*
X129493000Y-135555000D02*
X129493000Y-136780300D01*
X108052000Y-84773900D02*
X108052000Y-80798600D01*
X119480000Y-96201900D02*
X108052000Y-84773900D01*
X121660800Y-96201900D02*
X119480000Y-96201900D01*
X126949200Y-101490300D02*
X121660800Y-96201900D01*
X126949200Y-131785900D02*
X126949200Y-101490300D01*
X129493000Y-134329700D02*
X126949200Y-131785900D01*
X108047100Y-153283700D02*
X107417000Y-153283700D01*
X118935500Y-142395300D02*
X108047100Y-153283700D01*
X119903800Y-142395300D02*
X118935500Y-142395300D01*
X120747700Y-141551400D02*
X119903800Y-142395300D01*
X120747700Y-141270000D02*
X120747700Y-141551400D01*
X121873000Y-141270000D02*
X120747700Y-141270000D01*
X107417000Y-154459000D02*
X107417000Y-153283700D01*
X135714700Y-137922000D02*
X134573000Y-136780300D01*
X135714700Y-141786800D02*
X135714700Y-137922000D01*
X133596800Y-143904700D02*
X135714700Y-141786800D01*
X133303000Y-143904700D02*
X133596800Y-143904700D01*
X133303000Y-145080000D02*
X133303000Y-143904700D01*
X134573000Y-136167600D02*
X134573000Y-136780300D01*
X134573000Y-136167600D02*
X134573000Y-135555000D01*
X134573000Y-135555000D02*
X134573000Y-134329700D01*
X124413000Y-141270000D02*
X123287700Y-141270000D01*
X107417000Y-156999000D02*
X108592300Y-156999000D01*
X108052000Y-78258600D02*
X109227300Y-78258600D01*
X108592300Y-156631600D02*
X108592300Y-156999000D01*
X109400200Y-155823700D02*
X108592300Y-156631600D01*
X110276500Y-155823700D02*
X109400200Y-155823700D01*
X111193600Y-154906600D02*
X110276500Y-155823700D01*
X111193600Y-152325900D02*
X111193600Y-154906600D01*
X117074900Y-146444600D02*
X111193600Y-152325900D01*
X118394400Y-146444600D02*
X117074900Y-146444600D01*
X120345300Y-144493700D02*
X118394400Y-146444600D01*
X120345300Y-144349400D02*
X120345300Y-144493700D01*
X120770200Y-143924500D02*
X120345300Y-144349400D01*
X120842300Y-143924500D02*
X120770200Y-143924500D01*
X123287700Y-141479100D02*
X120842300Y-143924500D01*
X123287700Y-141270000D02*
X123287700Y-141479100D01*
X130751500Y-130508200D02*
X134573000Y-134329700D01*
X130751500Y-103030500D02*
X130751500Y-130508200D01*
X123151300Y-95430300D02*
X130751500Y-103030500D01*
X123151300Y-90599000D02*
X123151300Y-95430300D01*
X121073100Y-88520800D02*
X123151300Y-90599000D01*
X118829000Y-88520800D02*
X121073100Y-88520800D01*
X111854800Y-81546600D02*
X118829000Y-88520800D01*
X111854800Y-80331300D02*
X111854800Y-81546600D01*
X110957400Y-79433900D02*
X111854800Y-80331300D01*
X110105100Y-79433900D02*
X110957400Y-79433900D01*
X109227300Y-78556100D02*
X110105100Y-79433900D01*
X109227300Y-78258600D02*
X109227300Y-78556100D01*
X105512000Y-80798600D02*
X105512000Y-81973900D01*
X139653000Y-138050300D02*
X139653000Y-145080000D01*
X140923000Y-136780300D02*
X139653000Y-138050300D01*
X140923000Y-135555000D02*
X140923000Y-136780300D01*
X116483000Y-132680400D02*
X116298400Y-132865000D01*
X116483000Y-124758400D02*
X116483000Y-132680400D01*
X115214600Y-123490000D02*
X116483000Y-124758400D01*
X114531700Y-123490000D02*
X115214600Y-123490000D01*
X105512000Y-114470300D02*
X114531700Y-123490000D01*
X105512000Y-81973900D02*
X105512000Y-114470300D01*
X104877000Y-154459000D02*
X104877000Y-153283700D01*
X112902600Y-145258100D02*
X104877000Y-153283700D01*
X112902600Y-136260800D02*
X112902600Y-145258100D01*
X116298400Y-132865000D02*
X112902600Y-136260800D01*
X129493000Y-141270000D02*
X129493000Y-142395300D01*
X105512000Y-78258600D02*
X105512000Y-79433900D01*
X129493000Y-150845200D02*
X127824600Y-152513600D01*
X129493000Y-142395300D02*
X129493000Y-150845200D01*
X105144700Y-79433900D02*
X105512000Y-79433900D01*
X104303900Y-80274700D02*
X105144700Y-79433900D01*
X104303900Y-82031900D02*
X104303900Y-80274700D01*
X104489200Y-82217200D02*
X104303900Y-82031900D01*
X104489200Y-115987700D02*
X104489200Y-82217200D01*
X114676100Y-126174600D02*
X104489200Y-115987700D01*
X115855900Y-126174600D02*
X114676100Y-126174600D01*
X116032600Y-126351300D02*
X115855900Y-126174600D01*
X116032600Y-131951500D02*
X116032600Y-126351300D01*
X111292600Y-136691500D02*
X116032600Y-131951500D01*
X111292600Y-139584700D02*
X111292600Y-136691500D01*
X111568300Y-139860400D02*
X111292600Y-139584700D01*
X111568300Y-144860400D02*
X111568300Y-139860400D01*
X106913000Y-149515700D02*
X111568300Y-144860400D01*
X105562000Y-149515700D02*
X106913000Y-149515700D01*
X101161600Y-153916100D02*
X105562000Y-149515700D01*
X101161600Y-154948400D02*
X101161600Y-153916100D01*
X101847600Y-155634400D02*
X101161600Y-154948400D01*
X103512400Y-155634400D02*
X101847600Y-155634400D01*
X104877000Y-156999000D02*
X103512400Y-155634400D01*
X102972000Y-80798600D02*
X102972000Y-81973900D01*
X104038900Y-83040800D02*
X102972000Y-81973900D01*
X104038900Y-125619100D02*
X104038900Y-83040800D01*
X110796700Y-132376900D02*
X104038900Y-125619100D01*
X112038800Y-145091400D02*
X112038800Y-137021200D01*
X103512300Y-153617900D02*
X112038800Y-145091400D01*
X103512300Y-154459000D02*
X103512300Y-153617900D01*
X102337000Y-154459000D02*
X103512300Y-154459000D01*
X102337000Y-156999000D02*
X103512300Y-156999000D01*
X134573000Y-140726100D02*
X134563600Y-140716700D01*
X134573000Y-141270000D02*
X134573000Y-140726100D01*
X103512300Y-157366300D02*
X103512300Y-156999000D01*
X105837900Y-159691900D02*
X103512300Y-157366300D01*
X130148300Y-159691900D02*
X105837900Y-159691900D01*
X130612700Y-159227500D02*
X130148300Y-159691900D01*
X130612700Y-158670400D02*
X130612700Y-159227500D01*
X130116700Y-158174400D02*
X130612700Y-158670400D01*
X129757900Y-158174400D02*
X130116700Y-158174400D01*
X129100900Y-157517400D02*
X129757900Y-158174400D01*
X129100900Y-152924000D02*
X129100900Y-157517400D01*
X132127600Y-149897300D02*
X129100900Y-152924000D01*
X132127600Y-143152700D02*
X132127600Y-149897300D01*
X134563600Y-140716700D02*
X132127600Y-143152700D01*
X102972000Y-78258600D02*
X104147300Y-78258600D01*
X133347600Y-139500700D02*
X134563600Y-140716700D01*
X133347600Y-134213600D02*
X133347600Y-139500700D01*
X130015800Y-130881800D02*
X133347600Y-134213600D01*
X130015800Y-102931700D02*
X130015800Y-130881800D01*
X122278700Y-95194600D02*
X130015800Y-102931700D01*
X122278700Y-91778200D02*
X122278700Y-95194600D01*
X121650600Y-91150100D02*
X122278700Y-91778200D01*
X115065100Y-91150100D02*
X121650600Y-91150100D01*
X109227400Y-85312400D02*
X115065100Y-91150100D01*
X109227400Y-80309200D02*
X109227400Y-85312400D01*
X108541400Y-79623200D02*
X109227400Y-80309200D01*
X107681300Y-79623200D02*
X108541400Y-79623200D01*
X106782000Y-78723900D02*
X107681300Y-79623200D01*
X106782000Y-77799900D02*
X106782000Y-78723900D01*
X105997100Y-77015000D02*
X106782000Y-77799900D01*
X105023600Y-77015000D02*
X105997100Y-77015000D01*
X104147300Y-77891300D02*
X105023600Y-77015000D01*
X104147300Y-78258600D02*
X104147300Y-77891300D01*
X100432000Y-80798600D02*
X100432000Y-81973900D01*
X100556000Y-82097900D02*
X100432000Y-81973900D01*
X100556000Y-97515700D02*
X100556000Y-82097900D01*
X98203400Y-99868300D02*
X100556000Y-97515700D01*
X98203400Y-127404000D02*
X98203400Y-99868300D01*
X101553000Y-130753600D02*
X98203400Y-127404000D01*
X101553000Y-142724900D02*
X101553000Y-130753600D01*
X99797000Y-144480900D02*
X101553000Y-142724900D01*
X99797000Y-154459000D02*
X99797000Y-144480900D01*
X93932700Y-151528000D02*
X92177000Y-153283700D01*
X93932700Y-131065500D02*
X93932700Y-151528000D01*
X95837900Y-129160300D02*
X93932700Y-131065500D01*
X95837900Y-127935000D02*
X95837900Y-129160300D01*
X92177000Y-154459000D02*
X92177000Y-153283700D01*
X96297500Y-126709700D02*
X95837900Y-126709700D01*
X97063200Y-125944000D02*
X96297500Y-126709700D01*
X97063200Y-114708000D02*
X97063200Y-125944000D01*
X96275600Y-113920400D02*
X97063200Y-114708000D01*
X94771800Y-113920400D02*
X96275600Y-113920400D01*
X94117000Y-113265600D02*
X94771800Y-113920400D01*
X94117000Y-101838000D02*
X94117000Y-113265600D01*
X93030500Y-100751500D02*
X94117000Y-101838000D01*
X93030500Y-82192400D02*
X93030500Y-100751500D01*
X92812000Y-81973900D02*
X93030500Y-82192400D01*
X92812000Y-80798600D02*
X92812000Y-81973900D01*
X95837900Y-127935000D02*
X95837900Y-126709700D01*
X89637000Y-154459000D02*
X89637000Y-153283700D01*
X88889200Y-152535900D02*
X88889200Y-97342700D01*
X89637000Y-153283700D02*
X88889200Y-152535900D01*
X88461700Y-157366300D02*
X88461700Y-156999000D01*
X85753200Y-160074800D02*
X88461700Y-157366300D01*
X68025900Y-160074800D02*
X85753200Y-160074800D01*
X62984200Y-155033100D02*
X68025900Y-160074800D01*
X62984200Y-80991300D02*
X62984200Y-155033100D01*
X68820300Y-75155200D02*
X62984200Y-80991300D01*
X86360600Y-75155200D02*
X68820300Y-75155200D01*
X89096700Y-77891300D02*
X86360600Y-75155200D01*
X89096700Y-78258600D02*
X89096700Y-77891300D01*
X90272000Y-78258600D02*
X89096700Y-78258600D01*
X89637000Y-156999000D02*
X88461700Y-156999000D01*
X85192000Y-78258600D02*
X84016700Y-78258600D01*
X84557000Y-156999000D02*
X83381700Y-156999000D01*
X120603000Y-102535000D02*
X120603000Y-101309700D01*
X84016700Y-77891300D02*
X84016700Y-78258600D01*
X81778800Y-75653400D02*
X84016700Y-77891300D01*
X68959000Y-75653400D02*
X81778800Y-75653400D01*
X63434600Y-81177800D02*
X68959000Y-75653400D01*
X63434600Y-154793200D02*
X63434600Y-81177800D01*
X68231000Y-159589600D02*
X63434600Y-154793200D01*
X81158400Y-159589600D02*
X68231000Y-159589600D01*
X83381700Y-157366300D02*
X81158400Y-159589600D01*
X83381700Y-156999000D02*
X83381700Y-157366300D01*
X106565500Y-87731800D02*
X106565500Y-85032300D01*
X120143400Y-101309700D02*
X106565500Y-87731800D01*
X120603000Y-101309700D02*
X120143400Y-101309700D01*
X82017000Y-154459000D02*
X83192300Y-154459000D01*
X83192300Y-154091600D02*
X83192300Y-154459000D01*
X85665800Y-151618100D02*
X83192300Y-154091600D01*
X86539100Y-151618100D02*
X85665800Y-151618100D01*
X88438900Y-149718300D02*
X86539100Y-151618100D01*
X88438900Y-98898800D02*
X88438900Y-149718300D01*
X88130600Y-98590500D02*
X88438900Y-98898800D01*
X88130600Y-95262500D02*
X88130600Y-98590500D01*
X89438000Y-93955100D02*
X88130600Y-95262500D01*
X82017000Y-156999000D02*
X80841700Y-156999000D01*
X80497200Y-76103800D02*
X82652000Y-78258600D01*
X69145600Y-76103800D02*
X80497200Y-76103800D01*
X63901200Y-81348200D02*
X69145600Y-76103800D01*
X63901200Y-154622900D02*
X63901200Y-81348200D01*
X68417500Y-159139200D02*
X63901200Y-154622900D01*
X79068800Y-159139200D02*
X68417500Y-159139200D01*
X80841700Y-157366300D02*
X79068800Y-159139200D01*
X80841700Y-156999000D02*
X80841700Y-157366300D01*
X80112000Y-80798600D02*
X80112000Y-81973900D01*
X79477000Y-154459000D02*
X79477000Y-153283700D01*
X143287500Y-113920300D02*
X142828000Y-113920300D01*
X146109700Y-116742500D02*
X143287500Y-113920300D01*
X146109700Y-118727700D02*
X146109700Y-116742500D01*
X142828000Y-112695000D02*
X142828000Y-113920300D01*
X80528200Y-128240700D02*
X82969100Y-130681600D01*
X80528200Y-82390100D02*
X80528200Y-128240700D01*
X80112000Y-81973900D02*
X80528200Y-82390100D01*
X82502900Y-150257800D02*
X79477000Y-153283700D01*
X82502900Y-134290000D02*
X82502900Y-150257800D01*
X82969100Y-133823800D02*
X82502900Y-134290000D01*
X82969100Y-130681600D02*
X82969100Y-133823800D01*
X79477000Y-156999000D02*
X78301700Y-156999000D01*
X95837900Y-117775000D02*
X95837900Y-116549700D01*
X80112000Y-78258600D02*
X81287300Y-78258600D01*
X78418300Y-76564900D02*
X80112000Y-78258600D01*
X69321400Y-76564900D02*
X78418300Y-76564900D01*
X64351600Y-81534700D02*
X69321400Y-76564900D01*
X64351600Y-154403100D02*
X64351600Y-81534700D01*
X68596300Y-158647800D02*
X64351600Y-154403100D01*
X76950500Y-158647800D02*
X68596300Y-158647800D01*
X78301700Y-157296600D02*
X76950500Y-158647800D01*
X78301700Y-156999000D02*
X78301700Y-157296600D01*
X95378400Y-116549700D02*
X95837900Y-116549700D01*
X93622000Y-114793300D02*
X95378400Y-116549700D01*
X93622000Y-102059400D02*
X93622000Y-114793300D01*
X92421200Y-100858600D02*
X93622000Y-102059400D01*
X92421200Y-92357100D02*
X92421200Y-100858600D01*
X83922000Y-83857900D02*
X92421200Y-92357100D01*
X83922000Y-80367600D02*
X83922000Y-83857900D01*
X82988300Y-79433900D02*
X83922000Y-80367600D01*
X82095200Y-79433900D02*
X82988300Y-79433900D01*
X81287300Y-78626000D02*
X82095200Y-79433900D01*
X81287300Y-78258600D02*
X81287300Y-78626000D01*
X95837900Y-122855000D02*
X95837900Y-121629700D01*
X76391900Y-79618500D02*
X76391900Y-77758200D01*
X77572000Y-80798600D02*
X76391900Y-79618500D01*
X75696300Y-77062600D02*
X76391900Y-77758200D01*
X69469600Y-77062600D02*
X75696300Y-77062600D01*
X64813700Y-81718500D02*
X69469600Y-77062600D01*
X64813700Y-154228300D02*
X64813700Y-81718500D01*
X68782800Y-158197400D02*
X64813700Y-154228300D01*
X74910100Y-158197400D02*
X68782800Y-158197400D01*
X75572400Y-157535100D02*
X74910100Y-158197400D01*
X75572400Y-155823600D02*
X75572400Y-157535100D01*
X76937000Y-154459000D02*
X75572400Y-155823600D01*
X95388300Y-121629700D02*
X95837900Y-121629700D01*
X93121000Y-119362400D02*
X95388300Y-121629700D01*
X93121000Y-102726900D02*
X93121000Y-119362400D01*
X91538700Y-101144600D02*
X93121000Y-102726900D01*
X91538700Y-92111500D02*
X91538700Y-101144600D01*
X81382000Y-81954800D02*
X91538700Y-92111500D01*
X81382000Y-80367600D02*
X81382000Y-81954800D01*
X80637600Y-79623200D02*
X81382000Y-80367600D01*
X79812400Y-79623200D02*
X80637600Y-79623200D01*
X78747300Y-78558100D02*
X79812400Y-79623200D01*
X78747300Y-77693300D02*
X78747300Y-78558100D01*
X78074800Y-77020800D02*
X78747300Y-77693300D01*
X77129300Y-77020800D02*
X78074800Y-77020800D01*
X76391900Y-77758200D02*
X77129300Y-77020800D01*
X77572000Y-78258600D02*
X77572000Y-79433900D01*
X76937000Y-156999000D02*
X76937000Y-155823700D01*
X77304400Y-155823700D02*
X76937000Y-155823700D01*
X78112300Y-155015800D02*
X77304400Y-155823700D01*
X78112300Y-144103400D02*
X78112300Y-155015800D01*
X79962900Y-142252800D02*
X78112300Y-144103400D01*
X79962900Y-118990600D02*
X79962900Y-142252800D01*
X78747300Y-117775000D02*
X79962900Y-118990600D01*
X77939400Y-79433900D02*
X77572000Y-79433900D01*
X78747300Y-80241800D02*
X77939400Y-79433900D01*
X78747300Y-117775000D02*
X78747300Y-80241800D01*
X75032000Y-80798600D02*
X75032000Y-121589100D01*
X75032000Y-78258600D02*
X75032000Y-79433900D01*
X74397000Y-156999000D02*
X74397000Y-155823700D01*
X77422900Y-149637200D02*
X77422900Y-129956200D01*
X75761600Y-151298500D02*
X77422900Y-149637200D01*
X75761600Y-154851300D02*
X75761600Y-151298500D01*
X74789200Y-155823700D02*
X75761600Y-154851300D01*
X74397000Y-155823700D02*
X74789200Y-155823700D01*
X76207400Y-128740700D02*
X77422900Y-129956200D01*
X76207400Y-80306400D02*
X76207400Y-128740700D01*
X75334900Y-79433900D02*
X76207400Y-80306400D01*
X75032000Y-79433900D02*
X75334900Y-79433900D01*
X72492000Y-80798600D02*
X72492000Y-81973900D01*
X143549500Y-108840300D02*
X142828000Y-108840300D01*
X146751800Y-112042600D02*
X143549500Y-108840300D01*
X142828000Y-107615000D02*
X142828000Y-108840300D01*
X71857000Y-144581400D02*
X71857000Y-154459000D01*
X69802900Y-142527300D02*
X71857000Y-144581400D01*
X69802900Y-131678400D02*
X69802900Y-142527300D01*
X70074400Y-131406900D02*
X69802900Y-131678400D01*
X68213500Y-86252400D02*
X72492000Y-81973900D01*
X68213500Y-129546000D02*
X68213500Y-86252400D01*
X70074400Y-131406900D02*
X68213500Y-129546000D01*
X72492000Y-78258600D02*
X72492000Y-79433900D01*
X71857000Y-156999000D02*
X71857000Y-155823700D01*
X74063400Y-132930600D02*
X74063400Y-123612800D01*
X72360800Y-134633200D02*
X74063400Y-132930600D01*
X72360800Y-147392000D02*
X72360800Y-134633200D01*
X73072100Y-148103300D02*
X72360800Y-147392000D01*
X73072100Y-154973900D02*
X73072100Y-148103300D01*
X72222300Y-155823700D02*
X73072100Y-154973900D01*
X71857000Y-155823700D02*
X72222300Y-155823700D01*
X72859300Y-79433900D02*
X72492000Y-79433900D01*
X73669400Y-80244000D02*
X72859300Y-79433900D01*
X73669400Y-108517800D02*
X73669400Y-80244000D01*
X74063400Y-108911800D02*
X73669400Y-108517800D01*
X74063400Y-123612800D02*
X74063400Y-108911800D01*
X74063400Y-123612800D02*
X74349700Y-123612800D01*
X69952000Y-80798600D02*
X69952000Y-81973900D01*
X69317000Y-154459000D02*
X69317000Y-153283700D01*
X67303200Y-151269900D02*
X67303200Y-131248600D01*
X69317000Y-153283700D02*
X67303200Y-151269900D01*
X65502500Y-86423400D02*
X69952000Y-81973900D01*
X65502500Y-129447900D02*
X65502500Y-86423400D01*
X67303200Y-131248600D02*
X65502500Y-129447900D01*
X67681400Y-131248600D02*
X68283100Y-130646900D01*
X67303200Y-131248600D02*
X67681400Y-131248600D01*
X106633000Y-147620000D02*
X106633000Y-146444700D01*
X69802900Y-147620000D02*
X69802900Y-148795300D01*
X69317000Y-156999000D02*
X69317000Y-155823700D01*
X110443000Y-141270000D02*
X110443000Y-142395300D01*
X144733000Y-147620000D02*
X145908300Y-147620000D01*
X69682300Y-155823700D02*
X69317000Y-155823700D01*
X70532100Y-154973900D02*
X69682300Y-155823700D01*
X70532100Y-149524500D02*
X70532100Y-154973900D01*
X69802900Y-148795300D02*
X70532100Y-149524500D01*
X145908300Y-147620000D02*
X148637700Y-147620000D01*
X114888000Y-127300000D02*
X114888000Y-128425300D01*
X110443000Y-141270000D02*
X110443000Y-140144700D01*
X107000300Y-146444700D02*
X106633000Y-146444700D01*
X110443000Y-143002000D02*
X107000300Y-146444700D01*
X110443000Y-142395300D02*
X110443000Y-143002000D01*
X158703000Y-141270000D02*
X158703000Y-140144700D01*
X158068000Y-127300000D02*
X158068000Y-128425300D01*
X149225400Y-147620000D02*
X148637700Y-147620000D01*
X149225400Y-147620000D02*
X149813000Y-147620000D01*
X155660900Y-140144700D02*
X158703000Y-140144700D01*
X154904000Y-140901600D02*
X155660900Y-140144700D01*
X154904000Y-141721000D02*
X154904000Y-140901600D01*
X150180300Y-146444700D02*
X154904000Y-141721000D01*
X149813000Y-146444700D02*
X150180300Y-146444700D01*
X149813000Y-147620000D02*
X149813000Y-146444700D01*
X158703000Y-129060300D02*
X158068000Y-128425300D01*
X158703000Y-140144700D02*
X158703000Y-129060300D01*
X66909300Y-126174700D02*
X66627900Y-126174700D01*
X67753200Y-125330800D02*
X66909300Y-126174700D01*
X67753200Y-84809600D02*
X67753200Y-125330800D01*
X71146000Y-81416800D02*
X67753200Y-84809600D01*
X71146000Y-80260600D02*
X71146000Y-81416800D01*
X70319300Y-79433900D02*
X71146000Y-80260600D01*
X69952000Y-79433900D02*
X70319300Y-79433900D01*
X69952000Y-78258600D02*
X69952000Y-79433900D01*
X66627900Y-127300000D02*
X66627900Y-126174700D01*
X114888000Y-129311400D02*
X114888000Y-128425300D01*
X110443000Y-133756400D02*
X114888000Y-129311400D01*
X110443000Y-140144700D02*
X110443000Y-133756400D01*
X69407400Y-97850900D02*
X72342900Y-94915400D01*
X69407400Y-108206200D02*
X69407400Y-97850900D01*
X70411300Y-101926600D02*
X72342900Y-99995000D01*
X70411300Y-109815400D02*
X70411300Y-101926600D01*
X69401300Y-110825400D02*
X70411300Y-109815400D01*
X90122900Y-106980000D02*
X90122900Y-105854700D01*
X90798200Y-105179400D02*
X90798200Y-94154200D01*
X90122900Y-105854700D02*
X90798200Y-105179400D01*
X90122900Y-109520000D02*
X90122900Y-108394700D01*
X91788000Y-107010900D02*
X91788000Y-102458000D01*
X90404200Y-108394700D02*
X91788000Y-107010900D01*
X90122900Y-108394700D02*
X90404200Y-108394700D01*
X121828400Y-101220400D02*
X120603000Y-99995000D01*
X121828400Y-103653100D02*
X121828400Y-101220400D01*
X121721100Y-103760400D02*
X121828400Y-103653100D01*
X120112000Y-103760400D02*
X121721100Y-103760400D01*
X116013300Y-107859100D02*
X120112000Y-103760400D01*
X116013300Y-110090800D02*
X116013300Y-107859100D01*
X115169400Y-110934700D02*
X116013300Y-110090800D01*
X114888000Y-110934700D02*
X115169400Y-110934700D01*
X114888000Y-112060000D02*
X114888000Y-110934700D01*
X119288400Y-106389600D02*
X120603000Y-105075000D01*
X119288400Y-109355600D02*
X119288400Y-106389600D01*
X115169300Y-113474700D02*
X119288400Y-109355600D01*
X114888000Y-113474700D02*
X115169300Y-113474700D01*
X114888000Y-114600000D02*
X114888000Y-113474700D01*
X114888000Y-117140000D02*
X114888000Y-116014700D01*
X117355700Y-113402300D02*
X120603000Y-110155000D01*
X117355700Y-113766300D02*
X117355700Y-113402300D01*
X115107300Y-116014700D02*
X117355700Y-113766300D01*
X114888000Y-116014700D02*
X115107300Y-116014700D01*
X114888000Y-119680000D02*
X116013300Y-119680000D01*
X116013300Y-119441200D02*
X116013300Y-119680000D01*
X120219500Y-115235000D02*
X116013300Y-119441200D01*
X120603000Y-115235000D02*
X120219500Y-115235000D01*
X117918300Y-120315000D02*
X120603000Y-120315000D01*
X116013300Y-122220000D02*
X117918300Y-120315000D01*
X114888000Y-122220000D02*
X116013300Y-122220000D01*
X136194400Y-96469000D02*
X136194400Y-98943200D01*
X142828000Y-89835400D02*
X136194400Y-96469000D01*
X144053400Y-96140800D02*
X142828000Y-94915400D01*
X144053400Y-98575000D02*
X144053400Y-96140800D01*
X143947600Y-98680800D02*
X144053400Y-98575000D01*
X142360700Y-98680800D02*
X143947600Y-98680800D01*
X138238300Y-102803200D02*
X142360700Y-98680800D01*
X138238300Y-107550800D02*
X138238300Y-102803200D01*
X137394400Y-108394700D02*
X138238300Y-107550800D01*
X137113000Y-108394700D02*
X137394400Y-108394700D01*
X137113000Y-109520000D02*
X137113000Y-108394700D01*
X141513400Y-101309600D02*
X142828000Y-99995000D01*
X141513400Y-106815600D02*
X141513400Y-101309600D01*
X137394300Y-110934700D02*
X141513400Y-106815600D01*
X137113000Y-110934700D02*
X137394300Y-110934700D01*
X137113000Y-112060000D02*
X137113000Y-110934700D01*
X137113000Y-124760000D02*
X138238300Y-124760000D01*
X138873300Y-125395000D02*
X142828000Y-125395000D01*
X138238300Y-124760000D02*
X138873300Y-125395000D01*
X156942700Y-98870100D02*
X142828000Y-84755400D01*
X156942700Y-115170800D02*
X156942700Y-98870100D01*
X157786600Y-116014700D02*
X156942700Y-115170800D01*
X158068000Y-116014700D02*
X157786600Y-116014700D01*
X158068000Y-117140000D02*
X158068000Y-116014700D01*
X153174000Y-110132500D02*
X144351100Y-101309600D01*
X153174000Y-111726500D02*
X153174000Y-110132500D01*
X158068000Y-122220000D02*
X158068000Y-121094700D01*
X157786600Y-121094700D02*
X158068000Y-121094700D01*
X156162800Y-119470900D02*
X157786600Y-121094700D01*
X156162800Y-104591700D02*
X156162800Y-119470900D01*
X144796500Y-93225400D02*
X156162800Y-104591700D01*
X105363000Y-137604700D02*
X105363000Y-135555000D01*
X107903000Y-140144700D02*
X105363000Y-137604700D01*
X107903000Y-141270000D02*
X107903000Y-140144700D01*
M02*
