G04 #@! TF.FileFunction,Copper,L1,Top,Signal*
%FSLAX46Y46*%
G04 Gerber Fmt 4.6, Leading zero omitted, Abs format (unit mm)*
G04 Created by KiCad (PCBNEW (2016-09-07 BZR 7135, Git c8cf783)-product) date Wed Feb  8 14:06:02 2017*
%MOMM*%
%LPD*%
G01*
G04 APERTURE LIST*
%ADD10C,0.100000*%
%ADD11R,1.700000X1.700000*%
%ADD12O,1.700000X1.700000*%
%ADD13R,1.800000X1.800000*%
%ADD14C,1.800000*%
%ADD15R,1.600000X1.600000*%
%ADD16O,1.600000X1.600000*%
%ADD17C,0.800000*%
%ADD18C,0.250000*%
G04 APERTURE END LIST*
D10*
D11*
X155677000Y-154459000D03*
D12*
X155677000Y-156999000D03*
X153137000Y-154459000D03*
X153137000Y-156999000D03*
X150597000Y-154459000D03*
X150597000Y-156999000D03*
X148057000Y-154459000D03*
X148057000Y-156999000D03*
X145517000Y-154459000D03*
X145517000Y-156999000D03*
X142977000Y-154459000D03*
X142977000Y-156999000D03*
X140437000Y-154459000D03*
X140437000Y-156999000D03*
X137897000Y-154459000D03*
X137897000Y-156999000D03*
X135357000Y-154459000D03*
X135357000Y-156999000D03*
X132817000Y-154459000D03*
X132817000Y-156999000D03*
X130277000Y-154459000D03*
X130277000Y-156999000D03*
X127737000Y-154459000D03*
X127737000Y-156999000D03*
X125197000Y-154459000D03*
X125197000Y-156999000D03*
X122657000Y-154459000D03*
X122657000Y-156999000D03*
X120117000Y-154459000D03*
X120117000Y-156999000D03*
X117577000Y-154459000D03*
X117577000Y-156999000D03*
X115037000Y-154459000D03*
X115037000Y-156999000D03*
X112497000Y-154459000D03*
X112497000Y-156999000D03*
X109957000Y-154459000D03*
X109957000Y-156999000D03*
X107417000Y-154459000D03*
X107417000Y-156999000D03*
X104877000Y-154459000D03*
X104877000Y-156999000D03*
X102337000Y-154459000D03*
X102337000Y-156999000D03*
X99797000Y-154459000D03*
X99797000Y-156999000D03*
X97257000Y-154459000D03*
X97257000Y-156999000D03*
X94717000Y-154459000D03*
X94717000Y-156999000D03*
X92177000Y-154459000D03*
X92177000Y-156999000D03*
X89637000Y-154459000D03*
X89637000Y-156999000D03*
X87097000Y-154459000D03*
X87097000Y-156999000D03*
X84557000Y-154459000D03*
X84557000Y-156999000D03*
X82017000Y-154459000D03*
X82017000Y-156999000D03*
X79477000Y-154459000D03*
X79477000Y-156999000D03*
X76937000Y-154459000D03*
X76937000Y-156999000D03*
X74397000Y-154459000D03*
X74397000Y-156999000D03*
X71857000Y-154459000D03*
X71857000Y-156999000D03*
X69317000Y-154459000D03*
X69317000Y-156999000D03*
D13*
X72342900Y-92375400D03*
D14*
X72342900Y-89835400D03*
D13*
X72342900Y-97455400D03*
D14*
X72342900Y-94915400D03*
D13*
X72342900Y-102535000D03*
D14*
X72342900Y-99995000D03*
D13*
X72342900Y-107615000D03*
D14*
X72342900Y-105075000D03*
D13*
X72342900Y-112695000D03*
D14*
X72342900Y-110155000D03*
D13*
X72342900Y-117775000D03*
D14*
X72342900Y-115235000D03*
D13*
X72342900Y-122855000D03*
D14*
X72342900Y-120315000D03*
D13*
X72342900Y-127935000D03*
D14*
X72342900Y-125395000D03*
D13*
X95837900Y-92375400D03*
D14*
X95837900Y-89835400D03*
D13*
X95837900Y-97455400D03*
D14*
X95837900Y-94915400D03*
D13*
X95837900Y-102535000D03*
D14*
X95837900Y-99995000D03*
D13*
X95837900Y-107615000D03*
D14*
X95837900Y-105075000D03*
D13*
X95837900Y-112695000D03*
D14*
X95837900Y-110155000D03*
D13*
X95837900Y-117775000D03*
D14*
X95837900Y-115235000D03*
D13*
X95837900Y-122855000D03*
D14*
X95837900Y-120315000D03*
D13*
X95837900Y-127935000D03*
D14*
X95837900Y-125395000D03*
D13*
X120603000Y-92375400D03*
D14*
X120603000Y-89835400D03*
D13*
X120603000Y-97455400D03*
D14*
X120603000Y-94915400D03*
D13*
X120603000Y-102535000D03*
D14*
X120603000Y-99995000D03*
D13*
X120603000Y-107615000D03*
D14*
X120603000Y-105075000D03*
D13*
X120603000Y-112695000D03*
D14*
X120603000Y-110155000D03*
D13*
X120603000Y-117775000D03*
D14*
X120603000Y-115235000D03*
D13*
X120603000Y-122855000D03*
D14*
X120603000Y-120315000D03*
D13*
X120603000Y-127935000D03*
D14*
X120603000Y-125395000D03*
D13*
X142828000Y-92375400D03*
D14*
X142828000Y-89835400D03*
D13*
X142828000Y-97455400D03*
D14*
X142828000Y-94915400D03*
D13*
X142828000Y-102535000D03*
D14*
X142828000Y-99995000D03*
D13*
X142828000Y-107615000D03*
D14*
X142828000Y-105075000D03*
D13*
X142828000Y-112695000D03*
D14*
X142828000Y-110155000D03*
D13*
X142828000Y-117775000D03*
D14*
X142828000Y-115235000D03*
D13*
X142828000Y-122855000D03*
D14*
X142828000Y-120315000D03*
D13*
X142828000Y-127935000D03*
D14*
X142828000Y-125395000D03*
D13*
X142828000Y-87295400D03*
D14*
X142828000Y-84755400D03*
D13*
X120603000Y-87295400D03*
D14*
X120603000Y-84755400D03*
D13*
X95837900Y-87295400D03*
D14*
X95837900Y-84755400D03*
D13*
X72342900Y-87295400D03*
D14*
X72342900Y-84755400D03*
D13*
X119333000Y-135555000D03*
D14*
X116793000Y-135555000D03*
D13*
X124413000Y-135555000D03*
D14*
X121873000Y-135555000D03*
D13*
X129493000Y-135555000D03*
D14*
X126953000Y-135555000D03*
D13*
X134573000Y-135555000D03*
D14*
X132033000Y-135555000D03*
D13*
X140923000Y-135555000D03*
D14*
X138383000Y-135555000D03*
D13*
X146003000Y-135555000D03*
D14*
X143463000Y-135555000D03*
D13*
X151083000Y-135555000D03*
D14*
X148543000Y-135555000D03*
D13*
X156163000Y-135555000D03*
D14*
X153623000Y-135555000D03*
D13*
X71072900Y-135555000D03*
D14*
X68532900Y-135555000D03*
D13*
X76152900Y-135515000D03*
D14*
X73612900Y-135515000D03*
D13*
X81232900Y-135555000D03*
D14*
X78692900Y-135555000D03*
D13*
X86312900Y-135515000D03*
D14*
X83772900Y-135515000D03*
D13*
X92662900Y-135515000D03*
D14*
X90122900Y-135515000D03*
D13*
X97742900Y-135555000D03*
D14*
X95202900Y-135555000D03*
D13*
X102823000Y-135555000D03*
D14*
X100283000Y-135555000D03*
D13*
X107903000Y-135555000D03*
D14*
X105363000Y-135555000D03*
D11*
X154893000Y-147620000D03*
D12*
X154893000Y-145080000D03*
D11*
X106633000Y-147620000D03*
D12*
X106633000Y-145080000D03*
D11*
X149813000Y-147620000D03*
D12*
X149813000Y-145080000D03*
D11*
X101553000Y-147620000D03*
D12*
X101553000Y-145080000D03*
D11*
X144733000Y-147620000D03*
D12*
X144733000Y-145080000D03*
D11*
X96472900Y-147620000D03*
D12*
X96472900Y-145080000D03*
D11*
X139653000Y-147620000D03*
D12*
X139653000Y-145080000D03*
D11*
X91392900Y-147620000D03*
D12*
X91392900Y-145080000D03*
D11*
X133303000Y-147620000D03*
D12*
X133303000Y-145080000D03*
D11*
X85042900Y-147620000D03*
D12*
X85042900Y-145080000D03*
D11*
X128223000Y-147620000D03*
D12*
X128223000Y-145080000D03*
D11*
X79962900Y-147620000D03*
D12*
X79962900Y-145080000D03*
D11*
X123143000Y-147620000D03*
D12*
X123143000Y-145080000D03*
D11*
X74882900Y-147620000D03*
D12*
X74882900Y-145080000D03*
D11*
X118063000Y-147620000D03*
D12*
X118063000Y-145080000D03*
D11*
X69802900Y-147620000D03*
D12*
X69802900Y-145080000D03*
D15*
X66627900Y-127300000D03*
D16*
X66627900Y-124760000D03*
X66627900Y-122220000D03*
X66627900Y-119680000D03*
X66627900Y-117140000D03*
X66627900Y-114600000D03*
X66627900Y-112060000D03*
X66627900Y-109520000D03*
X66627900Y-106980000D03*
D15*
X90122900Y-127300000D03*
D16*
X90122900Y-124760000D03*
X90122900Y-122220000D03*
X90122900Y-119680000D03*
X90122900Y-117140000D03*
X90122900Y-114600000D03*
X90122900Y-112060000D03*
X90122900Y-109520000D03*
X90122900Y-106980000D03*
D15*
X114888000Y-127300000D03*
D16*
X114888000Y-124760000D03*
X114888000Y-122220000D03*
X114888000Y-119680000D03*
X114888000Y-117140000D03*
X114888000Y-114600000D03*
X114888000Y-112060000D03*
X114888000Y-109520000D03*
X114888000Y-106980000D03*
D15*
X137113000Y-127300000D03*
D16*
X137113000Y-124760000D03*
X137113000Y-122220000D03*
X137113000Y-119680000D03*
X137113000Y-117140000D03*
X137113000Y-114600000D03*
X137113000Y-112060000D03*
X137113000Y-109520000D03*
X137113000Y-106980000D03*
D15*
X158068000Y-127300000D03*
D16*
X158068000Y-124760000D03*
X158068000Y-122220000D03*
X158068000Y-119680000D03*
X158068000Y-117140000D03*
X158068000Y-114600000D03*
X158068000Y-112060000D03*
X158068000Y-109520000D03*
X158068000Y-106980000D03*
D15*
X114253000Y-141270000D03*
D16*
X116793000Y-141270000D03*
X119333000Y-141270000D03*
X121873000Y-141270000D03*
X124413000Y-141270000D03*
X126953000Y-141270000D03*
X129493000Y-141270000D03*
X132033000Y-141270000D03*
X134573000Y-141270000D03*
D15*
X65992900Y-141270000D03*
D16*
X68532900Y-141270000D03*
X71072900Y-141270000D03*
X73612900Y-141270000D03*
X76152900Y-141270000D03*
X78692900Y-141270000D03*
X81232900Y-141270000D03*
X83772900Y-141270000D03*
X86312900Y-141270000D03*
D15*
X158703000Y-141270000D03*
D16*
X156163000Y-141270000D03*
X153623000Y-141270000D03*
X151083000Y-141270000D03*
X148543000Y-141270000D03*
X146003000Y-141270000D03*
X143463000Y-141270000D03*
X140923000Y-141270000D03*
X138383000Y-141270000D03*
D15*
X110443000Y-141270000D03*
D16*
X107903000Y-141270000D03*
X105363000Y-141270000D03*
X102823000Y-141270000D03*
X100283000Y-141270000D03*
X97743000Y-141270000D03*
X95203000Y-141270000D03*
X92663000Y-141270000D03*
X90123000Y-141270000D03*
D11*
X156312000Y-80798600D03*
D12*
X156312000Y-78258600D03*
X153772000Y-80798600D03*
X153772000Y-78258600D03*
X151232000Y-80798600D03*
X151232000Y-78258600D03*
X148692000Y-80798600D03*
X148692000Y-78258600D03*
X146152000Y-80798600D03*
X146152000Y-78258600D03*
X143612000Y-80798600D03*
X143612000Y-78258600D03*
X141072000Y-80798600D03*
X141072000Y-78258600D03*
X138532000Y-80798600D03*
X138532000Y-78258600D03*
X135992000Y-80798600D03*
X135992000Y-78258600D03*
X133452000Y-80798600D03*
X133452000Y-78258600D03*
X130912000Y-80798600D03*
X130912000Y-78258600D03*
X128372000Y-80798600D03*
X128372000Y-78258600D03*
X125832000Y-80798600D03*
X125832000Y-78258600D03*
X123292000Y-80798600D03*
X123292000Y-78258600D03*
X120752000Y-80798600D03*
X120752000Y-78258600D03*
X118212000Y-80798600D03*
X118212000Y-78258600D03*
X115672000Y-80798600D03*
X115672000Y-78258600D03*
X113132000Y-80798600D03*
X113132000Y-78258600D03*
X110592000Y-80798600D03*
X110592000Y-78258600D03*
X108052000Y-80798600D03*
X108052000Y-78258600D03*
X105512000Y-80798600D03*
X105512000Y-78258600D03*
X102972000Y-80798600D03*
X102972000Y-78258600D03*
X100432000Y-80798600D03*
X100432000Y-78258600D03*
X97892000Y-80798600D03*
X97892000Y-78258600D03*
X95352000Y-80798600D03*
X95352000Y-78258600D03*
X92812000Y-80798600D03*
X92812000Y-78258600D03*
X90272000Y-80798600D03*
X90272000Y-78258600D03*
X87732000Y-80798600D03*
X87732000Y-78258600D03*
X85192000Y-80798600D03*
X85192000Y-78258600D03*
X82652000Y-80798600D03*
X82652000Y-78258600D03*
X80112000Y-80798600D03*
X80112000Y-78258600D03*
X77572000Y-80798600D03*
X77572000Y-78258600D03*
X75032000Y-80798600D03*
X75032000Y-78258600D03*
X72492000Y-80798600D03*
X72492000Y-78258600D03*
X69952000Y-80798600D03*
X69952000Y-78258600D03*
D17*
X162211300Y-145837900D03*
X82243800Y-132184400D03*
X80887400Y-139563900D03*
X100773800Y-153239400D03*
X145995500Y-82276200D03*
X93080500Y-76794500D03*
X93810300Y-82333600D03*
X132861100Y-95594800D03*
X133518200Y-96395100D03*
X130912000Y-101076900D03*
X70842000Y-121540400D03*
X130881300Y-102083100D03*
X123908600Y-93973500D03*
X123876600Y-95129900D03*
X71187200Y-133817800D03*
X119136000Y-152214300D03*
X135088000Y-152533400D03*
X127628700Y-85594500D03*
X98971200Y-148585200D03*
X123267800Y-83301200D03*
X99830700Y-84250000D03*
X87247600Y-118410000D03*
X85969900Y-150892800D03*
X72445600Y-130104000D03*
X102645800Y-83078700D03*
X99398100Y-101309600D03*
X81253500Y-109362300D03*
X86893800Y-150237600D03*
X101880000Y-82342700D03*
X98956300Y-103142600D03*
X154508200Y-126167300D03*
X129862200Y-158951800D03*
X125065300Y-87339600D03*
X123581600Y-126041100D03*
X118622100Y-139564800D03*
X121070600Y-144649800D03*
X114950400Y-82176800D03*
X118288300Y-86954300D03*
X109441700Y-150843900D03*
X125084200Y-91486800D03*
X114018300Y-89040900D03*
X113272700Y-95514300D03*
X106782100Y-81586700D03*
X116298400Y-132865000D03*
X127824600Y-152513600D03*
X110796700Y-132376900D03*
X112038800Y-137021200D03*
X88889200Y-97342700D03*
X106565500Y-85032300D03*
X89438000Y-93955100D03*
X82969100Y-130681600D03*
X146109700Y-118727700D03*
X78747300Y-117775000D03*
X75032000Y-121589100D03*
X77422900Y-129956200D03*
X70074400Y-131406900D03*
X146751800Y-112042600D03*
X74349700Y-123612800D03*
X68283100Y-130646900D03*
X69407400Y-108206200D03*
X69401300Y-110825400D03*
X90798200Y-94154200D03*
X91788000Y-102458000D03*
X136194400Y-98943200D03*
X153174000Y-111726500D03*
X144351100Y-101309600D03*
X144796500Y-93225400D03*
D18*
X162211300Y-87873200D02*
X162211300Y-145837900D01*
X156312000Y-81973900D02*
X162211300Y-87873200D01*
X156312000Y-80798600D02*
X156312000Y-81973900D01*
X114253000Y-143026200D02*
X114253000Y-141270000D01*
X117671400Y-146444600D02*
X114253000Y-143026200D01*
X146410700Y-146444600D02*
X117671400Y-146444600D01*
X151842300Y-151876200D02*
X146410700Y-146444600D01*
X153094200Y-151876200D02*
X151842300Y-151876200D01*
X155677000Y-154459000D02*
X153094200Y-151876200D01*
X112002400Y-140144700D02*
X113127700Y-141270000D01*
X110176400Y-140144700D02*
X112002400Y-140144700D01*
X106677600Y-136645900D02*
X110176400Y-140144700D01*
X106677600Y-135073300D02*
X106677600Y-136645900D01*
X104524600Y-132920300D02*
X106677600Y-135073300D01*
X68122100Y-132920300D02*
X104524600Y-132920300D01*
X65992900Y-135049500D02*
X68122100Y-132920300D01*
X65992900Y-141270000D02*
X65992900Y-135049500D01*
X114253000Y-141270000D02*
X113127700Y-141270000D01*
X68532900Y-137571100D02*
X68532900Y-141270000D01*
X67276700Y-136314900D02*
X68532900Y-137571100D01*
X67276700Y-135039500D02*
X67276700Y-136314900D01*
X68048000Y-134268200D02*
X67276700Y-135039500D01*
X69020300Y-134268200D02*
X68048000Y-134268200D01*
X69847600Y-135095500D02*
X69020300Y-134268200D01*
X69847600Y-135555000D02*
X69847600Y-135095500D01*
X71072900Y-135555000D02*
X69847600Y-135555000D01*
X155677000Y-156999000D02*
X155677000Y-155823700D01*
X71072900Y-135555000D02*
X72298200Y-135555000D01*
X154868900Y-155823700D02*
X155677000Y-155823700D01*
X154501700Y-155456500D02*
X154868900Y-155823700D01*
X154501700Y-154154300D02*
X154501700Y-155456500D01*
X152674000Y-152326600D02*
X154501700Y-154154300D01*
X151647500Y-152326600D02*
X152674000Y-152326600D01*
X148233300Y-148912400D02*
X151647500Y-152326600D01*
X116003600Y-148912400D02*
X148233300Y-148912400D01*
X109317600Y-142226400D02*
X116003600Y-148912400D01*
X109317600Y-141025100D02*
X109317600Y-142226400D01*
X105346100Y-137053600D02*
X109317600Y-141025100D01*
X105119400Y-137053600D02*
X105346100Y-137053600D01*
X104048400Y-135982600D02*
X105119400Y-137053600D01*
X104048400Y-134509900D02*
X104048400Y-135982600D01*
X102909200Y-133370700D02*
X104048400Y-134509900D01*
X74023000Y-133370700D02*
X102909200Y-133370700D01*
X72298200Y-135095500D02*
X74023000Y-133370700D01*
X72298200Y-135555000D02*
X72298200Y-135095500D01*
X76152900Y-135515000D02*
X77378200Y-135515000D01*
X153137000Y-154459000D02*
X152549400Y-154459000D01*
X152549400Y-154459000D02*
X151961700Y-154459000D01*
X151184800Y-155823600D02*
X152549400Y-154459000D01*
X150071400Y-155823600D02*
X151184800Y-155823600D01*
X149420000Y-156475000D02*
X150071400Y-155823600D01*
X149420000Y-157515900D02*
X149420000Y-156475000D01*
X150983300Y-159079200D02*
X149420000Y-157515900D01*
X156580300Y-159079200D02*
X150983300Y-159079200D01*
X161035700Y-154623800D02*
X156580300Y-159079200D01*
X161035700Y-145350900D02*
X161035700Y-154623800D01*
X161179300Y-145207300D02*
X161035700Y-145350900D01*
X161179300Y-135204700D02*
X161179300Y-145207300D01*
X152401800Y-126427200D02*
X161179300Y-135204700D01*
X152401800Y-111314100D02*
X152401800Y-126427200D01*
X153772000Y-109943900D02*
X152401800Y-111314100D01*
X153772000Y-80798600D02*
X153772000Y-109943900D01*
X151961700Y-154091700D02*
X151961700Y-154459000D01*
X147232800Y-149362800D02*
X151961700Y-154091700D01*
X114380400Y-149362800D02*
X147232800Y-149362800D01*
X106677600Y-141660000D02*
X114380400Y-149362800D01*
X106677600Y-140771100D02*
X106677600Y-141660000D01*
X102731400Y-136824900D02*
X106677600Y-140771100D01*
X101791500Y-136824900D02*
X102731400Y-136824900D01*
X101597600Y-136631000D02*
X101791500Y-136824900D01*
X101597600Y-135074700D02*
X101597600Y-136631000D01*
X100357100Y-133834200D02*
X101597600Y-135074700D01*
X78676100Y-133834200D02*
X100357100Y-133834200D01*
X77378200Y-135132100D02*
X78676100Y-133834200D01*
X77378200Y-135515000D02*
X77378200Y-135132100D01*
X73707600Y-145030000D02*
X71072900Y-142395300D01*
X73707600Y-145080000D02*
X73707600Y-145030000D01*
X74882900Y-145080000D02*
X73707600Y-145080000D01*
X71072900Y-141270000D02*
X71072900Y-142395300D01*
X78266900Y-145080000D02*
X79962900Y-145080000D01*
X74738200Y-141551300D02*
X78266900Y-145080000D01*
X74738200Y-141270000D02*
X74738200Y-141551300D01*
X73612900Y-141270000D02*
X74738200Y-141270000D01*
X153772000Y-78258600D02*
X152596700Y-78258600D01*
X74738200Y-141073000D02*
X74738200Y-141270000D01*
X76247300Y-139563900D02*
X74738200Y-141073000D01*
X80887400Y-139563900D02*
X76247300Y-139563900D01*
X153137000Y-156999000D02*
X154312300Y-156999000D01*
X152596700Y-77891300D02*
X152596700Y-78258600D01*
X151761800Y-77056400D02*
X152596700Y-77891300D01*
X150695400Y-77056400D02*
X151761800Y-77056400D01*
X149998100Y-77753700D02*
X150695400Y-77056400D01*
X149998100Y-129957300D02*
X149998100Y-77753700D01*
X154312300Y-157366400D02*
X154312300Y-156999000D01*
X155120200Y-158174300D02*
X154312300Y-157366400D01*
X156211400Y-158174300D02*
X155120200Y-158174300D01*
X160135100Y-154250600D02*
X156211400Y-158174300D01*
X160135100Y-144977700D02*
X160135100Y-154250600D01*
X160278600Y-144834200D02*
X160135100Y-144977700D01*
X160278600Y-136749700D02*
X160278600Y-144834200D01*
X153486200Y-129957300D02*
X160278600Y-136749700D01*
X149998100Y-129957300D02*
X153486200Y-129957300D01*
X148303800Y-131651600D02*
X149998100Y-129957300D01*
X100708000Y-131651600D02*
X148303800Y-131651600D01*
X100175200Y-132184400D02*
X100708000Y-131651600D01*
X82243800Y-132184400D02*
X100175200Y-132184400D01*
X85042900Y-145080000D02*
X83867600Y-145080000D01*
X76152900Y-141270000D02*
X77278200Y-141270000D01*
X82387900Y-143600300D02*
X83867600Y-145080000D01*
X79327100Y-143600300D02*
X82387900Y-143600300D01*
X77278200Y-141551400D02*
X79327100Y-143600300D01*
X77278200Y-141270000D02*
X77278200Y-141551400D01*
X150597000Y-154459000D02*
X149421700Y-154459000D01*
X86312900Y-135515000D02*
X87538200Y-135515000D01*
X88763500Y-134289700D02*
X87538200Y-135515000D01*
X98818100Y-134289700D02*
X88763500Y-134289700D01*
X99035500Y-134507100D02*
X98818100Y-134289700D01*
X99035500Y-136065800D02*
X99035500Y-134507100D01*
X101265900Y-138296200D02*
X99035500Y-136065800D01*
X101507900Y-138296200D02*
X101265900Y-138296200D01*
X104093000Y-140881300D02*
X101507900Y-138296200D01*
X104093000Y-141642400D02*
X104093000Y-140881300D01*
X105529000Y-143078400D02*
X104093000Y-141642400D01*
X107332100Y-143078400D02*
X105529000Y-143078400D01*
X114066800Y-149813100D02*
X107332100Y-143078400D01*
X145143100Y-149813100D02*
X114066800Y-149813100D01*
X149421700Y-154091700D02*
X145143100Y-149813100D01*
X149421700Y-154459000D02*
X149421700Y-154091700D01*
X151232000Y-78258600D02*
X151232000Y-79433900D01*
X150597000Y-156999000D02*
X151772300Y-156999000D01*
X78692900Y-141270000D02*
X79818200Y-141270000D01*
X91392900Y-145080000D02*
X90217600Y-145080000D01*
X89198700Y-145080000D02*
X90217600Y-145080000D01*
X88023400Y-143904700D02*
X89198700Y-145080000D01*
X83942700Y-143904700D02*
X88023400Y-143904700D01*
X82433300Y-142395300D02*
X83942700Y-143904700D01*
X80750700Y-142395300D02*
X82433300Y-142395300D01*
X79818200Y-141462800D02*
X80750700Y-142395300D01*
X79818200Y-141270000D02*
X79818200Y-141462800D01*
X151772300Y-157366300D02*
X151772300Y-156999000D01*
X153033400Y-158627400D02*
X151772300Y-157366300D01*
X156395200Y-158627400D02*
X153033400Y-158627400D01*
X160585400Y-154437200D02*
X156395200Y-158627400D01*
X160585400Y-145164300D02*
X160585400Y-154437200D01*
X160729000Y-145020700D02*
X160585400Y-145164300D01*
X160729000Y-136563200D02*
X160729000Y-145020700D01*
X151933900Y-127768100D02*
X160729000Y-136563200D01*
X151933900Y-87941600D02*
X151933900Y-127768100D01*
X152418200Y-87457300D02*
X151933900Y-87941600D01*
X152418200Y-80252800D02*
X152418200Y-87457300D01*
X151599300Y-79433900D02*
X152418200Y-80252800D01*
X151232000Y-79433900D02*
X151599300Y-79433900D01*
X96472900Y-145080000D02*
X95297600Y-145080000D01*
X81232900Y-141270000D02*
X82358200Y-141270000D01*
X82358200Y-141476700D02*
X82358200Y-141270000D01*
X84110700Y-143229200D02*
X82358200Y-141476700D01*
X88097200Y-143229200D02*
X84110700Y-143229200D01*
X88716400Y-143848400D02*
X88097200Y-143229200D01*
X94066000Y-143848400D02*
X88716400Y-143848400D01*
X95297600Y-145080000D02*
X94066000Y-143848400D01*
X148057000Y-154459000D02*
X146881700Y-154459000D01*
X96472900Y-145080000D02*
X97648200Y-145080000D01*
X98823500Y-146255300D02*
X97648200Y-145080000D01*
X109231400Y-146255300D02*
X98823500Y-146255300D01*
X113689800Y-150713700D02*
X109231400Y-146255300D01*
X138434400Y-150713700D02*
X113689800Y-150713700D01*
X141707000Y-153986300D02*
X138434400Y-150713700D01*
X141707000Y-154890000D02*
X141707000Y-153986300D01*
X142451400Y-155634400D02*
X141707000Y-154890000D01*
X146073600Y-155634400D02*
X142451400Y-155634400D01*
X146881700Y-154826300D02*
X146073600Y-155634400D01*
X146881700Y-154459000D02*
X146881700Y-154826300D01*
X83772900Y-141270000D02*
X84898200Y-141270000D01*
X101553000Y-145080000D02*
X100377700Y-145080000D01*
X84898200Y-141551300D02*
X84898200Y-141270000D01*
X85900800Y-142553900D02*
X84898200Y-141551300D01*
X88621900Y-142553900D02*
X85900800Y-142553900D01*
X89072100Y-143004100D02*
X88621900Y-142553900D01*
X98301800Y-143004100D02*
X89072100Y-143004100D01*
X100377700Y-145080000D02*
X98301800Y-143004100D01*
X148057000Y-156999000D02*
X146881700Y-156999000D01*
X100982300Y-153447900D02*
X100773800Y-153239400D01*
X100982300Y-157366400D02*
X100982300Y-153447900D01*
X103163700Y-159547800D02*
X100982300Y-157366400D01*
X128240600Y-159547800D02*
X103163700Y-159547800D01*
X128240600Y-159547700D02*
X128240600Y-159547800D01*
X129561800Y-158226500D02*
X128240600Y-159547700D01*
X146021600Y-158226500D02*
X129561800Y-158226500D01*
X146881700Y-157366400D02*
X146021600Y-158226500D01*
X146881700Y-156999000D02*
X146881700Y-157366400D01*
X86312900Y-141270000D02*
X87438200Y-141270000D01*
X106633000Y-145080000D02*
X105457700Y-145080000D01*
X146152000Y-80798600D02*
X146152000Y-81973900D01*
X145995500Y-82130400D02*
X145995500Y-82276200D01*
X146152000Y-81973900D02*
X145995500Y-82130400D01*
X87974900Y-141270000D02*
X87438200Y-141270000D01*
X89258700Y-142553800D02*
X87974900Y-141270000D01*
X102931500Y-142553800D02*
X89258700Y-142553800D01*
X105457700Y-145080000D02*
X102931500Y-142553800D01*
X145517000Y-154459000D02*
X144341700Y-154459000D01*
X106633000Y-145080000D02*
X107808300Y-145080000D01*
X108693000Y-145080000D02*
X107808300Y-145080000D01*
X113876400Y-150263400D02*
X108693000Y-145080000D01*
X140513400Y-150263400D02*
X113876400Y-150263400D01*
X144341700Y-154091700D02*
X140513400Y-150263400D01*
X144341700Y-154459000D02*
X144341700Y-154091700D01*
X94006500Y-77720500D02*
X93080500Y-76794500D01*
X94006500Y-82137400D02*
X94006500Y-77720500D01*
X93810300Y-82333600D02*
X94006500Y-82137400D01*
X135992000Y-80798600D02*
X135698200Y-80798600D01*
X72342900Y-87295400D02*
X72342900Y-86070100D01*
X134333600Y-79434000D02*
X135698200Y-80798600D01*
X132926400Y-79434000D02*
X134333600Y-79434000D01*
X132182000Y-78689600D02*
X132926400Y-79434000D01*
X132182000Y-77844500D02*
X132182000Y-78689600D01*
X129937100Y-75599600D02*
X132182000Y-77844500D01*
X75961800Y-75599600D02*
X129937100Y-75599600D01*
X73840300Y-77721100D02*
X75961800Y-75599600D01*
X73840300Y-85032200D02*
X73840300Y-77721100D01*
X72802400Y-86070100D02*
X73840300Y-85032200D01*
X72342900Y-86070100D02*
X72802400Y-86070100D01*
X120603000Y-87295400D02*
X121828300Y-87295400D01*
X125787000Y-88520700D02*
X132861100Y-95594800D01*
X123053600Y-88520700D02*
X125787000Y-88520700D01*
X121828300Y-87295400D02*
X123053600Y-88520700D01*
X133518200Y-96251900D02*
X133518200Y-96395100D01*
X132861100Y-95594800D02*
X133518200Y-96251900D01*
X130277000Y-154459000D02*
X129101700Y-154459000D01*
X129101700Y-154826400D02*
X129101700Y-154459000D01*
X128293800Y-155634300D02*
X129101700Y-154826400D01*
X127400700Y-155634300D02*
X128293800Y-155634300D01*
X126561600Y-156473400D02*
X127400700Y-155634300D01*
X126561600Y-157306300D02*
X126561600Y-156473400D01*
X124770400Y-159097500D02*
X126561600Y-157306300D01*
X105289600Y-159097500D02*
X124770400Y-159097500D01*
X103607000Y-157414900D02*
X105289600Y-159097500D01*
X103607000Y-153994700D02*
X103607000Y-157414900D01*
X101858300Y-152246000D02*
X103607000Y-153994700D01*
X80375300Y-152246000D02*
X101858300Y-152246000D01*
X78091800Y-149962500D02*
X80375300Y-152246000D01*
X68711500Y-149962500D02*
X78091800Y-149962500D01*
X64394300Y-145645300D02*
X68711500Y-149962500D01*
X64394300Y-133488200D02*
X64394300Y-145645300D01*
X69947500Y-127935000D02*
X64394300Y-133488200D01*
X72342900Y-127935000D02*
X69947500Y-127935000D01*
X131633600Y-101798500D02*
X130912000Y-101076900D01*
X131633600Y-111047100D02*
X131633600Y-101798500D01*
X121136100Y-121544600D02*
X131633600Y-111047100D01*
X116012800Y-121544600D02*
X121136100Y-121544600D01*
X115418200Y-120950000D02*
X116012800Y-121544600D01*
X100498500Y-120950000D02*
X115418200Y-120950000D01*
X98619500Y-119071000D02*
X100498500Y-120950000D01*
X94401200Y-119071000D02*
X98619500Y-119071000D01*
X92621100Y-120851100D02*
X94401200Y-119071000D01*
X74512800Y-120851100D02*
X92621100Y-120851100D01*
X73823500Y-121540400D02*
X74512800Y-120851100D01*
X70842000Y-121540400D02*
X73823500Y-121540400D01*
X95837900Y-92375400D02*
X97063200Y-92375400D01*
X130881300Y-109772600D02*
X130881300Y-102083100D01*
X121653500Y-119000400D02*
X130881300Y-109772600D01*
X119517500Y-119000400D02*
X121653500Y-119000400D01*
X119377600Y-118860500D02*
X119517500Y-119000400D01*
X119377600Y-114952100D02*
X119377600Y-118860500D01*
X115215500Y-110790000D02*
X119377600Y-114952100D01*
X114493300Y-110790000D02*
X115215500Y-110790000D01*
X97063200Y-93359900D02*
X114493300Y-110790000D01*
X97063200Y-92375400D02*
X97063200Y-93359900D01*
X120603000Y-92375400D02*
X121828300Y-92375400D01*
X123426400Y-93973500D02*
X123908600Y-93973500D01*
X121828300Y-92375400D02*
X123426400Y-93973500D01*
X120143400Y-96230100D02*
X120603000Y-96230100D01*
X119377700Y-95464400D02*
X120143400Y-96230100D01*
X119377700Y-94390300D02*
X119377700Y-95464400D01*
X120110300Y-93657700D02*
X119377700Y-94390300D01*
X122404400Y-93657700D02*
X120110300Y-93657700D01*
X123876600Y-95129900D02*
X122404400Y-93657700D01*
X120603000Y-97455400D02*
X120603000Y-96230100D01*
X125832000Y-80798600D02*
X124656700Y-80798600D01*
X72342900Y-92375400D02*
X72342900Y-91150100D01*
X72802400Y-91150100D02*
X72342900Y-91150100D01*
X76365600Y-87586900D02*
X72802400Y-91150100D01*
X76365600Y-77784300D02*
X76365600Y-87586900D01*
X78085700Y-76064200D02*
X76365600Y-77784300D01*
X120307800Y-76064200D02*
X78085700Y-76064200D01*
X122022000Y-77778400D02*
X120307800Y-76064200D01*
X122022000Y-78680500D02*
X122022000Y-77778400D01*
X122964800Y-79623300D02*
X122022000Y-78680500D01*
X123848800Y-79623300D02*
X122964800Y-79623300D01*
X124656700Y-80431200D02*
X123848800Y-79623300D01*
X124656700Y-80798600D02*
X124656700Y-80431200D01*
X67861500Y-133817800D02*
X71187200Y-133817800D01*
X66826300Y-134853000D02*
X67861500Y-133817800D01*
X66826300Y-136741900D02*
X66826300Y-134853000D01*
X67276600Y-137192200D02*
X66826300Y-136741900D01*
X67276600Y-147253800D02*
X67276600Y-137192200D01*
X68818100Y-148795300D02*
X67276600Y-147253800D01*
X68818200Y-148795300D02*
X68818100Y-148795300D01*
X69084700Y-149061800D02*
X68818200Y-148795300D01*
X69084700Y-149061900D02*
X69084700Y-149061800D01*
X98379000Y-149061900D02*
X69084700Y-149061900D01*
X98658000Y-149340900D02*
X98379000Y-149061900D01*
X108485500Y-149340900D02*
X98658000Y-149340900D01*
X108608400Y-149218000D02*
X108485500Y-149340900D01*
X110920300Y-149218000D02*
X108608400Y-149218000D01*
X113822200Y-152119900D02*
X110920300Y-149218000D01*
X119041600Y-152119900D02*
X113822200Y-152119900D01*
X119136000Y-152214300D02*
X119041600Y-152119900D01*
X125197000Y-156999000D02*
X125197000Y-155823700D01*
X125564400Y-155823700D02*
X125197000Y-155823700D01*
X126372300Y-155015800D02*
X125564400Y-155823700D01*
X126372300Y-154159200D02*
X126372300Y-155015800D01*
X127270300Y-153261200D02*
X126372300Y-154159200D01*
X134360200Y-153261200D02*
X127270300Y-153261200D01*
X135088000Y-152533400D02*
X134360200Y-153261200D01*
X139489600Y-97455400D02*
X142828000Y-97455400D01*
X127628700Y-85594500D02*
X139489600Y-97455400D01*
X122657000Y-154459000D02*
X121481700Y-154459000D01*
X99219900Y-148833900D02*
X98971200Y-148585200D01*
X108355600Y-148833900D02*
X99219900Y-148833900D01*
X108421800Y-148767700D02*
X108355600Y-148833900D01*
X111106900Y-148767700D02*
X108421800Y-148767700D01*
X113783700Y-151444500D02*
X111106900Y-148767700D01*
X119392000Y-151444500D02*
X113783700Y-151444500D01*
X121481700Y-153534200D02*
X119392000Y-151444500D01*
X121481700Y-154459000D02*
X121481700Y-153534200D01*
X99936900Y-84356200D02*
X99830700Y-84250000D01*
X103349500Y-84356200D02*
X99936900Y-84356200D01*
X103437800Y-84267900D02*
X103349500Y-84356200D01*
X117951200Y-84267900D02*
X103437800Y-84267900D01*
X119212200Y-83006900D02*
X117951200Y-84267900D01*
X122973500Y-83006900D02*
X119212200Y-83006900D01*
X123267800Y-83301200D02*
X122973500Y-83006900D01*
X122657000Y-156999000D02*
X121481700Y-156999000D01*
X95837900Y-112695000D02*
X95837900Y-113920300D01*
X121481700Y-157312900D02*
X121481700Y-156999000D01*
X120597700Y-158196900D02*
X121481700Y-157312900D01*
X111977000Y-158196900D02*
X120597700Y-158196900D01*
X111227000Y-157446900D02*
X111977000Y-158196900D01*
X111227000Y-156518800D02*
X111227000Y-157446900D01*
X110455100Y-155746900D02*
X111227000Y-156518800D01*
X109543900Y-155746900D02*
X110455100Y-155746900D01*
X108781600Y-154984600D02*
X109543900Y-155746900D01*
X108781600Y-154077700D02*
X108781600Y-154984600D01*
X107371400Y-152667500D02*
X108781600Y-154077700D01*
X105010400Y-152667500D02*
X107371400Y-152667500D01*
X103305800Y-150962900D02*
X105010400Y-152667500D01*
X86040000Y-150962900D02*
X103305800Y-150962900D01*
X85969900Y-150892800D02*
X86040000Y-150962900D01*
X90518400Y-118410000D02*
X87247600Y-118410000D01*
X95008100Y-113920300D02*
X90518400Y-118410000D01*
X95837900Y-113920300D02*
X95008100Y-113920300D01*
X120117000Y-154459000D02*
X118941700Y-154459000D01*
X120752000Y-80798600D02*
X119576700Y-80798600D01*
X72342900Y-107615000D02*
X73568200Y-107615000D01*
X76376300Y-104806900D02*
X73568200Y-107615000D01*
X90675500Y-104806900D02*
X76376300Y-104806900D01*
X94172800Y-101309600D02*
X90675500Y-104806900D01*
X99398100Y-101309600D02*
X94172800Y-101309600D01*
X118941700Y-154091700D02*
X118941700Y-154459000D01*
X117420300Y-152570300D02*
X118941700Y-154091700D01*
X113635700Y-152570300D02*
X117420300Y-152570300D01*
X110733700Y-149668300D02*
X113635700Y-152570300D01*
X108795000Y-149668300D02*
X110733700Y-149668300D01*
X108672100Y-149791200D02*
X108795000Y-149668300D01*
X98471400Y-149791200D02*
X108672100Y-149791200D01*
X98192400Y-149512200D02*
X98471400Y-149791200D01*
X68898100Y-149512200D02*
X98192400Y-149512200D01*
X68634400Y-149248500D02*
X68898100Y-149512200D01*
X68634400Y-149248400D02*
X68634400Y-149248500D01*
X68634300Y-149248400D02*
X68634400Y-149248400D01*
X64867500Y-145481600D02*
X68634300Y-149248400D01*
X64867500Y-135500200D02*
X64867500Y-145481600D01*
X70263700Y-130104000D02*
X64867500Y-135500200D01*
X72445600Y-130104000D02*
X70263700Y-130104000D01*
X102768500Y-82956000D02*
X102645800Y-83078700D01*
X117786700Y-82956000D02*
X102768500Y-82956000D01*
X119576700Y-81166000D02*
X117786700Y-82956000D01*
X119576700Y-80798600D02*
X119576700Y-81166000D01*
X76900900Y-109362300D02*
X73568200Y-112695000D01*
X81253500Y-109362300D02*
X76900900Y-109362300D01*
X72342900Y-112695000D02*
X73568200Y-112695000D01*
X120117000Y-156999000D02*
X118941700Y-156999000D01*
X85358500Y-105257300D02*
X81253500Y-109362300D01*
X92110500Y-105257300D02*
X85358500Y-105257300D01*
X93607400Y-103760400D02*
X92110500Y-105257300D01*
X98338500Y-103760400D02*
X93607400Y-103760400D01*
X98956300Y-103142600D02*
X98338500Y-103760400D01*
X119550700Y-77057300D02*
X120752000Y-78258600D01*
X117742700Y-77057300D02*
X119550700Y-77057300D01*
X116847400Y-77952600D02*
X117742700Y-77057300D01*
X116847400Y-78784200D02*
X116847400Y-77952600D01*
X116008400Y-79623200D02*
X116847400Y-78784200D01*
X115146400Y-79623200D02*
X116008400Y-79623200D01*
X114402000Y-80367600D02*
X115146400Y-79623200D01*
X114402000Y-81206300D02*
X114402000Y-80367600D01*
X113265600Y-82342700D02*
X114402000Y-81206300D01*
X101880000Y-82342700D02*
X113265600Y-82342700D01*
X86897700Y-150241500D02*
X86893800Y-150237600D01*
X108858700Y-150241500D02*
X86897700Y-150241500D01*
X108981600Y-150118600D02*
X108858700Y-150241500D01*
X110547100Y-150118600D02*
X108981600Y-150118600D01*
X113449100Y-153020600D02*
X110547100Y-150118600D01*
X115345400Y-153020600D02*
X113449100Y-153020600D01*
X116401600Y-154076800D02*
X115345400Y-153020600D01*
X116401600Y-154984600D02*
X116401600Y-154076800D01*
X117240700Y-155823700D02*
X116401600Y-154984600D01*
X118133800Y-155823700D02*
X117240700Y-155823700D01*
X118941700Y-156631600D02*
X118133800Y-155823700D01*
X118941700Y-156999000D02*
X118941700Y-156631600D01*
X142828000Y-117775000D02*
X142828000Y-116549700D01*
X143259400Y-116549700D02*
X142828000Y-116549700D01*
X144058000Y-115751100D02*
X143259400Y-116549700D01*
X144058000Y-111610800D02*
X144058000Y-115751100D01*
X143832200Y-111385000D02*
X144058000Y-111610800D01*
X142251700Y-111385000D02*
X143832200Y-111385000D01*
X141602600Y-110735900D02*
X142251700Y-111385000D01*
X141602600Y-106524200D02*
X141602600Y-110735900D01*
X141737200Y-106389600D02*
X141602600Y-106524200D01*
X143303900Y-106389600D02*
X141737200Y-106389600D01*
X144057800Y-105635700D02*
X143303900Y-106389600D01*
X144057800Y-104514300D02*
X144057800Y-105635700D01*
X143303900Y-103760400D02*
X144057800Y-104514300D01*
X141730000Y-103760400D02*
X143303900Y-103760400D01*
X141072900Y-103103300D02*
X141730000Y-103760400D01*
X141072900Y-102743500D02*
X141072900Y-103103300D01*
X125669000Y-87339600D02*
X141072900Y-102743500D01*
X125065300Y-87339600D02*
X125669000Y-87339600D01*
X130440000Y-159529600D02*
X129862200Y-158951800D01*
X156802700Y-159529600D02*
X130440000Y-159529600D01*
X161486000Y-154846300D02*
X156802700Y-159529600D01*
X161486000Y-145537500D02*
X161486000Y-154846300D01*
X161629600Y-145393900D02*
X161486000Y-145537500D01*
X161629600Y-133288700D02*
X161629600Y-145393900D01*
X154508200Y-126167300D02*
X161629600Y-133288700D01*
X118212000Y-78258600D02*
X119387300Y-78258600D01*
X119387300Y-78626000D02*
X119387300Y-78258600D01*
X120195200Y-79433900D02*
X119387300Y-78626000D01*
X121081500Y-79433900D02*
X120195200Y-79433900D01*
X122022000Y-80374400D02*
X121081500Y-79433900D01*
X122022000Y-81228700D02*
X122022000Y-80374400D01*
X122793200Y-81999900D02*
X122022000Y-81228700D01*
X131864000Y-81999900D02*
X122793200Y-81999900D01*
X141014100Y-91150000D02*
X131864000Y-81999900D01*
X143934000Y-91150000D02*
X141014100Y-91150000D01*
X145089100Y-92305100D02*
X143934000Y-91150000D01*
X145089100Y-92492300D02*
X145089100Y-92305100D01*
X145089200Y-92492300D02*
X145089100Y-92492300D01*
X145521800Y-92924900D02*
X145089200Y-92492300D01*
X145521800Y-93525900D02*
X145521800Y-92924900D01*
X145089100Y-93958600D02*
X145521800Y-93525900D01*
X145089100Y-119828100D02*
X145089100Y-93958600D01*
X143287500Y-121629700D02*
X145089100Y-119828100D01*
X142828000Y-121629700D02*
X143287500Y-121629700D01*
X142828000Y-122650000D02*
X142828000Y-121629700D01*
X142828000Y-122650000D02*
X142828000Y-122670400D01*
X142828000Y-122855000D02*
X142828000Y-122808800D01*
X142828000Y-122808800D02*
X142828000Y-122670400D01*
X139595700Y-126041100D02*
X123581600Y-126041100D01*
X142828000Y-122808800D02*
X139595700Y-126041100D01*
X118175400Y-141754600D02*
X121070600Y-144649800D01*
X118175400Y-140011500D02*
X118175400Y-141754600D01*
X118622100Y-139564800D02*
X118175400Y-140011500D01*
X120603000Y-112695000D02*
X120603000Y-111469700D01*
X115672000Y-80798600D02*
X115672000Y-81973900D01*
X115153300Y-81973900D02*
X114950400Y-82176800D01*
X115672000Y-81973900D02*
X115153300Y-81973900D01*
X118288300Y-87248000D02*
X118288300Y-86954300D01*
X119561100Y-88520800D02*
X118288300Y-87248000D01*
X121063800Y-88520800D02*
X119561100Y-88520800D01*
X124633900Y-92090900D02*
X121063800Y-88520800D01*
X124633900Y-107898300D02*
X124633900Y-92090900D01*
X121062500Y-111469700D02*
X124633900Y-107898300D01*
X120603000Y-111469700D02*
X121062500Y-111469700D01*
X115037000Y-154459000D02*
X113861700Y-154459000D01*
X113861700Y-154161400D02*
X113861700Y-154459000D01*
X110544200Y-150843900D02*
X113861700Y-154161400D01*
X109441700Y-150843900D02*
X110544200Y-150843900D01*
X120603000Y-117775000D02*
X120603000Y-116549700D01*
X125084200Y-112528000D02*
X125084200Y-91486800D01*
X121062500Y-116549700D02*
X125084200Y-112528000D01*
X120603000Y-116549700D02*
X121062500Y-116549700D01*
X116793000Y-142634700D02*
X118063000Y-143904700D01*
X116793000Y-141270000D02*
X116793000Y-142634700D01*
X118063000Y-145080000D02*
X118063000Y-143904700D01*
X114018300Y-94768700D02*
X113272700Y-95514300D01*
X114018300Y-89040900D02*
X114018300Y-94768700D01*
X110592000Y-78258600D02*
X109416700Y-78258600D01*
X106782100Y-80381900D02*
X106782100Y-81586700D01*
X107730100Y-79433900D02*
X106782100Y-80381900D01*
X108608800Y-79433900D02*
X107730100Y-79433900D01*
X109416700Y-78626000D02*
X108608800Y-79433900D01*
X109416700Y-78258600D02*
X109416700Y-78626000D01*
X122811700Y-143904700D02*
X123143000Y-143904700D01*
X120458300Y-141551300D02*
X122811700Y-143904700D01*
X120458300Y-141270000D02*
X120458300Y-141551300D01*
X119333000Y-141270000D02*
X120458300Y-141270000D01*
X123143000Y-145080000D02*
X123143000Y-143904700D01*
X126527000Y-145080000D02*
X128223000Y-145080000D01*
X122998300Y-141551300D02*
X126527000Y-145080000D01*
X122998300Y-141270000D02*
X122998300Y-141551300D01*
X121873000Y-141270000D02*
X122998300Y-141270000D01*
X133303000Y-145080000D02*
X132127700Y-145080000D01*
X130952400Y-143904700D02*
X132127700Y-145080000D01*
X127610400Y-143904700D02*
X130952400Y-143904700D01*
X124975700Y-141270000D02*
X127610400Y-143904700D01*
X124694400Y-141270000D02*
X124975700Y-141270000D01*
X124413000Y-141270000D02*
X124694400Y-141270000D01*
X126953000Y-141270000D02*
X125827700Y-141270000D01*
X140923000Y-135555000D02*
X139697700Y-135555000D01*
X116811700Y-133378300D02*
X116811700Y-133803300D01*
X116298400Y-132865000D02*
X116811700Y-133378300D01*
X139697700Y-135095500D02*
X139697700Y-135555000D01*
X138405500Y-133803300D02*
X139697700Y-135095500D01*
X116811700Y-133803300D02*
X138405500Y-133803300D01*
X115552300Y-135062700D02*
X116811700Y-133803300D01*
X115552300Y-136107000D02*
X115552300Y-135062700D01*
X118284800Y-138839500D02*
X115552300Y-136107000D01*
X118922600Y-138839500D02*
X118284800Y-138839500D01*
X119899100Y-139816000D02*
X118922600Y-138839500D01*
X124655000Y-139816000D02*
X119899100Y-139816000D01*
X125827700Y-140988700D02*
X124655000Y-139816000D01*
X125827700Y-141270000D02*
X125827700Y-140988700D01*
X130618300Y-141551300D02*
X130618300Y-141270000D01*
X132971700Y-143904700D02*
X130618300Y-141551300D01*
X142382400Y-143904700D02*
X132971700Y-143904700D01*
X143557700Y-145080000D02*
X142382400Y-143904700D01*
X144733000Y-145080000D02*
X143557700Y-145080000D01*
X129493000Y-141270000D02*
X130618300Y-141270000D01*
X146003000Y-135555000D02*
X146003000Y-136780300D01*
X104877000Y-156999000D02*
X106052300Y-156999000D01*
X149677400Y-140454700D02*
X146003000Y-136780300D01*
X149677400Y-141744700D02*
X149677400Y-140454700D01*
X148998600Y-142423500D02*
X149677400Y-141744700D01*
X137699200Y-142423500D02*
X148998600Y-142423500D01*
X135378600Y-140102900D02*
X137699200Y-142423500D01*
X131574900Y-140102900D02*
X135378600Y-140102900D01*
X130618300Y-141059500D02*
X131574900Y-140102900D01*
X130618300Y-141270000D02*
X130618300Y-141059500D01*
X125425500Y-152513600D02*
X127824600Y-152513600D01*
X123927000Y-154012100D02*
X125425500Y-152513600D01*
X123927000Y-157405900D02*
X123927000Y-154012100D01*
X122685700Y-158647200D02*
X123927000Y-157405900D01*
X107333200Y-158647200D02*
X122685700Y-158647200D01*
X106052300Y-157366300D02*
X107333200Y-158647200D01*
X106052300Y-156999000D02*
X106052300Y-157366300D01*
X132033000Y-141270000D02*
X133158300Y-141270000D01*
X146985900Y-143428200D02*
X148637700Y-145080000D01*
X135035200Y-143428200D02*
X146985900Y-143428200D01*
X133158300Y-141551300D02*
X135035200Y-143428200D01*
X133158300Y-141270000D02*
X133158300Y-141551300D01*
X149813000Y-145080000D02*
X148637700Y-145080000D01*
X151083000Y-135555000D02*
X149857700Y-135555000D01*
X149813000Y-145080000D02*
X150988300Y-145080000D01*
X152163600Y-146255300D02*
X150988300Y-145080000D01*
X155777800Y-146255300D02*
X152163600Y-146255300D01*
X159828300Y-142204800D02*
X155777800Y-146255300D01*
X159828300Y-136936300D02*
X159828300Y-142204800D01*
X157164700Y-134272700D02*
X159828300Y-136936300D01*
X149857700Y-134272700D02*
X157164700Y-134272700D01*
X147687800Y-132102800D02*
X149857700Y-134272700D01*
X112206100Y-132102800D02*
X147687800Y-132102800D01*
X111852500Y-132456400D02*
X112206100Y-132102800D01*
X149857700Y-134272700D02*
X149857700Y-135555000D01*
X111773000Y-132376900D02*
X110796700Y-132376900D01*
X111852500Y-132456400D02*
X111773000Y-132376900D01*
X111852500Y-136834900D02*
X112038800Y-137021200D01*
X111852500Y-132456400D02*
X111852500Y-136834900D01*
X151511500Y-142873800D02*
X153717700Y-145080000D01*
X137302100Y-142873800D02*
X151511500Y-142873800D01*
X135698300Y-141270000D02*
X137302100Y-142873800D01*
X134573000Y-141270000D02*
X135698300Y-141270000D01*
X154747500Y-145080000D02*
X153717700Y-145080000D01*
X154747500Y-145080000D02*
X154827300Y-145080000D01*
X154893000Y-145080000D02*
X154827300Y-145080000D01*
X157308000Y-137925300D02*
X156163000Y-136780300D01*
X157308000Y-142599300D02*
X157308000Y-137925300D01*
X154827300Y-145080000D02*
X157308000Y-142599300D01*
X156163000Y-135555000D02*
X156163000Y-136780300D01*
X91001700Y-156631600D02*
X91001700Y-156999000D01*
X90193800Y-155823700D02*
X91001700Y-156631600D01*
X71453300Y-155823700D02*
X90193800Y-155823700D01*
X70681600Y-155052000D02*
X71453300Y-155823700D01*
X70681600Y-153923400D02*
X70681600Y-155052000D01*
X63493600Y-146735400D02*
X70681600Y-153923400D01*
X63493600Y-111011300D02*
X63493600Y-146735400D01*
X66254900Y-108250000D02*
X63493600Y-111011300D01*
X67027300Y-108250000D02*
X66254900Y-108250000D01*
X71517000Y-103760300D02*
X67027300Y-108250000D01*
X72342900Y-103760300D02*
X71517000Y-103760300D01*
X72342900Y-102535000D02*
X72342900Y-103760300D01*
X92177000Y-156999000D02*
X91001700Y-156999000D01*
X71883300Y-101309700D02*
X72342900Y-101309700D01*
X71117600Y-100544000D02*
X71883300Y-101309700D01*
X71117600Y-94326700D02*
X71117600Y-100544000D01*
X71843500Y-93600800D02*
X71117600Y-94326700D01*
X73377600Y-93600800D02*
X71843500Y-93600800D01*
X78842000Y-88136400D02*
X73377600Y-93600800D01*
X78842000Y-77866300D02*
X78842000Y-88136400D01*
X80193700Y-76514600D02*
X78842000Y-77866300D01*
X90260000Y-76514600D02*
X80193700Y-76514600D01*
X91636700Y-77891300D02*
X90260000Y-76514600D01*
X91636700Y-78258600D02*
X91636700Y-77891300D01*
X92812000Y-78258600D02*
X91636700Y-78258600D01*
X72342900Y-102535000D02*
X72342900Y-101309700D01*
X90272000Y-80798600D02*
X89096700Y-80798600D01*
X72342900Y-97455400D02*
X72342900Y-96230100D01*
X86417500Y-97342700D02*
X88889200Y-97342700D01*
X81382000Y-92307200D02*
X86417500Y-97342700D01*
X81382000Y-77861100D02*
X81382000Y-92307200D01*
X82226900Y-77016200D02*
X81382000Y-77861100D01*
X85699600Y-77016200D02*
X82226900Y-77016200D01*
X86462000Y-77778600D02*
X85699600Y-77016200D01*
X86462000Y-78672800D02*
X86462000Y-77778600D01*
X87412500Y-79623300D02*
X86462000Y-78672800D01*
X88288800Y-79623300D02*
X87412500Y-79623300D01*
X89096700Y-80431200D02*
X88288800Y-79623300D01*
X89096700Y-80798600D02*
X89096700Y-80431200D01*
X77459100Y-96230100D02*
X72342900Y-96230100D01*
X81382000Y-92307200D02*
X77459100Y-96230100D01*
X90272000Y-78258600D02*
X90272000Y-79433900D01*
X142828000Y-92375400D02*
X141602700Y-92375400D01*
X90639400Y-79433900D02*
X90272000Y-79433900D01*
X91447300Y-80241800D02*
X90639400Y-79433900D01*
X91447300Y-81126300D02*
X91447300Y-80241800D01*
X93400700Y-83079700D02*
X91447300Y-81126300D01*
X101375600Y-83079700D02*
X93400700Y-83079700D01*
X102119900Y-83824000D02*
X101375600Y-83079700D01*
X102926600Y-83824000D02*
X102119900Y-83824000D01*
X103344300Y-83406300D02*
X102926600Y-83824000D01*
X118175900Y-83406300D02*
X103344300Y-83406300D01*
X119025700Y-82556500D02*
X118175900Y-83406300D01*
X131147000Y-82556500D02*
X119025700Y-82556500D01*
X140965900Y-92375400D02*
X131147000Y-82556500D01*
X141602700Y-92375400D02*
X140965900Y-92375400D01*
X85192000Y-78258600D02*
X85192000Y-79433900D01*
X99333600Y-85032300D02*
X106565500Y-85032300D01*
X97831300Y-83530000D02*
X99333600Y-85032300D01*
X88782200Y-83530000D02*
X97831300Y-83530000D01*
X86367300Y-81115100D02*
X88782200Y-83530000D01*
X86367300Y-80241800D02*
X86367300Y-81115100D01*
X85559400Y-79433900D02*
X86367300Y-80241800D01*
X85192000Y-79433900D02*
X85559400Y-79433900D01*
X120603000Y-107615000D02*
X119377700Y-107615000D01*
X82652000Y-87169100D02*
X89438000Y-93955100D01*
X82652000Y-80798600D02*
X82652000Y-87169100D01*
X118822100Y-108170600D02*
X119377700Y-107615000D01*
X113902900Y-108170600D02*
X118822100Y-108170600D01*
X96882300Y-91150000D02*
X113902900Y-108170600D01*
X94764800Y-91150000D02*
X96882300Y-91150000D01*
X94483900Y-91430900D02*
X94764800Y-91150000D01*
X94483900Y-91539600D02*
X94483900Y-91430900D01*
X91143600Y-94879900D02*
X94483900Y-91539600D01*
X90362800Y-94879900D02*
X91143600Y-94879900D01*
X89438000Y-93955100D02*
X90362800Y-94879900D01*
X82652000Y-78258600D02*
X82652000Y-79433900D01*
X142828000Y-102535000D02*
X141602700Y-102535000D01*
X125093200Y-86025500D02*
X141602700Y-102535000D01*
X109405000Y-86025500D02*
X125093200Y-86025500D01*
X109184300Y-86246200D02*
X109405000Y-86025500D01*
X99273700Y-86246200D02*
X109184300Y-86246200D01*
X99097600Y-86070100D02*
X99273700Y-86246200D01*
X88747000Y-86070100D02*
X99097600Y-86070100D01*
X83827300Y-81150400D02*
X88747000Y-86070100D01*
X83827300Y-80241800D02*
X83827300Y-81150400D01*
X83019400Y-79433900D02*
X83827300Y-80241800D01*
X82652000Y-79433900D02*
X83019400Y-79433900D01*
X146109700Y-126957400D02*
X146109700Y-118727700D01*
X142385500Y-130681600D02*
X146109700Y-126957400D01*
X82969100Y-130681600D02*
X142385500Y-130681600D01*
X72342900Y-117775000D02*
X73568200Y-117775000D01*
X73568200Y-117775000D02*
X78747300Y-117775000D01*
X72342900Y-122855000D02*
X71117600Y-122855000D01*
X74397000Y-154459000D02*
X73221700Y-154459000D01*
X72342900Y-122855000D02*
X73568200Y-122855000D01*
X73221700Y-154068600D02*
X73221700Y-154459000D01*
X69578500Y-150425400D02*
X73221700Y-154068600D01*
X68537500Y-150425400D02*
X69578500Y-150425400D01*
X63944000Y-145831900D02*
X68537500Y-150425400D01*
X63944000Y-125784400D02*
X63944000Y-145831900D01*
X66238400Y-123490000D02*
X63944000Y-125784400D01*
X70482600Y-123490000D02*
X66238400Y-123490000D01*
X71117600Y-122855000D02*
X70482600Y-123490000D01*
X74834100Y-121589100D02*
X75032000Y-121589100D01*
X73568200Y-122855000D02*
X74834100Y-121589100D01*
X142828000Y-127935000D02*
X141602700Y-127935000D01*
X139581500Y-129956200D02*
X77422900Y-129956200D01*
X141602700Y-127935000D02*
X139581500Y-129956200D01*
X146835000Y-112125800D02*
X146751800Y-112042600D01*
X146835000Y-126869000D02*
X146835000Y-112125800D01*
X142502800Y-131201200D02*
X146835000Y-126869000D01*
X99948800Y-131201200D02*
X142502800Y-131201200D01*
X99743100Y-131406900D02*
X99948800Y-131201200D01*
X70074400Y-131406900D02*
X99743100Y-131406900D01*
X120603000Y-122855000D02*
X119377700Y-122855000D01*
X90780700Y-123612800D02*
X74349700Y-123612800D01*
X91248300Y-124080400D02*
X90780700Y-123612800D01*
X105230100Y-124080400D02*
X91248300Y-124080400D01*
X105820500Y-123490000D02*
X105230100Y-124080400D01*
X118742700Y-123490000D02*
X105820500Y-123490000D01*
X119377700Y-122855000D02*
X118742700Y-123490000D01*
X120603000Y-127935000D02*
X119377700Y-127935000D01*
X69769600Y-129160400D02*
X68283100Y-130646900D01*
X118152300Y-129160400D02*
X69769600Y-129160400D01*
X119377700Y-127935000D02*
X118152300Y-129160400D01*
X69802900Y-147620000D02*
X74882900Y-147620000D01*
X79962900Y-147620000D02*
X85042900Y-147620000D01*
X85042900Y-147620000D02*
X91392900Y-147620000D01*
X128223000Y-147620000D02*
X127047700Y-147620000D01*
X123143000Y-147620000D02*
X124318300Y-147620000D01*
X128223000Y-147620000D02*
X129398300Y-147620000D01*
X123143000Y-147620000D02*
X118063000Y-147620000D01*
X144733000Y-147620000D02*
X143557700Y-147620000D01*
X132127700Y-147620000D02*
X129398300Y-147620000D01*
X114888000Y-127300000D02*
X116013300Y-127300000D01*
X137113000Y-127300000D02*
X135987700Y-127300000D01*
X143557700Y-147620000D02*
X140828300Y-147620000D01*
X139653000Y-147620000D02*
X140828300Y-147620000D01*
X132715400Y-147620000D02*
X132127700Y-147620000D01*
X139653000Y-147620000D02*
X138477700Y-147620000D01*
X78787600Y-147620000D02*
X76058200Y-147620000D01*
X79962900Y-147620000D02*
X78787600Y-147620000D01*
X74882900Y-147620000D02*
X76058200Y-147620000D01*
X106633000Y-147620000D02*
X105457700Y-147620000D01*
X101553000Y-147620000D02*
X102728300Y-147620000D01*
X150988300Y-147620000D02*
X153717700Y-147620000D01*
X149813000Y-147620000D02*
X150988300Y-147620000D01*
X154893000Y-147620000D02*
X153717700Y-147620000D01*
X105457700Y-147620000D02*
X102728300Y-147620000D01*
X132715400Y-147620000D02*
X133303000Y-147620000D01*
X133303000Y-147620000D02*
X138477700Y-147620000D01*
X113172300Y-126709600D02*
X113762700Y-127300000D01*
X91838600Y-126709600D02*
X113172300Y-126709600D01*
X91248200Y-127300000D02*
X91838600Y-126709600D01*
X90122900Y-127300000D02*
X91248200Y-127300000D01*
X114888000Y-127300000D02*
X113762700Y-127300000D01*
X91392900Y-147620000D02*
X92568200Y-147620000D01*
X96472900Y-147620000D02*
X92568200Y-147620000D01*
X127047700Y-147620000D02*
X124318300Y-147620000D01*
X88407200Y-126709600D02*
X88997600Y-127300000D01*
X68343600Y-126709600D02*
X88407200Y-126709600D01*
X67753200Y-127300000D02*
X68343600Y-126709600D01*
X66627900Y-127300000D02*
X67753200Y-127300000D01*
X90122900Y-127300000D02*
X88997600Y-127300000D01*
X101553000Y-147620000D02*
X100377700Y-147620000D01*
X96472900Y-147620000D02*
X97648200Y-147620000D01*
X100377700Y-147620000D02*
X97648200Y-147620000D01*
X123814800Y-127300000D02*
X135987700Y-127300000D01*
X123224400Y-126709600D02*
X123814800Y-127300000D01*
X116603700Y-126709600D02*
X123224400Y-126709600D01*
X116013300Y-127300000D02*
X116603700Y-126709600D01*
X116887700Y-146589400D02*
X116887700Y-147620000D01*
X111568300Y-141270000D02*
X116887700Y-146589400D01*
X110443000Y-141270000D02*
X111568300Y-141270000D01*
X118063000Y-147620000D02*
X116887700Y-147620000D01*
X66627900Y-95550400D02*
X72342900Y-89835400D01*
X66627900Y-106980000D02*
X66627900Y-95550400D01*
X69067000Y-108206200D02*
X69407400Y-108206200D01*
X67753200Y-109520000D02*
X69067000Y-108206200D01*
X66627900Y-109520000D02*
X67753200Y-109520000D01*
X68987800Y-110825400D02*
X69401300Y-110825400D01*
X67753200Y-112060000D02*
X68987800Y-110825400D01*
X66627900Y-112060000D02*
X67753200Y-112060000D01*
X71028300Y-106389600D02*
X72342900Y-105075000D01*
X71028300Y-110278700D02*
X71028300Y-106389600D01*
X67753200Y-113553800D02*
X71028300Y-110278700D01*
X67753200Y-114600000D02*
X67753200Y-113553800D01*
X66627900Y-114600000D02*
X67753200Y-114600000D01*
X68203600Y-114294300D02*
X72342900Y-110155000D01*
X68203600Y-114861000D02*
X68203600Y-114294300D01*
X67049900Y-116014700D02*
X68203600Y-114861000D01*
X66627900Y-116014700D02*
X67049900Y-116014700D01*
X66627900Y-117140000D02*
X66627900Y-116014700D01*
X72198200Y-115235000D02*
X72342900Y-115235000D01*
X67753200Y-119680000D02*
X72198200Y-115235000D01*
X66627900Y-119680000D02*
X67753200Y-119680000D01*
X69658200Y-120315000D02*
X72342900Y-120315000D01*
X67753200Y-122220000D02*
X69658200Y-120315000D01*
X66627900Y-122220000D02*
X67753200Y-122220000D01*
X66627900Y-124760000D02*
X67753200Y-124760000D01*
X71707900Y-124760000D02*
X67753200Y-124760000D01*
X72342900Y-125395000D02*
X71707900Y-124760000D01*
X95117000Y-89835400D02*
X90798200Y-94154200D01*
X95837900Y-89835400D02*
X95117000Y-89835400D01*
X91788000Y-98965300D02*
X95837900Y-94915400D01*
X91788000Y-102458000D02*
X91788000Y-98965300D01*
X90122900Y-112060000D02*
X90122900Y-110934700D01*
X99109300Y-99995000D02*
X95837900Y-99995000D01*
X100123400Y-101009100D02*
X99109300Y-99995000D01*
X100123400Y-103001300D02*
X100123400Y-101009100D01*
X96735100Y-106389600D02*
X100123400Y-103001300D01*
X94732200Y-106389600D02*
X96735100Y-106389600D01*
X91248200Y-109873600D02*
X94732200Y-106389600D01*
X91248200Y-110006400D02*
X91248200Y-109873600D01*
X90319900Y-110934700D02*
X91248200Y-110006400D01*
X90122900Y-110934700D02*
X90319900Y-110934700D01*
X93727600Y-105075000D02*
X95837900Y-105075000D01*
X90552600Y-108250000D02*
X93727600Y-105075000D01*
X89791900Y-108250000D02*
X90552600Y-108250000D01*
X88989700Y-109052200D02*
X89791900Y-108250000D01*
X88989700Y-112622800D02*
X88989700Y-109052200D01*
X89841600Y-113474700D02*
X88989700Y-112622800D01*
X90122900Y-113474700D02*
X89841600Y-113474700D01*
X90122900Y-114600000D02*
X90122900Y-113474700D01*
X91248200Y-114744700D02*
X95837900Y-110155000D01*
X91248200Y-115170800D02*
X91248200Y-114744700D01*
X90404300Y-116014700D02*
X91248200Y-115170800D01*
X90122900Y-116014700D02*
X90404300Y-116014700D01*
X90122900Y-117140000D02*
X90122900Y-116014700D01*
X95693200Y-115235000D02*
X95837900Y-115235000D01*
X91248200Y-119680000D02*
X95693200Y-115235000D01*
X90122900Y-119680000D02*
X91248200Y-119680000D01*
X93932900Y-122220000D02*
X95837900Y-120315000D01*
X90122900Y-122220000D02*
X93932900Y-122220000D01*
X91883200Y-125395000D02*
X95837900Y-125395000D01*
X91248200Y-124760000D02*
X91883200Y-125395000D01*
X90122900Y-124760000D02*
X91248200Y-124760000D01*
X120217800Y-89835400D02*
X120603000Y-89835400D01*
X114888000Y-95165200D02*
X120217800Y-89835400D01*
X114888000Y-105854700D02*
X114888000Y-95165200D01*
X114888000Y-106980000D02*
X114888000Y-105854700D01*
X121828400Y-96140800D02*
X120603000Y-94915400D01*
X121828400Y-108651500D02*
X121828400Y-96140800D01*
X121587900Y-108892000D02*
X121828400Y-108651500D01*
X116641300Y-108892000D02*
X121587900Y-108892000D01*
X116013300Y-109520000D02*
X116641300Y-108892000D01*
X114888000Y-109520000D02*
X116013300Y-109520000D01*
X114888000Y-124760000D02*
X116013300Y-124760000D01*
X116648300Y-125395000D02*
X120603000Y-125395000D01*
X116013300Y-124760000D02*
X116648300Y-125395000D01*
X137113000Y-106980000D02*
X137113000Y-105854700D01*
X137113000Y-99861800D02*
X137113000Y-105854700D01*
X136194400Y-98943200D02*
X137113000Y-99861800D01*
X142386000Y-105075000D02*
X142828000Y-105075000D01*
X138238300Y-109222700D02*
X142386000Y-105075000D01*
X138238300Y-112630800D02*
X138238300Y-109222700D01*
X137394400Y-113474700D02*
X138238300Y-112630800D01*
X137113000Y-113474700D02*
X137394400Y-113474700D01*
X137113000Y-114600000D02*
X137113000Y-113474700D01*
X137113000Y-117140000D02*
X138238300Y-117140000D01*
X143278300Y-110155000D02*
X142828000Y-110155000D01*
X144508300Y-111385000D02*
X143278300Y-110155000D01*
X144508300Y-118375700D02*
X144508300Y-111385000D01*
X143883600Y-119000400D02*
X144508300Y-118375700D01*
X140098700Y-119000400D02*
X143883600Y-119000400D01*
X138238300Y-117140000D02*
X140098700Y-119000400D01*
X142193000Y-115870000D02*
X142828000Y-115235000D01*
X136735400Y-115870000D02*
X142193000Y-115870000D01*
X135942400Y-116663000D02*
X136735400Y-115870000D01*
X135942400Y-117665400D02*
X135942400Y-116663000D01*
X136831700Y-118554700D02*
X135942400Y-117665400D01*
X137113000Y-118554700D02*
X136831700Y-118554700D01*
X137113000Y-119680000D02*
X137113000Y-118554700D01*
X140143300Y-120315000D02*
X142828000Y-120315000D01*
X138238300Y-122220000D02*
X140143300Y-120315000D01*
X137113000Y-122220000D02*
X138238300Y-122220000D01*
X153174000Y-113942000D02*
X153174000Y-111726500D01*
X157786700Y-118554700D02*
X153174000Y-113942000D01*
X158068000Y-118554700D02*
X157786700Y-118554700D01*
X158068000Y-119680000D02*
X158068000Y-118554700D01*
X142155300Y-101309600D02*
X144351100Y-101309600D01*
X125616800Y-84771100D02*
X142155300Y-101309600D01*
X120618700Y-84771100D02*
X125616800Y-84771100D01*
X120603000Y-84755400D02*
X120618700Y-84771100D01*
X98419800Y-84755400D02*
X95837900Y-84755400D01*
X99447100Y-85782700D02*
X98419800Y-84755400D01*
X108786000Y-85782700D02*
X99447100Y-85782700D01*
X109036300Y-85532400D02*
X108786000Y-85782700D01*
X117960500Y-85532400D02*
X109036300Y-85532400D01*
X119985800Y-83507100D02*
X117960500Y-85532400D01*
X122448000Y-83507100D02*
X119985800Y-83507100D01*
X123261600Y-84320700D02*
X122448000Y-83507100D01*
X128523100Y-84320700D02*
X123261600Y-84320700D01*
X137805400Y-93603000D02*
X128523100Y-84320700D01*
X144418900Y-93603000D02*
X137805400Y-93603000D01*
X144796500Y-93225400D02*
X144418900Y-93603000D01*
X158068000Y-124760000D02*
X158068000Y-123634700D01*
X158349300Y-123634700D02*
X158068000Y-123634700D01*
X159226500Y-122757500D02*
X158349300Y-123634700D01*
X159226500Y-88801500D02*
X159226500Y-122757500D01*
X155042000Y-84617000D02*
X159226500Y-88801500D01*
X155042000Y-77790100D02*
X155042000Y-84617000D01*
X152396500Y-75144600D02*
X155042000Y-77790100D01*
X73885600Y-75144600D02*
X152396500Y-75144600D01*
X71292100Y-77738100D02*
X73885600Y-75144600D01*
X71292100Y-83704600D02*
X71292100Y-77738100D01*
X72342900Y-84755400D02*
X71292100Y-83704600D01*
X138383000Y-141270000D02*
X137257700Y-141270000D01*
X135353400Y-139365700D02*
X137257700Y-141270000D01*
X120603700Y-139365700D02*
X135353400Y-139365700D01*
X116793000Y-135555000D02*
X120603700Y-139365700D01*
X140923000Y-141270000D02*
X139797700Y-141270000D01*
X125233400Y-138915400D02*
X121873000Y-135555000D01*
X137621400Y-138915400D02*
X125233400Y-138915400D01*
X139797700Y-141091700D02*
X137621400Y-138915400D01*
X139797700Y-141270000D02*
X139797700Y-141091700D01*
X143463000Y-141270000D02*
X142337700Y-141270000D01*
X129699700Y-138301700D02*
X126953000Y-135555000D01*
X139650700Y-138301700D02*
X129699700Y-138301700D01*
X142337700Y-140988700D02*
X139650700Y-138301700D01*
X142337700Y-141270000D02*
X142337700Y-140988700D01*
X146003000Y-141270000D02*
X144877700Y-141270000D01*
X134329400Y-137851400D02*
X132033000Y-135555000D01*
X141671400Y-137851400D02*
X134329400Y-137851400D01*
X144877700Y-141057700D02*
X141671400Y-137851400D01*
X144877700Y-141270000D02*
X144877700Y-141057700D01*
X148543000Y-141270000D02*
X147417700Y-141270000D01*
X147417700Y-140988700D02*
X147417700Y-141270000D01*
X143734100Y-137305100D02*
X147417700Y-140988700D01*
X140133100Y-137305100D02*
X143734100Y-137305100D01*
X138383000Y-135555000D02*
X140133100Y-137305100D01*
X144688400Y-134329600D02*
X143463000Y-135555000D01*
X147089300Y-134329600D02*
X144688400Y-134329600D01*
X147228400Y-134468700D02*
X147089300Y-134329600D01*
X147228400Y-136290100D02*
X147228400Y-134468700D01*
X151083000Y-140144700D02*
X147228400Y-136290100D01*
X151083000Y-141270000D02*
X151083000Y-140144700D01*
X153623000Y-141270000D02*
X153623000Y-140144700D01*
X153132700Y-140144700D02*
X148543000Y-135555000D01*
X153623000Y-140144700D02*
X153132700Y-140144700D01*
X156163000Y-138095000D02*
X153623000Y-135555000D01*
X156163000Y-141270000D02*
X156163000Y-138095000D01*
X71735400Y-138757500D02*
X68532900Y-135555000D01*
X86485200Y-138757500D02*
X71735400Y-138757500D01*
X88997700Y-141270000D02*
X86485200Y-138757500D01*
X90123000Y-141270000D02*
X88997700Y-141270000D01*
X92663000Y-141270000D02*
X91537700Y-141270000D01*
X91537700Y-140988700D02*
X91537700Y-141270000D01*
X88498200Y-137949200D02*
X91537700Y-140988700D01*
X76047100Y-137949200D02*
X88498200Y-137949200D01*
X73612900Y-135515000D02*
X76047100Y-137949200D01*
X80636700Y-137498800D02*
X78692900Y-135555000D01*
X90508300Y-137498800D02*
X80636700Y-137498800D01*
X94077700Y-141068200D02*
X90508300Y-137498800D01*
X94077700Y-141270000D02*
X94077700Y-141068200D01*
X95203000Y-141270000D02*
X94077700Y-141270000D01*
X97743000Y-141270000D02*
X96617700Y-141270000D01*
X85080900Y-136823000D02*
X83772900Y-135515000D01*
X90469400Y-136823000D02*
X85080900Y-136823000D01*
X93179200Y-139532800D02*
X90469400Y-136823000D01*
X95135000Y-139532800D02*
X93179200Y-139532800D01*
X96617700Y-141015500D02*
X95135000Y-139532800D01*
X96617700Y-141270000D02*
X96617700Y-141015500D01*
X100283000Y-141270000D02*
X99157700Y-141270000D01*
X92808200Y-138200300D02*
X90122900Y-135515000D01*
X96312000Y-138200300D02*
X92808200Y-138200300D01*
X99157700Y-141046000D02*
X96312000Y-138200300D01*
X99157700Y-141270000D02*
X99157700Y-141046000D01*
X99792600Y-140144700D02*
X95202900Y-135555000D01*
X100853800Y-140144700D02*
X99792600Y-140144700D01*
X101697700Y-140988600D02*
X100853800Y-140144700D01*
X101697700Y-141270000D02*
X101697700Y-140988600D01*
X102823000Y-141270000D02*
X101697700Y-141270000D01*
X105363000Y-141270000D02*
X105363000Y-140144700D01*
X104460800Y-140144700D02*
X105363000Y-140144700D01*
X100283000Y-135966900D02*
X104460800Y-140144700D01*
X100283000Y-135555000D02*
X100283000Y-135966900D01*
M02*
